<?xml version="1.0" encoding="UTF-8" standalone="no"?>
<!DOCTYPE svg PUBLIC "-//W3C//DTD SVG 1.1//EN" "http://www.w3.org/Graphics/SVG/1.1/DTD/svg11.dtd">
<svg xmlns="http://www.w3.org/2000/svg" xmlns:xlink="http://www.w3.org/1999/xlink" version="1.1" width="661.2301pt" height="393.79899pt" viewBox="0 0 661.2301 393.79899">
<g enable-background="new">
<g id="Layer-1" data-name="P">
</g>
<g id="Layer-1" data-name="P">
</g>
<g id="Layer-1" data-name="P">
</g>
<text xml:space="preserve" transform="matrix(1 0 -0 1 -71.2659 542.938)" font-size="7.02" font-family="TimesNewRomanPSMT"><tspan y="-525.24" x="78.18 82.08031 86.341449 91.381809 96.062038 100.32317 114.17856 118.07817 121.61836 123.95813 129.30036 132.42075 134.39617 136.37581 138.11676 142.797 147.05814 152.0985 157.13886 158.8798 162.77942 167.04056 172.1406 176.82083 181.08197 182.82292 184.56388 187.68357 191.22376 193.2034 196.32379 198.66356 200.34343 203.1037 205.02367 208.14336 210.48313 212.46347 214.14334 217.68354 220.74356 222.7232 225.8436 227.58455 231.06647 234.18616 236.52593 239.64632 241.38727 243.12822 247.38936 252.42972 257.4701 259.21107 263.11067 267.3718 272.41218 277.0924 281.39497">START Format: READ START  enter start data here  END START </tspan><tspan y="-517.2021" x="114.17154 118.431278 121.96935 125.089748 126.8307 130.36879 133.4288 135.76857 138.88896 142.36878 144.28874 146.26839 148.00936 151.54744 154.60746 156.52742 160.0655 163.1852 164.92617 168.46425 170.80402 172.4839 175.18379 177.16344 180.28313 182.56322 184.54286 186.28383 188.26348 191.68363 195.22171 198.3414 200.08237 202.00234 204.7612 206.50217 209.62256 212.74225 215.02234 218.56043 220.30139 222.0549 225.95452 229.0749 232.1946 233.87659 236.63545 239.75514 242.81516 244.7948 246.71477 250.19458 253.73267 255.47364 259.37397 261.3536 264.474 266.75413 268.73377 270.47474 275.5151 278.6348 280.55479 283.67448 285.41474 287.1557">The default value of start type is zero. See section Start Data.  </tspan></text>
<g id="Layer-1" data-name="P">
<clipPath id="cp0">
<path transform="matrix(1,0,0,-1,-71.2659,542.938)" d="M 111.12 507.66 L 727.38 507.66 L 727.38 538.98 L 111.12 538.98 Z "/>
</clipPath>
<g clip-path="url(#cp0)">
<text xml:space="preserve" transform="matrix(1 0 -0 1 -71.2659 542.938)" font-size="7.02" font-family="TimesNewRomanPSMT"><tspan y="-509.16" x="114.18"> </tspan></text>
</g>
<g id="Layer-1" data-name="Artifact">
</g>
<path transform="matrix(1,0,0,-1,-71.2659,542.938)" d="M 75.12 539.04 L 111.12 539.04 L 111.12 540 L 75.12 540 Z "/>
<path transform="matrix(1,0,0,-1,-71.2659,542.938)" d="M 111.12 539.04 L 112.079 539.04 L 112.079 540 L 111.12 540 Z "/>
<path transform="matrix(1,0,0,-1,-71.2659,542.938)" d="M 112.08 539.04 L 727.38 539.04 L 727.38 540 L 112.08 540 Z "/>
</g>
<g id="Layer-1" data-name="P">
</g>
<g id="Layer-1" data-name="P">
</g>
<text xml:space="preserve" transform="matrix(1 0 -0 1 -71.2659 542.938)" font-size="7.02" font-family="TimesNewRomanPSMT"><tspan y="-492.9" x="78.18 114.17856 118.07816 122.3393 127.37966 132.05989 136.32103"> START </tspan></text>
<g id="Layer-1" data-name="P">
<clipPath id="cp1">
<path transform="matrix(1,0,0,-1,-71.2659,542.938)" d="M 111.12 483.36 L 145.98001 483.36 L 145.98001 506.63899 L 111.12 506.63899 Z "/>
</clipPath>
<g clip-path="url(#cp1)">
<text xml:space="preserve" transform="matrix(1 0 -0 1 -71.2659 542.938)" font-size="7.02" font-family="TimesNewRomanPSMT"><tspan y="-484.86" x="114.18 118.44114 123.4815 127.3811">TYPE</tspan></text>
</g>
<clipPath id="cp2">
<path transform="matrix(1,0,0,-1,-71.2659,542.938)" d="M 111.12 483.36 L 145.98001 483.36 L 145.98001 506.63899 L 111.12 506.63899 Z "/>
</clipPath>
<g clip-path="url(#cp2)">
<text xml:space="preserve" transform="matrix(1 0 -0 1 -71.2659 542.938)" font-size="7.02" font-family="TimesNewRomanPSMT"><tspan y="-484.86" x="131.7"> </tspan></text>
</g>
</g>
<g id="Layer-1" data-name="P">
</g>
<text xml:space="preserve" transform="matrix(1 0 -0 1 -71.2659 542.938)" font-size="7.02" font-family="TimesNewRomanPSMT"><tspan y="-492.9" x="149.1 153.78025 158.04138 163.08174 168.1221 170.46187 175.1421 179.40325 184.50186">REQUIRED </tspan></text>
<g id="Layer-1" data-name="P">
<clipPath id="cp3">
<path transform="matrix(1,0,0,-1,-71.2659,542.938)" d="M 145.98 483.36 L 193.2 483.36 L 193.2 506.63899 L 145.98 506.63899 Z "/>
</clipPath>
<g clip-path="url(#cp3)">
<text xml:space="preserve" transform="matrix(1 0 -0 1 -71.2659 542.938)" font-size="7.02" font-family="TimesNewRomanPSMT"><tspan y="-484.86" x="149.1 154.14037 159.18073 163.44187">DATA</tspan></text>
</g>
<clipPath id="cp4">
<path transform="matrix(1,0,0,-1,-71.2659,542.938)" d="M 145.98 483.36 L 193.2 483.36 L 193.2 506.63899 L 145.98 506.63899 Z "/>
</clipPath>
<g clip-path="url(#cp4)">
<text xml:space="preserve" transform="matrix(1 0 -0 1 -71.2659 542.938)" font-size="7.02" font-family="TimesNewRomanPSMT"><tspan y="-484.86" x="168.54"> </tspan></text>
</g>
</g>
<g id="Layer-1" data-name="P">
</g>
<text xml:space="preserve" transform="matrix(1 0 -0 1 -71.2659 542.938)" font-size="7.02" font-family="TimesNewRomanPSMT"><tspan y="-492.9" x="196.32 201.36037 205.25998 209.52112 211.86159 216.90195 221.9423 226.98267 231.30066">OPTIONAL </tspan></text>
<g id="Layer-1" data-name="P">
<clipPath id="cp5">
<path transform="matrix(1,0,0,-1,-71.2659,542.938)" d="M 193.2 483.36 L 240.419 483.36 L 240.419 506.63899 L 193.2 506.63899 Z "/>
</clipPath>
<g clip-path="url(#cp5)">
<text xml:space="preserve" transform="matrix(1 0 -0 1 -71.2659 542.938)" font-size="7.02" font-family="TimesNewRomanPSMT"><tspan y="-484.86" x="196.32 201.36037 206.40073 210.66187">DATA</tspan></text>
</g>
<clipPath id="cp6">
<path transform="matrix(1,0,0,-1,-71.2659,542.938)" d="M 193.2 483.36 L 240.419 483.36 L 240.419 506.63899 L 193.2 506.63899 Z "/>
</clipPath>
<g clip-path="url(#cp6)">
<text xml:space="preserve" transform="matrix(1 0 -0 1 -71.2659 542.938)" font-size="7.02" font-family="TimesNewRomanPSMT"><tspan y="-484.86" x="215.76"> </tspan></text>
</g>
</g>
<g id="Layer-1" data-name="P">
</g>
<text xml:space="preserve" transform="matrix(1 0 -0 1 -71.2659 542.938)" font-size="7.02" font-family="TimesNewRomanPSMT"><tspan y="-492.9" x="243.48 247.37961 251.64075 256.68113 261.36137 265.6225 267.96296 273.00334 278.10264">STARTING </tspan></text>
<g id="Layer-1" data-name="P">
<clipPath id="cp7">
<path transform="matrix(1,0,0,-1,-71.2659,542.938)" d="M 240.42 483.36 L 299.581 483.36 L 299.581 506.63899 L 240.42 506.63899 Z "/>
</clipPath>
<g clip-path="url(#cp7)">
<text xml:space="preserve" transform="matrix(1 0 -0 1 -71.2659 542.938)" font-size="7.02" font-family="TimesNewRomanPSMT"><tspan y="-484.86" x="243.48 248.52036 250.86013 254.75974 259.02088 263.7004 266.04087 270.7204 275.76078 280.0219 282.36167 287.40205">DISTRIBUTION</tspan></text>
</g>
<clipPath id="cp8">
<path transform="matrix(1,0,0,-1,-71.2659,542.938)" d="M 240.42 483.36 L 299.581 483.36 L 299.581 506.63899 L 240.42 506.63899 Z "/>
</clipPath>
<g clip-path="url(#cp8)">
<text xml:space="preserve" transform="matrix(1 0 -0 1 -71.2659 542.938)" font-size="7.02" font-family="TimesNewRomanPSMT"><tspan y="-484.86" x="292.5"> </tspan></text>
</g>
</g>
<g id="Layer-1" data-name="P">
</g>
<g id="Layer-1" data-name="P">
</g>
<text xml:space="preserve" transform="matrix(1 0 -0 1 -71.2659 542.938)" font-size="7.02" font-family="TimesNewRomanPSMT"><tspan y="-492.9" x="302.7 321.12049 325.02079 329.28193 334.3223 339.00254 343.26368"> START </tspan></text>
<g id="Layer-1" data-name="P">
<clipPath id="cp9">
<path transform="matrix(1,0,0,-1,-71.2659,542.938)" d="M 318 483.36 L 349.5 483.36 L 349.5 506.63899 L 318 506.63899 Z "/>
</clipPath>
<g clip-path="url(#cp9)">
<text xml:space="preserve" transform="matrix(1 0 -0 1 -71.2659 542.938)" font-size="7.02" font-family="TimesNewRomanPSMT"><tspan y="-484.86" x="321.12 325.38114 330.4215 334.3211">TYPE</tspan></text>
</g>
<clipPath id="cp10">
<path transform="matrix(1,0,0,-1,-71.2659,542.938)" d="M 318 483.36 L 349.5 483.36 L 349.5 506.63899 L 318 506.63899 Z "/>
</clipPath>
<g clip-path="url(#cp10)">
<text xml:space="preserve" transform="matrix(1 0 -0 1 -71.2659 542.938)" font-size="7.02" font-family="TimesNewRomanPSMT"><tspan y="-484.86" x="338.64"> </tspan></text>
</g>
</g>
<g id="Layer-1" data-name="P">
</g>
<text xml:space="preserve" transform="matrix(1 0 -0 1 -71.2659 542.938)" font-size="7.02" font-family="TimesNewRomanPSMT"><tspan y="-492.9" x="352.62 357.30024 361.56138 366.60176 371.64213 373.98188 378.6621 382.92326 388.02186">REQUIRED </tspan></text>
<g id="Layer-1" data-name="P">
<clipPath id="cp11">
<path transform="matrix(1,0,0,-1,-71.2659,542.938)" d="M 349.5 483.36 L 403.081 483.36 L 403.081 506.63899 L 349.5 506.63899 Z "/>
</clipPath>
<g clip-path="url(#cp11)">
<text xml:space="preserve" transform="matrix(1 0 -0 1 -71.2659 542.938)" font-size="7.02" font-family="TimesNewRomanPSMT"><tspan y="-484.86" x="352.62 357.66038 362.70075 366.96189">DATA</tspan></text>
</g>
<clipPath id="cp12">
<path transform="matrix(1,0,0,-1,-71.2659,542.938)" d="M 349.5 483.36 L 403.081 483.36 L 403.081 506.63899 L 349.5 506.63899 Z "/>
</clipPath>
<g clip-path="url(#cp12)">
<text xml:space="preserve" transform="matrix(1 0 -0 1 -71.2659 542.938)" font-size="7.02" font-family="TimesNewRomanPSMT"><tspan y="-484.86" x="372.06"> </tspan></text>
</g>
</g>
<g id="Layer-1" data-name="P">
</g>
<text xml:space="preserve" transform="matrix(1 0 -0 1 -71.2659 542.938)" font-size="7.02" font-family="TimesNewRomanPSMT"><tspan y="-492.9" x="406.2 411.2404 415.13999 419.40113 421.74159 426.78196 431.82234 436.8627 441.18067">OPTIONAL </tspan></text>
<g id="Layer-1" data-name="P">
<clipPath id="cp13">
<path transform="matrix(1,0,0,-1,-71.2659,542.938)" d="M 403.08 483.36 L 450.29899 483.36 L 450.29899 506.63899 L 403.08 506.63899 Z "/>
</clipPath>
<g clip-path="url(#cp13)">
<text xml:space="preserve" transform="matrix(1 0 -0 1 -71.2659 542.938)" font-size="7.02" font-family="TimesNewRomanPSMT"><tspan y="-484.86" x="406.2 411.2404 416.28077 420.5419">DATA</tspan></text>
</g>
<clipPath id="cp14">
<path transform="matrix(1,0,0,-1,-71.2659,542.938)" d="M 403.08 483.36 L 450.29899 483.36 L 450.29899 506.63899 L 403.08 506.63899 Z "/>
</clipPath>
<g clip-path="url(#cp14)">
<text xml:space="preserve" transform="matrix(1 0 -0 1 -71.2659 542.938)" font-size="7.02" font-family="TimesNewRomanPSMT"><tspan y="-484.86" x="425.64"> </tspan></text>
</g>
</g>
<g id="Layer-1" data-name="P">
</g>
<text xml:space="preserve" transform="matrix(1 0 -0 1 -71.2659 542.938)" font-size="7.02" font-family="TimesNewRomanPSMT"><tspan y="-492.9" x="453.42 457.3196 461.58076 466.62113 471.30137 475.5625 477.90296 482.94334 488.04267">STARTING </tspan></text>
<g id="Layer-1" data-name="P">
<clipPath id="cp15">
<path transform="matrix(1,0,0,-1,-71.2659,542.938)" d="M 450.3 483.36 L 509.52 483.36 L 509.52 506.63899 L 450.3 506.63899 Z "/>
</clipPath>
<g clip-path="url(#cp15)">
<text xml:space="preserve" transform="matrix(1 0 -0 1 -71.2659 542.938)" font-size="7.02" font-family="TimesNewRomanPSMT"><tspan y="-484.86" x="453.42 458.4604 460.80015 464.69975 468.96089 473.6404 475.98088 480.6604 485.70079 489.9619 492.30168 497.34205">DISTRIBUTION</tspan></text>
</g>
<clipPath id="cp16">
<path transform="matrix(1,0,0,-1,-71.2659,542.938)" d="M 450.3 483.36 L 509.52 483.36 L 509.52 506.63899 L 450.3 506.63899 Z "/>
</clipPath>
<g clip-path="url(#cp16)">
<text xml:space="preserve" transform="matrix(1 0 -0 1 -71.2659 542.938)" font-size="7.02" font-family="TimesNewRomanPSMT"><tspan y="-484.86" x="502.44"> </tspan></text>
</g>
</g>
<g id="Layer-1" data-name="P">
</g>
<g id="Layer-1" data-name="P">
</g>
<text xml:space="preserve" transform="matrix(1 0 -0 1 -71.2659 542.938)" font-size="7.02" font-family="TimesNewRomanPSMT"><tspan y="-492.9" x="512.58 566.8165">  </tspan></text>
<g id="Layer-1" data-name="P">
<clipPath id="cp17">
<path transform="matrix(1,0,0,-1,-71.2659,542.938)" d="M 524.88 483.36 L 569.88 483.36 L 569.88 506.63899 L 524.88 506.63899 Z "/>
</clipPath>
<g clip-path="url(#cp17)">
<text xml:space="preserve" transform="matrix(1 0 -0 1 -71.2659 542.938)" font-size="7.02" font-family="TimesNewRomanPSMT"><tspan y="-484.86" x="531.06 536.10037 540.3615 545.46157 552.0014 557.04177 561.722">KEYWORD</tspan></text>
</g>
<clipPath id="cp18">
<path transform="matrix(1,0,0,-1,-71.2659,542.938)" d="M 524.88 483.36 L 569.88 483.36 L 569.88 506.63899 L 524.88 506.63899 Z "/>
</clipPath>
<g clip-path="url(#cp18)">
<text xml:space="preserve" transform="matrix(1 0 -0 1 -71.2659 542.938)" font-size="7.02" font-family="TimesNewRomanPSMT"><tspan y="-484.86" x="566.82"> </tspan></text>
</g>
</g>
<g id="Layer-1" data-name="P">
</g>
<text xml:space="preserve" transform="matrix(1 0 -0 1 -71.2659 542.938)" font-size="7.02" font-family="TimesNewRomanPSMT"><tspan y="-492.9" x="573"> </tspan></text>
<g id="Layer-1" data-name="P">
<clipPath id="cp19">
<path transform="matrix(1,0,0,-1,-71.2659,542.938)" d="M 569.88 483.36 L 610.38 483.36 L 610.38 506.63899 L 569.88 506.63899 Z "/>
</clipPath>
<g clip-path="url(#cp19)">
<text xml:space="preserve" transform="matrix(1 0 -0 1 -71.2659 542.938)" font-size="7.02" font-family="TimesNewRomanPSMT"><tspan y="-484.86" x="573 578.04037 582.3015 586.2012 591.2415 596.28189 600.543">DEFAULT</tspan></text>
</g>
<clipPath id="cp20">
<path transform="matrix(1,0,0,-1,-71.2659,542.938)" d="M 569.88 483.36 L 610.38 483.36 L 610.38 506.63899 L 569.88 506.63899 Z "/>
</clipPath>
<g clip-path="url(#cp20)">
<text xml:space="preserve" transform="matrix(1 0 -0 1 -71.2659 542.938)" font-size="7.02" font-family="TimesNewRomanPSMT"><tspan y="-484.86" x="604.86"> </tspan></text>
</g>
</g>
<g id="Layer-1" data-name="P">
</g>
<text xml:space="preserve" transform="matrix(1 0 -0 1 -71.2659 542.938)" font-size="7.02" font-family="TimesNewRomanPSMT"><tspan y="-492.9" x="613.5"> </tspan></text>
<g id="Layer-1" data-name="P">
<clipPath id="cp21">
<path transform="matrix(1,0,0,-1,-71.2659,542.938)" d="M 610.38 483.36 L 727.38 483.36 L 727.38 506.63899 L 610.38 506.63899 Z "/>
</clipPath>
<g clip-path="url(#cp21)">
<text xml:space="preserve" transform="matrix(1 0 -0 1 -71.2659 542.938)" font-size="7.02" font-family="TimesNewRomanPSMT"><tspan y="-484.86" x="613.5 618.54037 622.8015 626.7012 629.0416 634.082 636.42178 640.6829 643.0227 648.06307">DEFINITION</tspan></text>
</g>
<clipPath id="cp22">
<path transform="matrix(1,0,0,-1,-71.2659,542.938)" d="M 610.38 483.36 L 727.38 483.36 L 727.38 506.63899 L 610.38 506.63899 Z "/>
</clipPath>
<g clip-path="url(#cp22)">
<text xml:space="preserve" transform="matrix(1 0 -0 1 -71.2659 542.938)" font-size="7.02" font-family="TimesNewRomanPSMT"><tspan y="-484.86" x="653.16"> </tspan></text>
</g>
<g id="Layer-1" data-name="Artifact">
</g>
<path transform="matrix(1,0,0,-1,-71.2659,542.938)" d="M 111.12 506.7 L 145.98001 506.7 L 145.98001 507.66 L 111.12 507.66 Z "/>
<path transform="matrix(1,0,0,-1,-71.2659,542.938)" d="M 145.98 506.7 L 146.94 506.7 L 146.94 507.66 L 145.98 507.66 Z "/>
<path transform="matrix(1,0,0,-1,-71.2659,542.938)" d="M 146.94 506.7 L 193.2 506.7 L 193.2 507.66 L 146.94 507.66 Z "/>
<path transform="matrix(1,0,0,-1,-71.2659,542.938)" d="M 193.2 506.7 L 194.159 506.7 L 194.159 507.66 L 193.2 507.66 Z "/>
<path transform="matrix(1,0,0,-1,-71.2659,542.938)" d="M 194.16 506.7 L 240.42 506.7 L 240.42 507.66 L 194.16 507.66 Z "/>
<path transform="matrix(1,0,0,-1,-71.2659,542.938)" d="M 240.42 506.7 L 241.38 506.7 L 241.38 507.66 L 240.42 507.66 Z "/>
<path transform="matrix(1,0,0,-1,-71.2659,542.938)" d="M 241.38 506.7 L 299.58003 506.7 L 299.58003 507.66 L 241.38 507.66 Z "/>
<path transform="matrix(1,0,0,-1,-71.2659,542.938)" d="M 318 506.7 L 349.5 506.7 L 349.5 507.66 L 318 507.66 Z "/>
<path transform="matrix(1,0,0,-1,-71.2659,542.938)" d="M 349.5 506.7 L 350.46 506.7 L 350.46 507.66 L 349.5 507.66 Z "/>
<path transform="matrix(1,0,0,-1,-71.2659,542.938)" d="M 350.46 506.7 L 403.08 506.7 L 403.08 507.66 L 350.46 507.66 Z "/>
<path transform="matrix(1,0,0,-1,-71.2659,542.938)" d="M 403.08 506.7 L 404.039 506.7 L 404.039 507.66 L 403.08 507.66 Z "/>
<path transform="matrix(1,0,0,-1,-71.2659,542.938)" d="M 404.04 506.7 L 450.30003 506.7 L 450.30003 507.66 L 404.04 507.66 Z "/>
<path transform="matrix(1,0,0,-1,-71.2659,542.938)" d="M 450.3 506.7 L 451.25999 506.7 L 451.25999 507.66 L 450.3 507.66 Z "/>
<path transform="matrix(1,0,0,-1,-71.2659,542.938)" d="M 451.26 506.7 L 509.52003 506.7 L 509.52003 507.66 L 451.26 507.66 Z "/>
<path transform="matrix(1,0,0,-1,-71.2659,542.938)" d="M 524.88 506.7 L 569.88 506.7 L 569.88 507.66 L 524.88 507.66 Z "/>
<path transform="matrix(1,0,0,-1,-71.2659,542.938)" d="M 569.88 506.7 L 570.84 506.7 L 570.84 507.66 L 569.88 507.66 Z "/>
<path transform="matrix(1,0,0,-1,-71.2659,542.938)" d="M 570.84 506.7 L 610.38 506.7 L 610.38 507.66 L 570.84 507.66 Z "/>
<path transform="matrix(1,0,0,-1,-71.2659,542.938)" d="M 610.38 506.7 L 611.34 506.7 L 611.34 507.66 L 610.38 507.66 Z "/>
<path transform="matrix(1,0,0,-1,-71.2659,542.938)" d="M 611.34 506.7 L 727.38 506.7 L 727.38 507.66 L 611.34 507.66 Z "/>
</g>
<g id="Layer-1" data-name="P">
</g>
<g id="Layer-1" data-name="P">
</g>
<g id="Layer-1" data-name="P">
</g>
<g id="Layer-1" data-name="P">
</g>
<g id="Layer-1" data-name="P">
</g>
<g id="Layer-1" data-name="P">
</g>
<g id="Layer-1" data-name="P">
</g>
<g id="Layer-1" data-name="P">
</g>
<g id="Layer-1" data-name="P">
</g>
<g id="Layer-1" data-name="P">
</g>
<g id="Layer-1" data-name="P">
</g>
<g id="Layer-1" data-name="P">
</g>
<g id="Layer-1" data-name="P">
</g>
<g id="Layer-1" data-name="P">
</g>
<g id="Layer-1" data-name="P">
</g>
<g id="Layer-1" data-name="P">
</g>
<g id="Layer-1" data-name="P">
</g>
<g id="Layer-1" data-name="P">
</g>
<g id="Layer-1" data-name="P">
</g>
<g id="Layer-1" data-name="P">
</g>
<g id="Layer-1" data-name="P">
</g>
<g id="Layer-1" data-name="P">
</g>
<g id="Layer-1" data-name="P">
</g>
<g id="Layer-1" data-name="P">
</g>
<g id="Layer-1" data-name="P">
</g>
<g id="Layer-1" data-name="P">
</g>
<g id="Layer-1" data-name="P">
</g>
<g id="Layer-1" data-name="P">
</g>
<g id="Layer-1" data-name="P">
</g>
<g id="Layer-1" data-name="P">
</g>
<g id="Layer-1" data-name="P">
</g>
<g id="Layer-1" data-name="P">
</g>
<g id="Layer-1" data-name="P">
</g>
<g id="Layer-1" data-name="P">
</g>
<g id="Layer-1" data-name="P">
</g>
<g id="Layer-1" data-name="P">
</g>
<g id="Layer-1" data-name="P">
</g>
<g id="Layer-1" data-name="P">
</g>
<g id="Layer-1" data-name="P">
</g>
<g id="Layer-1" data-name="P">
</g>
<g id="Layer-1" data-name="P">
</g>
<g id="Layer-1" data-name="P">
</g>
<g id="Layer-1" data-name="P">
</g>
<g id="Layer-1" data-name="P">
</g>
<g id="Layer-1" data-name="P">
</g>
<g id="Layer-1" data-name="P">
</g>
<g id="Layer-1" data-name="P">
</g>
<g id="Layer-1" data-name="P">
</g>
<g id="Layer-1" data-name="P">
</g>
<g id="Layer-1" data-name="P">
</g>
<g id="Layer-1" data-name="P">
</g>
<g id="Layer-1" data-name="P">
</g>
<g id="Layer-1" data-name="P">
</g>
<g id="Layer-1" data-name="P">
</g>
<g id="Layer-1" data-name="P">
</g>
<g id="Layer-1" data-name="P">
</g>
<g id="Layer-1" data-name="P">
</g>
<g id="Layer-1" data-name="P">
</g>
<g id="Layer-1" data-name="P">
</g>
<g id="Layer-1" data-name="P">
</g>
<g id="Layer-1" data-name="P">
</g>
<g id="Layer-1" data-name="P">
</g>
<g id="Layer-1" data-name="P">
</g>
<g id="Layer-1" data-name="P">
</g>
<g id="Layer-1" data-name="P">
</g>
<g id="Layer-1" data-name="P">
</g>
<g id="Layer-1" data-name="P">
</g>
<g id="Layer-1" data-name="P">
</g>
<g id="Layer-1" data-name="P">
</g>
<g id="Layer-1" data-name="P">
</g>
<g id="Layer-1" data-name="P">
</g>
<g id="Layer-1" data-name="P">
</g>
<g id="Layer-1" data-name="P">
</g>
<g id="Layer-1" data-name="P">
</g>
<g id="Layer-1" data-name="P">
</g>
<g id="Layer-1" data-name="P">
</g>
<g id="Layer-1" data-name="P">
</g>
<g id="Layer-1" data-name="P">
</g>
<g id="Layer-1" data-name="P">
</g>
<g id="Layer-1" data-name="P">
</g>
<g id="Layer-1" data-name="P">
</g>
<g id="Layer-1" data-name="P">
</g>
<g id="Layer-1" data-name="P">
</g>
<g id="Layer-1" data-name="P">
</g>
<g id="Layer-1" data-name="P">
</g>
<g id="Layer-1" data-name="P">
</g>
<g id="Layer-1" data-name="P">
</g>
<g id="Layer-1" data-name="P">
</g>
<g id="Layer-1" data-name="P">
</g>
<g id="Layer-1" data-name="P">
</g>
<g id="Layer-1" data-name="P">
</g>
<g id="Layer-1" data-name="P">
</g>
<g id="Layer-1" data-name="P">
</g>
<g id="Layer-1" data-name="P">
</g>
<g id="Layer-1" data-name="P">
</g>
<g id="Layer-1" data-name="P">
</g>
<g id="Layer-1" data-name="P">
</g>
<g id="Layer-1" data-name="P">
</g>
<g id="Layer-1" data-name="P">
</g>
<g id="Layer-1" data-name="P">
</g>
<g id="Layer-1" data-name="P">
</g>
<g id="Layer-1" data-name="P">
</g>
<g id="Layer-1" data-name="P">
</g>
<g id="Layer-1" data-name="P">
</g>
<g id="Layer-1" data-name="P">
</g>
<g id="Layer-1" data-name="P">
</g>
<g id="Layer-1" data-name="P">
</g>
<g id="Layer-1" data-name="P">
</g>
<g id="Layer-1" data-name="P">
</g>
<g id="Layer-1" data-name="P">
</g>
<g id="Layer-1" data-name="P">
</g>
<g id="Layer-1" data-name="P">
</g>
<g id="Layer-1" data-name="P">
</g>
<g id="Layer-1" data-name="P">
</g>
<g id="Layer-1" data-name="P">
</g>
<g id="Layer-1" data-name="P">
</g>
<g id="Layer-1" data-name="P">
</g>
<g id="Layer-1" data-name="P">
</g>
<g id="Layer-1" data-name="P">
</g>
<text xml:space="preserve" transform="matrix(1 0 -0 1 -71.2659 542.938)" font-size="7.02" font-family="TimesNewRomanPSMT"><tspan y="-468.6" x="78.18 114.17856 117.66048"> 0 </tspan><tspan y="-460.5621" x="114.17856"> </tspan><tspan y="-452.5242" x="114.17856"> </tspan><tspan y="-444.4863" x="114.17856"> </tspan><tspan y="-436.4484" x="114.17856"> </tspan><tspan y="-428.34733" x="114.17856"> </tspan><tspan y="-420.30943" x="114.17856"> </tspan><tspan y="-412.2715" x="114.17856"> </tspan><tspan y="-404.2336" x="114.17856"> </tspan><tspan y="-396.1957" x="114.17856"> </tspan><tspan y="-388.1578" x="114.17856 117.66048">1 </tspan><tspan y="-380.1199" x="114.17856"> </tspan><tspan y="-372.01884" x="114.17856"> </tspan><tspan y="-363.98094" x="114.17856"> </tspan><tspan y="-355.94303" x="114.17856"> </tspan><tspan y="-347.90513" x="114.17856"> </tspan><tspan y="-339.86723" x="114.17856"> </tspan><tspan y="-331.8293" x="114.17856"> </tspan><tspan y="-323.72825" x="114.17856"> </tspan><tspan y="-315.69035" x="114.17856 117.66048">2 </tspan><tspan y="-468.62806" x="149.10306 152.64115 156.12096 159.65904 162.72187">none </tspan><tspan y="-460.59016" x="149.10306"> </tspan><tspan y="-452.55226" x="149.10306"> </tspan><tspan y="-444.51435" x="149.10306"> </tspan><tspan y="-436.47645" x="149.10306"> </tspan><tspan y="-428.37538" x="149.10306"> </tspan><tspan y="-420.33747" x="149.10306"> </tspan><tspan y="-412.29957" x="149.10306"> </tspan><tspan y="-404.26167" x="149.10306"> </tspan><tspan y="-396.22377" x="149.10306"> </tspan><tspan y="-388.18586" x="149.10306 154.14342 158.04303 162.30417">NST </tspan><tspan y="-380.14796" x="149.10306"> </tspan><tspan y="-372.04689" x="149.10306"> </tspan><tspan y="-364.00898" x="149.10306"> </tspan><tspan y="-355.97108" x="149.10306"> </tspan><tspan y="-347.93318" x="149.10306"> </tspan><tspan y="-339.89527" x="149.10306"> </tspan><tspan y="-331.85737" x="149.10306"> </tspan><tspan y="-323.7563" x="149.10306"> </tspan><tspan y="-315.71839" x="149.10306 154.14342 158.04373 162.30487">NST </tspan><tspan y="-307.68049" x="149.10306 154.14342 159.18378 163.07988">NXS </tspan><tspan y="-299.64259" x="149.10306 154.14342 159.18378 163.07988">NYS </tspan><tspan y="-291.60469" x="149.10306 154.14342 158.40456 162.30066">NZS </tspan><tspan y="-283.56678" x="149.10306 153.00337 157.6829 161.94264">FCT </tspan><tspan y="-468.67015" x="196.31958 201.35994 205.25955 209.52069">NST </tspan><tspan y="-460.63224" x="196.31958 201.35994 205.25955 211.49683">XSM </tspan><tspan y="-452.59434" x="196.31958 201.35994 205.25955 209.15917">XSP </tspan><tspan y="-444.55644" x="196.31958 201.35994 205.25955 211.49683">YSM </tspan><tspan y="-436.51853" x="196.31958 201.35994 205.25955 209.15917">YSP </tspan><tspan y="-428.41746" x="196.31958 200.58072 204.48104 210.7176">ZSM </tspan><tspan y="-420.37956" x="196.31958 200.58072 204.48104 208.37995">ZSP </tspan><tspan y="-412.34165" x="196.31958 200.99982 204.89592 209.15917">RFL </tspan><tspan y="-404.30375" x="196.31958 200.2199 204.116 208.02193">PSP </tspan><tspan y="-396.26585" x="196.31958"> </tspan><tspan y="-388.22795" x="196.31958 201.35994 205.25955 211.49683">XSM </tspan><tspan y="-380.19004" x="196.31958 201.35994 205.25955 209.15917">XSP </tspan><tspan y="-372.08897" x="196.31958 201.35994 205.25955 211.49683">YSM </tspan><tspan y="-364.05107" x="196.31958 201.35994 205.25955 209.15917">YSP </tspan><tspan y="-356.01316" x="196.31958 200.58072 204.48104 210.7176">ZSM </tspan><tspan y="-347.97526" x="196.31958 200.58072 204.48104 208.37995">ZSP </tspan><tspan y="-339.93736" x="196.31958 200.99982 204.89592 209.15917">RFL </tspan><tspan y="-331.89945" x="196.31958 200.2199 204.116 208.02193">PSP </tspan><tspan y="-323.79838" x="196.31958"> </tspan><tspan y="-315.76048" x="196.31958 201.35994 205.25955 211.49683">XSM </tspan><tspan y="-307.72257" x="196.31958 201.35994 205.25955 209.15917">XSP </tspan><tspan y="-299.68467" x="196.31958 201.35994 205.25955 211.49683">YSM </tspan><tspan y="-291.64677" x="196.31958 201.35994 205.25955 209.15917">YSP </tspan><tspan y="-283.60887" x="196.31958 200.58072 204.48104 210.7176">ZSM </tspan><tspan y="-275.50779" x="196.31958 200.58072 204.48104 208.37995">ZSP </tspan><tspan y="-267.46989" x="196.31958 200.99982 204.89592 209.15917">RFL </tspan><tspan y="-259.43199" x="196.31958 200.2199 204.116 208.02193">PSP </tspan><tspan y="-468.71223" x="243.47995 247.01804 250.49785 252.4775 254.75759 258.29566 260.63615 266.04225">uniform </tspan><tspan y="-460.67433" x="243.47995"> </tspan><tspan y="-452.6364" x="243.47995"> </tspan><tspan y="-444.5985" x="243.47995"> </tspan><tspan y="-436.5606" x="243.47995"> </tspan><tspan y="-428.45954" x="243.47995"> </tspan><tspan y="-420.42164" x="243.47995"> </tspan><tspan y="-412.38374" x="243.47995"> </tspan><tspan y="-404.34584" x="243.47995"> </tspan><tspan y="-396.30793" x="243.47995"> </tspan><tspan y="-388.27003" x="243.47995 246.59964 250.13773 252.83762 254.75829 258.29637 261.3599">cosine </tspan><tspan y="-380.23213" x="243.47995"> </tspan><tspan y="-372.13105" x="243.47995"> </tspan><tspan y="-364.09315" x="243.47995"> </tspan><tspan y="-356.05525" x="243.47995"> </tspan><tspan y="-348.01734" x="243.47995"> </tspan><tspan y="-339.97944" x="243.47995"> </tspan><tspan y="-331.94154" x="243.47995"> </tspan><tspan y="-323.84046" x="243.47995"> </tspan><tspan y="-315.80256" x="243.47995 246.60034 250.13983 252.84253 254.7625 258.30268 261.42237 263.16334 268.2037 270.123 272.10334 275.58528">cosine with </tspan><tspan y="-307.76466" x="243.47995 245.81972 248.16019 251.27988 254.40027 256.31956 258.24305 261.78254 265.32273 291.06153 292.9815 296.46345">fraction in </tspan><tspan y="-299.72676" x="243.47997 246.23883 249.77692 252.83693 255.95732 257.93696 260.21708 262.19673 265.25675 268.79484 270.5358 272.27677 275.7566 279.23643 281.21607 283.14299">specified  unit </tspan><tspan y="-468.74729" x="302.70069 321.12117 324.6031"> 3 </tspan><tspan y="-460.70939" x="321.12117"> </tspan><tspan y="-452.67149" x="321.12117"> </tspan><tspan y="-444.63359" x="321.12117"> </tspan><tspan y="-436.59568" x="321.12117"> </tspan><tspan y="-428.4946" x="321.12117"> </tspan><tspan y="-420.4567" x="321.12117"> </tspan><tspan y="-412.4188" x="321.12117"> </tspan><tspan y="-404.3809" x="321.12117 324.6031">4 </tspan><tspan y="-396.343" x="321.12117"> </tspan><tspan y="-388.30509" x="321.12117"> </tspan><tspan y="-380.26719" x="321.12117"> </tspan><tspan y="-372.1661" x="321.12117"> </tspan><tspan y="-364.1282" x="321.12117"> </tspan><tspan y="-356.0903" x="321.12117 324.6031">5 </tspan><tspan y="-348.0524" x="321.12117"> </tspan><tspan y="-340.0145" x="321.12117"> </tspan><tspan y="-331.9766" x="321.12117 324.6031">6 </tspan><tspan y="-323.87553" x="321.12117"> </tspan><tspan y="-315.83763" x="321.12117"> </tspan><tspan y="-307.7997" x="321.12117"> </tspan><tspan y="-299.7618" x="321.12117"> </tspan><tspan y="-291.7239" x="321.12117"> </tspan><tspan y="-283.686" x="321.12117"> </tspan><tspan y="-275.58494" x="321.12117"> </tspan></text>
<g id="Layer-1" data-name="P">
</g>
<g id="Layer-1" data-name="P">
</g>
<g id="Layer-1" data-name="P">
</g>
<g id="Layer-1" data-name="P">
</g>
<g id="Layer-1" data-name="P">
</g>
<g id="Layer-1" data-name="P">
</g>
<g id="Layer-1" data-name="P">
</g>
<g id="Layer-1" data-name="P">
</g>
<g id="Layer-1" data-name="P">
</g>
<g id="Layer-1" data-name="P">
</g>
<g id="Layer-1" data-name="P">
</g>
<g id="Layer-1" data-name="P">
</g>
<g id="Layer-1" data-name="P">
</g>
<g id="Layer-1" data-name="P">
</g>
<g id="Layer-1" data-name="P">
</g>
<g id="Layer-1" data-name="P">
</g>
<g id="Layer-1" data-name="P">
</g>
<g id="Layer-1" data-name="P">
</g>
<g id="Layer-1" data-name="P">
</g>
<g id="Layer-1" data-name="P">
</g>
<g id="Layer-1" data-name="P">
</g>
<g id="Layer-1" data-name="P">
</g>
<g id="Layer-1" data-name="P">
</g>
<g id="Layer-1" data-name="P">
</g>
<g id="Layer-1" data-name="P">
</g>
<g id="Layer-1" data-name="P">
</g>
<g id="Layer-1" data-name="P">
</g>
<g id="Layer-1" data-name="P">
</g>
<g id="Layer-1" data-name="P">
</g>
<g id="Layer-1" data-name="P">
</g>
<g id="Layer-1" data-name="P">
</g>
<g id="Layer-1" data-name="P">
</g>
<g id="Layer-1" data-name="P">
</g>
<g id="Layer-1" data-name="P">
</g>
<g id="Layer-1" data-name="P">
</g>
<g id="Layer-1" data-name="P">
</g>
<g id="Layer-1" data-name="P">
</g>
<g id="Layer-1" data-name="P">
</g>
<g id="Layer-1" data-name="P">
</g>
<g id="Layer-1" data-name="P">
</g>
<g id="Layer-1" data-name="P">
</g>
<g id="Layer-1" data-name="P">
</g>
<g id="Layer-1" data-name="P">
</g>
<g id="Layer-1" data-name="P">
</g>
<g id="Layer-1" data-name="P">
</g>
<g id="Layer-1" data-name="P">
</g>
<text xml:space="preserve" transform="matrix(1 0 -0 1 -71.2659 542.938)" font-size="7.02" font-family="TimesNewRomanPSMT"><tspan y="-267.36" x="321.12"> </tspan><tspan y="-259.32209" x="321.12 324.60194">7 </tspan><tspan y="-251.28418" x="321.12"> </tspan><tspan y="-243.24628" x="321.12"> </tspan><tspan y="-235.20838" x="321.12"> </tspan><tspan y="-227.17047" x="321.12"> </tspan><tspan y="-219.0694" x="321.12"> </tspan><tspan y="-211.0315" x="321.12"> </tspan><tspan y="-202.99359" x="321.12 324.60194">8 </tspan><tspan y="-468.61637" x="352.61875 357.65913 361.55873 365.81986">NST </tspan><tspan y="-460.57847" x="352.61875 356.87989 360.78019 365.82057">TFX </tspan><tspan y="-452.54057" x="352.61875 356.87989 360.78019 365.82057">TFY </tspan><tspan y="-444.50267" x="352.61875 356.87989 360.78019 365.04133">TFZ </tspan><tspan y="-436.46476" x="352.61875 357.65913 362.6995 366.59556">NXS </tspan><tspan y="-428.36369" x="352.61875 357.65913 362.6995 366.59556">NYS </tspan><tspan y="-420.32579" x="352.61875 357.65913 361.92027 365.81636">NZS </tspan><tspan y="-412.28788" x="352.61875"> </tspan><tspan y="-404.24998" x="352.61875 357.65913 361.55873 365.81986">NST </tspan><tspan y="-396.21208" x="352.61875 356.87989 360.78019 365.82057">TFX </tspan><tspan y="-388.17417" x="352.61875 356.87989 360.78019 365.82057">TFY </tspan><tspan y="-380.13627" x="352.61875 356.87989 360.78019 365.04133">TFZ </tspan><tspan y="-372.0352" x="352.61875 357.65913 362.33866 367.37904">NBX </tspan><tspan y="-363.99729" x="352.61875"> </tspan><tspan y="-355.95939" x="352.61875 357.65913 361.55873 365.81986">NST </tspan><tspan y="-347.92149" x="352.61875 357.65913 362.33866 367.37904">NBX </tspan><tspan y="-339.88359" x="352.61875"> </tspan><tspan y="-331.84568" x="352.61875 357.65913 361.55873 365.81986">NST </tspan><tspan y="-323.7446" x="352.61875 356.87989 360.78019 365.82057">TFX </tspan><tspan y="-315.7067" x="352.61875 356.87989 360.78019 365.82057">TFY </tspan><tspan y="-307.6688" x="352.61875 356.87989 360.78019 365.04133">TFZ </tspan><tspan y="-299.6309" x="352.61875 356.87989 361.92027 366.96064 370.4987">LNU* </tspan><tspan y="-291.593" x="352.61875"> </tspan><tspan y="-283.55509" x="352.61875"> </tspan><tspan y="-275.454" x="352.61875"> </tspan><tspan y="-267.4161" x="352.61875"> </tspan><tspan y="-259.3782" x="352.61875 357.65913 361.55873 365.81986">NST </tspan><tspan y="-251.3403" x="352.61875"> </tspan><tspan y="-243.3024" x="352.61875"> </tspan><tspan y="-235.2645" x="352.61875"> </tspan><tspan y="-227.2266" x="352.61875"> </tspan><tspan y="-219.12552" x="352.61875"> </tspan><tspan y="-211.08762" x="352.61875"> </tspan><tspan y="-203.04972" x="352.61875 357.65913 361.55873 365.81986">NST </tspan><tspan y="-195.01181" x="352.61875 356.87989 360.78019 367.01676">ZSM </tspan><tspan y="-186.9739" x="352.61875 356.87989 360.78019 364.6791">ZSP </tspan><tspan y="-178.936" x="352.61875 356.51905 361.19859 365.4583">FCT </tspan></text>
<g id="Layer-1" data-name="P">
<clipPath id="cp23">
<path transform="matrix(1,0,0,-1,-71.2659,542.938)" d="M 349.5 169.26 L 403.081 169.26 L 403.081 482.339 L 349.5 482.339 Z "/>
</clipPath>
<g clip-path="url(#cp23)">
<text xml:space="preserve" transform="matrix(1 0 -0 1 -71.2659 542.938)" font-size="7.02" font-family="TimesNewRomanPSMT"><tspan y="-170.76" x="352.62 356.88114 361.9215">LNU</tspan></text>
</g>
<clipPath id="cp24">
<path transform="matrix(1,0,0,-1,-71.2659,542.938)" d="M 349.5 169.26 L 403.081 169.26 L 403.081 482.339 L 349.5 482.339 Z "/>
</clipPath>
<g clip-path="url(#cp24)">
<text xml:space="preserve" transform="matrix(1 0 -0 1 -71.2659 542.938)" font-size="7.02" font-family="TimesNewRomanPSMT"><tspan y="-170.76" x="367.02"> </tspan></text>
</g>
</g>
<g id="Layer-1" data-name="P">
</g>
<g id="Layer-1" data-name="P">
</g>
<g id="Layer-1" data-name="P">
</g>
<g id="Layer-1" data-name="P">
</g>
<g id="Layer-1" data-name="P">
</g>
<g id="Layer-1" data-name="P">
</g>
<g id="Layer-1" data-name="P">
</g>
<g id="Layer-1" data-name="P">
</g>
<g id="Layer-1" data-name="P">
</g>
<g id="Layer-1" data-name="P">
</g>
<g id="Layer-1" data-name="P">
</g>
<g id="Layer-1" data-name="P">
</g>
<g id="Layer-1" data-name="P">
</g>
<g id="Layer-1" data-name="P">
</g>
<g id="Layer-1" data-name="P">
</g>
<g id="Layer-1" data-name="P">
</g>
<g id="Layer-1" data-name="P">
</g>
<g id="Layer-1" data-name="P">
</g>
<g id="Layer-1" data-name="P">
</g>
<g id="Layer-1" data-name="P">
</g>
<g id="Layer-1" data-name="P">
</g>
<g id="Layer-1" data-name="P">
</g>
<g id="Layer-1" data-name="P">
</g>
<g id="Layer-1" data-name="P">
</g>
<g id="Layer-1" data-name="P">
</g>
<g id="Layer-1" data-name="P">
</g>
<g id="Layer-1" data-name="P">
</g>
<g id="Layer-1" data-name="P">
</g>
<g id="Layer-1" data-name="P">
</g>
<g id="Layer-1" data-name="P">
</g>
<g id="Layer-1" data-name="P">
</g>
<g id="Layer-1" data-name="P">
</g>
<g id="Layer-1" data-name="P">
</g>
<g id="Layer-1" data-name="P">
</g>
<g id="Layer-1" data-name="P">
</g>
<g id="Layer-1" data-name="P">
</g>
<g id="Layer-1" data-name="P">
</g>
<text xml:space="preserve" transform="matrix(1 0 -0 1 -71.2659 542.938)" font-size="7.02" font-family="TimesNewRomanPSMT"><tspan y="-468.6" x="406.2 411.2404 415.13999 419.03959">KFS </tspan><tspan y="-460.5621" x="406.2 410.1003 413.9964 417.90235">PSP </tspan><tspan y="-452.5242" x="406.2"> </tspan><tspan y="-444.4863" x="406.2"> </tspan><tspan y="-436.4484" x="406.2"> </tspan><tspan y="-428.34733" x="406.2"> </tspan><tspan y="-420.30943" x="406.2"> </tspan><tspan y="-412.2715" x="406.2"> </tspan><tspan y="-404.2336" x="406.2 411.2404 415.13999 419.03959">KFS </tspan><tspan y="-396.1957" x="406.2 410.1003 413.9964 417.90235">PSP </tspan><tspan y="-388.1578" x="406.2"> </tspan><tspan y="-380.1199" x="406.2"> </tspan><tspan y="-372.01884" x="406.2"> </tspan><tspan y="-363.98094" x="406.2"> </tspan><tspan y="-355.94303" x="406.2 410.1003 413.9964 417.90235">PSP </tspan><tspan y="-347.90513" x="406.2"> </tspan><tspan y="-339.86723" x="406.2"> </tspan><tspan y="-331.8293" x="406.2 411.2404 416.28077 420.17683">NXS </tspan><tspan y="-323.72825" x="406.2 411.2404 416.28077 420.17683">NYS </tspan><tspan y="-315.69035" x="406.2 411.2404 415.50154 419.3976">NZS </tspan><tspan y="-307.65245" x="406.2 411.2404 415.13999 419.03959">KFS </tspan><tspan y="-299.61454" x="406.2 410.1003 413.9964 417.48115">PS6 </tspan><tspan y="-291.57664" x="406.2 410.1003 413.9964 417.90235">PSP </tspan><tspan y="-283.53874" x="406.2 410.88026 415.92063 420.961">RDU </tspan><tspan y="-275.43766" x="406.2 412.74266 416.64295 420.17683">WS6 </tspan><tspan y="-267.39976" x="406.2"> </tspan><tspan y="-259.36186" x="406.2 411.2404 415.13999 421.37727">XSM </tspan><tspan y="-251.32395" x="406.2 411.2404 415.13999 419.03959">XSP </tspan><tspan y="-243.28604" x="406.2 411.2404 415.13999 421.37727">YSM </tspan><tspan y="-235.24814" x="406.2 411.2404 415.13999 419.03959">YSP </tspan><tspan y="-227.21024" x="406.2 410.46116 414.36146 420.59803">ZSM </tspan><tspan y="-219.10916" x="406.2 410.46116 414.36146 418.26039">ZSP </tspan><tspan y="-211.07126" x="406.2"> </tspan><tspan y="-203.03336" x="406.2 411.2404 415.13999 421.37727">XSM </tspan><tspan y="-194.99546" x="406.2 411.2404 415.13999 419.03959">XSP </tspan><tspan y="-186.95755" x="406.2 411.2404 415.13999 421.37727">YSM </tspan><tspan y="-178.91965" x="406.2 411.2404 415.13999 419.03959">YSP </tspan></text>
<g id="Layer-1" data-name="P">
<clipPath id="cp25">
<path transform="matrix(1,0,0,-1,-71.2659,542.938)" d="M 403.08 169.26 L 450.29899 169.26 L 450.29899 482.339 L 403.08 482.339 Z "/>
</clipPath>
<g clip-path="url(#cp25)">
<text xml:space="preserve" transform="matrix(1 0 -0 1 -71.2659 542.938)" font-size="7.02" font-family="TimesNewRomanPSMT"><tspan y="-170.76" x="406.2"> </tspan></text>
</g>
</g>
<g id="Layer-1" data-name="P">
</g>
<g id="Layer-1" data-name="P">
</g>
<g id="Layer-1" data-name="P">
</g>
<g id="Layer-1" data-name="P">
</g>
<g id="Layer-1" data-name="P">
</g>
<g id="Layer-1" data-name="P">
</g>
<g id="Layer-1" data-name="P">
</g>
<g id="Layer-1" data-name="P">
</g>
<g id="Layer-1" data-name="P">
</g>
<g id="Layer-1" data-name="P">
</g>
<g id="Layer-1" data-name="P">
</g>
<g id="Layer-1" data-name="P">
</g>
<g id="Layer-1" data-name="P">
</g>
<g id="Layer-1" data-name="P">
</g>
<g id="Layer-1" data-name="P">
</g>
<g id="Layer-1" data-name="P">
</g>
<g id="Layer-1" data-name="P">
</g>
<g id="Layer-1" data-name="P">
</g>
<g id="Layer-1" data-name="P">
</g>
<g id="Layer-1" data-name="P">
</g>
<g id="Layer-1" data-name="P">
</g>
<g id="Layer-1" data-name="P">
</g>
<g id="Layer-1" data-name="P">
</g>
<g id="Layer-1" data-name="P">
</g>
<g id="Layer-1" data-name="P">
</g>
<g id="Layer-1" data-name="P">
</g>
<text xml:space="preserve" transform="matrix(1 0 -0 1 -71.2659 542.938)" font-size="7.02" font-family="TimesNewRomanPSMT"><tspan y="-468.6" x="453.42 456.18028 459.6622 461.58219 465.12239 468.18309">spike </tspan><tspan y="-460.5621" x="453.42"> </tspan><tspan y="-452.5242" x="453.42"> </tspan><tspan y="-444.4863" x="453.42"> </tspan><tspan y="-436.4484" x="453.42"> </tspan><tspan y="-428.34733" x="453.42"> </tspan><tspan y="-420.30943" x="453.42"> </tspan><tspan y="-412.2715" x="453.42"> </tspan><tspan y="-404.2336" x="453.42 458.76014 462.29823 464.27787 466.2575 468.23716 471.71769 473.69734 476.7615">multiple </tspan><tspan y="-396.1957" x="453.42 456.18028 459.6622 461.58219 465.12239 468.24208 470.94477">spikes </tspan><tspan y="-388.1578" x="453.42"> </tspan><tspan y="-380.1199" x="453.42"> </tspan><tspan y="-372.01884" x="453.42"> </tspan><tspan y="-363.98094" x="453.42"> </tspan><tspan y="-355.94303" x="453.42 455.39967 458.93775 460.61555 463.3744 466.85423 469.9746 473.0943 475.01499 477.35478 479.3344 482.39445 485.8805">in specified </tspan><tspan y="-347.90513" x="453.42 456.9602 460.44215 462.36213 464.34248 467.04518">units </tspan><tspan y="-339.86723" x="453.42"> </tspan><tspan y="-331.8293" x="453.42 456.5369 458.87455 462.35438 464.33473 466.31437 468.59446 471.71134 474.04899 477.54075">arbitrary </tspan><tspan y="-323.72825" x="453.42 456.9602 460.44215 462.36213 465.9023 467.8223 470.525">points </tspan><tspan y="-315.69035" x="453.42"> </tspan><tspan y="-307.65245" x="453.42"> </tspan><tspan y="-299.61454" x="453.42"> </tspan><tspan y="-291.57664" x="453.42"> </tspan><tspan y="-283.53874" x="453.42"> </tspan><tspan y="-275.43766" x="453.42"> </tspan><tspan y="-267.39976" x="453.42"> </tspan></text>
<g id="Layer-1" data-name="P">
<text xml:space="preserve" transform="matrix(1 0 -0 1 -71.2659 542.938)" font-size="7.02" font-family="TimesNewRomanPSMT"><tspan y="-259.32" x="453.42 456.9581 460.43794 462.41758 464.6977 468.23579 470.57627 475.91639 478.43656 480.4162 483.95429 486.47447 491.51756 493.8552 496.3754 499.43544 502.91737 506.3993">uniform in X- and </tspan><tspan y="-251.2821" x="453.413 458.45338">Y-</tspan></text>
<clipPath id="cp26">
<path transform="matrix(1,0,0,-1,-71.2659,542.938)" d="M 450.3 169.26 L 509.52 169.26 L 509.52 482.339 L 450.3 482.339 Z "/>
</clipPath>
<g clip-path="url(#cp26)">
<text xml:space="preserve" transform="matrix(1 0 -0 1 -71.2659 542.938)" font-size="7.02" font-family="TimesNewRomanPSMT"><tspan y="-251.28" x="460.8 464.33808 466.31773 471.65785 474.77824 478.3163 481.07518 482.99516 486.47499 490.01307 496.37318 499.4332 502.91304 506.39356">dimension and </tspan></text>
</g>
<text xml:space="preserve" transform="matrix(1 0 -0 1 -71.2659 542.938)" font-size="7.02" font-family="TimesNewRomanPSMT"><tspan y="-243.24" x="453.42 455.75767 459.30278 461.6404 464.70115 468.2413 470.9412">(1-cos)</tspan></text>
<text xml:space="preserve" transform="matrix(1 0 -0 1 -71.2659 542.938)" font-size="4.5" font-family="TimesNewRomanPSMT"><tspan y="-245.76" x="473.28 475.5615">2 </tspan></text>
<text xml:space="preserve" transform="matrix(1 0 -0 1 -71.2659 542.938)" font-size="7.02" font-family="TimesNewRomanPSMT"><tspan y="-243.24" x="476.7 478.37779 480.35743 483.8955 485.5803"> in  </tspan></text>
</g>
<g id="Layer-1" data-name="P">
</g>
<g id="Layer-1" data-name="P">
</g>
<g id="Layer-1" data-name="P">
</g>
<g id="Layer-1" data-name="P">
</g>
<text xml:space="preserve" transform="matrix(1 0 -0 1 -71.2659 542.938)" font-size="7.02" font-family="TimesNewRomanPSMT"><tspan y="-235.2" x="453.42 457.68116 460.0188 463.5569 465.53654 470.87596 473.99635 477.53443 480.29328 482.21397 485.6938 489.1799">Z-dimension </tspan><tspan y="-227.1621" x="453.42"> </tspan><tspan y="-219.06102" x="453.42"> </tspan><tspan y="-211.02312" x="453.42"> </tspan></text>
<g id="Layer-1" data-name="P">
<text xml:space="preserve" transform="matrix(1 0 -0 1 -71.2659 542.938)" font-size="7.02" font-family="TimesNewRomanPSMT"><tspan y="-202.98" x="453.42 455.7598 457.73945 460.79948 462.7791 466.07853 468.05818 471.59626 474.89567 479.9416 482.27925 485.57865 488.69834 492.23643 495.7745 499.0739 504.11848">flat in X- and Y-</tspan></text>
<clipPath id="cp27">
<path transform="matrix(1,0,0,-1,-71.2659,542.938)" d="M 450.3 169.26 L 509.52 169.26 L 509.52 482.339 L 450.3 482.339 Z "/>
</clipPath>
<g clip-path="url(#cp27)">
<text xml:space="preserve" transform="matrix(1 0 -0 1 -71.2659 542.938)" font-size="7.02" font-family="TimesNewRomanPSMT"><tspan y="-194.94" x="453.42 456.9581 458.93775 464.27787 467.39826 470.93635 473.63624 475.61589 479.0957 482.6338 496.37193 499.43196 502.91178 506.3916">dimension and </tspan></text>
</g>
<text xml:space="preserve" transform="matrix(1 0 -0 1 -71.2659 542.938)" font-size="7.02" font-family="TimesNewRomanPSMT"><tspan y="-186.9" x="453.42 456.17887 459.29856 462.83665 468.17677 471.29646 474.83454 476.81419 479.8735 483.4116 485.0894 487.06904 490.60713 492.34669 496.55793">segmented in Z </tspan></text>
</g>
<g id="Layer-1" data-name="P">
</g>
<text xml:space="preserve" transform="matrix(1 0 -0 1 -71.2659 542.938)" font-size="7.02" font-family="TimesNewRomanPSMT"><tspan y="-468.6" x="512.58"> </tspan></text>
<g id="Layer-1" data-name="P">
<clipPath id="cp28">
<path transform="matrix(1,0,0,-1,-71.2659,542.938)" d="M 524.88 169.26 L 569.88 169.26 L 569.88 482.339 L 524.88 482.339 Z "/>
</clipPath>
<g clip-path="url(#cp28)">
<text xml:space="preserve" transform="matrix(1 0 -0 1 -71.2659 542.938)" font-size="7.02" font-family="TimesNewRomanPSMT"><tspan y="-468.6" x="549.66 554.7003 558.6 562.86117 566.82119 568.56216">NST=  </tspan></text>
</g>
<clipPath id="cp29">
<path transform="matrix(1,0,0,-1,-71.2659,542.938)" d="M 524.88 169.26 L 569.88 169.26 L 569.88 482.339 L 524.88 482.339 Z "/>
</clipPath>
<g clip-path="url(#cp29)">
<text xml:space="preserve" transform="matrix(1 0 -0 1 -71.2659 542.938)" font-size="7.02" font-family="TimesNewRomanPSMT"><tspan y="-468.6" x="570.36"> </tspan></text>
</g>
<g id="Layer-1" data-name="P">
</g>
<clipPath id="cp30">
<path transform="matrix(1,0,0,-1,-71.2659,542.938)" d="M 524.88 169.26 L 569.88 169.26 L 569.88 482.339 L 524.88 482.339 Z "/>
</clipPath>
<g clip-path="url(#cp30)">
<text xml:space="preserve" transform="matrix(1 0 -0 1 -71.2659 542.938)" font-size="7.02" font-family="TimesNewRomanPSMT"><tspan y="-460.56" x="549.66 553.92117 557.8215 562.8618 566.82186 568.5628">TFX=  </tspan></text>
</g>
<clipPath id="cp31">
<path transform="matrix(1,0,0,-1,-71.2659,542.938)" d="M 524.88 169.26 L 569.88 169.26 L 569.88 482.339 L 524.88 482.339 Z "/>
</clipPath>
<g clip-path="url(#cp31)">
<text xml:space="preserve" transform="matrix(1 0 -0 1 -71.2659 542.938)" font-size="7.02" font-family="TimesNewRomanPSMT"><tspan y="-460.56" x="570.36"> </tspan></text>
</g>
<g id="Layer-1" data-name="P">
</g>
<clipPath id="cp32">
<path transform="matrix(1,0,0,-1,-71.2659,542.938)" d="M 524.88 169.26 L 569.88 169.26 L 569.88 482.339 L 524.88 482.339 Z "/>
</clipPath>
<g clip-path="url(#cp32)">
<text xml:space="preserve" transform="matrix(1 0 -0 1 -71.2659 542.938)" font-size="7.02" font-family="TimesNewRomanPSMT"><tspan y="-452.52" x="549.66 553.92117 557.8215 562.8618 566.82186 568.5628">TFY=  </tspan></text>
</g>
<clipPath id="cp33">
<path transform="matrix(1,0,0,-1,-71.2659,542.938)" d="M 524.88 169.26 L 569.88 169.26 L 569.88 482.339 L 524.88 482.339 Z "/>
</clipPath>
<g clip-path="url(#cp33)">
<text xml:space="preserve" transform="matrix(1 0 -0 1 -71.2659 542.938)" font-size="7.02" font-family="TimesNewRomanPSMT"><tspan y="-452.52" x="570.36"> </tspan></text>
</g>
<g id="Layer-1" data-name="P">
</g>
<clipPath id="cp34">
<path transform="matrix(1,0,0,-1,-71.2659,542.938)" d="M 524.88 169.26 L 569.88 169.26 L 569.88 482.339 L 524.88 482.339 Z "/>
</clipPath>
<g clip-path="url(#cp34)">
<text xml:space="preserve" transform="matrix(1 0 -0 1 -71.2659 542.938)" font-size="7.02" font-family="TimesNewRomanPSMT"><tspan y="-444.48" x="550.44 554.7012 558.6015 562.8627 566.8227 568.56369">TFZ=  </tspan></text>
</g>
<clipPath id="cp35">
<path transform="matrix(1,0,0,-1,-71.2659,542.938)" d="M 524.88 169.26 L 569.88 169.26 L 569.88 482.339 L 524.88 482.339 Z "/>
</clipPath>
<g clip-path="url(#cp35)">
<text xml:space="preserve" transform="matrix(1 0 -0 1 -71.2659 542.938)" font-size="7.02" font-family="TimesNewRomanPSMT"><tspan y="-444.48" x="570.36"> </tspan></text>
</g>
<g id="Layer-1" data-name="P">
</g>
<clipPath id="cp36">
<path transform="matrix(1,0,0,-1,-71.2659,542.938)" d="M 524.88 169.26 L 569.88 169.26 L 569.88 482.339 L 524.88 482.339 Z "/>
</clipPath>
<g clip-path="url(#cp36)">
<text xml:space="preserve" transform="matrix(1 0 -0 1 -71.2659 542.938)" font-size="7.02" font-family="TimesNewRomanPSMT"><tspan y="-436.44" x="548.88 553.92037 558.9607 562.86038 566.8204 568.56137">NXS=  </tspan></text>
</g>
<clipPath id="cp37">
<path transform="matrix(1,0,0,-1,-71.2659,542.938)" d="M 524.88 169.26 L 569.88 169.26 L 569.88 482.339 L 524.88 482.339 Z "/>
</clipPath>
<g clip-path="url(#cp37)">
<text xml:space="preserve" transform="matrix(1 0 -0 1 -71.2659 542.938)" font-size="7.02" font-family="TimesNewRomanPSMT"><tspan y="-436.44" x="570.36"> </tspan></text>
</g>
<g id="Layer-1" data-name="P">
</g>
<clipPath id="cp38">
<path transform="matrix(1,0,0,-1,-71.2659,542.938)" d="M 524.88 169.26 L 569.88 169.26 L 569.88 482.339 L 524.88 482.339 Z "/>
</clipPath>
<g clip-path="url(#cp38)">
<text xml:space="preserve" transform="matrix(1 0 -0 1 -71.2659 542.938)" font-size="7.02" font-family="TimesNewRomanPSMT"><tspan y="-428.34" x="548.88 553.92037 558.9607 562.86038 566.8204 568.56137">NYS=  </tspan></text>
</g>
<clipPath id="cp39">
<path transform="matrix(1,0,0,-1,-71.2659,542.938)" d="M 524.88 169.26 L 569.88 169.26 L 569.88 482.339 L 524.88 482.339 Z "/>
</clipPath>
<g clip-path="url(#cp39)">
<text xml:space="preserve" transform="matrix(1 0 -0 1 -71.2659 542.938)" font-size="7.02" font-family="TimesNewRomanPSMT"><tspan y="-428.34" x="570.36"> </tspan></text>
</g>
<g id="Layer-1" data-name="P">
</g>
<clipPath id="cp40">
<path transform="matrix(1,0,0,-1,-71.2659,542.938)" d="M 524.88 169.26 L 569.88 169.26 L 569.88 482.339 L 524.88 482.339 Z "/>
</clipPath>
<g clip-path="url(#cp40)">
<text xml:space="preserve" transform="matrix(1 0 -0 1 -71.2659 542.938)" font-size="7.02" font-family="TimesNewRomanPSMT"><tspan y="-420.3" x="549.66 554.7003 558.9615 562.86117 566.82119 568.56216">NZS=  </tspan></text>
</g>
<clipPath id="cp41">
<path transform="matrix(1,0,0,-1,-71.2659,542.938)" d="M 524.88 169.26 L 569.88 169.26 L 569.88 482.339 L 524.88 482.339 Z "/>
</clipPath>
<g clip-path="url(#cp41)">
<text xml:space="preserve" transform="matrix(1 0 -0 1 -71.2659 542.938)" font-size="7.02" font-family="TimesNewRomanPSMT"><tspan y="-420.3" x="570.36"> </tspan></text>
</g>
<g id="Layer-1" data-name="P">
</g>
<clipPath id="cp42">
<path transform="matrix(1,0,0,-1,-71.2659,542.938)" d="M 524.88 169.26 L 569.88 169.26 L 569.88 482.339 L 524.88 482.339 Z "/>
</clipPath>
<g clip-path="url(#cp42)">
<text xml:space="preserve" transform="matrix(1 0 -0 1 -71.2659 542.938)" font-size="7.02" font-family="TimesNewRomanPSMT"><tspan y="-412.26" x="550.02 555.06039 558.9565 562.8568 566.81686 568.5578">KFS=  </tspan></text>
</g>
<clipPath id="cp43">
<path transform="matrix(1,0,0,-1,-71.2659,542.938)" d="M 524.88 169.26 L 569.88 169.26 L 569.88 482.339 L 524.88 482.339 Z "/>
</clipPath>
<g clip-path="url(#cp43)">
<text xml:space="preserve" transform="matrix(1 0 -0 1 -71.2659 542.938)" font-size="7.02" font-family="TimesNewRomanPSMT"><tspan y="-412.26" x="570.3"> </tspan></text>
</g>
<g id="Layer-1" data-name="P">
</g>
<clipPath id="cp44">
<path transform="matrix(1,0,0,-1,-71.2659,542.938)" d="M 524.88 169.26 L 569.88 169.26 L 569.88 482.339 L 524.88 482.339 Z "/>
</clipPath>
<g clip-path="url(#cp44)">
<text xml:space="preserve" transform="matrix(1 0 -0 1 -71.2659 542.938)" font-size="7.02" font-family="TimesNewRomanPSMT"><tspan y="-404.22" x="548.52 552.7812 557.82156 562.8619 566.8219 568.56289">LNU=  </tspan></text>
</g>
<clipPath id="cp45">
<path transform="matrix(1,0,0,-1,-71.2659,542.938)" d="M 524.88 169.26 L 569.88 169.26 L 569.88 482.339 L 524.88 482.339 Z "/>
</clipPath>
<g clip-path="url(#cp45)">
<text xml:space="preserve" transform="matrix(1 0 -0 1 -71.2659 542.938)" font-size="7.02" font-family="TimesNewRomanPSMT"><tspan y="-404.22" x="570.36"> </tspan></text>
</g>
<g id="Layer-1" data-name="P">
</g>
<clipPath id="cp46">
<path transform="matrix(1,0,0,-1,-71.2659,542.938)" d="M 524.88 169.26 L 569.88 169.26 L 569.88 482.339 L 524.88 482.339 Z "/>
</clipPath>
<g clip-path="url(#cp46)">
<text xml:space="preserve" transform="matrix(1 0 -0 1 -71.2659 542.938)" font-size="7.02" font-family="TimesNewRomanPSMT"><tspan y="-396.18" x="548.1 553.1403 557.8198 562.86019 566.81948 568.5604">NBX=  </tspan></text>
</g>
<clipPath id="cp47">
<path transform="matrix(1,0,0,-1,-71.2659,542.938)" d="M 524.88 169.26 L 569.88 169.26 L 569.88 482.339 L 524.88 482.339 Z "/>
</clipPath>
<g clip-path="url(#cp47)">
<text xml:space="preserve" transform="matrix(1 0 -0 1 -71.2659 542.938)" font-size="7.02" font-family="TimesNewRomanPSMT"><tspan y="-396.18" x="570.3"> </tspan></text>
</g>
<g id="Layer-1" data-name="P">
</g>
<clipPath id="cp48">
<path transform="matrix(1,0,0,-1,-71.2659,542.938)" d="M 524.88 169.26 L 569.88 169.26 L 569.88 482.339 L 524.88 482.339 Z "/>
</clipPath>
<g clip-path="url(#cp48)">
<text xml:space="preserve" transform="matrix(1 0 -0 1 -71.2659 542.938)" font-size="7.02" font-family="TimesNewRomanPSMT"><tspan y="-388.14" x="550.02 553.92318 558.60549 562.8659 566.8252 568.56619">FCT=  </tspan></text>
</g>
<clipPath id="cp49">
<path transform="matrix(1,0,0,-1,-71.2659,542.938)" d="M 524.88 169.26 L 569.88 169.26 L 569.88 482.339 L 524.88 482.339 Z "/>
</clipPath>
<g clip-path="url(#cp49)">
<text xml:space="preserve" transform="matrix(1 0 -0 1 -71.2659 542.938)" font-size="7.02" font-family="TimesNewRomanPSMT"><tspan y="-388.14" x="570.3"> </tspan></text>
</g>
<g id="Layer-1" data-name="P">
</g>
<clipPath id="cp50">
<path transform="matrix(1,0,0,-1,-71.2659,542.938)" d="M 524.88 169.26 L 569.88 169.26 L 569.88 482.339 L 524.88 482.339 Z "/>
</clipPath>
<g clip-path="url(#cp50)">
<text xml:space="preserve" transform="matrix(1 0 -0 1 -71.2659 542.938)" font-size="7.02" font-family="TimesNewRomanPSMT"><tspan y="-380.1" x="547.68 552.72036 556.61996 562.8607 566.82 568.561">XSM=  </tspan></text>
</g>
<clipPath id="cp51">
<path transform="matrix(1,0,0,-1,-71.2659,542.938)" d="M 524.88 169.26 L 569.88 169.26 L 569.88 482.339 L 524.88 482.339 Z "/>
</clipPath>
<g clip-path="url(#cp51)">
<text xml:space="preserve" transform="matrix(1 0 -0 1 -71.2659 542.938)" font-size="7.02" font-family="TimesNewRomanPSMT"><tspan y="-380.1" x="570.3"> </tspan></text>
</g>
<g id="Layer-1" data-name="P">
</g>
<clipPath id="cp52">
<path transform="matrix(1,0,0,-1,-71.2659,542.938)" d="M 524.88 169.26 L 569.88 169.26 L 569.88 482.339 L 524.88 482.339 Z "/>
</clipPath>
<g clip-path="url(#cp52)">
<text xml:space="preserve" transform="matrix(1 0 -0 1 -71.2659 542.938)" font-size="7.02" font-family="TimesNewRomanPSMT"><tspan y="-372" x="550.02 555.06039 558.9565 562.8568 566.81686 568.5578">XSP=  </tspan></text>
</g>
<clipPath id="cp53">
<path transform="matrix(1,0,0,-1,-71.2659,542.938)" d="M 524.88 169.26 L 569.88 169.26 L 569.88 482.339 L 524.88 482.339 Z "/>
</clipPath>
<g clip-path="url(#cp53)">
<text xml:space="preserve" transform="matrix(1 0 -0 1 -71.2659 542.938)" font-size="7.02" font-family="TimesNewRomanPSMT"><tspan y="-372" x="570.3"> </tspan></text>
</g>
<g id="Layer-1" data-name="P">
</g>
<clipPath id="cp54">
<path transform="matrix(1,0,0,-1,-71.2659,542.938)" d="M 524.88 169.26 L 569.88 169.26 L 569.88 482.339 L 524.88 482.339 Z "/>
</clipPath>
<g clip-path="url(#cp54)">
<text xml:space="preserve" transform="matrix(1 0 -0 1 -71.2659 542.938)" font-size="7.02" font-family="TimesNewRomanPSMT"><tspan y="-363.96" x="547.68 552.72036 556.61996 562.8607 566.82 568.561">YSM=  </tspan></text>
</g>
<clipPath id="cp55">
<path transform="matrix(1,0,0,-1,-71.2659,542.938)" d="M 524.88 169.26 L 569.88 169.26 L 569.88 482.339 L 524.88 482.339 Z "/>
</clipPath>
<g clip-path="url(#cp55)">
<text xml:space="preserve" transform="matrix(1 0 -0 1 -71.2659 542.938)" font-size="7.02" font-family="TimesNewRomanPSMT"><tspan y="-363.96" x="570.3"> </tspan></text>
</g>
<g id="Layer-1" data-name="P">
</g>
<clipPath id="cp56">
<path transform="matrix(1,0,0,-1,-71.2659,542.938)" d="M 524.88 169.26 L 569.88 169.26 L 569.88 482.339 L 524.88 482.339 Z "/>
</clipPath>
<g clip-path="url(#cp56)">
<text xml:space="preserve" transform="matrix(1 0 -0 1 -71.2659 542.938)" font-size="7.02" font-family="TimesNewRomanPSMT"><tspan y="-355.92" x="550.02 555.06039 558.9565 562.8568 566.81686 568.5578">YSP=  </tspan></text>
</g>
<clipPath id="cp57">
<path transform="matrix(1,0,0,-1,-71.2659,542.938)" d="M 524.88 169.26 L 569.88 169.26 L 569.88 482.339 L 524.88 482.339 Z "/>
</clipPath>
<g clip-path="url(#cp57)">
<text xml:space="preserve" transform="matrix(1 0 -0 1 -71.2659 542.938)" font-size="7.02" font-family="TimesNewRomanPSMT"><tspan y="-355.92" x="570.3"> </tspan></text>
</g>
<g id="Layer-1" data-name="P">
</g>
<clipPath id="cp58">
<path transform="matrix(1,0,0,-1,-71.2659,542.938)" d="M 524.88 169.26 L 569.88 169.26 L 569.88 482.339 L 524.88 482.339 Z "/>
</clipPath>
<g clip-path="url(#cp58)">
<text xml:space="preserve" transform="matrix(1 0 -0 1 -71.2659 542.938)" font-size="7.02" font-family="TimesNewRomanPSMT"><tspan y="-347.88" x="548.46 552.7198 556.6229 562.8637 566.823 568.56399">ZSM=  </tspan></text>
</g>
<clipPath id="cp59">
<path transform="matrix(1,0,0,-1,-71.2659,542.938)" d="M 524.88 169.26 L 569.88 169.26 L 569.88 482.339 L 524.88 482.339 Z "/>
</clipPath>
<g clip-path="url(#cp59)">
<text xml:space="preserve" transform="matrix(1 0 -0 1 -71.2659 542.938)" font-size="7.02" font-family="TimesNewRomanPSMT"><tspan y="-347.88" x="570.3"> </tspan></text>
</g>
<g id="Layer-1" data-name="P">
</g>
<clipPath id="cp60">
<path transform="matrix(1,0,0,-1,-71.2659,542.938)" d="M 524.88 169.26 L 569.88 169.26 L 569.88 482.339 L 524.88 482.339 Z "/>
</clipPath>
<g clip-path="url(#cp60)">
<text xml:space="preserve" transform="matrix(1 0 -0 1 -71.2659 542.938)" font-size="7.02" font-family="TimesNewRomanPSMT"><tspan y="-339.84" x="550.8 555.0604 558.95657 562.8569 566.8169 568.55789">ZSP=  </tspan></text>
</g>
<clipPath id="cp61">
<path transform="matrix(1,0,0,-1,-71.2659,542.938)" d="M 524.88 169.26 L 569.88 169.26 L 569.88 482.339 L 524.88 482.339 Z "/>
</clipPath>
<g clip-path="url(#cp61)">
<text xml:space="preserve" transform="matrix(1 0 -0 1 -71.2659 542.938)" font-size="7.02" font-family="TimesNewRomanPSMT"><tspan y="-339.84" x="570.3"> </tspan></text>
</g>
<g id="Layer-1" data-name="P">
</g>
<clipPath id="cp62">
<path transform="matrix(1,0,0,-1,-71.2659,542.938)" d="M 524.88 169.26 L 569.88 169.26 L 569.88 482.339 L 524.88 482.339 Z "/>
</clipPath>
<g clip-path="url(#cp62)">
<text xml:space="preserve" transform="matrix(1 0 -0 1 -71.2659 542.938)" font-size="7.02" font-family="TimesNewRomanPSMT"><tspan y="-331.8" x="550.02 554.70236 558.6019 562.86239 566.82168 568.5626">RFL=  </tspan></text>
</g>
<clipPath id="cp63">
<path transform="matrix(1,0,0,-1,-71.2659,542.938)" d="M 524.88 169.26 L 569.88 169.26 L 569.88 482.339 L 524.88 482.339 Z "/>
</clipPath>
<g clip-path="url(#cp63)">
<text xml:space="preserve" transform="matrix(1 0 -0 1 -71.2659 542.938)" font-size="7.02" font-family="TimesNewRomanPSMT"><tspan y="-331.8" x="570.3"> </tspan></text>
</g>
<g id="Layer-1" data-name="P">
</g>
<clipPath id="cp64">
<path transform="matrix(1,0,0,-1,-71.2659,542.938)" d="M 524.88 169.26 L 569.88 169.26 L 569.88 482.339 L 524.88 482.339 Z "/>
</clipPath>
<g clip-path="url(#cp64)">
<text xml:space="preserve" transform="matrix(1 0 -0 1 -71.2659 542.938)" font-size="7.02" font-family="TimesNewRomanPSMT"><tspan y="-323.7" x="551.52 555.42037 559.31649 562.8567 566.8167 568.5577">PS6=  </tspan></text>
</g>
<clipPath id="cp65">
<path transform="matrix(1,0,0,-1,-71.2659,542.938)" d="M 524.88 169.26 L 569.88 169.26 L 569.88 482.339 L 524.88 482.339 Z "/>
</clipPath>
<g clip-path="url(#cp65)">
<text xml:space="preserve" transform="matrix(1 0 -0 1 -71.2659 542.938)" font-size="7.02" font-family="TimesNewRomanPSMT"><tspan y="-323.7" x="570.24"> </tspan></text>
</g>
<g id="Layer-1" data-name="P">
</g>
<clipPath id="cp66">
<path transform="matrix(1,0,0,-1,-71.2659,542.938)" d="M 524.88 169.26 L 569.88 169.26 L 569.88 482.339 L 524.88 482.339 Z "/>
</clipPath>
<g clip-path="url(#cp66)">
<text xml:space="preserve" transform="matrix(1 0 -0 1 -71.2659 542.938)" font-size="7.02" font-family="TimesNewRomanPSMT"><tspan y="-315.66" x="551.16 555.0603 558.9564 562.85678 566.8168 568.55776">PSP=  </tspan></text>
</g>
<clipPath id="cp67">
<path transform="matrix(1,0,0,-1,-71.2659,542.938)" d="M 524.88 169.26 L 569.88 169.26 L 569.88 482.339 L 524.88 482.339 Z "/>
</clipPath>
<g clip-path="url(#cp67)">
<text xml:space="preserve" transform="matrix(1 0 -0 1 -71.2659 542.938)" font-size="7.02" font-family="TimesNewRomanPSMT"><tspan y="-315.66" x="570.3"> </tspan></text>
</g>
<g id="Layer-1" data-name="P">
</g>
<clipPath id="cp68">
<path transform="matrix(1,0,0,-1,-71.2659,542.938)" d="M 524.88 169.26 L 569.88 169.26 L 569.88 482.339 L 524.88 482.339 Z "/>
</clipPath>
<g clip-path="url(#cp68)">
<text xml:space="preserve" transform="matrix(1 0 -0 1 -71.2659 542.938)" font-size="7.02" font-family="TimesNewRomanPSMT"><tspan y="-307.62" x="548.1 552.7802 557.82058 562.8609 566.8202 568.56118">RDU=  </tspan></text>
</g>
<clipPath id="cp69">
<path transform="matrix(1,0,0,-1,-71.2659,542.938)" d="M 524.88 169.26 L 569.88 169.26 L 569.88 482.339 L 524.88 482.339 Z "/>
</clipPath>
<g clip-path="url(#cp69)">
<text xml:space="preserve" transform="matrix(1 0 -0 1 -71.2659 542.938)" font-size="7.02" font-family="TimesNewRomanPSMT"><tspan y="-307.62" x="570.3"> </tspan></text>
</g>
<g id="Layer-1" data-name="P">
</g>
<clipPath id="cp70">
<path transform="matrix(1,0,0,-1,-71.2659,542.938)" d="M 524.88 169.26 L 569.88 169.26 L 569.88 482.339 L 524.88 482.339 Z "/>
</clipPath>
<g clip-path="url(#cp70)">
<text xml:space="preserve" transform="matrix(1 0 -0 1 -71.2659 542.938)" font-size="7.02" font-family="TimesNewRomanPSMT"><tspan y="-299.58" x="548.88 555.42269 559.323 562.8625 566.8225 568.5635">WS6=  </tspan></text>
</g>
<clipPath id="cp71">
<path transform="matrix(1,0,0,-1,-71.2659,542.938)" d="M 524.88 169.26 L 569.88 169.26 L 569.88 482.339 L 524.88 482.339 Z "/>
</clipPath>
<g clip-path="url(#cp71)">
<text xml:space="preserve" transform="matrix(1 0 -0 1 -71.2659 542.938)" font-size="7.02" font-family="TimesNewRomanPSMT"><tspan y="-299.58" x="570.3"> </tspan></text>
</g>
</g>
<g id="Layer-1" data-name="P">
</g>
<g id="Layer-1" data-name="P">
</g>
<g id="Layer-1" data-name="P">
</g>
<g id="Layer-1" data-name="P">
</g>
<g id="Layer-1" data-name="P">
</g>
<g id="Layer-1" data-name="P">
</g>
<g id="Layer-1" data-name="P">
</g>
<g id="Layer-1" data-name="P">
</g>
<g id="Layer-1" data-name="P">
</g>
<g id="Layer-1" data-name="P">
</g>
<g id="Layer-1" data-name="P">
</g>
<g id="Layer-1" data-name="P">
</g>
<g id="Layer-1" data-name="P">
</g>
<g id="Layer-1" data-name="P">
</g>
<g id="Layer-1" data-name="P">
</g>
<g id="Layer-1" data-name="P">
</g>
<g id="Layer-1" data-name="P">
</g>
<g id="Layer-1" data-name="P">
</g>
<g id="Layer-1" data-name="P">
</g>
<g id="Layer-1" data-name="P">
</g>
<g id="Layer-1" data-name="P">
</g>
<g id="Layer-1" data-name="P">
</g>
<g id="Layer-1" data-name="P">
</g>
<g id="Layer-1" data-name="P">
</g>
<g id="Layer-1" data-name="P">
</g>
<g id="Layer-1" data-name="P">
</g>
<g id="Layer-1" data-name="P">
</g>
<g id="Layer-1" data-name="P">
</g>
<g id="Layer-1" data-name="P">
</g>
<g id="Layer-1" data-name="P">
</g>
<g id="Layer-1" data-name="P">
</g>
<g id="Layer-1" data-name="P">
</g>
<g id="Layer-1" data-name="P">
</g>
<g id="Layer-1" data-name="P">
</g>
<g id="Layer-1" data-name="P">
</g>
<g id="Layer-1" data-name="P">
</g>
<g id="Layer-1" data-name="P">
</g>
<g id="Layer-1" data-name="P">
</g>
<g id="Layer-1" data-name="P">
</g>
<g id="Layer-1" data-name="P">
</g>
<g id="Layer-1" data-name="P">
</g>
<g id="Layer-1" data-name="P">
</g>
<g id="Layer-1" data-name="P">
</g>
<g id="Layer-1" data-name="P">
</g>
<text xml:space="preserve" transform="matrix(1 0 -0 1 -71.2659 542.938)" font-size="7.02" font-family="TimesNewRomanPSMT"><tspan y="-468.6" x="573 576.48196">0 </tspan><tspan y="-460.5621" x="573 576.5402 578.2812 581.761">0.0 </tspan><tspan y="-452.5242" x="573 576.5402 578.2812 581.761">0.0 </tspan><tspan y="-444.4863" x="573 576.5402 578.2812 581.761">0.0 </tspan><tspan y="-436.4484" x="573 576.48196">0 </tspan><tspan y="-428.34733" x="573 576.48196">0 </tspan><tspan y="-420.30943" x="573 576.48196">0 </tspan><tspan y="-412.2715" x="573"> </tspan><tspan y="-404.2336" x="573 576.48196">0 </tspan><tspan y="-396.1957" x="573 576.48196">0 </tspan><tspan y="-388.1578" x="573 576.48196">0 </tspan><tspan y="-380.1199" x="573 576.5381 581.5784">&#x2013;X </tspan><tspan y="-372.01884" x="573 576.9593 581.99966">+X </tspan><tspan y="-363.98094" x="573 576.5381 581.5784">&#x2013;Y </tspan><tspan y="-355.94303" x="573 576.9593 581.99966">+Y </tspan><tspan y="-347.90513" x="573 576.5381 580.79928">&#x2013;Z </tspan><tspan y="-339.86723" x="573.00009 576.95938 581.22048">+Z </tspan><tspan y="-331.8293" x="573.00009 578.0404 583.08078">NO </tspan><tspan y="-323.72825" x="573.00009 578.0404 583.08078">NO </tspan><tspan y="-315.69035" x="573.00009 578.0404 583.08078">NO </tspan><tspan y="-307.65245" x="573.00009 576.482">0 </tspan><tspan y="-299.61454" x="573.00009 576.482">0 </tspan><tspan y="-468.63508" x="613.5055 616.26437 618.24398 621.30398 623.6444 625.624 627.3018 629.28146 632.7016 636.2397 639.3672">start type </tspan><tspan y="-460.59718" x="613.5055 618.5451 620.2861 623.40646 626.9445 630.4826 632.7627 636.2425 638.2221 641.7602 644.8202 646.7998 649.86209">X coordinate </tspan><tspan y="-452.55928" x="613.5055 618.5451 620.2861 623.40646 626.9445 630.4826 632.7627 636.2425 638.2221 641.7602 644.8202 646.7998 649.86209">Y coordinate </tspan><tspan y="-444.52137" x="613.5055 617.76528 619.5062 622.6266 626.1647 629.70278 631.98287 635.46267 637.44229 640.98037 644.0411 646.0207 649.0828">Z coordinate </tspan><tspan y="-436.48347" x="613.5055 618.5451 620.2854 622.265 625.7448 629.2829 632.4026 635.9407 637.61849 641.15658 643.4963 645.1741 648.71218 652.19198 654.1716 656.1512 657.829 661.3088 664.84689 667.6057 669.3075">X index of unit pos. </tspan><tspan y="-428.3824" x="613.5055 618.5451 620.2854 622.265 625.7448 629.2829 632.4026 635.9407 637.61849 641.15658 643.4963 645.1741 648.71218 652.19198 654.1716 656.1512 657.8438 661.3236 664.8617 667.62057 669.3005">Y index of unit pos. </tspan><tspan y="-420.34449" x="613.4985 617.75827 619.49856 621.47817 625.01626 628.49679 631.61648 635.15457 636.83236 640.3704 642.71017 644.38796 647.926 651.4058 653.38546 655.36508 657.04287 660.52267 664.0607 666.8196 668.52127">Z index of unit pos. </tspan><tspan y="-412.30659" x="613.4985 615.8382 617.8178 620.5177 623.2176 625.1972 627.1768 630.2972 632.03677 637.37686 639.35647 642.89456 644.81448 648.35256 650.693 653.8127 655.4905 659.02859 662.56668 664.2601">fissile mixture no. </tspan><tspan y="-404.26869" x="613.4985 617.03659 620.57467 625.91409 629.45217 632.5725 634.91226 636.6518 640.1899 642.53036 644.2081 646.18777 649.2485 652.0073 653.98696 655.66476 659.2028 662.26358 665.80166 667.78128 670.06137 673.54116 677.0365">number of last neutron </tspan><tspan y="-396.23078" x="613.4985 616.2573 619.7371 623.2752 625.6149 628.6749 631.7946 633.5356 637.0154 640.55349 642.4734 644.453 646.194 649.6745 653.2126 658.5527 662.09078 665.2111 667.5595">source unit number </tspan><tspan y="-388.19288" x="613.4985 615.83828 618.1787 621.2984 624.4188 626.33877 628.25869 631.79818 635.2801">fraction </tspan><tspan y="-380.15498" x="613.4985 617.03659 622.0769 623.8179 627.3581 629.6979 631.37777 634.138 637.61996 641.16018 643.49996 646.62039 649.74008 651.481 654.54037 658.0223 661.5625 665.04446 666.96438 670.4463">&#x2013;X of source cuboid </tspan><tspan y="-372.0539" x="613.4985 617.4585 622.49887 624.2398 627.78 630.1198 631.8608 634.5635 638.10299 641.5849 643.9247 647.0451 650.1648 651.90579 654.96578 658.50527 661.9872 665.4691 667.4487 670.93069">+X of source cuboid </tspan><tspan y="-364.016" x="613.4985 617.03659 622.0769 623.8179 627.3581 629.6979 631.37777 634.138 637.61996 641.16018 643.49996 646.62039 649.74008 651.481 654.54037 658.0223 661.5625 665.04446 666.96438 670.4463">&#x2013;Y of source cuboid </tspan><tspan y="-355.9781" x="613.4985 617.4585 622.49887 624.2398 627.78 630.1198 631.8608 634.5635 638.10299 641.5849 643.9247 647.0451 650.1648 651.90579 654.96578 658.50527 661.9872 665.4691 667.4487 670.93069">+Y of source cuboid </tspan><tspan y="-347.9402" x="613.4985 617.03659 621.2977 623.0387 626.5789 628.9187 630.65969 633.36239 636.8443 640.3845 642.7243 645.8447 648.9644 650.7054 653.7647 657.24667 660.78616 664.26809 666.188 669.6699">&#x2013;Z of source cuboid </tspan><tspan y="-339.90229" x="613.4985 617.4585 621.71969 623.46066 627.00088 629.34066 631.0816 633.7843 637.3238 640.8057 643.1455 646.2659 649.3856 651.1266 654.1866 657.7268 661.20877 664.6907 666.6703 670.1522">+Z of source cuboid </tspan><tspan y="-331.86439" x="613.4985 616.2573 618.23696 621.29696 623.6374 625.617 627.2948 629.2744 632.8125 634.55209 636.8925 639.9525 642.29226 644.27188 647.3326 650.4523 652.3722 655.9103 658.20187">start in reflector </tspan><tspan y="-323.7633" x="613.4985 617.03659 619.3763 621.2962 624.77676 626.75637 628.4973 631.1972 633.1768 636.2972 638.5773 640.5569 642.29788 645.83596 647.5158 649.4954 652.97598 656.45578 659.99386 661.9154">print start 6 input </tspan><tspan y="-315.7254" x="613.4985 617.0387 619.3785 621.2984 624.78036 626.7607 628.50167 631.20437 633.18399 636.30368 638.58377 640.5641 642.484 645.96597 649.50619 651.24716 654.72909 658.26858 660.1885 663.6704 665.65 668.3527">print starting points </tspan><tspan y="-307.6875" x="613.4985 617.0387 620.5206 622.44058 624.4209 626.16189 629.2823 632.7642 636.3037 638.2272 641.34689 643.2668 646.7487 648.72909 652.211 655.7512 657.4922 660.1949 662.17526 665.2949 667.575 669.55538 671.2963 674.77828 677.89797 679.87759 682.91928">unit containing start data </tspan><tspan y="-299.6496" x="613.4985 617.0387 620.5206 622.44058 624.42019 626.16116 628.08108 631.6213 633.36227 638.4026 640.7424 642.6623 644.64266 647.7623 649.5033 652.206 654.1856 657.306 659.5861 661.56576 663.3067 666.8469 669.9069 671.8262 674.9375">unit to write start data </tspan></text>
<g id="Layer-1" data-name="Artifact">
<path transform="matrix(1,0,0,-1,-71.2659,542.938)" d="M 75.12 482.4 L 111.12 482.4 L 111.12 483.36 L 75.12 483.36 Z "/>
<path transform="matrix(1,0,0,-1,-71.2659,542.938)" d="M 111.12 482.4 L 112.079 482.4 L 112.079 483.36 L 111.12 483.36 Z "/>
<path transform="matrix(1,0,0,-1,-71.2659,542.938)" d="M 112.08 482.4 L 145.98001 482.4 L 145.98001 483.36 L 112.08 483.36 Z "/>
<path transform="matrix(1,0,0,-1,-71.2659,542.938)" d="M 145.98 482.4 L 146.94 482.4 L 146.94 483.36 L 145.98 483.36 Z "/>
<path transform="matrix(1,0,0,-1,-71.2659,542.938)" d="M 146.94 482.4 L 193.2 482.4 L 193.2 483.36 L 146.94 483.36 Z "/>
<path transform="matrix(1,0,0,-1,-71.2659,542.938)" d="M 193.2 482.4 L 194.159 482.4 L 194.159 483.36 L 193.2 483.36 Z "/>
<path transform="matrix(1,0,0,-1,-71.2659,542.938)" d="M 194.16 482.4 L 240.42 482.4 L 240.42 483.36 L 194.16 483.36 Z "/>
<path transform="matrix(1,0,0,-1,-71.2659,542.938)" d="M 240.42 482.4 L 241.38 482.4 L 241.38 483.36 L 240.42 483.36 Z "/>
<path transform="matrix(1,0,0,-1,-71.2659,542.938)" d="M 241.38 482.4 L 299.58003 482.4 L 299.58003 483.36 L 241.38 483.36 Z "/>
<path transform="matrix(1,0,0,-1,-71.2659,542.938)" d="M 299.58 482.4 L 300.539 482.4 L 300.539 483.36 L 299.58 483.36 Z "/>
<path transform="matrix(1,0,0,-1,-71.2659,542.938)" d="M 300.54 482.4 L 318 482.4 L 318 483.36 L 300.54 483.36 Z "/>
<path transform="matrix(1,0,0,-1,-71.2659,542.938)" d="M 318 482.4 L 318.96 482.4 L 318.96 483.36 L 318 483.36 Z "/>
<path transform="matrix(1,0,0,-1,-71.2659,542.938)" d="M 318.96 482.4 L 349.5 482.4 L 349.5 483.36 L 318.96 483.36 Z "/>
<path transform="matrix(1,0,0,-1,-71.2659,542.938)" d="M 349.5 482.4 L 350.46 482.4 L 350.46 483.36 L 349.5 483.36 Z "/>
<path transform="matrix(1,0,0,-1,-71.2659,542.938)" d="M 350.46 482.4 L 403.08 482.4 L 403.08 483.36 L 350.46 483.36 Z "/>
<path transform="matrix(1,0,0,-1,-71.2659,542.938)" d="M 403.08 482.4 L 404.039 482.4 L 404.039 483.36 L 403.08 483.36 Z "/>
<path transform="matrix(1,0,0,-1,-71.2659,542.938)" d="M 404.04 482.4 L 450.30003 482.4 L 450.30003 483.36 L 404.04 483.36 Z "/>
<path transform="matrix(1,0,0,-1,-71.2659,542.938)" d="M 450.3 482.4 L 451.25999 482.4 L 451.25999 483.36 L 450.3 483.36 Z "/>
<path transform="matrix(1,0,0,-1,-71.2659,542.938)" d="M 451.26 482.4 L 509.52003 482.4 L 509.52003 483.36 L 451.26 483.36 Z "/>
<path transform="matrix(1,0,0,-1,-71.2659,542.938)" d="M 509.52 482.4 L 510.47999 482.4 L 510.47999 483.36 L 509.52 483.36 Z "/>
<path transform="matrix(1,0,0,-1,-71.2659,542.938)" d="M 510.48 482.4 L 524.88 482.4 L 524.88 483.36 L 510.48 483.36 Z "/>
<path transform="matrix(1,0,0,-1,-71.2659,542.938)" d="M 524.88 482.4 L 525.84 482.4 L 525.84 483.36 L 524.88 483.36 Z "/>
<path transform="matrix(1,0,0,-1,-71.2659,542.938)" d="M 525.84 482.4 L 569.88 482.4 L 569.88 483.36 L 525.84 483.36 Z "/>
<path transform="matrix(1,0,0,-1,-71.2659,542.938)" d="M 569.88 482.4 L 570.84 482.4 L 570.84 483.36 L 569.88 483.36 Z "/>
<path transform="matrix(1,0,0,-1,-71.2659,542.938)" d="M 570.84 482.4 L 610.38 482.4 L 610.38 483.36 L 570.84 483.36 Z "/>
<path transform="matrix(1,0,0,-1,-71.2659,542.938)" d="M 610.38 482.4 L 611.34 482.4 L 611.34 483.36 L 610.38 483.36 Z "/>
<path transform="matrix(1,0,0,-1,-71.2659,542.938)" d="M 611.34 482.4 L 727.38 482.4 L 727.38 483.36 L 611.34 483.36 Z "/>
</g>
<g id="Layer-1" data-name="P">
<clipPath id="cp72">
<path transform="matrix(1,0,0,-1,-71.2659,542.938)" d="M 75.12 154.26 L 111.12 154.26 L 111.12 168.29999 L 75.12 168.29999 Z "/>
</clipPath>
<g clip-path="url(#cp72)">
<text xml:space="preserve" transform="matrix(1 0 -0 1 -71.2659 542.938)" font-size="7.02" font-family="TimesNewRomanPSMT"><tspan y="-155.76" x="78.18"> </tspan></text>
</g>
<g id="Layer-1" data-name="P">
</g>
<clipPath id="cp73">
<path transform="matrix(1,0,0,-1,-71.2659,542.938)" d="M 111.12 154.26 L 727.38 154.26 L 727.38 168.29999 L 111.12 168.29999 Z "/>
</clipPath>
<g clip-path="url(#cp73)">
<text xml:space="preserve" transform="matrix(1 0 -0 1 -71.2659 542.938)" font-size="7.02" font-family="TimesNewRomanPSMT"><tspan y="-155.76" x="114.18 115.92096">  </tspan></text>
</g>
<clipPath id="cp74">
<path transform="matrix(1,0,0,-1,-71.2659,542.938)" d="M 111.12 154.26 L 727.38 154.26 L 727.38 168.29999 L 111.12 168.29999 Z "/>
</clipPath>
<g clip-path="url(#cp74)">
<text xml:space="preserve" transform="matrix(1 0 -0 1 -71.2659 542.938)" font-size="7.02" font-family="TimesNewRomanPSMT"><tspan y="-155.76" x="117.66 121.19808 125.45782 130.49817 135.53783 137.33777 142.67789 146.21598 148.97484 150.95449 152.69545 156.23354 159.35323 161.03311 163.01276 166.49257 169.61226 171.35323 173.2732 176.39359 179.15245 181.1321 182.87306 185.93308 189.41359 191.39324 193.733 197.15316 198.89412 201.23389 204.77198 207.11174 208.8527 211.9724 215.09279 218.1528 221.69089 223.43186 226.19072 229.25074 231.23038 232.91027 236.44835 238.78882 240.52979 243.23038 245.21002 248.33042 250.6098 252.58945 254.33042 257.8685 259.5491 263.0872 266.14723 268.12687">*LNU must be the last entry for each set of start 6 data</tspan></text>
</g>
<clipPath id="cp75">
<path transform="matrix(1,0,0,-1,-71.2659,542.938)" d="M 111.12 154.26 L 727.38 154.26 L 727.38 168.29999 L 111.12 168.29999 Z "/>
</clipPath>
<g clip-path="url(#cp75)">
<text xml:space="preserve" transform="matrix(1 0 -0 1 -71.2659 542.938)" font-size="7.02" font-family="TimesNewRomanPSMT"><tspan y="-155.76" x="271.26 273.00099">. </tspan></text>
</g>
<clipPath id="cp76">
<path transform="matrix(1,0,0,-1,-71.2659,542.938)" d="M 111.12 154.26 L 727.38 154.26 L 727.38 168.29999 L 111.12 168.29999 Z "/>
</clipPath>
<g clip-path="url(#cp76)">
<text xml:space="preserve" transform="matrix(1 0 -0 1 -71.2659 542.938)" font-size="7.02" font-family="TimesNewRomanPSMT"><tspan y="-155.76" x="274.74 278.99974 282.5378 285.6582 287.39918 291.5992 296.6396 301.67927 303.42024 306.9583 309.2981 311.03907 314.15946 317.27915 320.39955 323.93763 325.61753 328.37638 331.8569 334.9766 338.097 341.157 343.91587 346.61647 348.53645 352.01628 355.13597 356.87693 359.63578 362.75547 364.7351 366.415 369.9531 372.29359 373.97349 377.51158 380.63127 382.55125 385.67164 387.4126 392.75273 396.2908 399.04966 401.0293 402.77027 406.30836 409.42805 411.10795 413.02793 416.14833 418.4881 422.02619 425.14588 427.48637 429.16627 431.08625 434.62434 437.74403 441.2821 442.962 444.94166 448.42219 451.54188 453.28285 455.26249 458.3225 461.0231 463.00276">The LNU of each successive set of data must be larger than the last.</tspan></text>
</g>
<clipPath id="cp77">
<path transform="matrix(1,0,0,-1,-71.2659,542.938)" d="M 111.12 154.26 L 727.38 154.26 L 727.38 168.29999 L 111.12 168.29999 Z "/>
</clipPath>
<g clip-path="url(#cp77)">
<text xml:space="preserve" transform="matrix(1 0 -0 1 -71.2659 542.938)" font-size="6" font-family="TimesNewRomanPSMT"><tspan y="-155.76" x="464.76"> </tspan></text>
</g>
<g id="Layer-1" data-name="Artifact">
</g>
<path transform="matrix(1,0,0,-1,-71.2659,542.938)" d="M 111.12 168.3 L 145.98001 168.3 L 145.98001 169.26001 L 111.12 169.26001 Z "/>
<path transform="matrix(1,0,0,-1,-71.2659,542.938)" d="M 145.98 168.3 L 146.94 168.3 L 146.94 169.26001 L 145.98 169.26001 Z "/>
<path transform="matrix(1,0,0,-1,-71.2659,542.938)" d="M 146.94 168.3 L 193.2 168.3 L 193.2 169.26001 L 146.94 169.26001 Z "/>
<path transform="matrix(1,0,0,-1,-71.2659,542.938)" d="M 193.2 168.3 L 194.159 168.3 L 194.159 169.26001 L 193.2 169.26001 Z "/>
<path transform="matrix(1,0,0,-1,-71.2659,542.938)" d="M 194.16 168.3 L 240.42 168.3 L 240.42 169.26001 L 194.16 169.26001 Z "/>
<path transform="matrix(1,0,0,-1,-71.2659,542.938)" d="M 240.42 168.3 L 241.38 168.3 L 241.38 169.26001 L 240.42 169.26001 Z "/>
<path transform="matrix(1,0,0,-1,-71.2659,542.938)" d="M 241.38 168.3 L 299.58003 168.3 L 299.58003 169.26001 L 241.38 169.26001 Z "/>
<path transform="matrix(1,0,0,-1,-71.2659,542.938)" d="M 299.58 168.3 L 300.539 168.3 L 300.539 169.26001 L 299.58 169.26001 Z "/>
<path transform="matrix(1,0,0,-1,-71.2659,542.938)" d="M 300.54 168.3 L 318 168.3 L 318 169.26001 L 300.54 169.26001 Z "/>
<path transform="matrix(1,0,0,-1,-71.2659,542.938)" d="M 318 168.3 L 318.96 168.3 L 318.96 169.26001 L 318 169.26001 Z "/>
<path transform="matrix(1,0,0,-1,-71.2659,542.938)" d="M 318.96 168.3 L 349.5 168.3 L 349.5 169.26001 L 318.96 169.26001 Z "/>
<path transform="matrix(1,0,0,-1,-71.2659,542.938)" d="M 349.5 168.3 L 350.46 168.3 L 350.46 169.26001 L 349.5 169.26001 Z "/>
<path transform="matrix(1,0,0,-1,-71.2659,542.938)" d="M 350.46 168.3 L 403.08 168.3 L 403.08 169.26001 L 350.46 169.26001 Z "/>
<path transform="matrix(1,0,0,-1,-71.2659,542.938)" d="M 403.08 168.3 L 404.039 168.3 L 404.039 169.26001 L 403.08 169.26001 Z "/>
<path transform="matrix(1,0,0,-1,-71.2659,542.938)" d="M 404.04 168.3 L 450.30003 168.3 L 450.30003 169.26001 L 404.04 169.26001 Z "/>
<path transform="matrix(1,0,0,-1,-71.2659,542.938)" d="M 450.3 168.3 L 451.25999 168.3 L 451.25999 169.26001 L 450.3 169.26001 Z "/>
<path transform="matrix(1,0,0,-1,-71.2659,542.938)" d="M 451.26 168.3 L 509.52003 168.3 L 509.52003 169.26001 L 451.26 169.26001 Z "/>
<path transform="matrix(1,0,0,-1,-71.2659,542.938)" d="M 509.52 168.3 L 510.47999 168.3 L 510.47999 169.26001 L 509.52 169.26001 Z "/>
<path transform="matrix(1,0,0,-1,-71.2659,542.938)" d="M 510.48 168.3 L 524.88 168.3 L 524.88 169.26001 L 510.48 169.26001 Z "/>
<path transform="matrix(1,0,0,-1,-71.2659,542.938)" d="M 524.88 168.3 L 525.84 168.3 L 525.84 169.26001 L 524.88 169.26001 Z "/>
<path transform="matrix(1,0,0,-1,-71.2659,542.938)" d="M 525.84 168.3 L 569.88 168.3 L 569.88 169.26001 L 525.84 169.26001 Z "/>
<path transform="matrix(1,0,0,-1,-71.2659,542.938)" d="M 569.88 168.3 L 570.84 168.3 L 570.84 169.26001 L 569.88 169.26001 Z "/>
<path transform="matrix(1,0,0,-1,-71.2659,542.938)" d="M 570.84 168.3 L 610.38 168.3 L 610.38 169.26001 L 570.84 169.26001 Z "/>
<path transform="matrix(1,0,0,-1,-71.2659,542.938)" d="M 610.38 168.3 L 611.34 168.3 L 611.34 169.26001 L 610.38 169.26001 Z "/>
<path transform="matrix(1,0,0,-1,-71.2659,542.938)" d="M 611.34 168.3 L 727.38 168.3 L 727.38 169.26001 L 611.34 169.26001 Z "/>
<path transform="matrix(1,0,0,-1,-71.2659,542.938)" d="M 74.4 151.08 L 111.12 151.08 L 111.12 152.039 L 74.4 152.039 Z "/>
<path transform="matrix(1,0,0,-1,-71.2659,542.938)" d="M 110.4 151.08 L 111.359 151.08 L 111.359 152.039 L 110.4 152.039 Z "/>
<path transform="matrix(1,0,0,-1,-71.2659,542.938)" d="M 111.36 151.08 L 727.38 151.08 L 727.38 152.039 L 111.36 152.039 Z "/>
</g>
<g id="Layer-1" data-name="P">
</g>
<text xml:space="preserve" transform="matrix(1 0 -0 1 -71.2659 542.938)" font-size="10.98" font-family="TimesNewRomanPSMT"><tspan y="-140.82" x="72"> </tspan></text>
</g>
</svg>
