<?xml version="1.0" encoding="UTF-8" standalone="no"?>
<!DOCTYPE svg PUBLIC "-//W3C//DTD SVG 1.1//EN" "http://www.w3.org/Graphics/SVG/1.1/DTD/svg11.dtd">
<svg xmlns="http://www.w3.org/2000/svg" xmlns:xlink="http://www.w3.org/1999/xlink" version="1.1" width="623.7601pt" height="362.94197pt" viewBox="0 0 623.7601 362.94197">
<g enable-background="new">
<g id="Layer-1" data-name="P">
<clipPath id="cp0">
<path transform="matrix(1,0,0,-1,-85.9599,543.673)" d="M 89.4 510.12 L 262.98 510.12 L 262.98 535.38 L 89.4 535.38 Z "/>
</clipPath>
<g clip-path="url(#cp0)">
<text xml:space="preserve" transform="matrix(1 0 -0 1 -85.9599 543.673)" font-size="10.98" font-family="TimesNewRomanPSMT"><tspan y="-525.18" x="95.1 103.01658 109.736339 117.652919 128.0323 135.94889 143.32854">KEYWORD</tspan></text>
</g>
<clipPath id="cp1">
<path transform="matrix(1,0,0,-1,-85.9599,543.673)" d="M 89.4 510.12 L 262.98 510.12 L 262.98 535.38 L 89.4 535.38 Z "/>
</clipPath>
<g clip-path="url(#cp1)">
<text xml:space="preserve" transform="matrix(1 0 -0 1 -85.9599 543.673)" font-size="10.98" font-family="TimesNewRomanPSMT"><tspan y="-525.18" x="151.32"> </tspan></text>
</g>
<g id="Layer-1" data-name="P">
</g>
<clipPath id="cp2">
<path transform="matrix(1,0,0,-1,-85.9599,543.673)" d="M 262.98 510.12 L 702.6 510.12 L 702.6 535.38 L 262.98 535.38 Z "/>
</clipPath>
<g clip-path="url(#cp2)">
<text xml:space="preserve" transform="matrix(1 0 -0 1 -85.9599 543.673)" font-size="10.98" font-family="TimesNewRomanPSMT"><tspan y="-525.18" x="268.74 274.86024 280.37989 284.03953 292.56 297.41975">Format</tspan></text>
</g>
<clipPath id="cp3">
<path transform="matrix(1,0,0,-1,-85.9599,543.673)" d="M 262.98 510.12 L 702.6 510.12 L 702.6 535.38 L 262.98 535.38 Z "/>
</clipPath>
<g clip-path="url(#cp3)">
<text xml:space="preserve" transform="matrix(1 0 -0 1 -85.9599 543.673)" font-size="10.98" font-family="TimesNewRomanPSMT"><tspan y="-525.18" x="300.48 303.54344">: </tspan></text>
</g>
<clipPath id="cp4">
<path transform="matrix(1,0,0,-1,-85.9599,543.673)" d="M 262.98 510.12 L 702.6 510.12 L 702.6 535.38 L 262.98 535.38 Z "/>
</clipPath>
<g clip-path="url(#cp4)">
<text xml:space="preserve" transform="matrix(1 0 -0 1 -85.9599 543.673)" font-size="10.98" font-family="TimesNewRomanPSMT"><tspan y="-525.18" x="306.3 313.62037 320.34016 328.32044 336.23704 338.993 346.9096 354.8262 361.54707 369.46366 379.24354 385.96333 388.783 393.64714 399.16679 402.22694 407.09107 410.7518 413.50779 419.02745 424.5471 427.60725 433.128 441.58808 446.4522 449.27189 454.79264 459.65678 462.71693 467.58106 470.33705 475.8567 480.72084 484.38047 489.2446 492.00059 498.72145 506.70063 514.6172 517.37319 525.28976 533.2063 539.9261 547.84268 557.62258">READ VOLUME enter volume data here END VOLUME</tspan></text>
</g>
<clipPath id="cp5">
<path transform="matrix(1,0,0,-1,-85.9599,543.673)" d="M 262.98 510.12 L 702.6 510.12 L 702.6 535.38 L 262.98 535.38 Z "/>
</clipPath>
<g clip-path="url(#cp5)">
<text xml:space="preserve" transform="matrix(1 0 -0 1 -85.9599 543.673)" font-size="10.98" font-family="TimesNewRomanPSMT"><tspan y="-525.18" x="564.42"> </tspan></text>
</g>
<g id="Layer-1" data-name="P">
</g>
<clipPath id="cp6">
<path transform="matrix(1,0,0,-1,-85.9599,543.673)" d="M 262.98 510.12 L 702.6 510.12 L 702.6 535.38 L 262.98 535.38 Z "/>
</clipPath>
<g clip-path="url(#cp6)">
<text xml:space="preserve" transform="matrix(1 0 -0 1 -85.9599 543.673)" font-size="10.98" font-family="TimesNewRomanPSMT"><tspan y="-512.52" x="268.74 275.45979 280.98054 285.84468 288.60066 294.1203 298.98445 302.64518 307.5093 313.03007 316.0902 319.14927 321.90525 324.9654 330.48616 336.0058 340.86994 343.62593 347.28556 352.8063 356.46595 359.22193 364.68229 370.20195 373.2621 378.72245 387.24183 392.10597 394.86195 399.78208 404.6462 407.70637 412.5705 418.09016 421.1503 426.01445 429.0735 432.13365 437.6544 443.17405 445.93003 448.92979 454.50984 460.03059 464.8947 467.6507 470.71086 474.9711 477.72709 485.64369 493.56028 501.47688">The default type for volume calculation type is NONE</tspan></text>
</g>
<clipPath id="cp7">
<path transform="matrix(1,0,0,-1,-85.9599,543.673)" d="M 262.98 510.12 L 702.6 510.12 L 702.6 535.38 L 262.98 535.38 Z "/>
</clipPath>
<g clip-path="url(#cp7)">
<text xml:space="preserve" transform="matrix(1 0 -0 1 -85.9599 543.673)" font-size="10.98" font-family="TimesNewRomanPSMT"><tspan y="-512.52" x="508.2 510.9604 513.7164 519.8366 524.70077 529.5649 532.32089 536.5811 541.5001 546.36428 549.4244 552.54379 558.0645 563.58419 566.34017 574.2567 579.77639 582.8365 588.35726 596.8173 601.68148 604.43746 612.41769 617.2818 620.3419 625.20608 627.96646">. See section Volume Data. </tspan></text>
</g>
<clipPath id="cp8">
<path transform="matrix(1,0,0,-1,-85.9599,543.673)" d="M 262.98 510.12 L 702.6 510.12 L 702.6 535.38 L 262.98 535.38 Z "/>
</clipPath>
<g clip-path="url(#cp8)">
<text xml:space="preserve" transform="matrix(1 0 -0 1 -85.9599 543.673)" font-size="10.98" font-family="TimesNewRomanPSMT"><tspan y="-512.52" x="630.72"> </tspan></text>
</g>
<g id="Layer-1" data-name="Artifact">
</g>
<path transform="matrix(1,0,0,-1,-85.9599,543.673)" d="M 89.4 539.04 L 262.98 539.04 L 262.98 540 L 89.4 540 Z "/>
<path transform="matrix(1,0,0,-1,-85.9599,543.673)" d="M 262.98 539.04 L 263.94 539.04 L 263.94 540 L 262.98 540 Z "/>
<path transform="matrix(1,0,0,-1,-85.9599,543.673)" d="M 263.94 539.04 L 702.659 539.04 L 702.659 540 L 263.94 540 Z "/>
</g>
<g id="Layer-1" data-name="P">
<clipPath id="cp9">
<path transform="matrix(1,0,0,-1,-85.9599,543.673)" d="M 89.4 480.18 L 262.98 480.18 L 262.98 505.50099 L 89.4 505.50099 Z "/>
</clipPath>
<g clip-path="url(#cp9)">
<text xml:space="preserve" transform="matrix(1 0 -0 1 -85.9599 543.673)" font-size="10.98" font-family="TimesNewRomanPSMT"><tspan y="-495.24" x="176.16"> </tspan></text>
</g>
<g id="Layer-1" data-name="P">
</g>
<clipPath id="cp10">
<path transform="matrix(1,0,0,-1,-85.9599,543.673)" d="M 262.98 480.18 L 351.54 480.18 L 351.54 505.50099 L 262.98 505.50099 Z "/>
</clipPath>
<g clip-path="url(#cp10)">
<text xml:space="preserve" transform="matrix(1 0 -0 1 -85.9599 543.673)" font-size="10.98" font-family="TimesNewRomanPSMT"><tspan y="-495.24" x="293.52 300.23976 308.1596 314.27546">TYPE</tspan></text>
</g>
<clipPath id="cp11">
<path transform="matrix(1,0,0,-1,-85.9599,543.673)" d="M 262.98 480.18 L 351.54 480.18 L 351.54 505.50099 L 262.98 505.50099 Z "/>
</clipPath>
<g clip-path="url(#cp11)">
<text xml:space="preserve" transform="matrix(1 0 -0 1 -85.9599 543.673)" font-size="10.98" font-family="TimesNewRomanPSMT"><tspan y="-495.24" x="321"> </tspan></text>
</g>
<g id="Layer-1" data-name="P">
</g>
<clipPath id="cp12">
<path transform="matrix(1,0,0,-1,-85.9599,543.673)" d="M 351.54 480.18 L 440.1 480.18 L 440.1 505.50099 L 351.54 505.50099 Z "/>
</clipPath>
<g clip-path="url(#cp12)">
<text xml:space="preserve" transform="matrix(1 0 -0 1 -85.9599 543.673)" font-size="10.98" font-family="TimesNewRomanPSMT"><tspan y="-495.24" x="367.98 375.30369 382.02345 389.9433 397.86317 401.5195 408.84318 415.62333">REQUIRED</tspan></text>
</g>
<clipPath id="cp13">
<path transform="matrix(1,0,0,-1,-85.9599,543.673)" d="M 351.54 480.18 L 440.1 480.18 L 440.1 505.50099 L 351.54 505.50099 Z "/>
</clipPath>
<g clip-path="url(#cp13)">
<text xml:space="preserve" transform="matrix(1 0 -0 1 -85.9599 543.673)" font-size="10.98" font-family="TimesNewRomanPSMT"><tspan y="-495.24" x="423.6"> </tspan></text>
</g>
<g id="Layer-1" data-name="P">
</g>
<clipPath id="cp14">
<path transform="matrix(1,0,0,-1,-85.9599,543.673)" d="M 351.54 480.18 L 440.1 480.18 L 440.1 505.50099 L 351.54 505.50099 Z "/>
</clipPath>
<g clip-path="url(#cp14)">
<text xml:space="preserve" transform="matrix(1 0 -0 1 -85.9599 543.673)" font-size="10.98" font-family="TimesNewRomanPSMT"><tspan y="-482.58" x="380.52 388.43659 396.35319 403.07405">DATA</tspan></text>
</g>
<clipPath id="cp15">
<path transform="matrix(1,0,0,-1,-85.9599,543.673)" d="M 351.54 480.18 L 440.1 480.18 L 440.1 505.50099 L 351.54 505.50099 Z "/>
</clipPath>
<g clip-path="url(#cp15)">
<text xml:space="preserve" transform="matrix(1 0 -0 1 -85.9599 543.673)" font-size="10.98" font-family="TimesNewRomanPSMT"><tspan y="-482.58" x="411.06"> </tspan></text>
</g>
<g id="Layer-1" data-name="P">
</g>
<clipPath id="cp16">
<path transform="matrix(1,0,0,-1,-85.9599,543.673)" d="M 440.1 480.18 L 549.6 480.18 L 549.6 505.50099 L 440.1 505.50099 Z "/>
</clipPath>
<g clip-path="url(#cp16)">
<text xml:space="preserve" transform="matrix(1 0 -0 1 -85.9599 543.673)" font-size="10.98" font-family="TimesNewRomanPSMT"><tspan y="-495.24" x="467.34 475.2566 481.37687 488.09663 491.75736 499.67396 507.65425 515.5708">OPTIONAL</tspan></text>
</g>
<clipPath id="cp17">
<path transform="matrix(1,0,0,-1,-85.9599,543.673)" d="M 440.1 480.18 L 549.6 480.18 L 549.6 505.50099 L 440.1 505.50099 Z "/>
</clipPath>
<g clip-path="url(#cp17)">
<text xml:space="preserve" transform="matrix(1 0 -0 1 -85.9599 543.673)" font-size="10.98" font-family="TimesNewRomanPSMT"><tspan y="-495.24" x="522.36"> </tspan></text>
</g>
<g id="Layer-1" data-name="P">
</g>
<clipPath id="cp18">
<path transform="matrix(1,0,0,-1,-85.9599,543.673)" d="M 440.1 480.18 L 549.6 480.18 L 549.6 505.50099 L 440.1 505.50099 Z "/>
</clipPath>
<g clip-path="url(#cp18)">
<text xml:space="preserve" transform="matrix(1 0 -0 1 -85.9599 543.673)" font-size="10.98" font-family="TimesNewRomanPSMT"><tspan y="-482.58" x="479.58 487.49659 495.41319 502.13404">DATA</tspan></text>
</g>
<clipPath id="cp19">
<path transform="matrix(1,0,0,-1,-85.9599,543.673)" d="M 440.1 480.18 L 549.6 480.18 L 549.6 505.50099 L 440.1 505.50099 Z "/>
</clipPath>
<g clip-path="url(#cp19)">
<text xml:space="preserve" transform="matrix(1 0 -0 1 -85.9599 543.673)" font-size="10.98" font-family="TimesNewRomanPSMT"><tspan y="-482.58" x="510.12"> </tspan></text>
</g>
<g id="Layer-1" data-name="P">
</g>
<clipPath id="cp20">
<path transform="matrix(1,0,0,-1,-85.9599,543.673)" d="M 549.6 480.18 L 702.6 480.18 L 702.6 505.50099 L 549.6 505.50099 Z "/>
</clipPath>
<g clip-path="url(#cp20)">
<text xml:space="preserve" transform="matrix(1 0 -0 1 -85.9599 543.673)" font-size="10.98" font-family="TimesNewRomanPSMT"><tspan y="-495.24" x="601.02 608.9366 615.6564 621.7766 629.6932 637.60977 644.3295">DEFAULT</tspan></text>
</g>
<clipPath id="cp21">
<path transform="matrix(1,0,0,-1,-85.9599,543.673)" d="M 549.6 480.18 L 702.6 480.18 L 702.6 505.50099 L 549.6 505.50099 Z "/>
</clipPath>
<g clip-path="url(#cp21)">
<text xml:space="preserve" transform="matrix(1 0 -0 1 -85.9599 543.673)" font-size="10.98" font-family="TimesNewRomanPSMT"><tspan y="-495.24" x="651.12"> </tspan></text>
</g>
<g id="Layer-1" data-name="Artifact">
</g>
<path transform="matrix(1,0,0,-1,-85.9599,543.673)" d="M 89.4 505.56 L 262.98 505.56 L 262.98 506.52 L 89.4 506.52 Z "/>
<path transform="matrix(1,0,0,-1,-85.9599,543.673)" d="M 262.98 505.56 L 263.94 505.56 L 263.94 506.52 L 262.98 506.52 Z "/>
<path transform="matrix(1,0,0,-1,-85.9599,543.673)" d="M 263.94 505.56 L 351.54 505.56 L 351.54 506.52 L 263.94 506.52 Z "/>
<path transform="matrix(1,0,0,-1,-85.9599,543.673)" d="M 351.54 505.56 L 352.5 505.56 L 352.5 506.52 L 351.54 506.52 Z "/>
<path transform="matrix(1,0,0,-1,-85.9599,543.673)" d="M 352.5 505.56 L 440.1 505.56 L 440.1 506.52 L 352.5 506.52 Z "/>
<path transform="matrix(1,0,0,-1,-85.9599,543.673)" d="M 440.1 505.56 L 441.06 505.56 L 441.06 506.52 L 440.1 506.52 Z "/>
<path transform="matrix(1,0,0,-1,-85.9599,543.673)" d="M 441.06 505.56 L 549.659 505.56 L 549.659 506.52 L 441.06 506.52 Z "/>
<path transform="matrix(1,0,0,-1,-85.9599,543.673)" d="M 549.66 505.56 L 550.62 505.56 L 550.62 506.52 L 549.66 506.52 Z "/>
<path transform="matrix(1,0,0,-1,-85.9599,543.673)" d="M 550.62 505.56 L 702.66 505.56 L 702.66 506.52 L 550.62 506.52 Z "/>
</g>
<g id="Layer-1" data-name="P">
<clipPath id="cp22">
<path transform="matrix(1,0,0,-1,-85.9599,543.673)" d="M 89.4 467.58 L 262.98 467.58 L 262.98 480.18 L 89.4 480.18 Z "/>
</clipPath>
<g clip-path="url(#cp22)">
<text xml:space="preserve" transform="matrix(1 0 -0 1 -85.9599 543.673)" font-size="10.98" font-family="TimesNewRomanPSMT"><tspan y="-469.98" x="94.8 101.51976 109.43963 115.55549 122.275249">TYPE=</tspan></text>
</g>
<clipPath id="cp23">
<path transform="matrix(1,0,0,-1,-85.9599,543.673)" d="M 89.4 467.58 L 262.98 467.58 L 262.98 480.18 L 89.4 480.18 Z "/>
</clipPath>
<g clip-path="url(#cp23)">
<text xml:space="preserve" transform="matrix(1 0 -0 1 -85.9599 543.673)" font-size="10.98" font-family="TimesNewRomanPSMT"><tspan y="-469.98" x="128.52"> </tspan></text>
</g>
<g id="Layer-1" data-name="P">
</g>
<clipPath id="cp24">
<path transform="matrix(1,0,0,-1,-85.9599,543.673)" d="M 262.98 467.58 L 351.54 467.58 L 351.54 480.18 L 262.98 480.18 Z "/>
</clipPath>
<g clip-path="url(#cp24)">
<text xml:space="preserve" transform="matrix(1 0 -0 1 -85.9599 543.673)" font-size="10.98" font-family="TimesNewRomanPSMT"><tspan y="-469.98" x="282.96 290.8766 298.79319 306.70979">NONE</tspan></text>
</g>
<clipPath id="cp25">
<path transform="matrix(1,0,0,-1,-85.9599,543.673)" d="M 262.98 467.58 L 351.54 467.58 L 351.54 480.18 L 262.98 480.18 Z "/>
</clipPath>
<g clip-path="url(#cp25)">
<text xml:space="preserve" transform="matrix(1 0 -0 1 -85.9599 543.673)" font-size="10.98" font-family="TimesNewRomanPSMT"><tspan y="-469.98" x="313.5"> </tspan></text>
</g>
<g id="Layer-1" data-name="P">
</g>
<clipPath id="cp26">
<path transform="matrix(1,0,0,-1,-85.9599,543.673)" d="M 351.54 467.58 L 440.1 467.58 L 440.1 480.18 L 351.54 480.18 Z "/>
</clipPath>
<g clip-path="url(#cp26)">
<text xml:space="preserve" transform="matrix(1 0 -0 1 -85.9599 543.673)" font-size="10.98" font-family="TimesNewRomanPSMT"><tspan y="-469.98" x="368.82 374.34297 379.8659 385.38887">none</tspan></text>
</g>
<clipPath id="cp27">
<path transform="matrix(1,0,0,-1,-85.9599,543.673)" d="M 351.54 467.58 L 440.1 467.58 L 440.1 480.18 L 351.54 480.18 Z "/>
</clipPath>
<g clip-path="url(#cp27)">
<text xml:space="preserve" transform="matrix(1 0 -0 1 -85.9599 543.673)" font-size="10.98" font-family="TimesNewRomanPSMT"><tspan y="-469.98" x="390.18"> </tspan></text>
</g>
<g id="Layer-1" data-name="P">
</g>
<clipPath id="cp28">
<path transform="matrix(1,0,0,-1,-85.9599,543.673)" d="M 440.1 467.58 L 549.6 467.58 L 549.6 480.18 L 440.1 480.18 Z "/>
</clipPath>
<g clip-path="url(#cp28)">
<text xml:space="preserve" transform="matrix(1 0 -0 1 -85.9599 543.673)" font-size="10.98" font-family="TimesNewRomanPSMT"><tspan y="-469.98" x="458.52 464.04295 469.5659 475.08885">none</tspan></text>
</g>
<clipPath id="cp29">
<path transform="matrix(1,0,0,-1,-85.9599,543.673)" d="M 440.1 467.58 L 549.6 467.58 L 549.6 480.18 L 440.1 480.18 Z "/>
</clipPath>
<g clip-path="url(#cp29)">
<text xml:space="preserve" transform="matrix(1 0 -0 1 -85.9599 543.673)" font-size="10.98" font-family="TimesNewRomanPSMT"><tspan y="-469.98" x="479.88"> </tspan></text>
</g>
<g id="Layer-1" data-name="P">
</g>
<clipPath id="cp30">
<path transform="matrix(1,0,0,-1,-85.9599,543.673)" d="M 549.6 467.58 L 702.6 467.58 L 702.6 480.18 L 549.6 480.18 Z "/>
</clipPath>
<g clip-path="url(#cp30)">
<text xml:space="preserve" transform="matrix(1 0 -0 1 -85.9599 543.673)" font-size="10.98" font-family="TimesNewRomanPSMT"><tspan y="-469.98" x="555"> </tspan></text>
</g>
<g id="Layer-1" data-name="P">
</g>
<clipPath id="cp31">
<path transform="matrix(1,0,0,-1,-85.9599,543.673)" d="M 89.4 454.92 L 262.98 454.92 L 262.98 467.579 L 89.4 467.579 Z "/>
</clipPath>
<g clip-path="url(#cp31)">
<text xml:space="preserve" transform="matrix(1 0 -0 1 -85.9599 543.673)" font-size="10.98" font-family="TimesNewRomanPSMT"><tspan y="-457.32" x="94.8"> </tspan></text>
</g>
<g id="Layer-1" data-name="P">
</g>
<clipPath id="cp32">
<path transform="matrix(1,0,0,-1,-85.9599,543.673)" d="M 262.98 454.92 L 351.54 454.92 L 351.54 467.579 L 262.98 467.579 Z "/>
</clipPath>
<g clip-path="url(#cp32)">
<text xml:space="preserve" transform="matrix(1 0 -0 1 -85.9599 543.673)" font-size="10.98" font-family="TimesNewRomanPSMT"><tspan y="-457.32" x="282.96"> </tspan></text>
</g>
<g id="Layer-1" data-name="P">
</g>
<clipPath id="cp33">
<path transform="matrix(1,0,0,-1,-85.9599,543.673)" d="M 351.54 454.92 L 440.1 454.92 L 440.1 467.579 L 351.54 467.579 Z "/>
</clipPath>
<g clip-path="url(#cp33)">
<text xml:space="preserve" transform="matrix(1 0 -0 1 -85.9599 543.673)" font-size="10.98" font-family="TimesNewRomanPSMT"><tspan y="-457.32" x="368.82"> </tspan></text>
</g>
<g id="Layer-1" data-name="P">
</g>
<clipPath id="cp34">
<path transform="matrix(1,0,0,-1,-85.9599,543.673)" d="M 440.1 454.92 L 549.6 454.92 L 549.6 467.579 L 440.1 467.579 Z "/>
</clipPath>
<g clip-path="url(#cp34)">
<text xml:space="preserve" transform="matrix(1 0 -0 1 -85.9599 543.673)" font-size="10.98" font-family="TimesNewRomanPSMT"><tspan y="-457.32" x="458.52"> </tspan></text>
</g>
<g id="Layer-1" data-name="P">
</g>
<clipPath id="cp35">
<path transform="matrix(1,0,0,-1,-85.9599,543.673)" d="M 549.6 454.92 L 702.6 454.92 L 702.6 467.579 L 549.6 467.579 Z "/>
</clipPath>
<g clip-path="url(#cp35)">
<text xml:space="preserve" transform="matrix(1 0 -0 1 -85.9599 543.673)" font-size="10.98" font-family="TimesNewRomanPSMT"><tspan y="-457.32" x="555"> </tspan></text>
</g>
<g id="Layer-1" data-name="P">
</g>
<clipPath id="cp36">
<path transform="matrix(1,0,0,-1,-85.9599,543.673)" d="M 89.4 442.26 L 262.98 442.26 L 262.98 454.92 L 89.4 454.92 Z "/>
</clipPath>
<g clip-path="url(#cp36)">
<text xml:space="preserve" transform="matrix(1 0 -0 1 -85.9599 543.673)" font-size="10.98" font-family="TimesNewRomanPSMT"><tspan y="-444.66" x="94.8"> </tspan></text>
</g>
<g id="Layer-1" data-name="P">
</g>
<clipPath id="cp37">
<path transform="matrix(1,0,0,-1,-85.9599,543.673)" d="M 262.98 442.26 L 351.54 442.26 L 351.54 454.92 L 262.98 454.92 Z "/>
</clipPath>
<g clip-path="url(#cp37)">
<text xml:space="preserve" transform="matrix(1 0 -0 1 -85.9599 543.673)" font-size="10.98" font-family="TimesNewRomanPSMT"><tspan y="-444.66" x="282.96 290.28038 298.19697 306.11357 314.09385 322.01045">RANDOM</tspan></text>
</g>
<clipPath id="cp38">
<path transform="matrix(1,0,0,-1,-85.9599,543.673)" d="M 262.98 442.26 L 351.54 442.26 L 351.54 454.92 L 262.98 454.92 Z "/>
</clipPath>
<g clip-path="url(#cp38)">
<text xml:space="preserve" transform="matrix(1 0 -0 1 -85.9599 543.673)" font-size="10.98" font-family="TimesNewRomanPSMT"><tspan y="-444.66" x="331.86"> </tspan></text>
</g>
<g id="Layer-1" data-name="P">
</g>
<clipPath id="cp39">
<path transform="matrix(1,0,0,-1,-85.9599,543.673)" d="M 351.54 442.26 L 440.1 442.26 L 440.1 454.92 L 351.54 454.92 Z "/>
</clipPath>
<g clip-path="url(#cp39)">
<text xml:space="preserve" transform="matrix(1 0 -0 1 -85.9599 543.673)" font-size="10.98" font-family="TimesNewRomanPSMT"><tspan y="-444.66" x="368.82 374.34297 379.8659 385.38887">none</tspan></text>
</g>
<clipPath id="cp40">
<path transform="matrix(1,0,0,-1,-85.9599,543.673)" d="M 351.54 442.26 L 440.1 442.26 L 440.1 454.92 L 351.54 454.92 Z "/>
</clipPath>
<g clip-path="url(#cp40)">
<text xml:space="preserve" transform="matrix(1 0 -0 1 -85.9599 543.673)" font-size="10.98" font-family="TimesNewRomanPSMT"><tspan y="-444.66" x="390.18"> </tspan></text>
</g>
<g id="Layer-1" data-name="P">
</g>
<clipPath id="cp41">
<path transform="matrix(1,0,0,-1,-85.9599,543.673)" d="M 440.1 442.26 L 549.6 442.26 L 549.6 454.92 L 440.1 454.92 Z "/>
</clipPath>
<g clip-path="url(#cp41)">
<text xml:space="preserve" transform="matrix(1 0 -0 1 -85.9599 543.673)" font-size="10.98" font-family="TimesNewRomanPSMT"><tspan y="-444.66" x="458.52 465.84037 473.75697 480.47676 487.79713 495.7137 502.43348 508.6141">BATCHES=</tspan></text>
</g>
<clipPath id="cp42">
<path transform="matrix(1,0,0,-1,-85.9599,543.673)" d="M 440.1 442.26 L 549.6 442.26 L 549.6 454.92 L 440.1 454.92 Z "/>
</clipPath>
<g clip-path="url(#cp42)">
<text xml:space="preserve" transform="matrix(1 0 -0 1 -85.9599 543.673)" font-size="10.98" font-family="TimesNewRomanPSMT"><tspan y="-444.66" x="514.86"> </tspan></text>
</g>
<g id="Layer-1" data-name="P">
</g>
<clipPath id="cp43">
<path transform="matrix(1,0,0,-1,-85.9599,543.673)" d="M 549.6 442.26 L 702.6 442.26 L 702.6 454.92 L 549.6 454.92 Z "/>
</clipPath>
<g clip-path="url(#cp43)">
<text xml:space="preserve" transform="matrix(1 0 -0 1 -85.9599 543.673)" font-size="10.98" font-family="TimesNewRomanPSMT"><tspan y="-444.66" x="555 560.52297 566.0459">500</tspan></text>
</g>
<clipPath id="cp44">
<path transform="matrix(1,0,0,-1,-85.9599,543.673)" d="M 549.6 442.26 L 702.6 442.26 L 702.6 454.92 L 549.6 454.92 Z "/>
</clipPath>
<g clip-path="url(#cp44)">
<text xml:space="preserve" transform="matrix(1 0 -0 1 -85.9599 543.673)" font-size="10.98" font-family="TimesNewRomanPSMT"><tspan y="-444.66" x="571.5"> </tspan></text>
</g>
<g id="Layer-1" data-name="P">
</g>
<clipPath id="cp45">
<path transform="matrix(1,0,0,-1,-85.9599,543.673)" d="M 89.4 429.6 L 262.98 429.6 L 262.98 442.26 L 89.4 442.26 Z "/>
</clipPath>
<g clip-path="url(#cp45)">
<text xml:space="preserve" transform="matrix(1 0 -0 1 -85.9599 543.673)" font-size="10.98" font-family="TimesNewRomanPSMT"><tspan y="-432" x="94.8"> </tspan></text>
</g>
<g id="Layer-1" data-name="P">
</g>
<clipPath id="cp46">
<path transform="matrix(1,0,0,-1,-85.9599,543.673)" d="M 262.98 429.6 L 351.54 429.6 L 351.54 442.26 L 262.98 442.26 Z "/>
</clipPath>
<g clip-path="url(#cp46)">
<text xml:space="preserve" transform="matrix(1 0 -0 1 -85.9599 543.673)" font-size="10.98" font-family="TimesNewRomanPSMT"><tspan y="-432" x="282.96"> </tspan></text>
</g>
<g id="Layer-1" data-name="P">
</g>
<clipPath id="cp47">
<path transform="matrix(1,0,0,-1,-85.9599,543.673)" d="M 351.54 429.6 L 440.1 429.6 L 440.1 442.26 L 351.54 442.26 Z "/>
</clipPath>
<g clip-path="url(#cp47)">
<text xml:space="preserve" transform="matrix(1 0 -0 1 -85.9599 543.673)" font-size="10.98" font-family="TimesNewRomanPSMT"><tspan y="-432" x="368.82"> </tspan></text>
</g>
<g id="Layer-1" data-name="P">
</g>
<clipPath id="cp48">
<path transform="matrix(1,0,0,-1,-85.9599,543.673)" d="M 440.1 429.6 L 549.6 429.6 L 549.6 442.26 L 440.1 442.26 Z "/>
</clipPath>
<g clip-path="url(#cp48)">
<text xml:space="preserve" transform="matrix(1 0 -0 1 -85.9599 543.673)" font-size="10.98" font-family="TimesNewRomanPSMT"><tspan y="-432" x="458.52 464.63587 472.55574 476.21537 484.13523 490.85499 496.97084">POINTS=</tspan></text>
</g>
<clipPath id="cp49">
<path transform="matrix(1,0,0,-1,-85.9599,543.673)" d="M 440.1 429.6 L 549.6 429.6 L 549.6 442.26 L 440.1 442.26 Z "/>
</clipPath>
<g clip-path="url(#cp49)">
<text xml:space="preserve" transform="matrix(1 0 -0 1 -85.9599 543.673)" font-size="10.98" font-family="TimesNewRomanPSMT"><tspan y="-432" x="503.22"> </tspan></text>
</g>
<g id="Layer-1" data-name="P">
</g>
<clipPath id="cp50">
<path transform="matrix(1,0,0,-1,-85.9599,543.673)" d="M 549.6 429.6 L 702.6 429.6 L 702.6 442.26 L 549.6 442.26 Z "/>
</clipPath>
<g clip-path="url(#cp50)">
<text xml:space="preserve" transform="matrix(1 0 -0 1 -85.9599 543.673)" font-size="10.98" font-family="TimesNewRomanPSMT"><tspan y="-432" x="555 560.52297 566.0459 571.56887">1000</tspan></text>
</g>
<clipPath id="cp51">
<path transform="matrix(1,0,0,-1,-85.9599,543.673)" d="M 549.6 429.6 L 702.6 429.6 L 702.6 442.26 L 549.6 442.26 Z "/>
</clipPath>
<g clip-path="url(#cp51)">
<text xml:space="preserve" transform="matrix(1 0 -0 1 -85.9599 543.673)" font-size="10.98" font-family="TimesNewRomanPSMT"><tspan y="-432" x="577.02"> </tspan></text>
</g>
<g id="Layer-1" data-name="P">
</g>
<clipPath id="cp52">
<path transform="matrix(1,0,0,-1,-85.9599,543.673)" d="M 89.4 416.94 L 262.98 416.94 L 262.98 429.599 L 89.4 429.599 Z "/>
</clipPath>
<g clip-path="url(#cp52)">
<text xml:space="preserve" transform="matrix(1 0 -0 1 -85.9599 543.673)" font-size="10.98" font-family="TimesNewRomanPSMT"><tspan y="-419.34" x="94.8"> </tspan></text>
</g>
<g id="Layer-1" data-name="P">
</g>
<clipPath id="cp53">
<path transform="matrix(1,0,0,-1,-85.9599,543.673)" d="M 262.98 416.94 L 351.54 416.94 L 351.54 429.599 L 262.98 429.599 Z "/>
</clipPath>
<g clip-path="url(#cp53)">
<text xml:space="preserve" transform="matrix(1 0 -0 1 -85.9599 543.673)" font-size="10.98" font-family="TimesNewRomanPSMT"><tspan y="-419.34" x="282.96"> </tspan></text>
</g>
<g id="Layer-1" data-name="P">
</g>
<clipPath id="cp54">
<path transform="matrix(1,0,0,-1,-85.9599,543.673)" d="M 351.54 416.94 L 440.1 416.94 L 440.1 429.599 L 351.54 429.599 Z "/>
</clipPath>
<g clip-path="url(#cp54)">
<text xml:space="preserve" transform="matrix(1 0 -0 1 -85.9599 543.673)" font-size="10.98" font-family="TimesNewRomanPSMT"><tspan y="-419.34" x="368.82"> </tspan></text>
</g>
<g id="Layer-1" data-name="P">
</g>
<clipPath id="cp55">
<path transform="matrix(1,0,0,-1,-85.9599,543.673)" d="M 440.1 416.94 L 549.6 416.94 L 549.6 429.599 L 440.1 429.599 Z "/>
</clipPath>
<g clip-path="url(#cp55)">
<text xml:space="preserve" transform="matrix(1 0 -0 1 -85.9599 543.673)" font-size="10.98" font-family="TimesNewRomanPSMT"><tspan y="-419.34" x="458.52 466.43659 472.55686">XP=</tspan></text>
</g>
<clipPath id="cp56">
<path transform="matrix(1,0,0,-1,-85.9599,543.673)" d="M 440.1 416.94 L 549.6 416.94 L 549.6 429.599 L 440.1 429.599 Z "/>
</clipPath>
<g clip-path="url(#cp56)">
<text xml:space="preserve" transform="matrix(1 0 -0 1 -85.9599 543.673)" font-size="10.98" font-family="TimesNewRomanPSMT"><tspan y="-419.34" x="478.8"> </tspan></text>
</g>
<g id="Layer-1" data-name="P">
</g>
<clipPath id="cp57">
<path transform="matrix(1,0,0,-1,-85.9599,543.673)" d="M 549.6 416.94 L 702.6 416.94 L 702.6 429.599 L 549.6 429.599 Z "/>
</clipPath>
<g clip-path="url(#cp57)">
<text xml:space="preserve" transform="matrix(1 0 -0 1 -85.9599 543.673)" font-size="10.98" font-family="TimesNewRomanPSMT"><tspan y="-419.34" x="555 560.52297 563.58309 569.106 574.62899 579.4887 582.5477 585.3037 590.7641 596.28707 599.34719 602.4073 605.16329 610.62368 616.08297 621.6059 627.12887 632.6518 637.51156 641.1119">global unit boundary</tspan></text>
</g>
<clipPath id="cp58">
<path transform="matrix(1,0,0,-1,-85.9599,543.673)" d="M 549.6 416.94 L 702.6 416.94 L 702.6 429.599 L 549.6 429.599 Z "/>
</clipPath>
<g clip-path="url(#cp58)">
<text xml:space="preserve" transform="matrix(1 0 -0 1 -85.9599 543.673)" font-size="10.98" font-family="TimesNewRomanPSMT"><tspan y="-419.34" x="646.62"> </tspan></text>
</g>
<g id="Layer-1" data-name="P">
</g>
<clipPath id="cp59">
<path transform="matrix(1,0,0,-1,-85.9599,543.673)" d="M 89.4 404.34 L 262.98 404.34 L 262.98 416.94 L 89.4 416.94 Z "/>
</clipPath>
<g clip-path="url(#cp59)">
<text xml:space="preserve" transform="matrix(1 0 -0 1 -85.9599 543.673)" font-size="10.98" font-family="TimesNewRomanPSMT"><tspan y="-406.74" x="94.8"> </tspan></text>
</g>
<g id="Layer-1" data-name="P">
</g>
<clipPath id="cp60">
<path transform="matrix(1,0,0,-1,-85.9599,543.673)" d="M 262.98 404.34 L 351.54 404.34 L 351.54 416.94 L 262.98 416.94 Z "/>
</clipPath>
<g clip-path="url(#cp60)">
<text xml:space="preserve" transform="matrix(1 0 -0 1 -85.9599 543.673)" font-size="10.98" font-family="TimesNewRomanPSMT"><tspan y="-406.74" x="282.96"> </tspan></text>
</g>
<g id="Layer-1" data-name="P">
</g>
<clipPath id="cp61">
<path transform="matrix(1,0,0,-1,-85.9599,543.673)" d="M 351.54 404.34 L 440.1 404.34 L 440.1 416.94 L 351.54 416.94 Z "/>
</clipPath>
<g clip-path="url(#cp61)">
<text xml:space="preserve" transform="matrix(1 0 -0 1 -85.9599 543.673)" font-size="10.98" font-family="TimesNewRomanPSMT"><tspan y="-406.74" x="368.82"> </tspan></text>
</g>
<g id="Layer-1" data-name="P">
</g>
<clipPath id="cp62">
<path transform="matrix(1,0,0,-1,-85.9599,543.673)" d="M 440.1 404.34 L 549.6 404.34 L 549.6 416.94 L 440.1 416.94 Z "/>
</clipPath>
<g clip-path="url(#cp62)">
<text xml:space="preserve" transform="matrix(1 0 -0 1 -85.9599 543.673)" font-size="10.98" font-family="TimesNewRomanPSMT"><tspan y="-406.74" x="458.52 466.43659 476.21647">XM=</tspan></text>
</g>
<clipPath id="cp63">
<path transform="matrix(1,0,0,-1,-85.9599,543.673)" d="M 440.1 404.34 L 549.6 404.34 L 549.6 416.94 L 440.1 416.94 Z "/>
</clipPath>
<g clip-path="url(#cp63)">
<text xml:space="preserve" transform="matrix(1 0 -0 1 -85.9599 543.673)" font-size="10.98" font-family="TimesNewRomanPSMT"><tspan y="-406.74" x="482.46"> </tspan></text>
</g>
<g id="Layer-1" data-name="P">
</g>
<clipPath id="cp64">
<path transform="matrix(1,0,0,-1,-85.9599,543.673)" d="M 549.6 404.34 L 702.6 404.34 L 702.6 416.94 L 549.6 416.94 Z "/>
</clipPath>
<g clip-path="url(#cp64)">
<text xml:space="preserve" transform="matrix(1 0 -0 1 -85.9599 543.673)" font-size="10.98" font-family="TimesNewRomanPSMT"><tspan y="-406.74" x="555 560.52297 563.58309 569.106 574.62899 579.4887 582.5477 585.3037 590.7641 596.28707 599.34719 602.4073 605.16329 610.62368 616.08297 621.6059 627.12887 632.6518 637.51156 641.1119">global unit boundary</tspan></text>
</g>
<clipPath id="cp65">
<path transform="matrix(1,0,0,-1,-85.9599,543.673)" d="M 549.6 404.34 L 702.6 404.34 L 702.6 416.94 L 549.6 416.94 Z "/>
</clipPath>
<g clip-path="url(#cp65)">
<text xml:space="preserve" transform="matrix(1 0 -0 1 -85.9599 543.673)" font-size="10.98" font-family="TimesNewRomanPSMT"><tspan y="-406.74" x="646.62"> </tspan></text>
</g>
<g id="Layer-1" data-name="P">
</g>
<clipPath id="cp66">
<path transform="matrix(1,0,0,-1,-85.9599,543.673)" d="M 89.4 391.68 L 262.98 391.68 L 262.98 404.34 L 89.4 404.34 Z "/>
</clipPath>
<g clip-path="url(#cp66)">
<text xml:space="preserve" transform="matrix(1 0 -0 1 -85.9599 543.673)" font-size="10.98" font-family="TimesNewRomanPSMT"><tspan y="-394.08" x="94.8"> </tspan></text>
</g>
<g id="Layer-1" data-name="P">
</g>
<clipPath id="cp67">
<path transform="matrix(1,0,0,-1,-85.9599,543.673)" d="M 262.98 391.68 L 351.54 391.68 L 351.54 404.34 L 262.98 404.34 Z "/>
</clipPath>
<g clip-path="url(#cp67)">
<text xml:space="preserve" transform="matrix(1 0 -0 1 -85.9599 543.673)" font-size="10.98" font-family="TimesNewRomanPSMT"><tspan y="-394.08" x="282.96"> </tspan></text>
</g>
<g id="Layer-1" data-name="P">
</g>
<clipPath id="cp68">
<path transform="matrix(1,0,0,-1,-85.9599,543.673)" d="M 351.54 391.68 L 440.1 391.68 L 440.1 404.34 L 351.54 404.34 Z "/>
</clipPath>
<g clip-path="url(#cp68)">
<text xml:space="preserve" transform="matrix(1 0 -0 1 -85.9599 543.673)" font-size="10.98" font-family="TimesNewRomanPSMT"><tspan y="-394.08" x="368.82"> </tspan></text>
</g>
<g id="Layer-1" data-name="P">
</g>
<clipPath id="cp69">
<path transform="matrix(1,0,0,-1,-85.9599,543.673)" d="M 440.1 391.68 L 549.6 391.68 L 549.6 404.34 L 440.1 404.34 Z "/>
</clipPath>
<g clip-path="url(#cp69)">
<text xml:space="preserve" transform="matrix(1 0 -0 1 -85.9599 543.673)" font-size="10.98" font-family="TimesNewRomanPSMT"><tspan y="-394.08" x="458.52 466.43659 472.55686">YP=</tspan></text>
</g>
<clipPath id="cp70">
<path transform="matrix(1,0,0,-1,-85.9599,543.673)" d="M 440.1 391.68 L 549.6 391.68 L 549.6 404.34 L 440.1 404.34 Z "/>
</clipPath>
<g clip-path="url(#cp70)">
<text xml:space="preserve" transform="matrix(1 0 -0 1 -85.9599 543.673)" font-size="10.98" font-family="TimesNewRomanPSMT"><tspan y="-394.08" x="478.8"> </tspan></text>
</g>
<g id="Layer-1" data-name="P">
</g>
<clipPath id="cp71">
<path transform="matrix(1,0,0,-1,-85.9599,543.673)" d="M 549.6 391.68 L 702.6 391.68 L 702.6 404.34 L 549.6 404.34 Z "/>
</clipPath>
<g clip-path="url(#cp71)">
<text xml:space="preserve" transform="matrix(1 0 -0 1 -85.9599 543.673)" font-size="10.98" font-family="TimesNewRomanPSMT"><tspan y="-394.08" x="555 560.52297 563.58309 569.106 574.62899 579.4887 582.5477 585.3037 590.7641 596.28707 599.34719 602.4073 605.16329 610.62368 616.08297 621.6059 627.12887 632.6518 637.51156 641.1119">global unit boundary</tspan></text>
</g>
<clipPath id="cp72">
<path transform="matrix(1,0,0,-1,-85.9599,543.673)" d="M 549.6 391.68 L 702.6 391.68 L 702.6 404.34 L 549.6 404.34 Z "/>
</clipPath>
<g clip-path="url(#cp72)">
<text xml:space="preserve" transform="matrix(1 0 -0 1 -85.9599 543.673)" font-size="10.98" font-family="TimesNewRomanPSMT"><tspan y="-394.08" x="646.62"> </tspan></text>
</g>
<g id="Layer-1" data-name="P">
</g>
<clipPath id="cp73">
<path transform="matrix(1,0,0,-1,-85.9599,543.673)" d="M 89.4 379.02 L 262.98 379.02 L 262.98 391.68 L 89.4 391.68 Z "/>
</clipPath>
<g clip-path="url(#cp73)">
<text xml:space="preserve" transform="matrix(1 0 -0 1 -85.9599 543.673)" font-size="10.98" font-family="TimesNewRomanPSMT"><tspan y="-381.42" x="94.8"> </tspan></text>
</g>
<g id="Layer-1" data-name="P">
</g>
<clipPath id="cp74">
<path transform="matrix(1,0,0,-1,-85.9599,543.673)" d="M 262.98 379.02 L 351.54 379.02 L 351.54 391.68 L 262.98 391.68 Z "/>
</clipPath>
<g clip-path="url(#cp74)">
<text xml:space="preserve" transform="matrix(1 0 -0 1 -85.9599 543.673)" font-size="10.98" font-family="TimesNewRomanPSMT"><tspan y="-381.42" x="282.96"> </tspan></text>
</g>
<g id="Layer-1" data-name="P">
</g>
<clipPath id="cp75">
<path transform="matrix(1,0,0,-1,-85.9599,543.673)" d="M 351.54 379.02 L 440.1 379.02 L 440.1 391.68 L 351.54 391.68 Z "/>
</clipPath>
<g clip-path="url(#cp75)">
<text xml:space="preserve" transform="matrix(1 0 -0 1 -85.9599 543.673)" font-size="10.98" font-family="TimesNewRomanPSMT"><tspan y="-381.42" x="368.82"> </tspan></text>
</g>
<g id="Layer-1" data-name="P">
</g>
<clipPath id="cp76">
<path transform="matrix(1,0,0,-1,-85.9599,543.673)" d="M 440.1 379.02 L 549.6 379.02 L 549.6 391.68 L 440.1 391.68 Z "/>
</clipPath>
<g clip-path="url(#cp76)">
<text xml:space="preserve" transform="matrix(1 0 -0 1 -85.9599 543.673)" font-size="10.98" font-family="TimesNewRomanPSMT"><tspan y="-381.42" x="458.52 466.43659 476.21647">YM=</tspan></text>
</g>
<clipPath id="cp77">
<path transform="matrix(1,0,0,-1,-85.9599,543.673)" d="M 440.1 379.02 L 549.6 379.02 L 549.6 391.68 L 440.1 391.68 Z "/>
</clipPath>
<g clip-path="url(#cp77)">
<text xml:space="preserve" transform="matrix(1 0 -0 1 -85.9599 543.673)" font-size="10.98" font-family="TimesNewRomanPSMT"><tspan y="-381.42" x="482.46"> </tspan></text>
</g>
<g id="Layer-1" data-name="P">
</g>
<clipPath id="cp78">
<path transform="matrix(1,0,0,-1,-85.9599,543.673)" d="M 549.6 379.02 L 702.6 379.02 L 702.6 391.68 L 549.6 391.68 Z "/>
</clipPath>
<g clip-path="url(#cp78)">
<text xml:space="preserve" transform="matrix(1 0 -0 1 -85.9599 543.673)" font-size="10.98" font-family="TimesNewRomanPSMT"><tspan y="-381.42" x="555 560.52297 563.58309 569.106 574.62899 579.4887 582.5477 585.3037 590.7641 596.28707 599.34719 602.4073 605.16329 610.62368 616.08297 621.6059 627.12887 632.6518 637.51156 641.1119">global unit boundary</tspan></text>
</g>
<clipPath id="cp79">
<path transform="matrix(1,0,0,-1,-85.9599,543.673)" d="M 549.6 379.02 L 702.6 379.02 L 702.6 391.68 L 549.6 391.68 Z "/>
</clipPath>
<g clip-path="url(#cp79)">
<text xml:space="preserve" transform="matrix(1 0 -0 1 -85.9599 543.673)" font-size="10.98" font-family="TimesNewRomanPSMT"><tspan y="-381.42" x="646.62"> </tspan></text>
</g>
<g id="Layer-1" data-name="P">
</g>
<clipPath id="cp80">
<path transform="matrix(1,0,0,-1,-85.9599,543.673)" d="M 89.4 366.36 L 262.98 366.36 L 262.98 379.01899 L 89.4 379.01899 Z "/>
</clipPath>
<g clip-path="url(#cp80)">
<text xml:space="preserve" transform="matrix(1 0 -0 1 -85.9599 543.673)" font-size="10.98" font-family="TimesNewRomanPSMT"><tspan y="-368.76" x="94.8"> </tspan></text>
</g>
<g id="Layer-1" data-name="P">
</g>
<clipPath id="cp81">
<path transform="matrix(1,0,0,-1,-85.9599,543.673)" d="M 262.98 366.36 L 351.54 366.36 L 351.54 379.01899 L 262.98 379.01899 Z "/>
</clipPath>
<g clip-path="url(#cp81)">
<text xml:space="preserve" transform="matrix(1 0 -0 1 -85.9599 543.673)" font-size="10.98" font-family="TimesNewRomanPSMT"><tspan y="-368.76" x="282.96"> </tspan></text>
</g>
<g id="Layer-1" data-name="P">
</g>
<clipPath id="cp82">
<path transform="matrix(1,0,0,-1,-85.9599,543.673)" d="M 351.54 366.36 L 440.1 366.36 L 440.1 379.01899 L 351.54 379.01899 Z "/>
</clipPath>
<g clip-path="url(#cp82)">
<text xml:space="preserve" transform="matrix(1 0 -0 1 -85.9599 543.673)" font-size="10.98" font-family="TimesNewRomanPSMT"><tspan y="-368.76" x="368.82"> </tspan></text>
</g>
<g id="Layer-1" data-name="P">
</g>
<clipPath id="cp83">
<path transform="matrix(1,0,0,-1,-85.9599,543.673)" d="M 440.1 366.36 L 549.6 366.36 L 549.6 379.01899 L 440.1 379.01899 Z "/>
</clipPath>
<g clip-path="url(#cp83)">
<text xml:space="preserve" transform="matrix(1 0 -0 1 -85.9599 543.673)" font-size="10.98" font-family="TimesNewRomanPSMT"><tspan y="-368.76" x="458.52 465.23976 471.3556">ZP=</tspan></text>
</g>
<clipPath id="cp84">
<path transform="matrix(1,0,0,-1,-85.9599,543.673)" d="M 440.1 366.36 L 549.6 366.36 L 549.6 379.01899 L 440.1 379.01899 Z "/>
</clipPath>
<g clip-path="url(#cp84)">
<text xml:space="preserve" transform="matrix(1 0 -0 1 -85.9599 543.673)" font-size="10.98" font-family="TimesNewRomanPSMT"><tspan y="-368.76" x="477.54"> </tspan></text>
</g>
<g id="Layer-1" data-name="P">
</g>
<clipPath id="cp85">
<path transform="matrix(1,0,0,-1,-85.9599,543.673)" d="M 549.6 366.36 L 702.6 366.36 L 702.6 379.01899 L 549.6 379.01899 Z "/>
</clipPath>
<g clip-path="url(#cp85)">
<text xml:space="preserve" transform="matrix(1 0 -0 1 -85.9599 543.673)" font-size="10.98" font-family="TimesNewRomanPSMT"><tspan y="-368.76" x="555 560.52297 563.58309 569.106 574.62899 579.4887 582.5477 585.3037 590.7641 596.28707 599.34719 602.4073 605.16329 610.62368 616.08297 621.6059 627.12887 632.6518 637.51156 641.1119">global unit boundary</tspan></text>
</g>
<clipPath id="cp86">
<path transform="matrix(1,0,0,-1,-85.9599,543.673)" d="M 549.6 366.36 L 702.6 366.36 L 702.6 379.01899 L 549.6 379.01899 Z "/>
</clipPath>
<g clip-path="url(#cp86)">
<text xml:space="preserve" transform="matrix(1 0 -0 1 -85.9599 543.673)" font-size="10.98" font-family="TimesNewRomanPSMT"><tspan y="-368.76" x="646.62"> </tspan></text>
</g>
<g id="Layer-1" data-name="P">
</g>
<clipPath id="cp87">
<path transform="matrix(1,0,0,-1,-85.9599,543.673)" d="M 89.4 353.7 L 262.98 353.7 L 262.98 366.36003 L 89.4 366.36003 Z "/>
</clipPath>
<g clip-path="url(#cp87)">
<text xml:space="preserve" transform="matrix(1 0 -0 1 -85.9599 543.673)" font-size="10.98" font-family="TimesNewRomanPSMT"><tspan y="-356.1" x="94.8"> </tspan></text>
</g>
<g id="Layer-1" data-name="P">
</g>
<clipPath id="cp88">
<path transform="matrix(1,0,0,-1,-85.9599,543.673)" d="M 262.98 353.7 L 351.54 353.7 L 351.54 366.36003 L 262.98 366.36003 Z "/>
</clipPath>
<g clip-path="url(#cp88)">
<text xml:space="preserve" transform="matrix(1 0 -0 1 -85.9599 543.673)" font-size="10.98" font-family="TimesNewRomanPSMT"><tspan y="-356.1" x="282.96"> </tspan></text>
</g>
<g id="Layer-1" data-name="P">
</g>
<clipPath id="cp89">
<path transform="matrix(1,0,0,-1,-85.9599,543.673)" d="M 351.54 353.7 L 440.1 353.7 L 440.1 366.36003 L 351.54 366.36003 Z "/>
</clipPath>
<g clip-path="url(#cp89)">
<text xml:space="preserve" transform="matrix(1 0 -0 1 -85.9599 543.673)" font-size="10.98" font-family="TimesNewRomanPSMT"><tspan y="-356.1" x="368.82"> </tspan></text>
</g>
<g id="Layer-1" data-name="P">
</g>
<clipPath id="cp90">
<path transform="matrix(1,0,0,-1,-85.9599,543.673)" d="M 440.1 353.7 L 549.6 353.7 L 549.6 366.36003 L 440.1 366.36003 Z "/>
</clipPath>
<g clip-path="url(#cp90)">
<text xml:space="preserve" transform="matrix(1 0 -0 1 -85.9599 543.673)" font-size="10.98" font-family="TimesNewRomanPSMT"><tspan y="-356.1" x="458.52 465.23976 475.01963">ZM=</tspan></text>
</g>
<clipPath id="cp91">
<path transform="matrix(1,0,0,-1,-85.9599,543.673)" d="M 440.1 353.7 L 549.6 353.7 L 549.6 366.36003 L 440.1 366.36003 Z "/>
</clipPath>
<g clip-path="url(#cp91)">
<text xml:space="preserve" transform="matrix(1 0 -0 1 -85.9599 543.673)" font-size="10.98" font-family="TimesNewRomanPSMT"><tspan y="-356.1" x="481.2"> </tspan></text>
</g>
<g id="Layer-1" data-name="P">
</g>
<clipPath id="cp92">
<path transform="matrix(1,0,0,-1,-85.9599,543.673)" d="M 549.6 353.7 L 702.6 353.7 L 702.6 366.36003 L 549.6 366.36003 Z "/>
</clipPath>
<g clip-path="url(#cp92)">
<text xml:space="preserve" transform="matrix(1 0 -0 1 -85.9599 543.673)" font-size="10.98" font-family="TimesNewRomanPSMT"><tspan y="-356.1" x="555 560.52297 563.58309 569.106 574.62899 579.4887 582.5477 585.3037 590.7641 596.28707 599.34719 602.4073 605.16329 610.62368 616.08297 621.6059 627.12887 632.6518 637.51156 641.1119">global unit boundary</tspan></text>
</g>
<clipPath id="cp93">
<path transform="matrix(1,0,0,-1,-85.9599,543.673)" d="M 549.6 353.7 L 702.6 353.7 L 702.6 366.36003 L 549.6 366.36003 Z "/>
</clipPath>
<g clip-path="url(#cp93)">
<text xml:space="preserve" transform="matrix(1 0 -0 1 -85.9599 543.673)" font-size="10.98" font-family="TimesNewRomanPSMT"><tspan y="-356.1" x="646.62"> </tspan></text>
</g>
<g id="Layer-1" data-name="P">
</g>
<clipPath id="cp94">
<path transform="matrix(1,0,0,-1,-85.9599,543.673)" d="M 89.4 341.04 L 262.98 341.04 L 262.98 353.7 L 89.4 353.7 Z "/>
</clipPath>
<g clip-path="url(#cp94)">
<text xml:space="preserve" transform="matrix(1 0 -0 1 -85.9599 543.673)" font-size="10.98" font-family="TimesNewRomanPSMT"><tspan y="-343.44" x="94.8"> </tspan></text>
</g>
<g id="Layer-1" data-name="P">
</g>
<clipPath id="cp95">
<path transform="matrix(1,0,0,-1,-85.9599,543.673)" d="M 262.98 341.04 L 351.54 341.04 L 351.54 353.7 L 262.98 353.7 Z "/>
</clipPath>
<g clip-path="url(#cp95)">
<text xml:space="preserve" transform="matrix(1 0 -0 1 -85.9599 543.673)" font-size="10.98" font-family="TimesNewRomanPSMT"><tspan y="-343.44" x="282.96"> </tspan></text>
</g>
<g id="Layer-1" data-name="P">
</g>
<clipPath id="cp96">
<path transform="matrix(1,0,0,-1,-85.9599,543.673)" d="M 351.54 341.04 L 440.1 341.04 L 440.1 353.7 L 351.54 353.7 Z "/>
</clipPath>
<g clip-path="url(#cp96)">
<text xml:space="preserve" transform="matrix(1 0 -0 1 -85.9599 543.673)" font-size="10.98" font-family="TimesNewRomanPSMT"><tspan y="-343.44" x="368.82"> </tspan></text>
</g>
<g id="Layer-1" data-name="P">
</g>
<clipPath id="cp97">
<path transform="matrix(1,0,0,-1,-85.9599,543.673)" d="M 440.1 341.04 L 549.6 341.04 L 549.6 353.7 L 440.1 353.7 Z "/>
</clipPath>
<g clip-path="url(#cp97)">
<text xml:space="preserve" transform="matrix(1 0 -0 1 -85.9599 543.673)" font-size="10.98" font-family="TimesNewRomanPSMT"><tspan y="-343.44" x="458.52 464.63587 472.55574 482.3356 488.45149 495.17124 501.891 507.41065 515.3305 522.0503 529.97018">SAMPLE_DEN=</tspan></text>
</g>
<clipPath id="cp98">
<path transform="matrix(1,0,0,-1,-85.9599,543.673)" d="M 440.1 341.04 L 549.6 341.04 L 549.6 353.7 L 440.1 353.7 Z "/>
</clipPath>
<g clip-path="url(#cp98)">
<text xml:space="preserve" transform="matrix(1 0 -0 1 -85.9599 543.673)" font-size="10.98" font-family="TimesNewRomanPSMT"><tspan y="-343.44" x="536.22"> </tspan></text>
</g>
<g id="Layer-1" data-name="P">
</g>
<clipPath id="cp99">
<path transform="matrix(1,0,0,-1,-85.9599,543.673)" d="M 549.6 341.04 L 702.6 341.04 L 702.6 353.7 L 549.6 353.7 Z "/>
</clipPath>
<g clip-path="url(#cp99)">
<text xml:space="preserve" transform="matrix(1 0 -0 1 -85.9599 543.673)" font-size="10.98" font-family="TimesNewRomanPSMT"><tspan y="-343.44" x="555 560.52297 566.0459 569.106 574.62899 577.688 581.9482 584.70419 588.96438 593.8241 602.2831 607.806 610.86618 615.7852 621.30819 624.06417 629.5871 634.44796 638.10757 640.8635 645.72329 651.2462 656.76919 659.8293 664.689 667.445 672.30477">points sampled per cubic cm</tspan></text>
</g>
<clipPath id="cp100">
<path transform="matrix(1,0,0,-1,-85.9599,543.673)" d="M 549.6 341.04 L 702.6 341.04 L 702.6 353.7 L 549.6 353.7 Z "/>
</clipPath>
<g clip-path="url(#cp100)">
<text xml:space="preserve" transform="matrix(1 0 -0 1 -85.9599 543.673)" font-size="10.98" font-family="TimesNewRomanPSMT"><tspan y="-343.44" x="680.88"> </tspan></text>
</g>
<g id="Layer-1" data-name="P">
</g>
<clipPath id="cp101">
<path transform="matrix(1,0,0,-1,-85.9599,543.673)" d="M 89.4 328.44 L 262.98 328.44 L 262.98 341.04 L 89.4 341.04 Z "/>
</clipPath>
<g clip-path="url(#cp101)">
<text xml:space="preserve" transform="matrix(1 0 -0 1 -85.9599 543.673)" font-size="10.98" font-family="TimesNewRomanPSMT"><tspan y="-330.84" x="94.8"> </tspan></text>
</g>
<g id="Layer-1" data-name="P">
</g>
<clipPath id="cp102">
<path transform="matrix(1,0,0,-1,-85.9599,543.673)" d="M 262.98 328.44 L 351.54 328.44 L 351.54 341.04 L 262.98 341.04 Z "/>
</clipPath>
<g clip-path="url(#cp102)">
<text xml:space="preserve" transform="matrix(1 0 -0 1 -85.9599 543.673)" font-size="10.98" font-family="TimesNewRomanPSMT"><tspan y="-330.84" x="282.96"> </tspan></text>
</g>
<g id="Layer-1" data-name="P">
</g>
<clipPath id="cp103">
<path transform="matrix(1,0,0,-1,-85.9599,543.673)" d="M 351.54 328.44 L 440.1 328.44 L 440.1 341.04 L 351.54 341.04 Z "/>
</clipPath>
<g clip-path="url(#cp103)">
<text xml:space="preserve" transform="matrix(1 0 -0 1 -85.9599 543.673)" font-size="10.98" font-family="TimesNewRomanPSMT"><tspan y="-330.84" x="368.82"> </tspan></text>
</g>
<g id="Layer-1" data-name="P">
</g>
<clipPath id="cp104">
<path transform="matrix(1,0,0,-1,-85.9599,543.673)" d="M 440.1 328.44 L 549.6 328.44 L 549.6 341.04 L 440.1 341.04 Z "/>
</clipPath>
<g clip-path="url(#cp104)">
<text xml:space="preserve" transform="matrix(1 0 -0 1 -85.9599 543.673)" font-size="10.98" font-family="TimesNewRomanPSMT"><tspan y="-330.84" x="458.52"> </tspan></text>
</g>
<g id="Layer-1" data-name="P">
</g>
<clipPath id="cp105">
<path transform="matrix(1,0,0,-1,-85.9599,543.673)" d="M 549.6 328.44 L 702.6 328.44 L 702.6 341.04 L 549.6 341.04 Z "/>
</clipPath>
<g clip-path="url(#cp105)">
<text xml:space="preserve" transform="matrix(1 0 -0 1 -85.9599 543.673)" font-size="10.98" font-family="TimesNewRomanPSMT"><tspan y="-330.84" x="555"> </tspan></text>
</g>
<g id="Layer-1" data-name="P">
</g>
<clipPath id="cp106">
<path transform="matrix(1,0,0,-1,-85.9599,543.673)" d="M 89.4 315.78 L 262.98 315.78 L 262.98 328.439 L 89.4 328.439 Z "/>
</clipPath>
<g clip-path="url(#cp106)">
<text xml:space="preserve" transform="matrix(1 0 -0 1 -85.9599 543.673)" font-size="10.98" font-family="TimesNewRomanPSMT"><tspan y="-318.18" x="94.8"> </tspan></text>
</g>
<g id="Layer-1" data-name="P">
</g>
<clipPath id="cp107">
<path transform="matrix(1,0,0,-1,-85.9599,543.673)" d="M 262.98 315.78 L 351.54 315.78 L 351.54 328.439 L 262.98 328.439 Z "/>
</clipPath>
<g clip-path="url(#cp107)">
<text xml:space="preserve" transform="matrix(1 0 -0 1 -85.9599 543.673)" font-size="10.98" font-family="TimesNewRomanPSMT"><tspan y="-318.18" x="282.96 289.67976 297.00343 304.92329 312.24696">TRACE</tspan></text>
</g>
<clipPath id="cp108">
<path transform="matrix(1,0,0,-1,-85.9599,543.673)" d="M 262.98 315.78 L 351.54 315.78 L 351.54 328.439 L 262.98 328.439 Z "/>
</clipPath>
<g clip-path="url(#cp108)">
<text xml:space="preserve" transform="matrix(1 0 -0 1 -85.9599 543.673)" font-size="10.98" font-family="TimesNewRomanPSMT"><tspan y="-318.18" x="319.02"> </tspan></text>
</g>
<g id="Layer-1" data-name="P">
</g>
<clipPath id="cp109">
<path transform="matrix(1,0,0,-1,-85.9599,543.673)" d="M 351.54 315.78 L 440.1 315.78 L 440.1 328.439 L 351.54 328.439 Z "/>
</clipPath>
<g clip-path="url(#cp109)">
<text xml:space="preserve" transform="matrix(1 0 -0 1 -85.9599 543.673)" font-size="10.98" font-family="TimesNewRomanPSMT"><tspan y="-318.18" x="368.82 374.34297 379.8659 385.38887">none</tspan></text>
</g>
<clipPath id="cp110">
<path transform="matrix(1,0,0,-1,-85.9599,543.673)" d="M 351.54 315.78 L 440.1 315.78 L 440.1 328.439 L 351.54 328.439 Z "/>
</clipPath>
<g clip-path="url(#cp110)">
<text xml:space="preserve" transform="matrix(1 0 -0 1 -85.9599 543.673)" font-size="10.98" font-family="TimesNewRomanPSMT"><tspan y="-318.18" x="390.18"> </tspan></text>
</g>
<g id="Layer-1" data-name="P">
</g>
<clipPath id="cp111">
<path transform="matrix(1,0,0,-1,-85.9599,543.673)" d="M 440.1 315.78 L 549.6 315.78 L 549.6 328.439 L 440.1 328.439 Z "/>
</clipPath>
<g clip-path="url(#cp111)">
<text xml:space="preserve" transform="matrix(1 0 -0 1 -85.9599 543.673)" font-size="10.98" font-family="TimesNewRomanPSMT"><tspan y="-318.18" x="458.52 466.43659 473.75697 481.67356 489.59016 495.77079">NRAYS=</tspan></text>
</g>
<clipPath id="cp112">
<path transform="matrix(1,0,0,-1,-85.9599,543.673)" d="M 440.1 315.78 L 549.6 315.78 L 549.6 328.439 L 440.1 328.439 Z "/>
</clipPath>
<g clip-path="url(#cp112)">
<text xml:space="preserve" transform="matrix(1 0 -0 1 -85.9599 543.673)" font-size="10.98" font-family="TimesNewRomanPSMT"><tspan y="-318.18" x="502.02"> </tspan></text>
</g>
<g id="Layer-1" data-name="P">
</g>
<clipPath id="cp113">
<path transform="matrix(1,0,0,-1,-85.9599,543.673)" d="M 549.6 315.78 L 702.6 315.78 L 702.6 328.439 L 549.6 328.439 Z "/>
</clipPath>
<g clip-path="url(#cp113)">
<text xml:space="preserve" transform="matrix(1 0 -0 1 -85.9599 543.673)" font-size="10.98" font-family="TimesNewRomanPSMT"><tspan y="-318.18" x="555 560.52297 566.0459 571.56887 574.26889 579.7918 585.31478">100,000</tspan></text>
</g>
<clipPath id="cp114">
<path transform="matrix(1,0,0,-1,-85.9599,543.673)" d="M 549.6 315.78 L 702.6 315.78 L 702.6 328.439 L 549.6 328.439 Z "/>
</clipPath>
<g clip-path="url(#cp114)">
<text xml:space="preserve" transform="matrix(1 0 -0 1 -85.9599 543.673)" font-size="10.98" font-family="TimesNewRomanPSMT"><tspan y="-318.18" x="590.76"> </tspan></text>
</g>
<g id="Layer-1" data-name="P">
</g>
<clipPath id="cp115">
<path transform="matrix(1,0,0,-1,-85.9599,543.673)" d="M 89.4 303.12 L 262.98 303.12 L 262.98 315.78 L 89.4 315.78 Z "/>
</clipPath>
<g clip-path="url(#cp115)">
<text xml:space="preserve" transform="matrix(1 0 -0 1 -85.9599 543.673)" font-size="10.98" font-family="TimesNewRomanPSMT"><tspan y="-305.52" x="95.1"> </tspan></text>
</g>
<g id="Layer-1" data-name="P">
</g>
<clipPath id="cp116">
<path transform="matrix(1,0,0,-1,-85.9599,543.673)" d="M 262.98 303.12 L 351.54 303.12 L 351.54 315.78 L 262.98 315.78 Z "/>
</clipPath>
<g clip-path="url(#cp116)">
<text xml:space="preserve" transform="matrix(1 0 -0 1 -85.9599 543.673)" font-size="10.98" font-family="TimesNewRomanPSMT"><tspan y="-305.52" x="283.32"> </tspan></text>
</g>
<g id="Layer-1" data-name="P">
</g>
<clipPath id="cp117">
<path transform="matrix(1,0,0,-1,-85.9599,543.673)" d="M 351.54 303.12 L 440.1 303.12 L 440.1 315.78 L 351.54 315.78 Z "/>
</clipPath>
<g clip-path="url(#cp117)">
<text xml:space="preserve" transform="matrix(1 0 -0 1 -85.9599 543.673)" font-size="10.98" font-family="TimesNewRomanPSMT"><tspan y="-305.52" x="369.18"> </tspan></text>
</g>
<g id="Layer-1" data-name="P">
</g>
<clipPath id="cp118">
<path transform="matrix(1,0,0,-1,-85.9599,543.673)" d="M 440.1 303.12 L 549.6 303.12 L 549.6 315.78 L 440.1 315.78 Z "/>
</clipPath>
<g clip-path="url(#cp118)">
<text xml:space="preserve" transform="matrix(1 0 -0 1 -85.9599 543.673)" font-size="10.98" font-family="TimesNewRomanPSMT"><tspan y="-305.52" x="458.82 466.7366 472.85688">XP=</tspan></text>
</g>
<clipPath id="cp119">
<path transform="matrix(1,0,0,-1,-85.9599,543.673)" d="M 440.1 303.12 L 549.6 303.12 L 549.6 315.78 L 440.1 315.78 Z "/>
</clipPath>
<g clip-path="url(#cp119)">
<text xml:space="preserve" transform="matrix(1 0 -0 1 -85.9599 543.673)" font-size="10.98" font-family="TimesNewRomanPSMT"><tspan y="-305.52" x="479.1"> </tspan></text>
</g>
<g id="Layer-1" data-name="P">
</g>
<clipPath id="cp120">
<path transform="matrix(1,0,0,-1,-85.9599,543.673)" d="M 549.6 303.12 L 702.6 303.12 L 702.6 315.78 L 549.6 315.78 Z "/>
</clipPath>
<g clip-path="url(#cp120)">
<text xml:space="preserve" transform="matrix(1 0 -0 1 -85.9599 543.673)" font-size="10.98" font-family="TimesNewRomanPSMT"><tspan y="-305.52" x="555.36 560.88296 563.94308 569.466 574.98898 579.8487 582.9077 585.6637 591.1241 596.64706 599.70718 602.7673 605.52328 610.98367 616.44296 621.9659 627.48886 633.0118 637.8715 641.47189">global unit boundary</tspan></text>
</g>
<clipPath id="cp121">
<path transform="matrix(1,0,0,-1,-85.9599,543.673)" d="M 549.6 303.12 L 702.6 303.12 L 702.6 315.78 L 549.6 315.78 Z "/>
</clipPath>
<g clip-path="url(#cp121)">
<text xml:space="preserve" transform="matrix(1 0 -0 1 -85.9599 543.673)" font-size="10.98" font-family="TimesNewRomanPSMT"><tspan y="-305.52" x="646.98"> </tspan></text>
</g>
<g id="Layer-1" data-name="P">
</g>
<clipPath id="cp122">
<path transform="matrix(1,0,0,-1,-85.9599,543.673)" d="M 89.4 288.3 L 262.98 288.3 L 262.98 300.96 L 89.4 300.96 Z "/>
</clipPath>
<g clip-path="url(#cp122)">
<text xml:space="preserve" transform="matrix(1 0 -0 1 -85.9599 543.673)" font-size="10.98" font-family="TimesNewRomanPSMT"><tspan y="-290.7" x="95.1"> </tspan></text>
</g>
<g id="Layer-1" data-name="P">
</g>
<clipPath id="cp123">
<path transform="matrix(1,0,0,-1,-85.9599,543.673)" d="M 262.98 288.3 L 351.54 288.3 L 351.54 300.96 L 262.98 300.96 Z "/>
</clipPath>
<g clip-path="url(#cp123)">
<text xml:space="preserve" transform="matrix(1 0 -0 1 -85.9599 543.673)" font-size="10.98" font-family="TimesNewRomanPSMT"><tspan y="-290.7" x="283.32"> </tspan></text>
</g>
<g id="Layer-1" data-name="P">
</g>
<clipPath id="cp124">
<path transform="matrix(1,0,0,-1,-85.9599,543.673)" d="M 351.54 288.3 L 440.1 288.3 L 440.1 300.96 L 351.54 300.96 Z "/>
</clipPath>
<g clip-path="url(#cp124)">
<text xml:space="preserve" transform="matrix(1 0 -0 1 -85.9599 543.673)" font-size="10.98" font-family="TimesNewRomanPSMT"><tspan y="-290.7" x="369.18"> </tspan></text>
</g>
<g id="Layer-1" data-name="P">
</g>
<clipPath id="cp125">
<path transform="matrix(1,0,0,-1,-85.9599,543.673)" d="M 440.1 288.3 L 549.6 288.3 L 549.6 300.96 L 440.1 300.96 Z "/>
</clipPath>
<g clip-path="url(#cp125)">
<text xml:space="preserve" transform="matrix(1 0 -0 1 -85.9599 543.673)" font-size="10.98" font-family="TimesNewRomanPSMT"><tspan y="-290.7" x="458.82 466.7366 476.51649">XM=</tspan></text>
</g>
<clipPath id="cp126">
<path transform="matrix(1,0,0,-1,-85.9599,543.673)" d="M 440.1 288.3 L 549.6 288.3 L 549.6 300.96 L 440.1 300.96 Z "/>
</clipPath>
<g clip-path="url(#cp126)">
<text xml:space="preserve" transform="matrix(1 0 -0 1 -85.9599 543.673)" font-size="10.98" font-family="TimesNewRomanPSMT"><tspan y="-290.7" x="482.76"> </tspan></text>
</g>
<g id="Layer-1" data-name="P">
</g>
<clipPath id="cp127">
<path transform="matrix(1,0,0,-1,-85.9599,543.673)" d="M 549.6 288.3 L 702.6 288.3 L 702.6 300.96 L 549.6 300.96 Z "/>
</clipPath>
<g clip-path="url(#cp127)">
<text xml:space="preserve" transform="matrix(1 0 -0 1 -85.9599 543.673)" font-size="10.98" font-family="TimesNewRomanPSMT"><tspan y="-290.7" x="555.36 560.88296 563.94308 569.466 574.98898 579.8487 582.9077 585.6637 591.1241 596.64706 599.70718 602.7673 605.52328 610.98367 616.44296 621.9659 627.48886 633.0118 637.8715 641.47189">global unit boundary</tspan></text>
</g>
<clipPath id="cp128">
<path transform="matrix(1,0,0,-1,-85.9599,543.673)" d="M 549.6 288.3 L 702.6 288.3 L 702.6 300.96 L 549.6 300.96 Z "/>
</clipPath>
<g clip-path="url(#cp128)">
<text xml:space="preserve" transform="matrix(1 0 -0 1 -85.9599 543.673)" font-size="10.98" font-family="TimesNewRomanPSMT"><tspan y="-290.7" x="646.98"> </tspan></text>
</g>
<g id="Layer-1" data-name="P">
</g>
<clipPath id="cp129">
<path transform="matrix(1,0,0,-1,-85.9599,543.673)" d="M 89.4 273.54 L 262.98 273.54 L 262.98 286.2 L 89.4 286.2 Z "/>
</clipPath>
<g clip-path="url(#cp129)">
<text xml:space="preserve" transform="matrix(1 0 -0 1 -85.9599 543.673)" font-size="10.98" font-family="TimesNewRomanPSMT"><tspan y="-275.94" x="95.1"> </tspan></text>
</g>
<g id="Layer-1" data-name="P">
</g>
<clipPath id="cp130">
<path transform="matrix(1,0,0,-1,-85.9599,543.673)" d="M 262.98 273.54 L 351.54 273.54 L 351.54 286.2 L 262.98 286.2 Z "/>
</clipPath>
<g clip-path="url(#cp130)">
<text xml:space="preserve" transform="matrix(1 0 -0 1 -85.9599 543.673)" font-size="10.98" font-family="TimesNewRomanPSMT"><tspan y="-275.94" x="283.32"> </tspan></text>
</g>
<g id="Layer-1" data-name="P">
</g>
<clipPath id="cp131">
<path transform="matrix(1,0,0,-1,-85.9599,543.673)" d="M 351.54 273.54 L 440.1 273.54 L 440.1 286.2 L 351.54 286.2 Z "/>
</clipPath>
<g clip-path="url(#cp131)">
<text xml:space="preserve" transform="matrix(1 0 -0 1 -85.9599 543.673)" font-size="10.98" font-family="TimesNewRomanPSMT"><tspan y="-275.94" x="369.18"> </tspan></text>
</g>
<g id="Layer-1" data-name="P">
</g>
<clipPath id="cp132">
<path transform="matrix(1,0,0,-1,-85.9599,543.673)" d="M 440.1 273.54 L 549.6 273.54 L 549.6 286.2 L 440.1 286.2 Z "/>
</clipPath>
<g clip-path="url(#cp132)">
<text xml:space="preserve" transform="matrix(1 0 -0 1 -85.9599 543.673)" font-size="10.98" font-family="TimesNewRomanPSMT"><tspan y="-275.94" x="458.82 466.7366 472.85688">YP=</tspan></text>
</g>
<clipPath id="cp133">
<path transform="matrix(1,0,0,-1,-85.9599,543.673)" d="M 440.1 273.54 L 549.6 273.54 L 549.6 286.2 L 440.1 286.2 Z "/>
</clipPath>
<g clip-path="url(#cp133)">
<text xml:space="preserve" transform="matrix(1 0 -0 1 -85.9599 543.673)" font-size="10.98" font-family="TimesNewRomanPSMT"><tspan y="-275.94" x="479.1"> </tspan></text>
</g>
<g id="Layer-1" data-name="P">
</g>
<clipPath id="cp134">
<path transform="matrix(1,0,0,-1,-85.9599,543.673)" d="M 549.6 273.54 L 702.6 273.54 L 702.6 286.2 L 549.6 286.2 Z "/>
</clipPath>
<g clip-path="url(#cp134)">
<text xml:space="preserve" transform="matrix(1 0 -0 1 -85.9599 543.673)" font-size="10.98" font-family="TimesNewRomanPSMT"><tspan y="-275.94" x="555.36 560.88296 563.94308 569.466 574.98898 579.8487 582.9077 585.6637 591.1241 596.64706 599.70718 602.7673 605.52328 610.98367 616.44296 621.9659 627.48886 633.0118 637.8715 641.47189">global unit boundary</tspan></text>
</g>
<clipPath id="cp135">
<path transform="matrix(1,0,0,-1,-85.9599,543.673)" d="M 549.6 273.54 L 702.6 273.54 L 702.6 286.2 L 549.6 286.2 Z "/>
</clipPath>
<g clip-path="url(#cp135)">
<text xml:space="preserve" transform="matrix(1 0 -0 1 -85.9599 543.673)" font-size="10.98" font-family="TimesNewRomanPSMT"><tspan y="-275.94" x="646.98"> </tspan></text>
</g>
<g id="Layer-1" data-name="P">
</g>
<clipPath id="cp136">
<path transform="matrix(1,0,0,-1,-85.9599,543.673)" d="M 89.4 258.72 L 262.98 258.72 L 262.98 271.379 L 89.4 271.379 Z "/>
</clipPath>
<g clip-path="url(#cp136)">
<text xml:space="preserve" transform="matrix(1 0 -0 1 -85.9599 543.673)" font-size="10.98" font-family="TimesNewRomanPSMT"><tspan y="-261.12" x="95.1"> </tspan></text>
</g>
<g id="Layer-1" data-name="P">
</g>
<clipPath id="cp137">
<path transform="matrix(1,0,0,-1,-85.9599,543.673)" d="M 262.98 258.72 L 351.54 258.72 L 351.54 271.379 L 262.98 271.379 Z "/>
</clipPath>
<g clip-path="url(#cp137)">
<text xml:space="preserve" transform="matrix(1 0 -0 1 -85.9599 543.673)" font-size="10.98" font-family="TimesNewRomanPSMT"><tspan y="-261.12" x="283.32"> </tspan></text>
</g>
<g id="Layer-1" data-name="P">
</g>
<clipPath id="cp138">
<path transform="matrix(1,0,0,-1,-85.9599,543.673)" d="M 351.54 258.72 L 440.1 258.72 L 440.1 271.379 L 351.54 271.379 Z "/>
</clipPath>
<g clip-path="url(#cp138)">
<text xml:space="preserve" transform="matrix(1 0 -0 1 -85.9599 543.673)" font-size="10.98" font-family="TimesNewRomanPSMT"><tspan y="-261.12" x="369.18"> </tspan></text>
</g>
<g id="Layer-1" data-name="P">
</g>
<clipPath id="cp139">
<path transform="matrix(1,0,0,-1,-85.9599,543.673)" d="M 440.1 258.72 L 549.6 258.72 L 549.6 271.379 L 440.1 271.379 Z "/>
</clipPath>
<g clip-path="url(#cp139)">
<text xml:space="preserve" transform="matrix(1 0 -0 1 -85.9599 543.673)" font-size="10.98" font-family="TimesNewRomanPSMT"><tspan y="-261.12" x="458.82 466.7366 476.51649">YM=</tspan></text>
</g>
<clipPath id="cp140">
<path transform="matrix(1,0,0,-1,-85.9599,543.673)" d="M 440.1 258.72 L 549.6 258.72 L 549.6 271.379 L 440.1 271.379 Z "/>
</clipPath>
<g clip-path="url(#cp140)">
<text xml:space="preserve" transform="matrix(1 0 -0 1 -85.9599 543.673)" font-size="10.98" font-family="TimesNewRomanPSMT"><tspan y="-261.12" x="482.76"> </tspan></text>
</g>
<g id="Layer-1" data-name="P">
</g>
<clipPath id="cp141">
<path transform="matrix(1,0,0,-1,-85.9599,543.673)" d="M 549.6 258.72 L 702.6 258.72 L 702.6 271.379 L 549.6 271.379 Z "/>
</clipPath>
<g clip-path="url(#cp141)">
<text xml:space="preserve" transform="matrix(1 0 -0 1 -85.9599 543.673)" font-size="10.98" font-family="TimesNewRomanPSMT"><tspan y="-261.12" x="555.36 560.88296 563.94308 569.466 574.98898 579.8487 582.9077 585.6637 591.1241 596.64706 599.70718 602.7673 605.52328 610.98367 616.44296 621.9659 627.48886 633.0118 637.8715 641.47189">global unit boundary</tspan></text>
</g>
<clipPath id="cp142">
<path transform="matrix(1,0,0,-1,-85.9599,543.673)" d="M 549.6 258.72 L 702.6 258.72 L 702.6 271.379 L 549.6 271.379 Z "/>
</clipPath>
<g clip-path="url(#cp142)">
<text xml:space="preserve" transform="matrix(1 0 -0 1 -85.9599 543.673)" font-size="10.98" font-family="TimesNewRomanPSMT"><tspan y="-261.12" x="646.98"> </tspan></text>
</g>
<g id="Layer-1" data-name="P">
</g>
<clipPath id="cp143">
<path transform="matrix(1,0,0,-1,-85.9599,543.673)" d="M 89.4 243.9 L 262.98 243.9 L 262.98 256.56 L 89.4 256.56 Z "/>
</clipPath>
<g clip-path="url(#cp143)">
<text xml:space="preserve" transform="matrix(1 0 -0 1 -85.9599 543.673)" font-size="10.98" font-family="TimesNewRomanPSMT"><tspan y="-246.3" x="95.1"> </tspan></text>
</g>
<g id="Layer-1" data-name="P">
</g>
<clipPath id="cp144">
<path transform="matrix(1,0,0,-1,-85.9599,543.673)" d="M 262.98 243.9 L 351.54 243.9 L 351.54 256.56 L 262.98 256.56 Z "/>
</clipPath>
<g clip-path="url(#cp144)">
<text xml:space="preserve" transform="matrix(1 0 -0 1 -85.9599 543.673)" font-size="10.98" font-family="TimesNewRomanPSMT"><tspan y="-246.3" x="283.32"> </tspan></text>
</g>
<g id="Layer-1" data-name="P">
</g>
<clipPath id="cp145">
<path transform="matrix(1,0,0,-1,-85.9599,543.673)" d="M 351.54 243.9 L 440.1 243.9 L 440.1 256.56 L 351.54 256.56 Z "/>
</clipPath>
<g clip-path="url(#cp145)">
<text xml:space="preserve" transform="matrix(1 0 -0 1 -85.9599 543.673)" font-size="10.98" font-family="TimesNewRomanPSMT"><tspan y="-246.3" x="369.18"> </tspan></text>
</g>
<g id="Layer-1" data-name="P">
</g>
<clipPath id="cp146">
<path transform="matrix(1,0,0,-1,-85.9599,543.673)" d="M 440.1 243.9 L 549.6 243.9 L 549.6 256.56 L 440.1 256.56 Z "/>
</clipPath>
<g clip-path="url(#cp146)">
<text xml:space="preserve" transform="matrix(1 0 -0 1 -85.9599 543.673)" font-size="10.98" font-family="TimesNewRomanPSMT"><tspan y="-246.3" x="458.82 465.53977 471.65565">ZP=</tspan></text>
</g>
<clipPath id="cp147">
<path transform="matrix(1,0,0,-1,-85.9599,543.673)" d="M 440.1 243.9 L 549.6 243.9 L 549.6 256.56 L 440.1 256.56 Z "/>
</clipPath>
<g clip-path="url(#cp147)">
<text xml:space="preserve" transform="matrix(1 0 -0 1 -85.9599 543.673)" font-size="10.98" font-family="TimesNewRomanPSMT"><tspan y="-246.3" x="477.84"> </tspan></text>
</g>
<g id="Layer-1" data-name="P">
</g>
<clipPath id="cp148">
<path transform="matrix(1,0,0,-1,-85.9599,543.673)" d="M 549.6 243.9 L 702.6 243.9 L 702.6 256.56 L 549.6 256.56 Z "/>
</clipPath>
<g clip-path="url(#cp148)">
<text xml:space="preserve" transform="matrix(1 0 -0 1 -85.9599 543.673)" font-size="10.98" font-family="TimesNewRomanPSMT"><tspan y="-246.3" x="555.36 560.88296 563.94308 569.466 574.98898 579.8487 582.9077 585.6637 591.1241 596.64706 599.70718 602.7673 605.52328 610.98367 616.44296 621.9659 627.48886 633.0118 637.8715 641.47189">global unit boundary</tspan></text>
</g>
<clipPath id="cp149">
<path transform="matrix(1,0,0,-1,-85.9599,543.673)" d="M 549.6 243.9 L 702.6 243.9 L 702.6 256.56 L 549.6 256.56 Z "/>
</clipPath>
<g clip-path="url(#cp149)">
<text xml:space="preserve" transform="matrix(1 0 -0 1 -85.9599 543.673)" font-size="10.98" font-family="TimesNewRomanPSMT"><tspan y="-246.3" x="646.98"> </tspan></text>
</g>
<g id="Layer-1" data-name="P">
</g>
<clipPath id="cp150">
<path transform="matrix(1,0,0,-1,-85.9599,543.673)" d="M 89.4 229.14 L 262.98 229.14 L 262.98 241.8 L 89.4 241.8 Z "/>
</clipPath>
<g clip-path="url(#cp150)">
<text xml:space="preserve" transform="matrix(1 0 -0 1 -85.9599 543.673)" font-size="10.98" font-family="TimesNewRomanPSMT"><tspan y="-231.54" x="95.1"> </tspan></text>
</g>
<g id="Layer-1" data-name="P">
</g>
<clipPath id="cp151">
<path transform="matrix(1,0,0,-1,-85.9599,543.673)" d="M 262.98 229.14 L 351.54 229.14 L 351.54 241.8 L 262.98 241.8 Z "/>
</clipPath>
<g clip-path="url(#cp151)">
<text xml:space="preserve" transform="matrix(1 0 -0 1 -85.9599 543.673)" font-size="10.98" font-family="TimesNewRomanPSMT"><tspan y="-231.54" x="283.32"> </tspan></text>
</g>
<g id="Layer-1" data-name="P">
</g>
<clipPath id="cp152">
<path transform="matrix(1,0,0,-1,-85.9599,543.673)" d="M 351.54 229.14 L 440.1 229.14 L 440.1 241.8 L 351.54 241.8 Z "/>
</clipPath>
<g clip-path="url(#cp152)">
<text xml:space="preserve" transform="matrix(1 0 -0 1 -85.9599 543.673)" font-size="10.98" font-family="TimesNewRomanPSMT"><tspan y="-231.54" x="369.18"> </tspan></text>
</g>
<g id="Layer-1" data-name="P">
</g>
<clipPath id="cp153">
<path transform="matrix(1,0,0,-1,-85.9599,543.673)" d="M 440.1 229.14 L 549.6 229.14 L 549.6 241.8 L 440.1 241.8 Z "/>
</clipPath>
<g clip-path="url(#cp153)">
<text xml:space="preserve" transform="matrix(1 0 -0 1 -85.9599 543.673)" font-size="10.98" font-family="TimesNewRomanPSMT"><tspan y="-231.54" x="458.82 465.53977 475.31965">ZM=</tspan></text>
</g>
<clipPath id="cp154">
<path transform="matrix(1,0,0,-1,-85.9599,543.673)" d="M 440.1 229.14 L 549.6 229.14 L 549.6 241.8 L 440.1 241.8 Z "/>
</clipPath>
<g clip-path="url(#cp154)">
<text xml:space="preserve" transform="matrix(1 0 -0 1 -85.9599 543.673)" font-size="10.98" font-family="TimesNewRomanPSMT"><tspan y="-231.54" x="481.5"> </tspan></text>
</g>
<g id="Layer-1" data-name="P">
</g>
<clipPath id="cp155">
<path transform="matrix(1,0,0,-1,-85.9599,543.673)" d="M 549.6 229.14 L 702.6 229.14 L 702.6 241.8 L 549.6 241.8 Z "/>
</clipPath>
<g clip-path="url(#cp155)">
<text xml:space="preserve" transform="matrix(1 0 -0 1 -85.9599 543.673)" font-size="10.98" font-family="TimesNewRomanPSMT"><tspan y="-231.54" x="555.36 560.88296 563.94308 569.466 574.98898 579.8487 582.9077 585.6637 591.1241 596.64706 599.70718 602.7673 605.52328 610.98367 616.44296 621.9659 627.48886 633.0118 637.8715 641.47189">global unit boundary</tspan></text>
</g>
<clipPath id="cp156">
<path transform="matrix(1,0,0,-1,-85.9599,543.673)" d="M 549.6 229.14 L 702.6 229.14 L 702.6 241.8 L 549.6 241.8 Z "/>
</clipPath>
<g clip-path="url(#cp156)">
<text xml:space="preserve" transform="matrix(1 0 -0 1 -85.9599 543.673)" font-size="10.98" font-family="TimesNewRomanPSMT"><tspan y="-231.54" x="646.98"> </tspan></text>
</g>
<g id="Layer-1" data-name="P">
</g>
<clipPath id="cp157">
<path transform="matrix(1,0,0,-1,-85.9599,543.673)" d="M 89.4 214.32 L 262.98 214.32 L 262.98 226.98001 L 89.4 226.98001 Z "/>
</clipPath>
<g clip-path="url(#cp157)">
<text xml:space="preserve" transform="matrix(1 0 -0 1 -85.9599 543.673)" font-size="10.98" font-family="TimesNewRomanPSMT"><tspan y="-216.72" x="95.1"> </tspan></text>
</g>
<g id="Layer-1" data-name="P">
</g>
<clipPath id="cp158">
<path transform="matrix(1,0,0,-1,-85.9599,543.673)" d="M 262.98 214.32 L 351.54 214.32 L 351.54 226.98001 L 262.98 226.98001 Z "/>
</clipPath>
<g clip-path="url(#cp158)">
<text xml:space="preserve" transform="matrix(1 0 -0 1 -85.9599 543.673)" font-size="10.98" font-family="TimesNewRomanPSMT"><tspan y="-216.72" x="283.32"> </tspan></text>
</g>
<g id="Layer-1" data-name="P">
</g>
<clipPath id="cp159">
<path transform="matrix(1,0,0,-1,-85.9599,543.673)" d="M 351.54 214.32 L 440.1 214.32 L 440.1 226.98001 L 351.54 226.98001 Z "/>
</clipPath>
<g clip-path="url(#cp159)">
<text xml:space="preserve" transform="matrix(1 0 -0 1 -85.9599 543.673)" font-size="10.98" font-family="TimesNewRomanPSMT"><tspan y="-216.72" x="369.18"> </tspan></text>
</g>
<g id="Layer-1" data-name="P">
</g>
<clipPath id="cp160">
<path transform="matrix(1,0,0,-1,-85.9599,543.673)" d="M 440.1 214.32 L 549.6 214.32 L 549.6 226.98001 L 440.1 226.98001 Z "/>
</clipPath>
<g clip-path="url(#cp160)">
<text xml:space="preserve" transform="matrix(1 0 -0 1 -85.9599 543.673)" font-size="10.98" font-family="TimesNewRomanPSMT"><tspan y="-216.72" x="458.82 462.47636 468.59663 476.51649 483.84016 490.5599">IFACE=</tspan></text>
</g>
<clipPath id="cp161">
<path transform="matrix(1,0,0,-1,-85.9599,543.673)" d="M 440.1 214.32 L 549.6 214.32 L 549.6 226.98001 L 440.1 226.98001 Z "/>
</clipPath>
<g clip-path="url(#cp161)">
<text xml:space="preserve" transform="matrix(1 0 -0 1 -85.9599 543.673)" font-size="10.98" font-family="TimesNewRomanPSMT"><tspan y="-216.72" x="496.8"> </tspan></text>
</g>
<g id="Layer-1" data-name="P">
</g>
<clipPath id="cp162">
<path transform="matrix(1,0,0,-1,-85.9599,543.673)" d="M 549.6 214.32 L 702.6 214.32 L 702.6 226.98001 L 549.6 226.98001 Z "/>
</clipPath>
<g clip-path="url(#cp162)">
<text xml:space="preserve" transform="matrix(1 0 -0 1 -85.9599 543.673)" font-size="10.98" font-family="TimesNewRomanPSMT"><tspan y="-216.72" x="555.36 559.6806 568.1396 573.0037 576.06387 579.1832 584.04739 588.3076 591.36776 594.1237 597.7845 602.6486 607.5687">smallest face</tspan></text>
</g>
<clipPath id="cp163">
<path transform="matrix(1,0,0,-1,-85.9599,543.673)" d="M 549.6 214.32 L 702.6 214.32 L 702.6 226.98001 L 549.6 226.98001 Z "/>
</clipPath>
<g clip-path="url(#cp163)">
<text xml:space="preserve" transform="matrix(1 0 -0 1 -85.9599 543.673)" font-size="10.98" font-family="TimesNewRomanPSMT"><tspan y="-216.72" x="612.48"> </tspan></text>
</g>
<g id="Layer-1" data-name="P">
</g>
<clipPath id="cp164">
<path transform="matrix(1,0,0,-1,-85.9599,543.673)" d="M 89.4 199.5 L 262.98 199.5 L 262.98 212.159 L 89.4 212.159 Z "/>
</clipPath>
<g clip-path="url(#cp164)">
<text xml:space="preserve" transform="matrix(1 0 -0 1 -85.9599 543.673)" font-size="10.98" font-family="TimesNewRomanPSMT"><tspan y="-201.9" x="94.8"> </tspan></text>
</g>
<g id="Layer-1" data-name="P">
</g>
<clipPath id="cp165">
<path transform="matrix(1,0,0,-1,-85.9599,543.673)" d="M 262.98 199.5 L 351.54 199.5 L 351.54 212.159 L 262.98 212.159 Z "/>
</clipPath>
<g clip-path="url(#cp165)">
<text xml:space="preserve" transform="matrix(1 0 -0 1 -85.9599 543.673)" font-size="10.98" font-family="TimesNewRomanPSMT"><tspan y="-201.9" x="282.96"> </tspan></text>
</g>
<g id="Layer-1" data-name="P">
</g>
<clipPath id="cp166">
<path transform="matrix(1,0,0,-1,-85.9599,543.673)" d="M 351.54 199.5 L 440.1 199.5 L 440.1 212.159 L 351.54 212.159 Z "/>
</clipPath>
<g clip-path="url(#cp166)">
<text xml:space="preserve" transform="matrix(1 0 -0 1 -85.9599 543.673)" font-size="10.98" font-family="TimesNewRomanPSMT"><tspan y="-201.9" x="368.82"> </tspan></text>
</g>
<g id="Layer-1" data-name="P">
</g>
<clipPath id="cp167">
<path transform="matrix(1,0,0,-1,-85.9599,543.673)" d="M 440.1 199.5 L 549.6 199.5 L 549.6 212.159 L 440.1 212.159 Z "/>
</clipPath>
<g clip-path="url(#cp167)">
<text xml:space="preserve" transform="matrix(1 0 -0 1 -85.9599 543.673)" font-size="10.98" font-family="TimesNewRomanPSMT"><tspan y="-201.9" x="458.52"> </tspan></text>
</g>
<g id="Layer-1" data-name="P">
</g>
<clipPath id="cp168">
<path transform="matrix(1,0,0,-1,-85.9599,543.673)" d="M 549.6 199.5 L 702.6 199.5 L 702.6 212.159 L 549.6 212.159 Z "/>
</clipPath>
<g clip-path="url(#cp168)">
<text xml:space="preserve" transform="matrix(1 0 -0 1 -85.9599 543.673)" font-size="10.98" font-family="TimesNewRomanPSMT"><tspan y="-201.9" x="555"> </tspan></text>
</g>
<g id="Layer-1" data-name="P">
</g>
<clipPath id="cp169">
<path transform="matrix(1,0,0,-1,-85.9599,543.673)" d="M 89.4 186.36 L 262.98 186.36 L 262.98 199.019 L 89.4 199.019 Z "/>
</clipPath>
<g clip-path="url(#cp169)">
<text xml:space="preserve" transform="matrix(1 0 -0 1 -85.9599 543.673)" font-size="10.98" font-family="TimesNewRomanPSMT"><tspan y="-188.76" x="89.4 92.15598">  </tspan></text>
</g>
<clipPath id="cp170">
<path transform="matrix(1,0,0,-1,-85.9599,543.673)" d="M 89.4 186.36 L 262.98 186.36 L 262.98 199.019 L 89.4 199.019 Z "/>
</clipPath>
<g clip-path="url(#cp170)">
<text xml:space="preserve" transform="matrix(1 0 -0 1 -85.9599 543.673)" font-size="10.98" font-family="TimesNewRomanPSMT"><tspan y="-188.76" x="94.92 102.240367 108.96012 116.8767 124.79328 132.70987 140.62645 147.4066">READVOL=</tspan></text>
</g>
<clipPath id="cp171">
<path transform="matrix(1,0,0,-1,-85.9599,543.673)" d="M 89.4 186.36 L 262.98 186.36 L 262.98 199.019 L 89.4 199.019 Z "/>
</clipPath>
<g clip-path="url(#cp171)">
<text xml:space="preserve" transform="matrix(1 0 -0 1 -85.9599 543.673)" font-size="10.98" font-family="TimesNewRomanPSMT"><tspan y="-188.76" x="153.6"> </tspan></text>
</g>
<g id="Layer-1" data-name="P">
</g>
<clipPath id="cp172">
<path transform="matrix(1,0,0,-1,-85.9599,543.673)" d="M 262.98 186.36 L 351.54 186.36 L 351.54 199.019 L 262.98 199.019 Z "/>
</clipPath>
<g clip-path="url(#cp172)">
<text xml:space="preserve" transform="matrix(1 0 -0 1 -85.9599 543.673)" font-size="10.98" font-family="TimesNewRomanPSMT"><tspan y="-188.76" x="282.96"> </tspan></text>
</g>
<g id="Layer-1" data-name="P">
</g>
<clipPath id="cp173">
<path transform="matrix(1,0,0,-1,-85.9599,543.673)" d="M 351.54 186.36 L 440.1 186.36 L 440.1 199.019 L 351.54 199.019 Z "/>
</clipPath>
<g clip-path="url(#cp173)">
<text xml:space="preserve" transform="matrix(1 0 -0 1 -85.9599 543.673)" font-size="10.98" font-family="TimesNewRomanPSMT"><tspan y="-188.76" x="368.82 374.93586 377.99928 381.06269 385.92243 388.6784 394.19807 399.1182 407.57829">File name</tspan></text>
</g>
<clipPath id="cp174">
<path transform="matrix(1,0,0,-1,-85.9599,543.673)" d="M 351.54 186.36 L 440.1 186.36 L 440.1 199.019 L 351.54 199.019 Z "/>
</clipPath>
<g clip-path="url(#cp174)">
<text xml:space="preserve" transform="matrix(1 0 -0 1 -85.9599 543.673)" font-size="10.98" font-family="TimesNewRomanPSMT"><tspan y="-188.76" x="412.5"> </tspan></text>
</g>
<g id="Layer-1" data-name="P">
</g>
<clipPath id="cp175">
<path transform="matrix(1,0,0,-1,-85.9599,543.673)" d="M 440.1 186.36 L 549.6 186.36 L 549.6 199.019 L 440.1 199.019 Z "/>
</clipPath>
<g clip-path="url(#cp175)">
<text xml:space="preserve" transform="matrix(1 0 -0 1 -85.9599 543.673)" font-size="10.98" font-family="TimesNewRomanPSMT"><tspan y="-188.76" x="458.52 464.04295 469.5659 475.08885">none</tspan></text>
</g>
<clipPath id="cp176">
<path transform="matrix(1,0,0,-1,-85.9599,543.673)" d="M 440.1 186.36 L 549.6 186.36 L 549.6 199.019 L 440.1 199.019 Z "/>
</clipPath>
<g clip-path="url(#cp176)">
<text xml:space="preserve" transform="matrix(1 0 -0 1 -85.9599 543.673)" font-size="10.98" font-family="TimesNewRomanPSMT"><tspan y="-188.76" x="479.88"> </tspan></text>
</g>
<g id="Layer-1" data-name="P">
</g>
<clipPath id="cp177">
<path transform="matrix(1,0,0,-1,-85.9599,543.673)" d="M 549.6 186.36 L 702.6 186.36 L 702.6 199.019 L 549.6 199.019 Z "/>
</clipPath>
<g clip-path="url(#cp177)">
<text xml:space="preserve" transform="matrix(1 0 -0 1 -85.9599 543.673)" font-size="10.98" font-family="TimesNewRomanPSMT"><tspan y="-188.76" x="555"> </tspan></text>
</g>
<g id="Layer-1" data-name="Artifact">
</g>
<path transform="matrix(1,0,0,-1,-85.9599,543.673)" d="M 89.4 199.02 L 262.98 199.02 L 262.98 199.501 L 89.4 199.501 Z "/>
<path transform="matrix(1,0,0,-1,-85.9599,543.673)" d="M 262.98 199.02 L 263.46003 199.02 L 263.46003 199.501 L 262.98 199.501 Z "/>
<path transform="matrix(1,0,0,-1,-85.9599,543.673)" d="M 263.46 199.02 L 351.53999 199.02 L 351.53999 199.501 L 263.46 199.501 Z "/>
<path transform="matrix(1,0,0,-1,-85.9599,543.673)" d="M 351.54 199.02 L 352.02003 199.02 L 352.02003 199.501 L 351.54 199.501 Z "/>
<path transform="matrix(1,0,0,-1,-85.9599,543.673)" d="M 352.02 199.02 L 440.09999 199.02 L 440.09999 199.501 L 352.02 199.501 Z "/>
<path transform="matrix(1,0,0,-1,-85.9599,543.673)" d="M 440.1 199.02 L 440.58003 199.02 L 440.58003 199.501 L 440.1 199.501 Z "/>
<path transform="matrix(1,0,0,-1,-85.9599,543.673)" d="M 440.58 199.02 L 549.66 199.02 L 549.66 199.501 L 440.58 199.501 Z "/>
<path transform="matrix(1,0,0,-1,-85.9599,543.673)" d="M 549.66 199.02 L 550.141 199.02 L 550.141 199.501 L 549.66 199.501 Z "/>
<path transform="matrix(1,0,0,-1,-85.9599,543.673)" d="M 550.14 199.02 L 702.659 199.02 L 702.659 199.501 L 550.14 199.501 Z "/>
</g>
<g id="Layer-1" data-name="P">
</g>
<text xml:space="preserve" transform="matrix(1 0 -0 1 -85.9599 543.673)" font-size="10.98" font-family="TimesNewRomanPSMT"><tspan y="-176.1" x="72"> </tspan></text>
</g>
</svg>
