<svg version="1.1" viewBox="0.0 0.0 696.0 574.0" fill="none" stroke="none" stroke-linecap="square" stroke-miterlimit="10" xmlns:xlink="http://www.w3.org/1999/xlink" xmlns="http://www.w3.org/2000/svg"><clipPath id="p.0"><path d="m0 0l696.0 0l0 574.0l-696.0 0l0 -574.0z" clip-rule="nonzero"/></clipPath><g clip-path="url(#p.0)"><path fill="#000000" fill-opacity="0.0" d="m0 0l696.0 0l0 574.0l-696.0 0z" fill-rule="evenodd"/><path shape-rendering="crispEdges" fill="#cccccc" d="m0 0l139.0 0l0 41.19685l-139.0 0l0 -41.19685z" fill-rule="nonzero"/><path shape-rendering="crispEdges" fill="#cccccc" d="m139.0 0l135.0 0l0 41.19685l-135.0 0l0 -41.19685z" fill-rule="nonzero"/><path shape-rendering="crispEdges" fill="#cccccc" d="m274.0 0l141.0 0l0 41.19685l-141.0 0l0 -41.19685z" fill-rule="nonzero"/><path shape-rendering="crispEdges" fill="#cccccc" d="m415.0 0l129.0 0l0 41.19685l-129.0 0l0 -41.19685z" fill-rule="nonzero"/><path shape-rendering="crispEdges" fill="#cccccc" d="m544.0 0l153.0 0l0 41.19685l-153.0 0l0 -41.19685z" fill-rule="nonzero"/><path shape-rendering="crispEdges" fill="#ffffff" d="m0 41.19685l139.0 0l0 41.19685l-139.0 0l0 -41.19685z" fill-rule="nonzero"/><path shape-rendering="crispEdges" fill="#ffffff" d="m139.0 41.19685l135.0 0l0 41.19685l-135.0 0l0 -41.19685z" fill-rule="nonzero"/><path shape-rendering="crispEdges" fill="#ffffff" d="m274.0 41.19685l141.0 0l0 41.19685l-141.0 0l0 -41.19685z" fill-rule="nonzero"/><path shape-rendering="crispEdges" fill="#ffffff" d="m415.0 41.19685l129.0 0l0 41.19685l-129.0 0l0 -41.19685z" fill-rule="nonzero"/><path shape-rendering="crispEdges" fill="#ffffff" d="m544.0 41.19685l153.0 0l0 41.19685l-153.0 0l0 -41.19685z" fill-rule="nonzero"/><path shape-rendering="crispEdges" fill="#ffffff" d="m0 82.3937l139.0 0l0 39.196854l-139.0 0l0 -39.196854z" fill-rule="nonzero"/><path shape-rendering="crispEdges" fill="#ffffff" d="m139.0 82.3937l135.0 0l0 39.196854l-135.0 0l0 -39.196854z" fill-rule="nonzero"/><path shape-rendering="crispEdges" fill="#ffffff" d="m274.0 82.3937l141.0 0l0 39.196854l-141.0 0l0 -39.196854z" fill-rule="nonzero"/><path shape-rendering="crispEdges" fill="#ffffff" d="m415.0 82.3937l129.0 0l0 39.196854l-129.0 0l0 -39.196854z" fill-rule="nonzero"/><path shape-rendering="crispEdges" fill="#ffffff" d="m544.0 82.3937l153.0 0l0 39.196854l-153.0 0l0 -39.196854z" fill-rule="nonzero"/><path shape-rendering="crispEdges" fill="#ffffff" d="m0 121.59055l139.0 0l0 39.196846l-139.0 0l0 -39.196846z" fill-rule="nonzero"/><path shape-rendering="crispEdges" fill="#ffffff" d="m139.0 121.59055l135.0 0l0 39.196846l-135.0 0l0 -39.196846z" fill-rule="nonzero"/><path shape-rendering="crispEdges" fill="#ffffff" d="m274.0 121.59055l141.0 0l0 39.196846l-141.0 0l0 -39.196846z" fill-rule="nonzero"/><path shape-rendering="crispEdges" fill="#ffffff" d="m415.0 121.59055l129.0 0l0 39.196846l-129.0 0l0 -39.196846z" fill-rule="nonzero"/><path shape-rendering="crispEdges" fill="#ffffff" d="m544.0 121.59055l153.0 0l0 39.196846l-153.0 0l0 -39.196846z" fill-rule="nonzero"/><path shape-rendering="crispEdges" fill="#ffffff" d="m0 160.7874l139.0 0l0 85.19685l-139.0 0l0 -85.19685z" fill-rule="nonzero"/><path shape-rendering="crispEdges" fill="#ffffff" d="m139.0 160.7874l135.0 0l0 85.19685l-135.0 0l0 -85.19685z" fill-rule="nonzero"/><path shape-rendering="crispEdges" fill="#ffffff" d="m274.0 160.7874l141.0 0l0 85.19685l-141.0 0l0 -85.19685z" fill-rule="nonzero"/><path shape-rendering="crispEdges" fill="#ffffff" d="m415.0 160.7874l129.0 0l0 85.19685l-129.0 0l0 -85.19685z" fill-rule="nonzero"/><path shape-rendering="crispEdges" fill="#ffffff" d="m544.0 160.7874l153.0 0l0 85.19685l-153.0 0l0 -85.19685z" fill-rule="nonzero"/><path shape-rendering="crispEdges" fill="#ffffff" d="m0 245.98425l139.0 0l0 39.19684l-139.0 0l0 -39.19684z" fill-rule="nonzero"/><path shape-rendering="crispEdges" fill="#ffffff" d="m139.0 245.98425l135.0 0l0 39.19684l-135.0 0l0 -39.19684z" fill-rule="nonzero"/><path shape-rendering="crispEdges" fill="#ffffff" d="m274.0 245.98425l141.0 0l0 39.19684l-141.0 0l0 -39.19684z" fill-rule="nonzero"/><path shape-rendering="crispEdges" fill="#ffffff" d="m415.0 245.98425l129.0 0l0 39.19684l-129.0 0l0 -39.19684z" fill-rule="nonzero"/><path shape-rendering="crispEdges" fill="#ffffff" d="m544.0 245.98425l153.0 0l0 39.19684l-153.0 0l0 -39.19684z" fill-rule="nonzero"/><path shape-rendering="crispEdges" fill="#ffffff" d="m0 285.1811l697.0 0l0 85.19687l-697.0 0l0 -85.19687z" fill-rule="nonzero"/><path shape-rendering="crispEdges" fill="#ffffff" d="m0 370.37796l139.0 0l0 39.19684l-139.0 0l0 -39.19684z" fill-rule="nonzero"/><path shape-rendering="crispEdges" fill="#ffffff" d="m139.0 370.37796l135.0 0l0 39.19684l-135.0 0l0 -39.19684z" fill-rule="nonzero"/><path shape-rendering="crispEdges" fill="#ffffff" d="m274.0 370.37796l141.0 0l0 39.19684l-141.0 0l0 -39.19684z" fill-rule="nonzero"/><path shape-rendering="crispEdges" fill="#ffffff" d="m415.0 370.37796l129.0 0l0 39.19684l-129.0 0l0 -39.19684z" fill-rule="nonzero"/><path shape-rendering="crispEdges" fill="#ffffff" d="m544.0 370.37796l153.0 0l0 39.19684l-153.0 0l0 -39.19684z" fill-rule="nonzero"/><path shape-rendering="crispEdges" fill="#ffffff" d="m0 409.5748l139.0 0l0 39.19687l-139.0 0l0 -39.19687z" fill-rule="nonzero"/><path shape-rendering="crispEdges" fill="#ffffff" d="m139.0 409.5748l135.0 0l0 39.19687l-135.0 0l0 -39.19687z" fill-rule="nonzero"/><path shape-rendering="crispEdges" fill="#ffffff" d="m274.0 409.5748l141.0 0l0 39.19687l-141.0 0l0 -39.19687z" fill-rule="nonzero"/><path shape-rendering="crispEdges" fill="#ffffff" d="m415.0 409.5748l129.0 0l0 39.19687l-129.0 0l0 -39.19687z" fill-rule="nonzero"/><path shape-rendering="crispEdges" fill="#ffffff" d="m544.0 409.5748l153.0 0l0 39.19687l-153.0 0l0 -39.19687z" fill-rule="nonzero"/><path shape-rendering="crispEdges" fill="#ffffff" d="m0 448.77167l139.0 0l0 85.19684l-139.0 0l0 -85.19684z" fill-rule="nonzero"/><path shape-rendering="crispEdges" fill="#ffffff" d="m139.0 448.77167l135.0 0l0 85.19684l-135.0 0l0 -85.19684z" fill-rule="nonzero"/><path shape-rendering="crispEdges" fill="#ffffff" d="m274.0 448.77167l141.0 0l0 85.19684l-141.0 0l0 -85.19684z" fill-rule="nonzero"/><path shape-rendering="crispEdges" fill="#ffffff" d="m415.0 448.77167l129.0 0l0 85.19684l-129.0 0l0 -85.19684z" fill-rule="nonzero"/><path shape-rendering="crispEdges" fill="#ffffff" d="m544.0 448.77167l153.0 0l0 85.19684l-153.0 0l0 -85.19684z" fill-rule="nonzero"/><path shape-rendering="crispEdges" fill="#ffffff" d="m0 533.9685l139.0 0l0 39.19684l-139.0 0l0 -39.19684z" fill-rule="nonzero"/><path shape-rendering="crispEdges" fill="#ffffff" d="m139.0 533.9685l135.0 0l0 39.19684l-135.0 0l0 -39.19684z" fill-rule="nonzero"/><path shape-rendering="crispEdges" fill="#ffffff" d="m274.0 533.9685l141.0 0l0 39.19684l-141.0 0l0 -39.19684z" fill-rule="nonzero"/><path shape-rendering="crispEdges" fill="#ffffff" d="m415.0 533.9685l129.0 0l0 39.19684l-129.0 0l0 -39.19684z" fill-rule="nonzero"/><path shape-rendering="crispEdges" fill="#ffffff" d="m544.0 533.9685l153.0 0l0 39.19684l-153.0 0l0 -39.19684z" fill-rule="nonzero"/><path stroke="#000000" stroke-width="1.3280839895013123" stroke-linecap="butt" d="m-0.49868765 0l697.9973 0" fill-rule="nonzero"/><path stroke="#000000" stroke-width="1.3280839895013123" stroke-linecap="butt" d="m-0.49868765 41.19685l697.9973 0" fill-rule="nonzero"/><path stroke="#000000" stroke-width="1.3280839895013123" stroke-linecap="butt" d="m-0.49868765 82.3937l697.9973 0" fill-rule="nonzero"/><path stroke="#000000" stroke-width="1.3280839895013123" stroke-linecap="butt" stroke-dasharray="1.3280839895013123,3.984251968503937" d="m-0.49868765 285.1811l697.9973 0" fill-rule="nonzero"/><path stroke="#000000" stroke-width="1.3280839895013123" stroke-linecap="butt" stroke-dasharray="1.3280839895013123,3.984251968503937" d="m-0.49868765 370.37796l697.9973 0" fill-rule="nonzero"/><path stroke="#000000" stroke-width="1.3280839895013123" stroke-linecap="butt" d="m-0.49868765 573.16534l697.9973 0" fill-rule="nonzero"/><path fill="#000000" d="m69.77369 55.08935l-1.109375 3.84375l0.90625 0q0.96875 0 1.40625 -0.296875q0.4375 -0.296875 0.75 -1.09375l0.265625 0l-1.0 3.515625l-0.28125 0q0.125 -0.453125 0.125 -0.765625q0 -0.296875 -0.125 -0.484375q-0.125 -0.1875 -0.34375 -0.28125q-0.21875 -0.09375 -0.90625 -0.09375l-0.9375 0l-0.9375 3.21875q-0.125 0.46875 -0.125 0.703125q0 0.1875 0.171875 0.328125q0.125 0.109375 0.609375 0.109375l0.859375 0q1.390625 0 2.234375 -0.484375q0.84375 -0.5 1.515625 -1.734375l0.265625 0l-0.921875 2.7031212l-7.5 0l0.09375 -0.265625q0.5625 -0.015621185 0.75 -0.093746185q0.28125 -0.140625 0.421875 -0.328125q0.1875 -0.296875 0.453125 -1.234375l1.703125 -5.859375q0.203125 -0.703125 0.203125 -1.078125q0 -0.265625 -0.203125 -0.421875q-0.1875 -0.15625 -0.734375 -0.15625l-0.140625 0l0.078125 -0.265625l6.96875 0l-0.59375 2.34375l-0.265625 0q0.046875 -0.328125 0.046875 -0.5625q0 -0.375 -0.1875 -0.625q-0.25 -0.328125 -0.703125 -0.5q-0.34375 -0.140625 -1.59375 -0.140625l-1.21875 0z" fill-rule="nonzero"/><path fill="#000000" d="m204.75 58.666225l1.15625 0l-1.40625 4.78125q-0.15625 0.546875 -0.15625 0.8281288q0 0.34375 0.21875 0.59375q0.234375 0.25 0.609375 0.25q0.625 0 1.390625 -0.765625q0.78125 -0.7812538 1.109375 -1.8906288l1.125 -3.796875l1.15625 0l-1.390625 4.75q-0.1875 0.6250038 -0.1875 0.9687538q0 0.625 0.53125 0.625q0.5625 0 0.890625 -1.0625038l0.28125 0q-0.453125 1.7968788 -1.640625 1.7968788q-0.515625 0 -0.828125 -0.375q-0.3125 -0.375 -0.3125 -0.96875q0 -0.15625 0.03125 -0.4375038q-1.5 1.7812538 -2.640625 1.7812538q-0.890625 0 -1.203125 -0.78125q-0.421875 1.671875 -0.53125 2.84375q-0.0625 0.734375 -0.203125 0.96875q-0.125 0.234375 -0.515625 0.234375q-0.296875 0 -0.4375 -0.1875q-0.15625 -0.1875 -0.15625 -0.421875q0 -0.3125 0.375 -1.09375q0.453125 -0.953125 0.6875 -1.734375l2.046875 -6.906254z" fill-rule="nonzero"/><path fill="#ffffff" d="m347.5818 50.19685l2.7890625 0l0 19.2l-2.7890625 0l0 -19.2z" fill-rule="nonzero"/><path fill="#000000" d="m343.37915 56.36935l-1.109375 3.84375l0.90625 0q0.96875 0 1.40625 -0.296875q0.4375 -0.296875 0.75 -1.09375l0.265625 0l-1.0 3.515625l-0.28125 0q0.125 -0.453125 0.125 -0.765625q0 -0.296875 -0.125 -0.484375q-0.125 -0.1875 -0.34375 -0.28125q-0.21875 -0.09375 -0.90625 -0.09375l-0.9375 0l-0.9375 3.21875q-0.125 0.4687538 -0.125 0.7031288q0 0.1875 0.171875 0.328125q0.125 0.109375 0.609375 0.109375l0.859375 0q1.390625 0 2.234375 -0.484375q0.84375 -0.5 1.515625 -1.7343788l0.265625 0l-0.921875 2.7031288l-7.5 0l0.09375 -0.265625q0.5625 -0.015625 0.75 -0.09375q0.28125 -0.140625 0.421875 -0.328125q0.1875 -0.296875 0.453125 -1.2343788l1.703125 -5.859375q0.203125 -0.703125 0.203125 -1.078125q0 -0.265625 -0.203125 -0.421875q-0.1875 -0.15625 -0.734375 -0.15625l-0.140625 0l0.078125 -0.265625l6.96875 0l-0.59375 2.34375l-0.265625 0q0.046875 -0.328125 0.046875 -0.5625q0 -0.375 -0.1875 -0.625q-0.25 -0.328125 -0.703125 -0.5q-0.34375 -0.140625 -1.59375 -0.140625l-1.21875 0z" fill-rule="nonzero"/><path fill="#010000" fill-opacity="0.0" d="m347.5818 50.7131l2.7890625 0l0 18.750004l-2.7890625 0l0 -18.750004z" fill-rule="nonzero"/><path fill="#202124" d="m349.56616 54.416225l-0.171875 2.875l-1.0 0l0 -3.734375l1.171875 0l0 0.859375z" fill-rule="nonzero"/><path fill="#000000" d="m480.87402 54.354977l-0.71875 3.140625l-0.265625 0l-0.03125 -0.796875q-0.03125 -0.421875 -0.15625 -0.75q-0.125 -0.34375 -0.390625 -0.59375q-0.25 -0.25 -0.65625 -0.390625q-0.390625 -0.140625 -0.859375 -0.140625q-1.28125 0 -2.25 0.703125q-1.21875 0.90625 -1.921875 2.53125q-0.5625 1.34375 -0.5625 2.71875q0 1.421875 0.8125 2.265625q0.828125 0.828125 2.140625 0.828125q1.0 0 1.78125 -0.4375q0.78125 -0.4375 1.4375 -1.375l0.34375 0q-0.796875 1.265625 -1.75 1.859375q-0.953125 0.5781212 -2.296875 0.5781212q-1.1875 0 -2.109375 -0.484375q-0.90625 -0.4999962 -1.390625 -1.4062462q-0.484375 -0.90625 -0.484375 -1.9375q0 -1.59375 0.84375 -3.09375q0.859375 -1.5 2.34375 -2.359375q1.484375 -0.859375 3.0 -0.859375q0.703125 0 1.59375 0.328125q0.375 0.140625 0.546875 0.140625q0.171875 0 0.296875 -0.0625q0.140625 -0.078125 0.4375 -0.40625l0.265625 0z" fill-rule="nonzero"/><path fill="#000000" d="m483.49338 63.65185l-0.734375 2.5624962l0.609375 0q0.640625 0 0.9375 -0.1875q0.296875 -0.203125 0.5 -0.734375l0.171875 0l-0.65625 2.34375l-0.1875 0q0.078125 -0.296875 0.078125 -0.515625q0 -0.203125 -0.09375 -0.328125q-0.078125 -0.125 -0.21875 -0.171875q-0.140625 -0.0625 -0.609375 -0.0625l-0.609375 0l-0.625 2.140625q-0.09375 0.3125 -0.09375 0.46875q0 0.125 0.109375 0.21875q0.09375 0.0625 0.40625 0.0625l0.578125 0q0.921875 0 1.484375 -0.328125q0.5625 -0.328125 1.015625 -1.140625l0.171875 0l-0.609375 1.796875l-5.0 0l0.0625 -0.171875q0.375 -0.015625 0.5 -0.078125q0.1875 -0.078125 0.28125 -0.21875q0.125 -0.1875 0.296875 -0.8125l1.140625 -3.90625q0.125 -0.46875 0.125 -0.7187462q0 -0.171875 -0.125 -0.28125q-0.125 -0.109375 -0.484375 -0.109375l-0.109375 0l0.0625 -0.171875l4.640625 0l-0.390625 1.5624962l-0.1875 0q0.03125 -0.21875 0.03125 -0.375q0 -0.25 -0.125 -0.421875q-0.15625 -0.21874619 -0.46875 -0.3281212q-0.21875 -0.09375 -1.046875 -0.09375l-0.828125 0zm4.090149 2.2968712l0.15625 -1.40625q0.0625 -0.6093712 0.109375 -0.8124962q0.09375 -0.296875 0.25 -0.421875q0.171875 -0.140625 0.375 -0.140625q0.171875 0 0.265625 0.09375q0.109375 0.09375 0.109375 0.234375q0 0.109375 -0.046875 0.25q-0.0625 0.1875 -0.34375 0.7968712l-0.65625 1.40625l-0.21875 0z" fill-rule="nonzero"/><path fill="#000000" d="m616.01965 57.8081l-0.484375 1.640625q0.78125 -0.921875 1.390625 -1.28125q0.609375 -0.359375 1.25 -0.359375q0.640625 0 1.078125 0.5q0.453125 0.5 0.453125 1.3125q0 1.578125 -1.28125 3.203125q-1.28125 1.6249962 -2.984375 1.6249962q-0.359375 0 -0.640625 -0.078125q-0.265625 -0.078125 -0.609375 -0.28125l-0.515625 1.84375q-0.15625 0.546875 -0.15625 0.71875q0 0.15625 0.078125 0.265625q0.078125 0.109375 0.265625 0.171875q0.1875 0.0625 0.734375 0.0625l-0.0625 0.265625l-3.375 0l0.078125 -0.265625q0.671875 -0.03125 0.90625 -0.234375q0.21875 -0.203125 0.484375 -1.109375l1.8125 -6.265621q0.15625 -0.59375 0.15625 -0.734375q0 -0.203125 -0.109375 -0.296875q-0.109375 -0.109375 -0.34375 -0.109375q-0.203125 0 -0.578125 0.046875l0 -0.28125l2.453125 -0.359375zm-1.65625 5.71875q0.4375 0.5312462 1.1875 0.5312462q0.375 0 0.765625 -0.20312119q0.390625 -0.21875 0.75 -0.625q0.375 -0.40625 0.65625 -0.9375q0.296875 -0.53125 0.53125 -1.25q0.234375 -0.734375 0.234375 -1.4375q0 -0.578125 -0.265625 -0.875q-0.25 -0.3125 -0.609375 -0.3125q-0.765625 0 -1.53125 0.890625q-0.75 0.890625 -1.09375 2.078125l-0.625 2.140625z" fill-rule="nonzero"/><path fill="#000000" d="m623.26965 63.65185l-0.734375 2.5624962l0.609375 0q0.640625 0 0.9375 -0.1875q0.296875 -0.203125 0.5 -0.734375l0.171875 0l-0.65625 2.34375l-0.1875 0q0.078125 -0.296875 0.078125 -0.515625q0 -0.203125 -0.09375 -0.328125q-0.078125 -0.125 -0.21875 -0.171875q-0.140625 -0.0625 -0.609375 -0.0625l-0.609375 0l-0.625 2.140625q-0.09375 0.3125 -0.09375 0.46875q0 0.125 0.109375 0.21875q0.09375 0.0625 0.40625 0.0625l0.578125 0q0.921875 0 1.484375 -0.328125q0.5625 -0.328125 1.015625 -1.140625l0.171875 0l-0.609375 1.796875l-5.0 0l0.0625 -0.171875q0.375 -0.015625 0.5 -0.078125q0.1875 -0.078125 0.28125 -0.21875q0.125 -0.1875 0.296875 -0.8125l1.140625 -3.90625q0.125 -0.46875 0.125 -0.7187462q0 -0.171875 -0.125 -0.28125q-0.125 -0.109375 -0.484375 -0.109375l-0.109375 0l0.0625 -0.171875l4.640625 0l-0.390625 1.5624962l-0.1875 0q0.03125 -0.21875 0.03125 -0.375q0 -0.25 -0.125 -0.421875q-0.15625 -0.21874619 -0.46875 -0.3281212q-0.21875 -0.09375 -1.046875 -0.09375l-0.828125 0zm4.090149 2.2968712l0.15625 -1.40625q0.0625 -0.6093712 0.109375 -0.8124962q0.09375 -0.296875 0.25 -0.421875q0.171875 -0.140625 0.375 -0.140625q0.171875 0 0.265625 0.09375q0.109375 0.09375 0.109375 0.234375q0 0.109375 -0.046875 0.25q-0.0625 0.1875 -0.34375 0.7968712l-0.65625 1.40625l-0.21875 0z" fill-rule="nonzero"/><path fill="#000000" d="m67.33232 96.2862l-1.109375 3.84375l0.90625 0q0.96875 0 1.40625 -0.296875q0.4375 -0.296875 0.75 -1.09375l0.265625 0l-1.0 3.515625l-0.28125 0q0.125 -0.453125 0.125 -0.765625q0 -0.296875 -0.125 -0.484375q-0.125 -0.1875 -0.34375 -0.28125q-0.21875 -0.09375 -0.90625 -0.09375l-0.9375 0l-0.9375 3.21875q-0.125 0.46875 -0.125 0.703125q0 0.1875 0.171875 0.328125q0.125 0.109375 0.609375 0.109375l0.859375 0q1.390625 0 2.234375 -0.484375q0.84375 -0.5 1.515625 -1.734375l0.265625 0l-0.921875 2.703125l-7.5 0l0.09375 -0.265625q0.5625 -0.015625 0.75 -0.09375q0.28125 -0.140625 0.421875 -0.328125q0.1875 -0.296875 0.453125 -1.234375l1.703125 -5.859375q0.203125 -0.703125 0.203125 -1.078125q0 -0.265625 -0.203125 -0.421875q-0.1875 -0.15625 -0.734375 -0.15625l-0.140625 0l0.078125 -0.265625l6.96875 0l-0.59375 2.34375l-0.265625 0q0.046875 -0.328125 0.046875 -0.5625q0 -0.375 -0.1875 -0.625q-0.25 -0.328125 -0.703125 -0.5q-0.34375 -0.140625 -1.59375 -0.140625l-1.21875 0z" fill-rule="nonzero"/><path fill="#000000" d="m72.67557 105.14558l1.578125 -0.765625l0.15625 0l0 5.453125q0 0.546875 0.046875 0.6875q0.046875 0.125 0.1875 0.203125q0.140625 0.0625 0.578125 0.078125l0 0.171875l-2.421875 0l0 -0.171875q0.453125 -0.015625 0.578125 -0.078125q0.140625 -0.078125 0.1875 -0.1875q0.0625 -0.125 0.0625 -0.703125l0 -3.484375q0 -0.703125 -0.046875 -0.90625q-0.046875 -0.15625 -0.140625 -0.21875q-0.078125 -0.078125 -0.203125 -0.078125q-0.171875 0 -0.484375 0.140625l-0.078125 -0.140625z" fill-rule="nonzero"/><path fill="#000000" d="m202.44275 99.1612l1.078125 0l-1.296875 4.375q-0.140625 0.5 -0.140625 0.765625q0 0.3125 0.203125 0.546875q0.21875 0.234375 0.546875 0.234375q0.578125 0 1.28125 -0.703125q0.71875 -0.71875 1.015625 -1.734375l1.03125 -3.484375l1.0625 0l-1.28125 4.359375q-0.171875 0.5625 -0.171875 0.890625q0 0.5625 0.484375 0.5625q0.515625 0 0.828125 -0.96875l0.25 0q-0.40625 1.640625 -1.5 1.640625q-0.46875 0 -0.765625 -0.34375q-0.28125 -0.34375 -0.28125 -0.890625q0 -0.125 0.03125 -0.390625q-1.375 1.625 -2.421875 1.625q-0.8125 0 -1.109375 -0.71875q-0.390625 1.53125 -0.484375 2.59375q-0.0625 0.6875 -0.1875 0.890625q-0.109375 0.21875 -0.453125 0.21875q-0.28125 0 -0.40625 -0.171875q-0.140625 -0.171875 -0.140625 -0.390625q0 -0.28125 0.34375 -1.0q0.421875 -0.859375 0.625 -1.578125l1.859375 -6.328125z" fill-rule="nonzero"/><path fill="#000000" d="m208.87762 105.14558l1.578125 -0.765625l0.15625 0l0 5.453125q0 0.546875 0.046875 0.6875q0.046875 0.125 0.1875 0.203125q0.140625 0.0625 0.578125 0.078125l0 0.171875l-2.421875 0l0 -0.171875q0.453125 -0.015625 0.578125 -0.078125q0.140625 -0.078125 0.1875 -0.1875q0.0625 -0.125 0.0625 -0.703125l0 -3.484375q0 -0.703125 -0.046875 -0.90625q-0.046875 -0.15625 -0.140625 -0.21875q-0.078125 -0.078125 -0.203125 -0.078125q-0.171875 0 -0.484375 0.140625l-0.078125 -0.140625z" fill-rule="nonzero"/><path fill="#000000" d="m340.7293 96.2862l-1.109375 3.84375l0.90625 0q0.96875 0 1.40625 -0.296875q0.4375 -0.296875 0.75 -1.09375l0.265625 0l-1.0 3.515625l-0.28125 0q0.125 -0.453125 0.125 -0.765625q0 -0.296875 -0.125 -0.484375q-0.125 -0.1875 -0.34375 -0.28125q-0.21875 -0.09375 -0.90625 -0.09375l-0.9375 0l-0.9375 3.21875q-0.125 0.46875 -0.125 0.703125q0 0.1875 0.171875 0.328125q0.125 0.109375 0.609375 0.109375l0.859375 0q1.390625 0 2.234375 -0.484375q0.84375 -0.5 1.515625 -1.734375l0.265625 0l-0.921875 2.703125l-7.5 0l0.09375 -0.265625q0.5625 -0.015625 0.75 -0.09375q0.28125 -0.140625 0.421875 -0.328125q0.1875 -0.296875 0.453125 -1.234375l1.703125 -5.859375q0.203125 -0.703125 0.203125 -1.078125q0 -0.265625 -0.203125 -0.421875q-0.1875 -0.15625 -0.734375 -0.15625l-0.140625 0l0.078125 -0.265625l6.96875 0l-0.59375 2.34375l-0.265625 0q0.046875 -0.328125 0.046875 -0.5625q0 -0.375 -0.1875 -0.625q-0.25 -0.328125 -0.703125 -0.5q-0.34375 -0.140625 -1.59375 -0.140625l-1.21875 0zm6.124481 3.4375l0.21875 -2.109375q0.09375 -0.90625 0.1875 -1.21875q0.140625 -0.453125 0.390625 -0.640625q0.25 -0.203125 0.546875 -0.203125q0.265625 0 0.40625 0.140625q0.15625 0.140625 0.15625 0.359375q0 0.171875 -0.078125 0.375q-0.078125 0.265625 -0.515625 1.1875l-1.0 2.109375l-0.3125 0z" fill-rule="nonzero"/><path fill="#000000" d="m349.2786 105.14558l1.578125 -0.765625l0.15625 0l0 5.453125q0 0.546875 0.046875 0.6875q0.046875 0.125 0.1875 0.203125q0.140625 0.0625 0.578125 0.078125l0 0.171875l-2.421875 0l0 -0.171875q0.453125 -0.015625 0.578125 -0.078125q0.140625 -0.078125 0.1875 -0.1875q0.0625 -0.125 0.0625 -0.703125l0 -3.484375q0 -0.703125 -0.046875 -0.90625q-0.046875 -0.15625 -0.140625 -0.21875q-0.078125 -0.078125 -0.203125 -0.078125q-0.171875 0 -0.484375 0.140625l-0.078125 -0.140625z" fill-rule="nonzero"/><path fill="#000000" d="m472.0586 96.7237l2.359375 -1.15625l0.234375 0l0 8.203125q0 0.8125 0.0625 1.015625q0.078125 0.1875 0.28125 0.296875q0.21875 0.109375 0.875 0.125l0 0.265625l-3.640625 0l0 -0.265625q0.6875 -0.015625 0.890625 -0.109375q0.203125 -0.109375 0.28125 -0.28125q0.078125 -0.1875 0.078125 -1.046875l0 -5.25q0 -1.0625 -0.078125 -1.359375q-0.046875 -0.21875 -0.1875 -0.328125q-0.125 -0.109375 -0.3125 -0.109375q-0.265625 0 -0.734375 0.21875l-0.109375 -0.21875zm7.4375 7.359375q0.34375 0 0.5625 0.234375q0.234375 0.234375 0.234375 0.5625q0 0.328125 -0.234375 0.5625q-0.234375 0.234375 -0.5625 0.234375q-0.328125 0 -0.5625 -0.234375q-0.234375 -0.234375 -0.234375 -0.5625q0 -0.34375 0.234375 -0.5625q0.234375 -0.234375 0.5625 -0.234375zm2.3671875 -3.40625q0 -1.65625 0.5 -2.859375q0.5 -1.203125 1.328125 -1.78125q0.640625 -0.46875 1.328125 -0.46875q1.125 0 2.015625 1.140625q1.109375 1.40625 1.109375 3.828125q0 1.6875 -0.5 2.875q-0.484375 1.171875 -1.234375 1.703125q-0.75 0.53125 -1.453125 0.53125q-1.390625 0 -2.3125 -1.640625q-0.78125 -1.375 -0.78125 -3.328125zm1.40625 0.1875q0 2.0 0.484375 3.265625q0.40625 1.0625 1.21875 1.0625q0.390625 0 0.796875 -0.34375q0.421875 -0.34375 0.640625 -1.171875q0.328125 -1.21875 0.328125 -3.46875q0 -1.65625 -0.34375 -2.765625q-0.265625 -0.828125 -0.671875 -1.171875q-0.296875 -0.234375 -0.703125 -0.234375q-0.484375 0 -0.875 0.4375q-0.515625 0.59375 -0.703125 1.875q-0.171875 1.265625 -0.171875 2.515625z" fill-rule="nonzero"/><path fill="#000000" d="m617.62897 99.00495l-0.484375 1.640625q0.78125 -0.921875 1.390625 -1.28125q0.609375 -0.359375 1.25 -0.359375q0.640625 0 1.078125 0.5q0.453125 0.5 0.453125 1.3125q0 1.578125 -1.28125 3.203125q-1.28125 1.625 -2.984375 1.625q-0.359375 0 -0.640625 -0.078125q-0.265625 -0.078125 -0.609375 -0.28125l-0.515625 1.84375q-0.15625 0.546875 -0.15625 0.71875q0 0.15625 0.078125 0.265625q0.078125 0.109375 0.265625 0.171875q0.1875 0.0625 0.734375 0.0625l-0.0625 0.265625l-3.375 0l0.078125 -0.265625q0.671875 -0.03125 0.90625 -0.234375q0.21875 -0.203125 0.484375 -1.109375l1.8125 -6.265625q0.15625 -0.59375 0.15625 -0.734375q0 -0.203125 -0.109375 -0.296875q-0.109375 -0.109375 -0.34375 -0.109375q-0.203125 0 -0.578125 0.046875l0 -0.28125l2.453125 -0.359375zm-1.65625 5.71875q0.4375 0.53125 1.1875 0.53125q0.375 0 0.765625 -0.203125q0.390625 -0.21875 0.75 -0.625q0.375 -0.40625 0.65625 -0.9375q0.296875 -0.53125 0.53125 -1.25q0.234375 -0.734375 0.234375 -1.4375q0 -0.578125 -0.265625 -0.875q-0.25 -0.3125 -0.609375 -0.3125q-0.765625 0 -1.53125 0.890625q-0.75 0.890625 -1.09375 2.078125l-0.625 2.140625z" fill-rule="nonzero"/><path fill="#000000" d="m622.86334 105.14558l1.578125 -0.765625l0.15625 0l0 5.453125q0 0.546875 0.046875 0.6875q0.046875 0.125 0.1875 0.203125q0.140625 0.0625 0.578125 0.078125l0 0.171875l-2.421875 0l0 -0.171875q0.453125 -0.015625 0.578125 -0.078125q0.140625 -0.078125 0.1875 -0.1875q0.0625 -0.125 0.0625 -0.703125l0 -3.484375q0 -0.703125 -0.046875 -0.90625q-0.046875 -0.15625 -0.140625 -0.21875q-0.078125 -0.078125 -0.203125 -0.078125q-0.171875 0 -0.484375 0.140625l-0.078125 -0.140625z" fill-rule="nonzero"/><path fill="#000000" d="m67.33232 135.48305l-1.109375 3.84375l0.90625 0q0.96875 0 1.40625 -0.296875q0.4375 -0.296875 0.75 -1.09375l0.265625 0l-1.0 3.515625l-0.28125 0q0.125 -0.453125 0.125 -0.765625q0 -0.296875 -0.125 -0.484375q-0.125 -0.1875 -0.34375 -0.28125q-0.21875 -0.09375 -0.90625 -0.09375l-0.9375 0l-0.9375 3.21875q-0.125 0.46875 -0.125 0.703125q0 0.1875 0.171875 0.328125q0.125 0.109375 0.609375 0.109375l0.859375 0q1.390625 0 2.234375 -0.484375q0.84375 -0.5 1.515625 -1.734375l0.265625 0l-0.921875 2.703125l-7.5 0l0.09375 -0.265625q0.5625 -0.015625 0.75 -0.09375q0.28125 -0.140625 0.421875 -0.328125q0.1875 -0.296875 0.453125 -1.234375l1.703125 -5.859375q0.203125 -0.703125 0.203125 -1.078125q0 -0.265625 -0.203125 -0.421875q-0.1875 -0.15625 -0.734375 -0.15625l-0.140625 0l0.078125 -0.265625l6.96875 0l-0.59375 2.34375l-0.265625 0q0.046875 -0.328125 0.046875 -0.5625q0 -0.375 -0.1875 -0.625q-0.25 -0.328125 -0.703125 -0.5q-0.34375 -0.140625 -1.59375 -0.140625l-1.21875 0z" fill-rule="nonzero"/><path fill="#000000" d="m72.67557 144.34242l1.578125 -0.765625l0.15625 0l0 5.453125q0 0.546875 0.046875 0.6875q0.046875 0.125 0.1875 0.203125q0.140625 0.0625 0.578125 0.078125l0 0.171875l-2.421875 0l0 -0.171875q0.453125 -0.015625 0.578125 -0.078125q0.140625 -0.078125 0.1875 -0.1875q0.0625 -0.125 0.0625 -0.703125l0 -3.484375q0 -0.703125 -0.046875 -0.90625q-0.046875 -0.15625 -0.140625 -0.21875q-0.078125 -0.078125 -0.203125 -0.078125q-0.171875 0 -0.484375 0.140625l-0.078125 -0.140625z" fill-rule="nonzero"/><path fill="#000000" d="m202.44275 138.35805l1.078125 0l-1.296875 4.375q-0.140625 0.5 -0.140625 0.765625q0 0.3125 0.203125 0.546875q0.21875 0.234375 0.546875 0.234375q0.578125 0 1.28125 -0.703125q0.71875 -0.71875 1.015625 -1.734375l1.03125 -3.484375l1.0625 0l-1.28125 4.359375q-0.171875 0.5625 -0.171875 0.890625q0 0.5625 0.484375 0.5625q0.515625 0 0.828125 -0.96875l0.25 0q-0.40625 1.640625 -1.5 1.640625q-0.46875 0 -0.765625 -0.34375q-0.28125 -0.34375 -0.28125 -0.890625q0 -0.125 0.03125 -0.390625q-1.375 1.625 -2.421875 1.625q-0.8125 0 -1.109375 -0.71875q-0.390625 1.53125 -0.484375 2.59375q-0.0625 0.6875 -0.1875 0.890625q-0.109375 0.21875 -0.453125 0.21875q-0.28125 0 -0.40625 -0.171875q-0.140625 -0.171875 -0.140625 -0.390625q0 -0.28125 0.34375 -1.0q0.421875 -0.859375 0.625 -1.578125l1.859375 -6.328125z" fill-rule="nonzero"/><path fill="#000000" d="m212.22137 148.92055l-0.453125 1.25l-3.828125 0l0 -0.171875q1.6875 -1.546875 2.375 -2.515625q0.6875 -0.96875 0.6875 -1.78125q0 -0.609375 -0.375 -1.0q-0.375 -0.40625 -0.90625 -0.40625q-0.46875 0 -0.859375 0.28125q-0.375 0.28125 -0.546875 0.828125l-0.1875 0q0.125 -0.890625 0.609375 -1.359375q0.5 -0.46875 1.234375 -0.46875q0.796875 0 1.3125 0.5q0.53125 0.5 0.53125 1.1875q0 0.5 -0.21875 0.984375q-0.359375 0.78125 -1.15625 1.640625q-1.1875 1.296875 -1.484375 1.5625l1.6875 0q0.515625 0 0.71875 -0.03125q0.21875 -0.046875 0.375 -0.15625q0.171875 -0.125 0.296875 -0.34375l0.1875 0z" fill-rule="nonzero"/><path fill="#000000" d="m340.7293 135.48305l-1.109375 3.84375l0.90625 0q0.96875 0 1.40625 -0.296875q0.4375 -0.296875 0.75 -1.09375l0.265625 0l-1.0 3.515625l-0.28125 0q0.125 -0.453125 0.125 -0.765625q0 -0.296875 -0.125 -0.484375q-0.125 -0.1875 -0.34375 -0.28125q-0.21875 -0.09375 -0.90625 -0.09375l-0.9375 0l-0.9375 3.21875q-0.125 0.46875 -0.125 0.703125q0 0.1875 0.171875 0.328125q0.125 0.109375 0.609375 0.109375l0.859375 0q1.390625 0 2.234375 -0.484375q0.84375 -0.5 1.515625 -1.734375l0.265625 0l-0.921875 2.703125l-7.5 0l0.09375 -0.265625q0.5625 -0.015625 0.75 -0.09375q0.28125 -0.140625 0.421875 -0.328125q0.1875 -0.296875 0.453125 -1.234375l1.703125 -5.859375q0.203125 -0.703125 0.203125 -1.078125q0 -0.265625 -0.203125 -0.421875q-0.1875 -0.15625 -0.734375 -0.15625l-0.140625 0l0.078125 -0.265625l6.96875 0l-0.59375 2.34375l-0.265625 0q0.046875 -0.328125 0.046875 -0.5625q0 -0.375 -0.1875 -0.625q-0.25 -0.328125 -0.703125 -0.5q-0.34375 -0.140625 -1.59375 -0.140625l-1.21875 0zm6.124481 3.4375l0.21875 -2.109375q0.09375 -0.90625 0.1875 -1.21875q0.140625 -0.453125 0.390625 -0.640625q0.25 -0.203125 0.546875 -0.203125q0.265625 0 0.40625 0.140625q0.15625 0.140625 0.15625 0.359375q0 0.171875 -0.078125 0.375q-0.078125 0.265625 -0.515625 1.1875l-1.0 2.109375l-0.3125 0z" fill-rule="nonzero"/><path fill="#000000" d="m352.62234 148.92055l-0.453125 1.25l-3.828125 0l0 -0.171875q1.6875 -1.546875 2.375 -2.515625q0.6875 -0.96875 0.6875 -1.78125q0 -0.609375 -0.375 -1.0q-0.375 -0.40625 -0.90625 -0.40625q-0.46875 0 -0.859375 0.28125q-0.375 0.28125 -0.546875 0.828125l-0.1875 0q0.125 -0.890625 0.609375 -1.359375q0.5 -0.46875 1.234375 -0.46875q0.796875 0 1.3125 0.5q0.53125 0.5 0.53125 1.1875q0 0.5 -0.21875 0.984375q-0.359375 0.78125 -1.15625 1.640625q-1.1875 1.296875 -1.484375 1.5625l1.6875 0q0.515625 0 0.71875 -0.03125q0.21875 -0.046875 0.375 -0.15625q0.171875 -0.125 0.296875 -0.34375l0.1875 0z" fill-rule="nonzero"/><path fill="#000000" d="m472.0586 135.92055l2.359375 -1.15625l0.234375 0l0 8.203125q0 0.8125 0.0625 1.015625q0.078125 0.1875 0.28125 0.296875q0.21875 0.109375 0.875 0.125l0 0.265625l-3.640625 0l0 -0.265625q0.6875 -0.015625 0.890625 -0.109375q0.203125 -0.109375 0.28125 -0.28125q0.078125 -0.1875 0.078125 -1.046875l0 -5.25q0 -1.0625 -0.078125 -1.359375q-0.046875 -0.21875 -0.1875 -0.328125q-0.125 -0.109375 -0.3125 -0.109375q-0.265625 0 -0.734375 0.21875l-0.109375 -0.21875zm7.4375 7.359375q0.34375 0 0.5625 0.234375q0.234375 0.234375 0.234375 0.5625q0 0.328125 -0.234375 0.5625q-0.234375 0.234375 -0.5625 0.234375q-0.328125 0 -0.5625 -0.234375q-0.234375 -0.234375 -0.234375 -0.5625q0 -0.34375 0.234375 -0.5625q0.234375 -0.234375 0.5625 -0.234375zm2.3671875 -3.40625q0 -1.65625 0.5 -2.859375q0.5 -1.203125 1.328125 -1.78125q0.640625 -0.46875 1.328125 -0.46875q1.125 0 2.015625 1.140625q1.109375 1.40625 1.109375 3.828125q0 1.6875 -0.5 2.875q-0.484375 1.171875 -1.234375 1.703125q-0.75 0.53125 -1.453125 0.53125q-1.390625 0 -2.3125 -1.640625q-0.78125 -1.375 -0.78125 -3.328125zm1.40625 0.1875q0 2.0 0.484375 3.265625q0.40625 1.0625 1.21875 1.0625q0.390625 0 0.796875 -0.34375q0.421875 -0.34375 0.640625 -1.171875q0.328125 -1.21875 0.328125 -3.46875q0 -1.65625 -0.34375 -2.765625q-0.265625 -0.828125 -0.671875 -1.171875q-0.296875 -0.234375 -0.703125 -0.234375q-0.484375 0 -0.875 0.4375q-0.515625 0.59375 -0.703125 1.875q-0.171875 1.265625 -0.171875 2.515625z" fill-rule="nonzero"/><path fill="#000000" d="m617.62897 138.2018l-0.484375 1.640625q0.78125 -0.921875 1.390625 -1.28125q0.609375 -0.359375 1.25 -0.359375q0.640625 0 1.078125 0.5q0.453125 0.5 0.453125 1.3125q0 1.578125 -1.28125 3.203125q-1.28125 1.625 -2.984375 1.625q-0.359375 0 -0.640625 -0.078125q-0.265625 -0.078125 -0.609375 -0.28125l-0.515625 1.84375q-0.15625 0.546875 -0.15625 0.71875q0 0.15625 0.078125 0.265625q0.078125 0.109375 0.265625 0.171875q0.1875 0.0625 0.734375 0.0625l-0.0625 0.265625l-3.375 0l0.078125 -0.265625q0.671875 -0.03125 0.90625 -0.234375q0.21875 -0.203125 0.484375 -1.109375l1.8125 -6.265625q0.15625 -0.59375 0.15625 -0.734375q0 -0.203125 -0.109375 -0.296875q-0.109375 -0.109375 -0.34375 -0.109375q-0.203125 0 -0.578125 0.046875l0 -0.28125l2.453125 -0.359375zm-1.65625 5.71875q0.4375 0.53125 1.1875 0.53125q0.375 0 0.765625 -0.203125q0.390625 -0.21875 0.75 -0.625q0.375 -0.40625 0.65625 -0.9375q0.296875 -0.53125 0.53125 -1.25q0.234375 -0.734375 0.234375 -1.4375q0 -0.578125 -0.265625 -0.875q-0.25 -0.3125 -0.609375 -0.3125q-0.765625 0 -1.53125 0.890625q-0.75 0.890625 -1.09375 2.078125l-0.625 2.140625z" fill-rule="nonzero"/><path fill="#000000" d="m626.2071 148.92055l-0.453125 1.25l-3.828125 0l0 -0.171875q1.6875 -1.546875 2.375 -2.515625q0.6875 -0.96875 0.6875 -1.78125q0 -0.609375 -0.375 -1.0q-0.375 -0.40625 -0.90625 -0.40625q-0.46875 0 -0.859375 0.28125q-0.375 0.28125 -0.546875 0.828125l-0.1875 0q0.125 -0.890625 0.609375 -1.359375q0.5 -0.46875 1.234375 -0.46875q0.796875 0 1.3125 0.5q0.53125 0.5 0.53125 1.1875q0 0.5 -0.21875 0.984375q-0.359375 0.78125 -1.15625 1.640625q-1.1875 1.296875 -1.484375 1.5625l1.6875 0q0.515625 0 0.71875 -0.03125q0.21875 -0.046875 0.375 -0.15625q0.171875 -0.125 0.296875 -0.34375l0.1875 0z" fill-rule="nonzero"/><path fill="#000000" d="m69.50781 178.8349q0.34375 0 0.578125 0.234375q0.234375 0.234375 0.234375 0.578125q0 0.34375 -0.25 0.59375q-0.234375 0.234375 -0.5625 0.234375q-0.34375 0 -0.59375 -0.234375q-0.234375 -0.25 -0.234375 -0.59375q0 -0.34375 0.234375 -0.578125q0.25 -0.234375 0.59375 -0.234375z" fill-rule="nonzero"/><path fill="#000000" d="m69.50781 200.8349q0.34375 0 0.578125 0.234375q0.234375 0.234375 0.234375 0.578125q0 0.34375 -0.25 0.59375q-0.234375 0.234375 -0.5625 0.234375q-0.34375 0 -0.59375 -0.234375q-0.234375 -0.25 -0.234375 -0.59375q0 -0.34375 0.234375 -0.578125q0.25 -0.234375 0.59375 -0.234375z" fill-rule="nonzero"/><path fill="#000000" d="m69.50781 222.8349q0.34375 0 0.578125 0.234375q0.234375 0.234375 0.234375 0.578125q0 0.34375 -0.25 0.59375q-0.234375 0.234375 -0.5625 0.234375q-0.34375 0 -0.59375 -0.234375q-0.234375 -0.25 -0.234375 -0.59375q0 -0.34375 0.234375 -0.578125q0.25 -0.234375 0.59375 -0.234375z" fill-rule="nonzero"/><path fill="#000000" d="m206.50781 178.8349q0.34375 0 0.578125 0.234375q0.234375 0.234375 0.234375 0.578125q0 0.34375 -0.25 0.59375q-0.234375 0.234375 -0.5625 0.234375q-0.34375 0 -0.59375 -0.234375q-0.234375 -0.25 -0.234375 -0.59375q0 -0.34375 0.234375 -0.578125q0.25 -0.234375 0.59375 -0.234375z" fill-rule="nonzero"/><path fill="#000000" d="m206.50781 200.8349q0.34375 0 0.578125 0.234375q0.234375 0.234375 0.234375 0.578125q0 0.34375 -0.25 0.59375q-0.234375 0.234375 -0.5625 0.234375q-0.34375 0 -0.59375 -0.234375q-0.234375 -0.25 -0.234375 -0.59375q0 -0.34375 0.234375 -0.578125q0.25 -0.234375 0.59375 -0.234375z" fill-rule="nonzero"/><path fill="#000000" d="m206.50781 222.8349q0.34375 0 0.578125 0.234375q0.234375 0.234375 0.234375 0.578125q0 0.34375 -0.25 0.59375q-0.234375 0.234375 -0.5625 0.234375q-0.34375 0 -0.59375 -0.234375q-0.234375 -0.25 -0.234375 -0.59375q0 -0.34375 0.234375 -0.578125q0.25 -0.234375 0.59375 -0.234375z" fill-rule="nonzero"/><path fill="#000000" d="m344.5078 178.8349q0.34375 0 0.578125 0.234375q0.234375 0.234375 0.234375 0.578125q0 0.34375 -0.25 0.59375q-0.234375 0.234375 -0.5625 0.234375q-0.34375 0 -0.59375 -0.234375q-0.234375 -0.25 -0.234375 -0.59375q0 -0.34375 0.234375 -0.578125q0.25 -0.234375 0.59375 -0.234375z" fill-rule="nonzero"/><path fill="#000000" d="m344.5078 200.8349q0.34375 0 0.578125 0.234375q0.234375 0.234375 0.234375 0.578125q0 0.34375 -0.25 0.59375q-0.234375 0.234375 -0.5625 0.234375q-0.34375 0 -0.59375 -0.234375q-0.234375 -0.25 -0.234375 -0.59375q0 -0.34375 0.234375 -0.578125q0.25 -0.234375 0.59375 -0.234375z" fill-rule="nonzero"/><path fill="#000000" d="m344.5078 222.8349q0.34375 0 0.578125 0.234375q0.234375 0.234375 0.234375 0.578125q0 0.34375 -0.25 0.59375q-0.234375 0.234375 -0.5625 0.234375q-0.34375 0 -0.59375 -0.234375q-0.234375 -0.25 -0.234375 -0.59375q0 -0.34375 0.234375 -0.578125q0.25 -0.234375 0.59375 -0.234375z" fill-rule="nonzero"/><path fill="#000000" d="m479.5078 178.8349q0.34375 0 0.578125 0.234375q0.234375 0.234375 0.234375 0.578125q0 0.34375 -0.25 0.59375q-0.234375 0.234375 -0.5625 0.234375q-0.34375 0 -0.59375 -0.234375q-0.234375 -0.25 -0.234375 -0.59375q0 -0.34375 0.234375 -0.578125q0.25 -0.234375 0.59375 -0.234375z" fill-rule="nonzero"/><path fill="#000000" d="m479.5078 200.8349q0.34375 0 0.578125 0.234375q0.234375 0.234375 0.234375 0.578125q0 0.34375 -0.25 0.59375q-0.234375 0.234375 -0.5625 0.234375q-0.34375 0 -0.59375 -0.234375q-0.234375 -0.25 -0.234375 -0.59375q0 -0.34375 0.234375 -0.578125q0.25 -0.234375 0.59375 -0.234375z" fill-rule="nonzero"/><path fill="#000000" d="m479.5078 222.8349q0.34375 0 0.578125 0.234375q0.234375 0.234375 0.234375 0.578125q0 0.34375 -0.25 0.59375q-0.234375 0.234375 -0.5625 0.234375q-0.34375 0 -0.59375 -0.234375q-0.234375 -0.25 -0.234375 -0.59375q0 -0.34375 0.234375 -0.578125q0.25 -0.234375 0.59375 -0.234375z" fill-rule="nonzero"/><path fill="#000000" d="m620.5078 178.8349q0.34375 0 0.578125 0.234375q0.234375 0.234375 0.234375 0.578125q0 0.34375 -0.25 0.59375q-0.234375 0.234375 -0.5625 0.234375q-0.34375 0 -0.59375 -0.234375q-0.234375 -0.25 -0.234375 -0.59375q0 -0.34375 0.234375 -0.578125q0.25 -0.234375 0.59375 -0.234375z" fill-rule="nonzero"/><path fill="#000000" d="m620.5078 200.8349q0.34375 0 0.578125 0.234375q0.234375 0.234375 0.234375 0.578125q0 0.34375 -0.25 0.59375q-0.234375 0.234375 -0.5625 0.234375q-0.34375 0 -0.59375 -0.234375q-0.234375 -0.25 -0.234375 -0.59375q0 -0.34375 0.234375 -0.578125q0.25 -0.234375 0.59375 -0.234375z" fill-rule="nonzero"/><path fill="#000000" d="m620.5078 222.8349q0.34375 0 0.578125 0.234375q0.234375 0.234375 0.234375 0.578125q0 0.34375 -0.25 0.59375q-0.234375 0.234375 -0.5625 0.234375q-0.34375 0 -0.59375 -0.234375q-0.234375 -0.25 -0.234375 -0.59375q0 -0.34375 0.234375 -0.578125q0.25 -0.234375 0.59375 -0.234375z" fill-rule="nonzero"/><path fill="#000000" d="m67.33232 259.87674l-1.109375 3.84375l0.90625 0q0.96875 0 1.40625 -0.296875q0.4375 -0.296875 0.75 -1.09375l0.265625 0l-1.0 3.515625l-0.28125 0q0.125 -0.453125 0.125 -0.765625q0 -0.296875 -0.125 -0.484375q-0.125 -0.1875 -0.34375 -0.28125q-0.21875 -0.09375 -0.90625 -0.09375l-0.9375 0l-0.9375 3.21875q-0.125 0.46875 -0.125 0.703125q0 0.1875 0.171875 0.328125q0.125 0.109375 0.609375 0.109375l0.859375 0q1.390625 0 2.234375 -0.484375q0.84375 -0.5 1.515625 -1.734375l0.265625 0l-0.921875 2.703125l-7.5 0l0.09375 -0.265625q0.5625 -0.015625 0.75 -0.09375q0.28125 -0.140625 0.421875 -0.328125q0.1875 -0.296875 0.453125 -1.234375l1.703125 -5.859375q0.203125 -0.703125 0.203125 -1.078125q0 -0.265625 -0.203125 -0.421875q-0.1875 -0.15625 -0.734375 -0.15625l-0.140625 0l0.078125 -0.265625l6.96875 0l-0.59375 2.34375l-0.265625 0q0.046875 -0.328125 0.046875 -0.5625q0 -0.375 -0.1875 -0.625q-0.25 -0.328125 -0.703125 -0.5q-0.34375 -0.140625 -1.59375 -0.140625l-1.21875 0z" fill-rule="nonzero"/><path fill="#000000" d="m72.67557 268.7361l1.578125 -0.765625l0.15625 0l0 5.453125q0 0.546875 0.046875 0.6875q0.046875 0.125 0.1875 0.203125q0.140625 0.0625 0.578125 0.078125l0 0.171875l-2.421875 0l0 -0.171875q0.453125 -0.015625 0.578125 -0.078125q0.140625 -0.078125 0.1875 -0.1875q0.0625 -0.125 0.0625 -0.703125l0 -3.484375q0 -0.703125 -0.046875 -0.90625q-0.046875 -0.15625 -0.140625 -0.21875q-0.078125 -0.078125 -0.203125 -0.078125q-0.171875 0 -0.484375 0.140625l-0.078125 -0.140625z" fill-rule="nonzero"/><path fill="#000000" d="m195.11627 262.75174l1.078125 0l-1.296875 4.375q-0.140625 0.5 -0.140625 0.765625q0 0.3125 0.203125 0.546875q0.21875 0.234375 0.546875 0.234375q0.578125 0 1.28125 -0.703125q0.71875 -0.71875 1.015625 -1.734375l1.03125 -3.484375l1.0625 0l-1.28125 4.359375q-0.171875 0.5625 -0.171875 0.890625q0 0.5625 0.484375 0.5625q0.515625 0 0.828125 -0.96875l0.25 0q-0.40625 1.640625 -1.5 1.640625q-0.46875 0 -0.765625 -0.34375q-0.28125 -0.34375 -0.28125 -0.890625q0 -0.125 0.03125 -0.390625q-1.375 1.625 -2.421875 1.625q-0.8125 0 -1.109375 -0.71875q-0.390625 1.53125 -0.484375 2.59375q-0.0625 0.6875 -0.1875 0.890625q-0.109375 0.21875 -0.453125 0.21875q-0.28125 0 -0.40625 -0.171875q-0.140625 -0.171875 -0.140625 -0.390625q0 -0.28125 0.34375 -1.0q0.421875 -0.859375 0.625 -1.578125l1.859375 -6.328125z" fill-rule="nonzero"/><path fill="#000000" d="m200.28552 268.0955l1.75 0l3.953125 4.859375l0 -3.734375q0 -0.59375 -0.125 -0.75q-0.1875 -0.203125 -0.5625 -0.203125l-0.234375 0l0 -0.171875l2.265625 0l0 0.171875l-0.234375 0q-0.40625 0 -0.578125 0.25q-0.109375 0.15625 -0.109375 0.703125l0 5.453125l-0.171875 0l-4.265625 -5.21875l0 3.984375q0 0.59375 0.125 0.75q0.1875 0.203125 0.5625 0.203125l0.234375 0l0 0.171875l-2.25 0l0 -0.171875l0.21875 0q0.421875 0 0.59375 -0.25q0.09375 -0.15625 0.09375 -0.703125l0 -4.484375q-0.28125 -0.34375 -0.421875 -0.4375q-0.140625 -0.109375 -0.421875 -0.203125q-0.140625 -0.046875 -0.421875 -0.046875l0 -0.171875zm9.177307 3.4375l0 1.890625q0 0.609375 0.140625 0.75q0.171875 0.21875 0.546875 0.21875l0.25 0l0 0.171875l-2.78125 0l0 -0.171875l0.25 0q0.40625 0 0.578125 -0.265625q0.109375 -0.15625 0.109375 -0.703125l0 -4.1875q0 -0.609375 -0.140625 -0.75q-0.1875 -0.21875 -0.546875 -0.21875l-0.25 0l0 -0.171875l2.375 0q0.875 0 1.375 0.1875q0.5 0.171875 0.84375 0.59375q0.34375 0.421875 0.34375 1.015625q0 0.78125 -0.53125 1.28125q-0.515625 0.5 -1.46875 0.5q-0.234375 0 -0.515625 -0.03125q-0.265625 -0.046875 -0.578125 -0.109375zm0 -0.265625q0.25 0.046875 0.4375 0.078125q0.203125 0.015625 0.34375 0.015625q0.5 0 0.859375 -0.375q0.359375 -0.390625 0.359375 -1.0q0 -0.421875 -0.171875 -0.78125q-0.171875 -0.359375 -0.484375 -0.53125q-0.3125 -0.1875 -0.71875 -0.1875q-0.234375 0 -0.625 0.09375l0 2.6875zm8.087341 -3.0l0 -0.171875l2.296875 0l0 0.171875l-0.25 0q-0.375 0 -0.578125 0.328125q-0.109375 0.140625 -0.109375 0.6875l0 2.625q0 0.96875 -0.203125 1.515625q-0.1875 0.53125 -0.75 0.921875q-0.5625 0.375 -1.53125 0.375q-1.0625 0 -1.609375 -0.359375q-0.546875 -0.375 -0.78125 -1.0q-0.15625 -0.421875 -0.15625 -1.59375l0 -2.53125q0 -0.59375 -0.171875 -0.78125q-0.15625 -0.1875 -0.515625 -0.1875l-0.25 0l0 -0.171875l2.796875 0l0 0.171875l-0.25 0q-0.390625 0 -0.5625 0.265625q-0.125 0.171875 -0.125 0.703125l0 2.828125q0 0.375 0.0625 0.859375q0.078125 0.484375 0.25 0.765625q0.1875 0.265625 0.53125 0.453125q0.34375 0.171875 0.828125 0.171875q0.640625 0 1.140625 -0.28125q0.5 -0.28125 0.6875 -0.703125q0.1875 -0.4375 0.1875 -1.46875l0 -2.625q0 -0.59375 -0.140625 -0.75q-0.1875 -0.21875 -0.546875 -0.21875l-0.25 0z" fill-rule="nonzero"/><path fill="#000000" d="m333.4028 259.87674l-1.109375 3.84375l0.90625 0q0.96875 0 1.40625 -0.296875q0.4375 -0.296875 0.75 -1.09375l0.265625 0l-1.0 3.515625l-0.28125 0q0.125 -0.453125 0.125 -0.765625q0 -0.296875 -0.125 -0.484375q-0.125 -0.1875 -0.34375 -0.28125q-0.21875 -0.09375 -0.90625 -0.09375l-0.9375 0l-0.9375 3.21875q-0.125 0.46875 -0.125 0.703125q0 0.1875 0.171875 0.328125q0.125 0.109375 0.609375 0.109375l0.859375 0q1.390625 0 2.234375 -0.484375q0.84375 -0.5 1.515625 -1.734375l0.265625 0l-0.921875 2.703125l-7.5 0l0.09375 -0.265625q0.5625 -0.015625 0.75 -0.09375q0.28125 -0.140625 0.421875 -0.328125q0.1875 -0.296875 0.453125 -1.234375l1.703125 -5.859375q0.203125 -0.703125 0.203125 -1.078125q0 -0.265625 -0.203125 -0.421875q-0.1875 -0.15625 -0.734375 -0.15625l-0.140625 0l0.078125 -0.265625l6.96875 0l-0.59375 2.34375l-0.265625 0q0.046875 -0.328125 0.046875 -0.5625q0 -0.375 -0.1875 -0.625q-0.25 -0.328125 -0.703125 -0.5q-0.34375 -0.140625 -1.59375 -0.140625l-1.21875 0zm6.1245117 3.4375l0.21875 -2.109375q0.09375 -0.90625 0.1875 -1.21875q0.140625 -0.453125 0.390625 -0.640625q0.25 -0.203125 0.546875 -0.203125q0.265625 0 0.40625 0.140625q0.15625 0.140625 0.15625 0.359375q0 0.171875 -0.078125 0.375q-0.078125 0.265625 -0.515625 1.1875l-1.0 2.109375l-0.3125 0z" fill-rule="nonzero"/><path fill="#000000" d="m340.6865 268.0955l1.75 0l3.953125 4.859375l0 -3.734375q0 -0.59375 -0.125 -0.75q-0.1875 -0.203125 -0.5625 -0.203125l-0.234375 0l0 -0.171875l2.265625 0l0 0.171875l-0.234375 0q-0.40625 0 -0.578125 0.25q-0.109375 0.15625 -0.109375 0.703125l0 5.453125l-0.171875 0l-4.265625 -5.21875l0 3.984375q0 0.59375 0.125 0.75q0.1875 0.203125 0.5625 0.203125l0.234375 0l0 0.171875l-2.25 0l0 -0.171875l0.21875 0q0.421875 0 0.59375 -0.25q0.09375 -0.15625 0.09375 -0.703125l0 -4.484375q-0.28125 -0.34375 -0.421875 -0.4375q-0.140625 -0.109375 -0.421875 -0.203125q-0.140625 -0.046875 -0.421875 -0.046875l0 -0.171875zm9.177307 3.4375l0 1.890625q0 0.609375 0.140625 0.75q0.171875 0.21875 0.546875 0.21875l0.25 0l0 0.171875l-2.78125 0l0 -0.171875l0.25 0q0.40625 0 0.578125 -0.265625q0.109375 -0.15625 0.109375 -0.703125l0 -4.1875q0 -0.609375 -0.140625 -0.75q-0.1875 -0.21875 -0.546875 -0.21875l-0.25 0l0 -0.171875l2.375 0q0.875 0 1.375 0.1875q0.5 0.171875 0.84375 0.59375q0.34375 0.421875 0.34375 1.015625q0 0.78125 -0.53125 1.28125q-0.515625 0.5 -1.46875 0.5q-0.234375 0 -0.515625 -0.03125q-0.265625 -0.046875 -0.578125 -0.109375zm0 -0.265625q0.25 0.046875 0.4375 0.078125q0.203125 0.015625 0.34375 0.015625q0.5 0 0.859375 -0.375q0.359375 -0.390625 0.359375 -1.0q0 -0.421875 -0.171875 -0.78125q-0.171875 -0.359375 -0.484375 -0.53125q-0.3125 -0.1875 -0.71875 -0.1875q-0.234375 0 -0.625 0.09375l0 2.6875zm8.087341 -3.0l0 -0.171875l2.296875 0l0 0.171875l-0.25 0q-0.375 0 -0.578125 0.328125q-0.109375 0.140625 -0.109375 0.6875l0 2.625q0 0.96875 -0.203125 1.515625q-0.1875 0.53125 -0.75 0.921875q-0.5625 0.375 -1.53125 0.375q-1.0625 0 -1.609375 -0.359375q-0.546875 -0.375 -0.78125 -1.0q-0.15625 -0.421875 -0.15625 -1.59375l0 -2.53125q0 -0.59375 -0.171875 -0.78125q-0.15625 -0.1875 -0.515625 -0.1875l-0.25 0l0 -0.171875l2.796875 0l0 0.171875l-0.25 0q-0.390625 0 -0.5625 0.265625q-0.125 0.171875 -0.125 0.703125l0 2.828125q0 0.375 0.0625 0.859375q0.078125 0.484375 0.25 0.765625q0.1875 0.265625 0.53125 0.453125q0.34375 0.171875 0.828125 0.171875q0.640625 0 1.140625 -0.28125q0.5 -0.28125 0.6875 -0.703125q0.1875 -0.4375 0.1875 -1.46875l0 -2.625q0 -0.59375 -0.140625 -0.75q-0.1875 -0.21875 -0.546875 -0.21875l-0.25 0z" fill-rule="nonzero"/><path fill="#000000" d="m472.0586 260.31424l2.359375 -1.15625l0.234375 0l0 8.203125q0 0.8125 0.0625 1.015625q0.078125 0.1875 0.28125 0.296875q0.21875 0.109375 0.875 0.125l0 0.265625l-3.640625 0l0 -0.265625q0.6875 -0.015625 0.890625 -0.109375q0.203125 -0.109375 0.28125 -0.28125q0.078125 -0.1875 0.078125 -1.046875l0 -5.25q0 -1.0625 -0.078125 -1.359375q-0.046875 -0.21875 -0.1875 -0.328125q-0.125 -0.109375 -0.3125 -0.109375q-0.265625 0 -0.734375 0.21875l-0.109375 -0.21875zm7.4375 7.359375q0.34375 0 0.5625 0.234375q0.234375 0.234375 0.234375 0.5625q0 0.328125 -0.234375 0.5625q-0.234375 0.234375 -0.5625 0.234375q-0.328125 0 -0.5625 -0.234375q-0.234375 -0.234375 -0.234375 -0.5625q0 -0.34375 0.234375 -0.5625q0.234375 -0.234375 0.5625 -0.234375zm2.3671875 -3.40625q0 -1.65625 0.5 -2.859375q0.5 -1.203125 1.328125 -1.78125q0.640625 -0.46875 1.328125 -0.46875q1.125 0 2.015625 1.140625q1.109375 1.40625 1.109375 3.828125q0 1.6875 -0.5 2.875q-0.484375 1.171875 -1.234375 1.703125q-0.75 0.53125 -1.453125 0.53125q-1.390625 0 -2.3125 -1.640625q-0.78125 -1.375 -0.78125 -3.328125zm1.40625 0.1875q0 2.0 0.484375 3.265625q0.40625 1.0625 1.21875 1.0625q0.390625 0 0.796875 -0.34375q0.421875 -0.34375 0.640625 -1.171875q0.328125 -1.21875 0.328125 -3.46875q0 -1.65625 -0.34375 -2.765625q-0.265625 -0.828125 -0.671875 -1.171875q-0.296875 -0.234375 -0.703125 -0.234375q-0.484375 0 -0.875 0.4375q-0.515625 0.59375 -0.703125 1.875q-0.171875 1.265625 -0.171875 2.515625z" fill-rule="nonzero"/><path fill="#000000" d="m610.3025 262.5955l-0.484375 1.640625q0.78125 -0.921875 1.390625 -1.28125q0.609375 -0.359375 1.25 -0.359375q0.640625 0 1.078125 0.5q0.453125 0.5 0.453125 1.3125q0 1.578125 -1.28125 3.203125q-1.28125 1.625 -2.984375 1.625q-0.359375 0 -0.640625 -0.078125q-0.265625 -0.078125 -0.609375 -0.28125l-0.515625 1.84375q-0.15625 0.546875 -0.15625 0.71875q0 0.15625 0.078125 0.265625q0.078125 0.109375 0.265625 0.171875q0.1875 0.0625 0.734375 0.0625l-0.0625 0.265625l-3.375 0l0.078125 -0.265625q0.671875 -0.03125 0.90625 -0.234375q0.21875 -0.203125 0.484375 -1.109375l1.8125 -6.265625q0.15625 -0.59375 0.15625 -0.734375q0 -0.203125 -0.109375 -0.296875q-0.109375 -0.109375 -0.34375 -0.109375q-0.203125 0 -0.578125 0.046875l0 -0.28125l2.453125 -0.359375zm-1.65625 5.71875q0.4375 0.53125 1.1875 0.53125q0.375 0 0.765625 -0.203125q0.390625 -0.21875 0.75 -0.625q0.375 -0.40625 0.65625 -0.9375q0.296875 -0.53125 0.53125 -1.25q0.234375 -0.734375 0.234375 -1.4375q0 -0.578125 -0.265625 -0.875q-0.25 -0.3125 -0.609375 -0.3125q-0.765625 0 -1.53125 0.890625q-0.75 0.890625 -1.09375 2.078125l-0.625 2.140625z" fill-rule="nonzero"/><path fill="#000000" d="m614.27124 268.0955l1.75 0l3.953125 4.859375l0 -3.734375q0 -0.59375 -0.125 -0.75q-0.1875 -0.203125 -0.5625 -0.203125l-0.234375 0l0 -0.171875l2.265625 0l0 0.171875l-0.234375 0q-0.40625 0 -0.578125 0.25q-0.109375 0.15625 -0.109375 0.703125l0 5.453125l-0.171875 0l-4.265625 -5.21875l0 3.984375q0 0.59375 0.125 0.75q0.1875 0.203125 0.5625 0.203125l0.234375 0l0 0.171875l-2.25 0l0 -0.171875l0.21875 0q0.421875 0 0.59375 -0.25q0.09375 -0.15625 0.09375 -0.703125l0 -4.484375q-0.28125 -0.34375 -0.421875 -0.4375q-0.140625 -0.109375 -0.421875 -0.203125q-0.140625 -0.046875 -0.421875 -0.046875l0 -0.171875zm9.177246 3.4375l0 1.890625q0 0.609375 0.140625 0.75q0.171875 0.21875 0.546875 0.21875l0.25 0l0 0.171875l-2.78125 0l0 -0.171875l0.25 0q0.40625 0 0.578125 -0.265625q0.109375 -0.15625 0.109375 -0.703125l0 -4.1875q0 -0.609375 -0.140625 -0.75q-0.1875 -0.21875 -0.546875 -0.21875l-0.25 0l0 -0.171875l2.375 0q0.875 0 1.375 0.1875q0.5 0.171875 0.84375 0.59375q0.34375 0.421875 0.34375 1.015625q0 0.78125 -0.53125 1.28125q-0.515625 0.5 -1.46875 0.5q-0.234375 0 -0.515625 -0.03125q-0.265625 -0.046875 -0.578125 -0.109375zm0 -0.265625q0.25 0.046875 0.4375 0.078125q0.203125 0.015625 0.34375 0.015625q0.5 0 0.859375 -0.375q0.359375 -0.390625 0.359375 -1.0q0 -0.421875 -0.171875 -0.78125q-0.171875 -0.359375 -0.484375 -0.53125q-0.3125 -0.1875 -0.71875 -0.1875q-0.234375 0 -0.625 0.09375l0 2.6875zm8.087402 -3.0l0 -0.171875l2.296875 0l0 0.171875l-0.25 0q-0.375 0 -0.578125 0.328125q-0.109375 0.140625 -0.109375 0.6875l0 2.625q0 0.96875 -0.203125 1.515625q-0.1875 0.53125 -0.75 0.921875q-0.5625 0.375 -1.53125 0.375q-1.0625 0 -1.609375 -0.359375q-0.546875 -0.375 -0.78125 -1.0q-0.15625 -0.421875 -0.15625 -1.59375l0 -2.53125q0 -0.59375 -0.171875 -0.78125q-0.15625 -0.1875 -0.515625 -0.1875l-0.25 0l0 -0.171875l2.796875 0l0 0.171875l-0.25 0q-0.390625 0 -0.5625 0.265625q-0.125 0.171875 -0.125 0.703125l0 2.828125q0 0.375 0.0625 0.859375q0.078125 0.484375 0.25 0.765625q0.1875 0.265625 0.53125 0.453125q0.34375 0.171875 0.828125 0.171875q0.640625 0 1.140625 -0.28125q0.5 -0.28125 0.6875 -0.703125q0.1875 -0.4375 0.1875 -1.46875l0 -2.625q0 -0.59375 -0.140625 -0.75q-0.1875 -0.21875 -0.546875 -0.21875l-0.25 0z" fill-rule="nonzero"/><path fill="#000000" d="m348.5078 303.2286q0.34375 0 0.578125 0.234375q0.234375 0.234375 0.234375 0.578125q0 0.34375 -0.25 0.59375q-0.234375 0.234375 -0.5625 0.234375q-0.34375 0 -0.59375 -0.234375q-0.234375 -0.25 -0.234375 -0.59375q0 -0.34375 0.234375 -0.578125q0.25 -0.234375 0.59375 -0.234375z" fill-rule="nonzero"/><path fill="#000000" d="m348.5078 325.2286q0.34375 0 0.578125 0.234375q0.234375 0.234375 0.234375 0.578125q0 0.34375 -0.25 0.59375q-0.234375 0.234375 -0.5625 0.234375q-0.34375 0 -0.59375 -0.234375q-0.234375 -0.25 -0.234375 -0.59375q0 -0.34375 0.234375 -0.578125q0.25 -0.234375 0.59375 -0.234375z" fill-rule="nonzero"/><path fill="#000000" d="m348.5078 347.2286q0.34375 0 0.578125 0.234375q0.234375 0.234375 0.234375 0.578125q0 0.34375 -0.25 0.59375q-0.234375 0.234375 -0.5625 0.234375q-0.34375 0 -0.59375 -0.234375q-0.234375 -0.25 -0.234375 -0.59375q0 -0.34375 0.234375 -0.578125q0.25 -0.234375 0.59375 -0.234375z" fill-rule="nonzero"/><path fill="#000000" d="m63.26496 384.27045l-1.109375 3.84375l0.90625 0q0.96875 0 1.40625 -0.296875q0.4375 -0.296875 0.75 -1.09375l0.265625 0l-1.0 3.515625l-0.28125 0q0.125 -0.453125 0.125 -0.765625q0 -0.296875 -0.125 -0.484375q-0.125 -0.1875 -0.34375 -0.28125q-0.21875 -0.09375 -0.90625 -0.09375l-0.9375 0l-0.9375 3.21875q-0.125 0.46875 -0.125 0.703125q0 0.1875 0.171875 0.328125q0.125 0.109375 0.609375 0.109375l0.859375 0q1.390625 0 2.234375 -0.484375q0.84375 -0.5 1.515625 -1.734375l0.265625 0l-0.921875 2.703125l-7.5 0l0.09375 -0.265625q0.5625 -0.015625 0.75 -0.09375q0.28125 -0.140625 0.421875 -0.328125q0.1875 -0.296875 0.453125 -1.234375l1.703125 -5.859375q0.203125 -0.703125 0.203125 -1.078125q0 -0.265625 -0.203125 -0.421875q-0.1875 -0.15625 -0.734375 -0.15625l-0.140625 0l0.078125 -0.265625l6.96875 0l-0.59375 2.34375l-0.265625 0q0.046875 -0.328125 0.046875 -0.5625q0 -0.375 -0.1875 -0.625q-0.25 -0.328125 -0.703125 -0.5q-0.34375 -0.140625 -1.59375 -0.140625l-1.21875 0z" fill-rule="nonzero"/><path fill="#000000" d="m67.34258 392.4892l1.75 0l3.953125 4.859375l0 -3.734375q0 -0.59375 -0.125 -0.75q-0.1875 -0.203125 -0.5625 -0.203125l-0.234375 0l0 -0.171875l2.265625 0l0 0.171875l-0.234375 0q-0.40625 0 -0.578125 0.25q-0.109375 0.15625 -0.109375 0.703125l0 5.453125l-0.171875 0l-4.265625 -5.21875l0 3.984375q0 0.59375 0.125 0.75q0.1875 0.203125 0.5625 0.203125l0.234375 0l0 0.171875l-2.25 0l0 -0.171875l0.21875 0q0.421875 0 0.59375 -0.25q0.09375 -0.15625 0.09375 -0.703125l0 -4.484375q-0.28125 -0.34375 -0.421875 -0.4375q-0.140625 -0.109375 -0.421875 -0.203125q-0.140625 -0.046875 -0.421875 -0.046875l0 -0.171875zm9.224182 0.359375l0 2.546875l1.421875 0q0.546875 0 0.734375 -0.15625q0.25 -0.21875 0.28125 -0.78125l0.171875 0l0 2.25l-0.171875 0q-0.078125 -0.46875 -0.140625 -0.59375q-0.078125 -0.171875 -0.28125 -0.265625q-0.203125 -0.09375 -0.59375 -0.09375l-1.421875 0l0 2.125q0 0.421875 0.03125 0.515625q0.03125 0.09375 0.125 0.15625q0.109375 0.046875 0.375 0.046875l1.09375 0q0.546875 0 0.796875 -0.0625q0.25 -0.078125 0.46875 -0.3125q0.296875 -0.296875 0.609375 -0.890625l0.1875 0l-0.546875 1.625l-4.984375 0l0 -0.171875l0.21875 0q0.234375 0 0.4375 -0.109375q0.15625 -0.078125 0.203125 -0.234375q0.0625 -0.15625 0.0625 -0.625l0 -4.203125q0 -0.609375 -0.125 -0.75q-0.171875 -0.203125 -0.578125 -0.203125l-0.21875 0l0 -0.171875l4.984375 0l0.0625 1.421875l-0.1875 0q-0.09375 -0.515625 -0.21875 -0.703125q-0.125 -0.1875 -0.359375 -0.296875q-0.1875 -0.0625 -0.671875 -0.0625l-1.765625 0z" fill-rule="nonzero"/><path fill="#000000" d="m202.44275 387.14545l1.078125 0l-1.296875 4.375q-0.140625 0.5 -0.140625 0.765625q0 0.3125 0.203125 0.546875q0.21875 0.234375 0.546875 0.234375q0.578125 0 1.28125 -0.703125q0.71875 -0.71875 1.015625 -1.734375l1.03125 -3.484375l1.0625 0l-1.28125 4.359375q-0.171875 0.5625 -0.171875 0.890625q0 0.5625 0.484375 0.5625q0.515625 0 0.828125 -0.96875l0.25 0q-0.40625 1.640625 -1.5 1.640625q-0.46875 0 -0.765625 -0.34375q-0.28125 -0.34375 -0.28125 -0.890625q0 -0.125 0.03125 -0.390625q-1.375 1.625 -2.421875 1.625q-0.8125 0 -1.109375 -0.71875q-0.390625 1.53125 -0.484375 2.59375q-0.0625 0.6875 -0.1875 0.890625q-0.109375 0.21875 -0.453125 0.21875q-0.28125 0 -0.40625 -0.171875q-0.140625 -0.171875 -0.140625 -0.390625q0 -0.28125 0.34375 -1.0q0.421875 -0.859375 0.625 -1.578125l1.859375 -6.328125z" fill-rule="nonzero"/><path fill="#000000" d="m208.87762 393.12982l1.578125 -0.765625l0.15625 0l0 5.453125q0 0.546875 0.046875 0.6875q0.046875 0.125 0.1875 0.203125q0.140625 0.0625 0.578125 0.078125l0 0.171875l-2.421875 0l0 -0.171875q0.453125 -0.015625 0.578125 -0.078125q0.140625 -0.078125 0.1875 -0.1875q0.0625 -0.125 0.0625 -0.703125l0 -3.484375q0 -0.703125 -0.046875 -0.90625q-0.046875 -0.15625 -0.140625 -0.21875q-0.078125 -0.078125 -0.203125 -0.078125q-0.171875 0 -0.484375 0.140625l-0.078125 -0.140625z" fill-rule="nonzero"/><path fill="#000000" d="m340.7293 384.27045l-1.109375 3.84375l0.90625 0q0.96875 0 1.40625 -0.296875q0.4375 -0.296875 0.75 -1.09375l0.265625 0l-1.0 3.515625l-0.28125 0q0.125 -0.453125 0.125 -0.765625q0 -0.296875 -0.125 -0.484375q-0.125 -0.1875 -0.34375 -0.28125q-0.21875 -0.09375 -0.90625 -0.09375l-0.9375 0l-0.9375 3.21875q-0.125 0.46875 -0.125 0.703125q0 0.1875 0.171875 0.328125q0.125 0.109375 0.609375 0.109375l0.859375 0q1.390625 0 2.234375 -0.484375q0.84375 -0.5 1.515625 -1.734375l0.265625 0l-0.921875 2.703125l-7.5 0l0.09375 -0.265625q0.5625 -0.015625 0.75 -0.09375q0.28125 -0.140625 0.421875 -0.328125q0.1875 -0.296875 0.453125 -1.234375l1.703125 -5.859375q0.203125 -0.703125 0.203125 -1.078125q0 -0.265625 -0.203125 -0.421875q-0.1875 -0.15625 -0.734375 -0.15625l-0.140625 0l0.078125 -0.265625l6.96875 0l-0.59375 2.34375l-0.265625 0q0.046875 -0.328125 0.046875 -0.5625q0 -0.375 -0.1875 -0.625q-0.25 -0.328125 -0.703125 -0.5q-0.34375 -0.140625 -1.59375 -0.140625l-1.21875 0zm6.124481 3.4375l0.21875 -2.109375q0.09375 -0.90625 0.1875 -1.21875q0.140625 -0.453125 0.390625 -0.640625q0.25 -0.203125 0.546875 -0.203125q0.265625 0 0.40625 0.140625q0.15625 0.140625 0.15625 0.359375q0 0.171875 -0.078125 0.375q-0.078125 0.265625 -0.515625 1.1875l-1.0 2.109375l-0.3125 0z" fill-rule="nonzero"/><path fill="#000000" d="m349.2786 393.12982l1.578125 -0.765625l0.15625 0l0 5.453125q0 0.546875 0.046875 0.6875q0.046875 0.125 0.1875 0.203125q0.140625 0.0625 0.578125 0.078125l0 0.171875l-2.421875 0l0 -0.171875q0.453125 -0.015625 0.578125 -0.078125q0.140625 -0.078125 0.1875 -0.1875q0.0625 -0.125 0.0625 -0.703125l0 -3.484375q0 -0.703125 -0.046875 -0.90625q-0.046875 -0.15625 -0.140625 -0.21875q-0.078125 -0.078125 -0.203125 -0.078125q-0.171875 0 -0.484375 0.140625l-0.078125 -0.140625z" fill-rule="nonzero"/><path fill="#000000" d="m472.0586 384.70795l2.359375 -1.15625l0.234375 0l0 8.203125q0 0.8125 0.0625 1.015625q0.078125 0.1875 0.28125 0.296875q0.21875 0.109375 0.875 0.125l0 0.265625l-3.640625 0l0 -0.265625q0.6875 -0.015625 0.890625 -0.109375q0.203125 -0.109375 0.28125 -0.28125q0.078125 -0.1875 0.078125 -1.046875l0 -5.25q0 -1.0625 -0.078125 -1.359375q-0.046875 -0.21875 -0.1875 -0.328125q-0.125 -0.109375 -0.3125 -0.109375q-0.265625 0 -0.734375 0.21875l-0.109375 -0.21875zm7.4375 7.359375q0.34375 0 0.5625 0.234375q0.234375 0.234375 0.234375 0.5625q0 0.328125 -0.234375 0.5625q-0.234375 0.234375 -0.5625 0.234375q-0.328125 0 -0.5625 -0.234375q-0.234375 -0.234375 -0.234375 -0.5625q0 -0.34375 0.234375 -0.5625q0.234375 -0.234375 0.5625 -0.234375zm2.3671875 -3.40625q0 -1.65625 0.5 -2.859375q0.5 -1.203125 1.328125 -1.78125q0.640625 -0.46875 1.328125 -0.46875q1.125 0 2.015625 1.140625q1.109375 1.40625 1.109375 3.828125q0 1.6875 -0.5 2.875q-0.484375 1.171875 -1.234375 1.703125q-0.75 0.53125 -1.453125 0.53125q-1.390625 0 -2.3125 -1.640625q-0.78125 -1.375 -0.78125 -3.328125zm1.40625 0.1875q0 2.0 0.484375 3.265625q0.40625 1.0625 1.21875 1.0625q0.390625 0 0.796875 -0.34375q0.421875 -0.34375 0.640625 -1.171875q0.328125 -1.21875 0.328125 -3.46875q0 -1.65625 -0.34375 -2.765625q-0.265625 -0.828125 -0.671875 -1.171875q-0.296875 -0.234375 -0.703125 -0.234375q-0.484375 0 -0.875 0.4375q-0.515625 0.59375 -0.703125 1.875q-0.171875 1.265625 -0.171875 2.515625z" fill-rule="nonzero"/><path fill="#000000" d="m617.62897 386.9892l-0.484375 1.640625q0.78125 -0.921875 1.390625 -1.28125q0.609375 -0.359375 1.25 -0.359375q0.640625 0 1.078125 0.5q0.453125 0.5 0.453125 1.3125q0 1.578125 -1.28125 3.203125q-1.28125 1.625 -2.984375 1.625q-0.359375 0 -0.640625 -0.078125q-0.265625 -0.078125 -0.609375 -0.28125l-0.515625 1.84375q-0.15625 0.546875 -0.15625 0.71875q0 0.15625 0.078125 0.265625q0.078125 0.109375 0.265625 0.171875q0.1875 0.0625 0.734375 0.0625l-0.0625 0.265625l-3.375 0l0.078125 -0.265625q0.671875 -0.03125 0.90625 -0.234375q0.21875 -0.203125 0.484375 -1.109375l1.8125 -6.265625q0.15625 -0.59375 0.15625 -0.734375q0 -0.203125 -0.109375 -0.296875q-0.109375 -0.109375 -0.34375 -0.109375q-0.203125 0 -0.578125 0.046875l0 -0.28125l2.453125 -0.359375zm-1.65625 5.71875q0.4375 0.53125 1.1875 0.53125q0.375 0 0.765625 -0.203125q0.390625 -0.21875 0.75 -0.625q0.375 -0.40625 0.65625 -0.9375q0.296875 -0.53125 0.53125 -1.25q0.234375 -0.734375 0.234375 -1.4375q0 -0.578125 -0.265625 -0.875q-0.25 -0.3125 -0.609375 -0.3125q-0.765625 0 -1.53125 0.890625q-0.75 0.890625 -1.09375 2.078125l-0.625 2.140625z" fill-rule="nonzero"/><path fill="#000000" d="m622.86334 393.12982l1.578125 -0.765625l0.15625 0l0 5.453125q0 0.546875 0.046875 0.6875q0.046875 0.125 0.1875 0.203125q0.140625 0.0625 0.578125 0.078125l0 0.171875l-2.421875 0l0 -0.171875q0.453125 -0.015625 0.578125 -0.078125q0.140625 -0.078125 0.1875 -0.1875q0.0625 -0.125 0.0625 -0.703125l0 -3.484375q0 -0.703125 -0.046875 -0.90625q-0.046875 -0.15625 -0.140625 -0.21875q-0.078125 -0.078125 -0.203125 -0.078125q-0.171875 0 -0.484375 0.140625l-0.078125 -0.140625z" fill-rule="nonzero"/><path fill="#000000" d="m63.26496 423.46732l-1.109375 3.84375l0.90625 0q0.96875 0 1.40625 -0.296875q0.4375 -0.296875 0.75 -1.09375l0.265625 0l-1.0 3.515625l-0.28125 0q0.125 -0.453125 0.125 -0.765625q0 -0.296875 -0.125 -0.484375q-0.125 -0.1875 -0.34375 -0.28125q-0.21875 -0.09375 -0.90625 -0.09375l-0.9375 0l-0.9375 3.21875q-0.125 0.46875 -0.125 0.703125q0 0.1875 0.171875 0.328125q0.125 0.109375 0.609375 0.109375l0.859375 0q1.390625 0 2.234375 -0.484375q0.84375 -0.5 1.515625 -1.734375l0.265625 0l-0.921875 2.703125l-7.5 0l0.09375 -0.265625q0.5625 -0.015625 0.75 -0.09375q0.28125 -0.140625 0.421875 -0.328125q0.1875 -0.296875 0.453125 -1.234375l1.703125 -5.859375q0.203125 -0.703125 0.203125 -1.078125q0 -0.265625 -0.203125 -0.421875q-0.1875 -0.15625 -0.734375 -0.15625l-0.140625 0l0.078125 -0.265625l6.96875 0l-0.59375 2.34375l-0.265625 0q0.046875 -0.328125 0.046875 -0.5625q0 -0.375 -0.1875 -0.625q-0.25 -0.328125 -0.703125 -0.5q-0.34375 -0.140625 -1.59375 -0.140625l-1.21875 0z" fill-rule="nonzero"/><path fill="#000000" d="m67.34258 431.68607l1.75 0l3.953125 4.859375l0 -3.734375q0 -0.59375 -0.125 -0.75q-0.1875 -0.203125 -0.5625 -0.203125l-0.234375 0l0 -0.171875l2.265625 0l0 0.171875l-0.234375 0q-0.40625 0 -0.578125 0.25q-0.109375 0.15625 -0.109375 0.703125l0 5.453125l-0.171875 0l-4.265625 -5.21875l0 3.984375q0 0.59375 0.125 0.75q0.1875 0.203125 0.5625 0.203125l0.234375 0l0 0.171875l-2.25 0l0 -0.171875l0.21875 0q0.421875 0 0.59375 -0.25q0.09375 -0.15625 0.09375 -0.703125l0 -4.484375q-0.28125 -0.34375 -0.421875 -0.4375q-0.140625 -0.109375 -0.421875 -0.203125q-0.140625 -0.046875 -0.421875 -0.046875l0 -0.171875zm9.224182 0.359375l0 2.546875l1.421875 0q0.546875 0 0.734375 -0.15625q0.25 -0.21875 0.28125 -0.78125l0.171875 0l0 2.25l-0.171875 0q-0.078125 -0.46875 -0.140625 -0.59375q-0.078125 -0.171875 -0.28125 -0.265625q-0.203125 -0.09375 -0.59375 -0.09375l-1.421875 0l0 2.125q0 0.421875 0.03125 0.515625q0.03125 0.09375 0.125 0.15625q0.109375 0.046875 0.375 0.046875l1.09375 0q0.546875 0 0.796875 -0.0625q0.25 -0.078125 0.46875 -0.3125q0.296875 -0.296875 0.609375 -0.890625l0.1875 0l-0.546875 1.625l-4.984375 0l0 -0.171875l0.21875 0q0.234375 0 0.4375 -0.109375q0.15625 -0.078125 0.203125 -0.234375q0.0625 -0.15625 0.0625 -0.625l0 -4.203125q0 -0.609375 -0.125 -0.75q-0.171875 -0.203125 -0.578125 -0.203125l-0.21875 0l0 -0.171875l4.984375 0l0.0625 1.421875l-0.1875 0q-0.09375 -0.515625 -0.21875 -0.703125q-0.125 -0.1875 -0.359375 -0.296875q-0.1875 -0.0625 -0.671875 -0.0625l-1.765625 0z" fill-rule="nonzero"/><path fill="#000000" d="m202.44275 426.34232l1.078125 0l-1.296875 4.375q-0.140625 0.5 -0.140625 0.765625q0 0.3125 0.203125 0.546875q0.21875 0.234375 0.546875 0.234375q0.578125 0 1.28125 -0.703125q0.71875 -0.71875 1.015625 -1.734375l1.03125 -3.484375l1.0625 0l-1.28125 4.359375q-0.171875 0.5625 -0.171875 0.890625q0 0.5625 0.484375 0.5625q0.515625 0 0.828125 -0.96875l0.25 0q-0.40625 1.640625 -1.5 1.640625q-0.46875 0 -0.765625 -0.34375q-0.28125 -0.34375 -0.28125 -0.890625q0 -0.125 0.03125 -0.390625q-1.375 1.625 -2.421875 1.625q-0.8125 0 -1.109375 -0.71875q-0.390625 1.53125 -0.484375 2.59375q-0.0625 0.6875 -0.1875 0.890625q-0.109375 0.21875 -0.453125 0.21875q-0.28125 0 -0.40625 -0.171875q-0.140625 -0.171875 -0.140625 -0.390625q0 -0.28125 0.34375 -1.0q0.421875 -0.859375 0.625 -1.578125l1.859375 -6.328125z" fill-rule="nonzero"/><path fill="#000000" d="m212.22137 436.90482l-0.453125 1.25l-3.828125 0l0 -0.171875q1.6875 -1.546875 2.375 -2.515625q0.6875 -0.96875 0.6875 -1.78125q0 -0.609375 -0.375 -1.0q-0.375 -0.40625 -0.90625 -0.40625q-0.46875 0 -0.859375 0.28125q-0.375 0.28125 -0.546875 0.828125l-0.1875 0q0.125 -0.890625 0.609375 -1.359375q0.5 -0.46875 1.234375 -0.46875q0.796875 0 1.3125 0.5q0.53125 0.5 0.53125 1.1875q0 0.5 -0.21875 0.984375q-0.359375 0.78125 -1.15625 1.640625q-1.1875 1.296875 -1.484375 1.5625l1.6875 0q0.515625 0 0.71875 -0.03125q0.21875 -0.046875 0.375 -0.15625q0.171875 -0.125 0.296875 -0.34375l0.1875 0z" fill-rule="nonzero"/><path fill="#000000" d="m340.7293 423.46732l-1.109375 3.84375l0.90625 0q0.96875 0 1.40625 -0.296875q0.4375 -0.296875 0.75 -1.09375l0.265625 0l-1.0 3.515625l-0.28125 0q0.125 -0.453125 0.125 -0.765625q0 -0.296875 -0.125 -0.484375q-0.125 -0.1875 -0.34375 -0.28125q-0.21875 -0.09375 -0.90625 -0.09375l-0.9375 0l-0.9375 3.21875q-0.125 0.46875 -0.125 0.703125q0 0.1875 0.171875 0.328125q0.125 0.109375 0.609375 0.109375l0.859375 0q1.390625 0 2.234375 -0.484375q0.84375 -0.5 1.515625 -1.734375l0.265625 0l-0.921875 2.703125l-7.5 0l0.09375 -0.265625q0.5625 -0.015625 0.75 -0.09375q0.28125 -0.140625 0.421875 -0.328125q0.1875 -0.296875 0.453125 -1.234375l1.703125 -5.859375q0.203125 -0.703125 0.203125 -1.078125q0 -0.265625 -0.203125 -0.421875q-0.1875 -0.15625 -0.734375 -0.15625l-0.140625 0l0.078125 -0.265625l6.96875 0l-0.59375 2.34375l-0.265625 0q0.046875 -0.328125 0.046875 -0.5625q0 -0.375 -0.1875 -0.625q-0.25 -0.328125 -0.703125 -0.5q-0.34375 -0.140625 -1.59375 -0.140625l-1.21875 0zm6.124481 3.4375l0.21875 -2.109375q0.09375 -0.90625 0.1875 -1.21875q0.140625 -0.453125 0.390625 -0.640625q0.25 -0.203125 0.546875 -0.203125q0.265625 0 0.40625 0.140625q0.15625 0.140625 0.15625 0.359375q0 0.171875 -0.078125 0.375q-0.078125 0.265625 -0.515625 1.1875l-1.0 2.109375l-0.3125 0z" fill-rule="nonzero"/><path fill="#000000" d="m352.62234 436.90482l-0.453125 1.25l-3.828125 0l0 -0.171875q1.6875 -1.546875 2.375 -2.515625q0.6875 -0.96875 0.6875 -1.78125q0 -0.609375 -0.375 -1.0q-0.375 -0.40625 -0.90625 -0.40625q-0.46875 0 -0.859375 0.28125q-0.375 0.28125 -0.546875 0.828125l-0.1875 0q0.125 -0.890625 0.609375 -1.359375q0.5 -0.46875 1.234375 -0.46875q0.796875 0 1.3125 0.5q0.53125 0.5 0.53125 1.1875q0 0.5 -0.21875 0.984375q-0.359375 0.78125 -1.15625 1.640625q-1.1875 1.296875 -1.484375 1.5625l1.6875 0q0.515625 0 0.71875 -0.03125q0.21875 -0.046875 0.375 -0.15625q0.171875 -0.125 0.296875 -0.34375l0.1875 0z" fill-rule="nonzero"/><path fill="#000000" d="m472.0586 423.90482l2.359375 -1.15625l0.234375 0l0 8.203125q0 0.8125 0.0625 1.015625q0.078125 0.1875 0.28125 0.296875q0.21875 0.109375 0.875 0.125l0 0.265625l-3.640625 0l0 -0.265625q0.6875 -0.015625 0.890625 -0.109375q0.203125 -0.109375 0.28125 -0.28125q0.078125 -0.1875 0.078125 -1.046875l0 -5.25q0 -1.0625 -0.078125 -1.359375q-0.046875 -0.21875 -0.1875 -0.328125q-0.125 -0.109375 -0.3125 -0.109375q-0.265625 0 -0.734375 0.21875l-0.109375 -0.21875zm7.4375 7.359375q0.34375 0 0.5625 0.234375q0.234375 0.234375 0.234375 0.5625q0 0.328125 -0.234375 0.5625q-0.234375 0.234375 -0.5625 0.234375q-0.328125 0 -0.5625 -0.234375q-0.234375 -0.234375 -0.234375 -0.5625q0 -0.34375 0.234375 -0.5625q0.234375 -0.234375 0.5625 -0.234375zm2.3671875 -3.40625q0 -1.65625 0.5 -2.859375q0.5 -1.203125 1.328125 -1.78125q0.640625 -0.46875 1.328125 -0.46875q1.125 0 2.015625 1.140625q1.109375 1.40625 1.109375 3.828125q0 1.6875 -0.5 2.875q-0.484375 1.171875 -1.234375 1.703125q-0.75 0.53125 -1.453125 0.53125q-1.390625 0 -2.3125 -1.640625q-0.78125 -1.375 -0.78125 -3.328125zm1.40625 0.1875q0 2.0 0.484375 3.265625q0.40625 1.0625 1.21875 1.0625q0.390625 0 0.796875 -0.34375q0.421875 -0.34375 0.640625 -1.171875q0.328125 -1.21875 0.328125 -3.46875q0 -1.65625 -0.34375 -2.765625q-0.265625 -0.828125 -0.671875 -1.171875q-0.296875 -0.234375 -0.703125 -0.234375q-0.484375 0 -0.875 0.4375q-0.515625 0.59375 -0.703125 1.875q-0.171875 1.265625 -0.171875 2.515625z" fill-rule="nonzero"/><path fill="#000000" d="m617.62897 426.18607l-0.484375 1.640625q0.78125 -0.921875 1.390625 -1.28125q0.609375 -0.359375 1.25 -0.359375q0.640625 0 1.078125 0.5q0.453125 0.5 0.453125 1.3125q0 1.578125 -1.28125 3.203125q-1.28125 1.625 -2.984375 1.625q-0.359375 0 -0.640625 -0.078125q-0.265625 -0.078125 -0.609375 -0.28125l-0.515625 1.84375q-0.15625 0.546875 -0.15625 0.71875q0 0.15625 0.078125 0.265625q0.078125 0.109375 0.265625 0.171875q0.1875 0.0625 0.734375 0.0625l-0.0625 0.265625l-3.375 0l0.078125 -0.265625q0.671875 -0.03125 0.90625 -0.234375q0.21875 -0.203125 0.484375 -1.109375l1.8125 -6.265625q0.15625 -0.59375 0.15625 -0.734375q0 -0.203125 -0.109375 -0.296875q-0.109375 -0.109375 -0.34375 -0.109375q-0.203125 0 -0.578125 0.046875l0 -0.28125l2.453125 -0.359375zm-1.65625 5.71875q0.4375 0.53125 1.1875 0.53125q0.375 0 0.765625 -0.203125q0.390625 -0.21875 0.75 -0.625q0.375 -0.40625 0.65625 -0.9375q0.296875 -0.53125 0.53125 -1.25q0.234375 -0.734375 0.234375 -1.4375q0 -0.578125 -0.265625 -0.875q-0.25 -0.3125 -0.609375 -0.3125q-0.765625 0 -1.53125 0.890625q-0.75 0.890625 -1.09375 2.078125l-0.625 2.140625z" fill-rule="nonzero"/><path fill="#000000" d="m626.2071 436.90482l-0.453125 1.25l-3.828125 0l0 -0.171875q1.6875 -1.546875 2.375 -2.515625q0.6875 -0.96875 0.6875 -1.78125q0 -0.609375 -0.375 -1.0q-0.375 -0.40625 -0.90625 -0.40625q-0.46875 0 -0.859375 0.28125q-0.375 0.28125 -0.546875 0.828125l-0.1875 0q0.125 -0.890625 0.609375 -1.359375q0.5 -0.46875 1.234375 -0.46875q0.796875 0 1.3125 0.5q0.53125 0.5 0.53125 1.1875q0 0.5 -0.21875 0.984375q-0.359375 0.78125 -1.15625 1.640625q-1.1875 1.296875 -1.484375 1.5625l1.6875 0q0.515625 0 0.71875 -0.03125q0.21875 -0.046875 0.375 -0.15625q0.171875 -0.125 0.296875 -0.34375l0.1875 0z" fill-rule="nonzero"/><path fill="#000000" d="m69.50781 466.81915q0.34375 0 0.578125 0.234375q0.234375 0.234375 0.234375 0.578125q0 0.34375 -0.25 0.59375q-0.234375 0.234375 -0.5625 0.234375q-0.34375 0 -0.59375 -0.234375q-0.234375 -0.25 -0.234375 -0.59375q0 -0.34375 0.234375 -0.578125q0.25 -0.234375 0.59375 -0.234375z" fill-rule="nonzero"/><path fill="#000000" d="m69.50781 488.81915q0.34375 0 0.578125 0.234375q0.234375 0.234375 0.234375 0.578125q0 0.34375 -0.25 0.59375q-0.234375 0.234375 -0.5625 0.234375q-0.34375 0 -0.59375 -0.234375q-0.234375 -0.25 -0.234375 -0.59375q0 -0.34375 0.234375 -0.578125q0.25 -0.234375 0.59375 -0.234375z" fill-rule="nonzero"/><path fill="#000000" d="m69.50781 510.81915q0.34375 0 0.578125 0.234375q0.234375 0.234375 0.234375 0.578125q0 0.34375 -0.25 0.59375q-0.234375 0.234375 -0.5625 0.234375q-0.34375 0 -0.59375 -0.234375q-0.234375 -0.25 -0.234375 -0.59375q0 -0.34375 0.234375 -0.578125q0.25 -0.234375 0.59375 -0.234375z" fill-rule="nonzero"/><path fill="#000000" d="m206.50781 466.81915q0.34375 0 0.578125 0.234375q0.234375 0.234375 0.234375 0.578125q0 0.34375 -0.25 0.59375q-0.234375 0.234375 -0.5625 0.234375q-0.34375 0 -0.59375 -0.234375q-0.234375 -0.25 -0.234375 -0.59375q0 -0.34375 0.234375 -0.578125q0.25 -0.234375 0.59375 -0.234375z" fill-rule="nonzero"/><path fill="#000000" d="m206.50781 488.81915q0.34375 0 0.578125 0.234375q0.234375 0.234375 0.234375 0.578125q0 0.34375 -0.25 0.59375q-0.234375 0.234375 -0.5625 0.234375q-0.34375 0 -0.59375 -0.234375q-0.234375 -0.25 -0.234375 -0.59375q0 -0.34375 0.234375 -0.578125q0.25 -0.234375 0.59375 -0.234375z" fill-rule="nonzero"/><path fill="#000000" d="m206.50781 510.81915q0.34375 0 0.578125 0.234375q0.234375 0.234375 0.234375 0.578125q0 0.34375 -0.25 0.59375q-0.234375 0.234375 -0.5625 0.234375q-0.34375 0 -0.59375 -0.234375q-0.234375 -0.25 -0.234375 -0.59375q0 -0.34375 0.234375 -0.578125q0.25 -0.234375 0.59375 -0.234375z" fill-rule="nonzero"/><path fill="#000000" d="m344.5078 466.81915q0.34375 0 0.578125 0.234375q0.234375 0.234375 0.234375 0.578125q0 0.34375 -0.25 0.59375q-0.234375 0.234375 -0.5625 0.234375q-0.34375 0 -0.59375 -0.234375q-0.234375 -0.25 -0.234375 -0.59375q0 -0.34375 0.234375 -0.578125q0.25 -0.234375 0.59375 -0.234375z" fill-rule="nonzero"/><path fill="#000000" d="m344.5078 488.81915q0.34375 0 0.578125 0.234375q0.234375 0.234375 0.234375 0.578125q0 0.34375 -0.25 0.59375q-0.234375 0.234375 -0.5625 0.234375q-0.34375 0 -0.59375 -0.234375q-0.234375 -0.25 -0.234375 -0.59375q0 -0.34375 0.234375 -0.578125q0.25 -0.234375 0.59375 -0.234375z" fill-rule="nonzero"/><path fill="#000000" d="m344.5078 510.81915q0.34375 0 0.578125 0.234375q0.234375 0.234375 0.234375 0.578125q0 0.34375 -0.25 0.59375q-0.234375 0.234375 -0.5625 0.234375q-0.34375 0 -0.59375 -0.234375q-0.234375 -0.25 -0.234375 -0.59375q0 -0.34375 0.234375 -0.578125q0.25 -0.234375 0.59375 -0.234375z" fill-rule="nonzero"/><path fill="#000000" d="m479.5078 466.81915q0.34375 0 0.578125 0.234375q0.234375 0.234375 0.234375 0.578125q0 0.34375 -0.25 0.59375q-0.234375 0.234375 -0.5625 0.234375q-0.34375 0 -0.59375 -0.234375q-0.234375 -0.25 -0.234375 -0.59375q0 -0.34375 0.234375 -0.578125q0.25 -0.234375 0.59375 -0.234375z" fill-rule="nonzero"/><path fill="#000000" d="m479.5078 488.81915q0.34375 0 0.578125 0.234375q0.234375 0.234375 0.234375 0.578125q0 0.34375 -0.25 0.59375q-0.234375 0.234375 -0.5625 0.234375q-0.34375 0 -0.59375 -0.234375q-0.234375 -0.25 -0.234375 -0.59375q0 -0.34375 0.234375 -0.578125q0.25 -0.234375 0.59375 -0.234375z" fill-rule="nonzero"/><path fill="#000000" d="m479.5078 510.81915q0.34375 0 0.578125 0.234375q0.234375 0.234375 0.234375 0.578125q0 0.34375 -0.25 0.59375q-0.234375 0.234375 -0.5625 0.234375q-0.34375 0 -0.59375 -0.234375q-0.234375 -0.25 -0.234375 -0.59375q0 -0.34375 0.234375 -0.578125q0.25 -0.234375 0.59375 -0.234375z" fill-rule="nonzero"/><path fill="#000000" d="m620.5078 466.81915q0.34375 0 0.578125 0.234375q0.234375 0.234375 0.234375 0.578125q0 0.34375 -0.25 0.59375q-0.234375 0.234375 -0.5625 0.234375q-0.34375 0 -0.59375 -0.234375q-0.234375 -0.25 -0.234375 -0.59375q0 -0.34375 0.234375 -0.578125q0.25 -0.234375 0.59375 -0.234375z" fill-rule="nonzero"/><path fill="#000000" d="m620.5078 488.81915q0.34375 0 0.578125 0.234375q0.234375 0.234375 0.234375 0.578125q0 0.34375 -0.25 0.59375q-0.234375 0.234375 -0.5625 0.234375q-0.34375 0 -0.59375 -0.234375q-0.234375 -0.25 -0.234375 -0.59375q0 -0.34375 0.234375 -0.578125q0.25 -0.234375 0.59375 -0.234375z" fill-rule="nonzero"/><path fill="#000000" d="m620.5078 510.81915q0.34375 0 0.578125 0.234375q0.234375 0.234375 0.234375 0.578125q0 0.34375 -0.25 0.59375q-0.234375 0.234375 -0.5625 0.234375q-0.34375 0 -0.59375 -0.234375q-0.234375 -0.25 -0.234375 -0.59375q0 -0.34375 0.234375 -0.578125q0.25 -0.234375 0.59375 -0.234375z" fill-rule="nonzero"/><path fill="#000000" d="m63.26496 547.861l-1.109375 3.84375l0.90625 0q0.96875 0 1.40625 -0.296875q0.4375 -0.296875 0.75 -1.09375l0.265625 0l-1.0 3.515625l-0.28125 0q0.125 -0.453125 0.125 -0.765625q0 -0.296875 -0.125 -0.484375q-0.125 -0.1875 -0.34375 -0.28125q-0.21875 -0.09375 -0.90625 -0.09375l-0.9375 0l-0.9375 3.21875q-0.125 0.46875 -0.125 0.703125q0 0.1875 0.171875 0.328125q0.125 0.109375 0.609375 0.109375l0.859375 0q1.390625 0 2.234375 -0.484375q0.84375 -0.5 1.515625 -1.734375l0.265625 0l-0.921875 2.703125l-7.5 0l0.09375 -0.265625q0.5625 -0.015625 0.75 -0.09375q0.28125 -0.140625 0.421875 -0.328125q0.1875 -0.296875 0.453125 -1.234375l1.703125 -5.859375q0.203125 -0.703125 0.203125 -1.078125q0 -0.265625 -0.203125 -0.421875q-0.1875 -0.15625 -0.734375 -0.15625l-0.140625 0l0.078125 -0.265625l6.96875 0l-0.59375 2.34375l-0.265625 0q0.046875 -0.328125 0.046875 -0.5625q0 -0.375 -0.1875 -0.625q-0.25 -0.328125 -0.703125 -0.5q-0.34375 -0.140625 -1.59375 -0.140625l-1.21875 0z" fill-rule="nonzero"/><path fill="#000000" d="m67.34258 556.0798l1.75 0l3.953125 4.859375l0 -3.734375q0 -0.59375 -0.125 -0.75q-0.1875 -0.203125 -0.5625 -0.203125l-0.234375 0l0 -0.171875l2.265625 0l0 0.171875l-0.234375 0q-0.40625 0 -0.578125 0.25q-0.109375 0.15625 -0.109375 0.703125l0 5.453125l-0.171875 0l-4.265625 -5.21875l0 3.984375q0 0.59375 0.125 0.75q0.1875 0.203125 0.5625 0.203125l0.234375 0l0 0.171875l-2.25 0l0 -0.171875l0.21875 0q0.421875 0 0.59375 -0.25q0.09375 -0.15625 0.09375 -0.703125l0 -4.484375q-0.28125 -0.34375 -0.421875 -0.4375q-0.140625 -0.109375 -0.421875 -0.203125q-0.140625 -0.046875 -0.421875 -0.046875l0 -0.171875zm9.224182 0.359375l0 2.546875l1.421875 0q0.546875 0 0.734375 -0.15625q0.25 -0.21875 0.28125 -0.78125l0.171875 0l0 2.25l-0.171875 0q-0.078125 -0.46875 -0.140625 -0.59375q-0.078125 -0.171875 -0.28125 -0.265625q-0.203125 -0.09375 -0.59375 -0.09375l-1.421875 0l0 2.125q0 0.421875 0.03125 0.515625q0.03125 0.09375 0.125 0.15625q0.109375 0.046875 0.375 0.046875l1.09375 0q0.546875 0 0.796875 -0.0625q0.25 -0.078125 0.46875 -0.3125q0.296875 -0.296875 0.609375 -0.890625l0.1875 0l-0.546875 1.625l-4.984375 0l0 -0.171875l0.21875 0q0.234375 0 0.4375 -0.109375q0.15625 -0.078125 0.203125 -0.234375q0.0625 -0.15625 0.0625 -0.625l0 -4.203125q0 -0.609375 -0.125 -0.75q-0.171875 -0.203125 -0.578125 -0.203125l-0.21875 0l0 -0.171875l4.984375 0l0.0625 1.421875l-0.1875 0q-0.09375 -0.515625 -0.21875 -0.703125q-0.125 -0.1875 -0.359375 -0.296875q-0.1875 -0.0625 -0.671875 -0.0625l-1.765625 0z" fill-rule="nonzero"/><path fill="#000000" d="m195.11627 550.736l1.078125 0l-1.296875 4.375q-0.140625 0.5 -0.140625 0.765625q0 0.3125 0.203125 0.546875q0.21875 0.234375 0.546875 0.234375q0.578125 0 1.28125 -0.703125q0.71875 -0.71875 1.015625 -1.734375l1.03125 -3.484375l1.0625 0l-1.28125 4.359375q-0.171875 0.5625 -0.171875 0.890625q0 0.5625 0.484375 0.5625q0.515625 0 0.828125 -0.96875l0.25 0q-0.40625 1.640625 -1.5 1.640625q-0.46875 0 -0.765625 -0.34375q-0.28125 -0.34375 -0.28125 -0.890625q0 -0.125 0.03125 -0.390625q-1.375 1.625 -2.421875 1.625q-0.8125 0 -1.109375 -0.71875q-0.390625 1.53125 -0.484375 2.59375q-0.0625 0.6875 -0.1875 0.890625q-0.109375 0.21875 -0.453125 0.21875q-0.28125 0 -0.40625 -0.171875q-0.140625 -0.171875 -0.140625 -0.390625q0 -0.28125 0.34375 -1.0q0.421875 -0.859375 0.625 -1.578125l1.859375 -6.328125z" fill-rule="nonzero"/><path fill="#000000" d="m200.28552 556.0798l1.75 0l3.953125 4.859375l0 -3.734375q0 -0.59375 -0.125 -0.75q-0.1875 -0.203125 -0.5625 -0.203125l-0.234375 0l0 -0.171875l2.265625 0l0 0.171875l-0.234375 0q-0.40625 0 -0.578125 0.25q-0.109375 0.15625 -0.109375 0.703125l0 5.453125l-0.171875 0l-4.265625 -5.21875l0 3.984375q0 0.59375 0.125 0.75q0.1875 0.203125 0.5625 0.203125l0.234375 0l0 0.171875l-2.25 0l0 -0.171875l0.21875 0q0.421875 0 0.59375 -0.25q0.09375 -0.15625 0.09375 -0.703125l0 -4.484375q-0.28125 -0.34375 -0.421875 -0.4375q-0.140625 -0.109375 -0.421875 -0.203125q-0.140625 -0.046875 -0.421875 -0.046875l0 -0.171875zm9.177307 3.4375l0 1.890625q0 0.609375 0.140625 0.75q0.171875 0.21875 0.546875 0.21875l0.25 0l0 0.171875l-2.78125 0l0 -0.171875l0.25 0q0.40625 0 0.578125 -0.265625q0.109375 -0.15625 0.109375 -0.703125l0 -4.1875q0 -0.609375 -0.140625 -0.75q-0.1875 -0.21875 -0.546875 -0.21875l-0.25 0l0 -0.171875l2.375 0q0.875 0 1.375 0.1875q0.5 0.171875 0.84375 0.59375q0.34375 0.421875 0.34375 1.015625q0 0.78125 -0.53125 1.28125q-0.515625 0.5 -1.46875 0.5q-0.234375 0 -0.515625 -0.03125q-0.265625 -0.046875 -0.578125 -0.109375zm0 -0.265625q0.25 0.046875 0.4375 0.078125q0.203125 0.015625 0.34375 0.015625q0.5 0 0.859375 -0.375q0.359375 -0.390625 0.359375 -1.0q0 -0.421875 -0.171875 -0.78125q-0.171875 -0.359375 -0.484375 -0.53125q-0.3125 -0.1875 -0.71875 -0.1875q-0.234375 0 -0.625 0.09375l0 2.6875zm8.087341 -3.0l0 -0.171875l2.296875 0l0 0.171875l-0.25 0q-0.375 0 -0.578125 0.328125q-0.109375 0.140625 -0.109375 0.6875l0 2.625q0 0.96875 -0.203125 1.515625q-0.1875 0.53125 -0.75 0.921875q-0.5625 0.375 -1.53125 0.375q-1.0625 0 -1.609375 -0.359375q-0.546875 -0.375 -0.78125 -1.0q-0.15625 -0.421875 -0.15625 -1.59375l0 -2.53125q0 -0.59375 -0.171875 -0.78125q-0.15625 -0.1875 -0.515625 -0.1875l-0.25 0l0 -0.171875l2.796875 0l0 0.171875l-0.25 0q-0.390625 0 -0.5625 0.265625q-0.125 0.171875 -0.125 0.703125l0 2.828125q0 0.375 0.0625 0.859375q0.078125 0.484375 0.25 0.765625q0.1875 0.265625 0.53125 0.453125q0.34375 0.171875 0.828125 0.171875q0.640625 0 1.140625 -0.28125q0.5 -0.28125 0.6875 -0.703125q0.1875 -0.4375 0.1875 -1.46875l0 -2.625q0 -0.59375 -0.140625 -0.75q-0.1875 -0.21875 -0.546875 -0.21875l-0.25 0z" fill-rule="nonzero"/><path fill="#000000" d="m333.4028 547.861l-1.109375 3.84375l0.90625 0q0.96875 0 1.40625 -0.296875q0.4375 -0.296875 0.75 -1.09375l0.265625 0l-1.0 3.515625l-0.28125 0q0.125 -0.453125 0.125 -0.765625q0 -0.296875 -0.125 -0.484375q-0.125 -0.1875 -0.34375 -0.28125q-0.21875 -0.09375 -0.90625 -0.09375l-0.9375 0l-0.9375 3.21875q-0.125 0.46875 -0.125 0.703125q0 0.1875 0.171875 0.328125q0.125 0.109375 0.609375 0.109375l0.859375 0q1.390625 0 2.234375 -0.484375q0.84375 -0.5 1.515625 -1.734375l0.265625 0l-0.921875 2.703125l-7.5 0l0.09375 -0.265625q0.5625 -0.015625 0.75 -0.09375q0.28125 -0.140625 0.421875 -0.328125q0.1875 -0.296875 0.453125 -1.234375l1.703125 -5.859375q0.203125 -0.703125 0.203125 -1.078125q0 -0.265625 -0.203125 -0.421875q-0.1875 -0.15625 -0.734375 -0.15625l-0.140625 0l0.078125 -0.265625l6.96875 0l-0.59375 2.34375l-0.265625 0q0.046875 -0.328125 0.046875 -0.5625q0 -0.375 -0.1875 -0.625q-0.25 -0.328125 -0.703125 -0.5q-0.34375 -0.140625 -1.59375 -0.140625l-1.21875 0zm6.1245117 3.4375l0.21875 -2.109375q0.09375 -0.90625 0.1875 -1.21875q0.140625 -0.453125 0.390625 -0.640625q0.25 -0.203125 0.546875 -0.203125q0.265625 0 0.40625 0.140625q0.15625 0.140625 0.15625 0.359375q0 0.171875 -0.078125 0.375q-0.078125 0.265625 -0.515625 1.1875l-1.0 2.109375l-0.3125 0z" fill-rule="nonzero"/><path fill="#000000" d="m340.6865 556.0798l1.75 0l3.953125 4.859375l0 -3.734375q0 -0.59375 -0.125 -0.75q-0.1875 -0.203125 -0.5625 -0.203125l-0.234375 0l0 -0.171875l2.265625 0l0 0.171875l-0.234375 0q-0.40625 0 -0.578125 0.25q-0.109375 0.15625 -0.109375 0.703125l0 5.453125l-0.171875 0l-4.265625 -5.21875l0 3.984375q0 0.59375 0.125 0.75q0.1875 0.203125 0.5625 0.203125l0.234375 0l0 0.171875l-2.25 0l0 -0.171875l0.21875 0q0.421875 0 0.59375 -0.25q0.09375 -0.15625 0.09375 -0.703125l0 -4.484375q-0.28125 -0.34375 -0.421875 -0.4375q-0.140625 -0.109375 -0.421875 -0.203125q-0.140625 -0.046875 -0.421875 -0.046875l0 -0.171875zm9.177307 3.4375l0 1.890625q0 0.609375 0.140625 0.75q0.171875 0.21875 0.546875 0.21875l0.25 0l0 0.171875l-2.78125 0l0 -0.171875l0.25 0q0.40625 0 0.578125 -0.265625q0.109375 -0.15625 0.109375 -0.703125l0 -4.1875q0 -0.609375 -0.140625 -0.75q-0.1875 -0.21875 -0.546875 -0.21875l-0.25 0l0 -0.171875l2.375 0q0.875 0 1.375 0.1875q0.5 0.171875 0.84375 0.59375q0.34375 0.421875 0.34375 1.015625q0 0.78125 -0.53125 1.28125q-0.515625 0.5 -1.46875 0.5q-0.234375 0 -0.515625 -0.03125q-0.265625 -0.046875 -0.578125 -0.109375zm0 -0.265625q0.25 0.046875 0.4375 0.078125q0.203125 0.015625 0.34375 0.015625q0.5 0 0.859375 -0.375q0.359375 -0.390625 0.359375 -1.0q0 -0.421875 -0.171875 -0.78125q-0.171875 -0.359375 -0.484375 -0.53125q-0.3125 -0.1875 -0.71875 -0.1875q-0.234375 0 -0.625 0.09375l0 2.6875zm8.087341 -3.0l0 -0.171875l2.296875 0l0 0.171875l-0.25 0q-0.375 0 -0.578125 0.328125q-0.109375 0.140625 -0.109375 0.6875l0 2.625q0 0.96875 -0.203125 1.515625q-0.1875 0.53125 -0.75 0.921875q-0.5625 0.375 -1.53125 0.375q-1.0625 0 -1.609375 -0.359375q-0.546875 -0.375 -0.78125 -1.0q-0.15625 -0.421875 -0.15625 -1.59375l0 -2.53125q0 -0.59375 -0.171875 -0.78125q-0.15625 -0.1875 -0.515625 -0.1875l-0.25 0l0 -0.171875l2.796875 0l0 0.171875l-0.25 0q-0.390625 0 -0.5625 0.265625q-0.125 0.171875 -0.125 0.703125l0 2.828125q0 0.375 0.0625 0.859375q0.078125 0.484375 0.25 0.765625q0.1875 0.265625 0.53125 0.453125q0.34375 0.171875 0.828125 0.171875q0.640625 0 1.140625 -0.28125q0.5 -0.28125 0.6875 -0.703125q0.1875 -0.4375 0.1875 -1.46875l0 -2.625q0 -0.59375 -0.140625 -0.75q-0.1875 -0.21875 -0.546875 -0.21875l-0.25 0z" fill-rule="nonzero"/><path fill="#000000" d="m472.0586 548.2985l2.359375 -1.15625l0.234375 0l0 8.203125q0 0.8125 0.0625 1.015625q0.078125 0.1875 0.28125 0.296875q0.21875 0.109375 0.875 0.125l0 0.265625l-3.640625 0l0 -0.265625q0.6875 -0.015625 0.890625 -0.109375q0.203125 -0.109375 0.28125 -0.28125q0.078125 -0.1875 0.078125 -1.046875l0 -5.25q0 -1.0625 -0.078125 -1.359375q-0.046875 -0.21875 -0.1875 -0.328125q-0.125 -0.109375 -0.3125 -0.109375q-0.265625 0 -0.734375 0.21875l-0.109375 -0.21875zm7.4375 7.359375q0.34375 0 0.5625 0.234375q0.234375 0.234375 0.234375 0.5625q0 0.328125 -0.234375 0.5625q-0.234375 0.234375 -0.5625 0.234375q-0.328125 0 -0.5625 -0.234375q-0.234375 -0.234375 -0.234375 -0.5625q0 -0.34375 0.234375 -0.5625q0.234375 -0.234375 0.5625 -0.234375zm2.3671875 -3.40625q0 -1.65625 0.5 -2.859375q0.5 -1.203125 1.328125 -1.78125q0.640625 -0.46875 1.328125 -0.46875q1.125 0 2.015625 1.140625q1.109375 1.40625 1.109375 3.828125q0 1.6875 -0.5 2.875q-0.484375 1.171875 -1.234375 1.703125q-0.75 0.53125 -1.453125 0.53125q-1.390625 0 -2.3125 -1.640625q-0.78125 -1.375 -0.78125 -3.328125zm1.40625 0.1875q0 2.0 0.484375 3.265625q0.40625 1.0625 1.21875 1.0625q0.390625 0 0.796875 -0.34375q0.421875 -0.34375 0.640625 -1.171875q0.328125 -1.21875 0.328125 -3.46875q0 -1.65625 -0.34375 -2.765625q-0.265625 -0.828125 -0.671875 -1.171875q-0.296875 -0.234375 -0.703125 -0.234375q-0.484375 0 -0.875 0.4375q-0.515625 0.59375 -0.703125 1.875q-0.171875 1.265625 -0.171875 2.515625z" fill-rule="nonzero"/><path fill="#000000" d="m610.3025 550.5798l-0.484375 1.640625q0.78125 -0.921875 1.390625 -1.28125q0.609375 -0.359375 1.25 -0.359375q0.640625 0 1.078125 0.5q0.453125 0.5 0.453125 1.3125q0 1.578125 -1.28125 3.203125q-1.28125 1.625 -2.984375 1.625q-0.359375 0 -0.640625 -0.078125q-0.265625 -0.078125 -0.609375 -0.28125l-0.515625 1.84375q-0.15625 0.546875 -0.15625 0.71875q0 0.15625 0.078125 0.265625q0.078125 0.109375 0.265625 0.171875q0.1875 0.0625 0.734375 0.0625l-0.0625 0.265625l-3.375 0l0.078125 -0.265625q0.671875 -0.03125 0.90625 -0.234375q0.21875 -0.203125 0.484375 -1.109375l1.8125 -6.265625q0.15625 -0.59375 0.15625 -0.734375q0 -0.203125 -0.109375 -0.296875q-0.109375 -0.109375 -0.34375 -0.109375q-0.203125 0 -0.578125 0.046875l0 -0.28125l2.453125 -0.359375zm-1.65625 5.71875q0.4375 0.53125 1.1875 0.53125q0.375 0 0.765625 -0.203125q0.390625 -0.21875 0.75 -0.625q0.375 -0.40625 0.65625 -0.9375q0.296875 -0.53125 0.53125 -1.25q0.234375 -0.734375 0.234375 -1.4375q0 -0.578125 -0.265625 -0.875q-0.25 -0.3125 -0.609375 -0.3125q-0.765625 0 -1.53125 0.890625q-0.75 0.890625 -1.09375 2.078125l-0.625 2.140625z" fill-rule="nonzero"/><path fill="#000000" d="m614.27124 556.0798l1.75 0l3.953125 4.859375l0 -3.734375q0 -0.59375 -0.125 -0.75q-0.1875 -0.203125 -0.5625 -0.203125l-0.234375 0l0 -0.171875l2.265625 0l0 0.171875l-0.234375 0q-0.40625 0 -0.578125 0.25q-0.109375 0.15625 -0.109375 0.703125l0 5.453125l-0.171875 0l-4.265625 -5.21875l0 3.984375q0 0.59375 0.125 0.75q0.1875 0.203125 0.5625 0.203125l0.234375 0l0 0.171875l-2.25 0l0 -0.171875l0.21875 0q0.421875 0 0.59375 -0.25q0.09375 -0.15625 0.09375 -0.703125l0 -4.484375q-0.28125 -0.34375 -0.421875 -0.4375q-0.140625 -0.109375 -0.421875 -0.203125q-0.140625 -0.046875 -0.421875 -0.046875l0 -0.171875zm9.177246 3.4375l0 1.890625q0 0.609375 0.140625 0.75q0.171875 0.21875 0.546875 0.21875l0.25 0l0 0.171875l-2.78125 0l0 -0.171875l0.25 0q0.40625 0 0.578125 -0.265625q0.109375 -0.15625 0.109375 -0.703125l0 -4.1875q0 -0.609375 -0.140625 -0.75q-0.1875 -0.21875 -0.546875 -0.21875l-0.25 0l0 -0.171875l2.375 0q0.875 0 1.375 0.1875q0.5 0.171875 0.84375 0.59375q0.34375 0.421875 0.34375 1.015625q0 0.78125 -0.53125 1.28125q-0.515625 0.5 -1.46875 0.5q-0.234375 0 -0.515625 -0.03125q-0.265625 -0.046875 -0.578125 -0.109375zm0 -0.265625q0.25 0.046875 0.4375 0.078125q0.203125 0.015625 0.34375 0.015625q0.5 0 0.859375 -0.375q0.359375 -0.390625 0.359375 -1.0q0 -0.421875 -0.171875 -0.78125q-0.171875 -0.359375 -0.484375 -0.53125q-0.3125 -0.1875 -0.71875 -0.1875q-0.234375 0 -0.625 0.09375l0 2.6875zm8.087402 -3.0l0 -0.171875l2.296875 0l0 0.171875l-0.25 0q-0.375 0 -0.578125 0.328125q-0.109375 0.140625 -0.109375 0.6875l0 2.625q0 0.96875 -0.203125 1.515625q-0.1875 0.53125 -0.75 0.921875q-0.5625 0.375 -1.53125 0.375q-1.0625 0 -1.609375 -0.359375q-0.546875 -0.375 -0.78125 -1.0q-0.15625 -0.421875 -0.15625 -1.59375l0 -2.53125q0 -0.59375 -0.171875 -0.78125q-0.15625 -0.1875 -0.515625 -0.1875l-0.25 0l0 -0.171875l2.796875 0l0 0.171875l-0.25 0q-0.390625 0 -0.5625 0.265625q-0.125 0.171875 -0.125 0.703125l0 2.828125q0 0.375 0.0625 0.859375q0.078125 0.484375 0.25 0.765625q0.1875 0.265625 0.53125 0.453125q0.34375 0.171875 0.828125 0.171875q0.640625 0 1.140625 -0.28125q0.5 -0.28125 0.6875 -0.703125q0.1875 -0.4375 0.1875 -1.46875l0 -2.625q0 -0.59375 -0.140625 -0.75q-0.1875 -0.21875 -0.546875 -0.21875l-0.25 0z" fill-rule="nonzero"/></g></svg>