<?xml version="1.0" encoding="UTF-8" standalone="no"?>
<!DOCTYPE svg PUBLIC "-//W3C//DTD SVG 1.1//EN" "http://www.w3.org/Graphics/SVG/1.1/DTD/svg11.dtd">
<svg xmlns="http://www.w3.org/2000/svg" xmlns:xlink="http://www.w3.org/1999/xlink" version="1.1" width="679.59756pt" height="390.861pt" viewBox="0 0 679.59756 390.861">
<g enable-background="new">
<g id="Layer-1" data-name="P">
<clipPath id="cp0">
<path transform="matrix(1,0,0,-1,-55.1025,546.612)" d="M 73.62 526.5 L 718.32 526.5 L 718.32 536.88 L 73.62 536.88 Z "/>
</clipPath>
<g clip-path="url(#cp0)">
<text xml:space="preserve" transform="matrix(1 0 -0 1 -55.1025 546.612)" font-size="9" font-family="TimesNewRomanPSMT"><tspan y="-528.48" x="241.38 247.86 253.3797 259.37998 264.89967 271.37968 277.85969 280.1367 285.1164 291.5964 297.59584 302.63673 309.11674 315.11616 320.63676 322.91377 329.39378 335.87379 343.85679 349.8571 355.37678 361.37705 366.35676 368.63377 374.63319 380.15379 385.67347 392.15348 397.67317 403.19285 409.67286 411.89317 417.35346 423.83348 426.11048 432.59049 438.11018 444.59019">ALBEDO SURFACE NUMBERS RELATED TO KENO</tspan></text>
</g>
<clipPath id="cp1">
<path transform="matrix(1,0,0,-1,-55.1025,546.612)" d="M 73.62 526.5 L 718.32 526.5 L 718.32 536.88 L 73.62 536.88 Z "/>
</clipPath>
<g clip-path="url(#cp1)">
<text xml:space="preserve" transform="matrix(1 0 -0 1 -55.1025 546.612)" font-size="9" font-family="TimesNewRomanPSMT"><tspan y="-528.48" x="451.08">-</tspan></text>
</g>
<clipPath id="cp2">
<path transform="matrix(1,0,0,-1,-55.1025,546.612)" d="M 73.62 526.5 L 718.32 526.5 L 718.32 536.88 L 73.62 536.88 Z "/>
</clipPath>
<g clip-path="url(#cp2)">
<text xml:space="preserve" transform="matrix(1 0 -0 1 -55.1025 546.612)" font-size="9" font-family="TimesNewRomanPSMT"><tspan y="-528.48" x="454.08 460.56 463.5597 465.8367 472.3167 477.8364 484.3164 492.2994 497.8191 503.33879 509.33909 515.8191 518.09609 524.0964 530.57638 537.05636 540.056 545.57577">VI GEOMETRY BODIES</tspan></text>
</g>
<clipPath id="cp3">
<path transform="matrix(1,0,0,-1,-55.1025,546.612)" d="M 73.62 526.5 L 718.32 526.5 L 718.32 536.88 L 73.62 536.88 Z "/>
</clipPath>
<g clip-path="url(#cp3)">
<text xml:space="preserve" transform="matrix(1 0 -0 1 -55.1025 546.612)" font-size="9" font-family="TimesNewRomanPSMT"><tspan y="-528.48" x="550.56"> </tspan></text>
</g>
<g id="Layer-1" data-name="Artifact">
</g>
<path transform="matrix(1,0,0,-1,-55.1025,546.612)" d="M 73.62 539.04 L 718.32 539.04 L 718.32 540 L 73.62 540 Z "/>
</g>
<g id="Layer-1" data-name="P">
<clipPath id="cp4">
<path transform="matrix(1,0,0,-1,-55.1025,546.612)" d="M 73.62 501.84 L 153.66 501.84 L 153.66 523.38 L 73.62 523.38 Z "/>
</clipPath>
<g clip-path="url(#cp4)">
<text xml:space="preserve" transform="matrix(1 0 -0 1 -55.1025 546.612)" font-size="9" font-family="TimesNewRomanPSMT"><tspan y="-514.56" x="79.62 86.100009 91.619709 98.09971 106.08271 111.60241 117.12301 123.122409 129.6024">GEOMETRY </tspan></text>
</g>
<clipPath id="cp5">
<path transform="matrix(1,0,0,-1,-55.1025,546.612)" d="M 73.62 501.84 L 153.66 501.84 L 153.66 523.38 L 73.62 523.38 Z "/>
</clipPath>
<g clip-path="url(#cp5)">
<text xml:space="preserve" transform="matrix(1 0 -0 1 -55.1025 546.612)" font-size="9" font-family="TimesNewRomanPSMT"><tspan y="-504.18" x="79.62 85.6203 92.1003 98.58031">BODY</tspan></text>
</g>
<clipPath id="cp6">
<path transform="matrix(1,0,0,-1,-55.1025,546.612)" d="M 73.62 501.84 L 153.66 501.84 L 153.66 523.38 L 73.62 523.38 Z "/>
</clipPath>
<g clip-path="url(#cp6)">
<text xml:space="preserve" transform="matrix(1 0 -0 1 -55.1025 546.612)" font-size="9" font-family="TimesNewRomanPSMT"><tspan y="-504.18" x="105.12"> </tspan></text>
</g>
</g>
<g id="Layer-1" data-name="P">
</g>
<g id="Layer-1" data-name="P">
</g>
<g id="Layer-1" data-name="P">
</g>
<g id="Layer-1" data-name="P">
</g>
<g id="Layer-1" data-name="P">
</g>
<g id="Layer-1" data-name="P">
</g>
<g id="Layer-1" data-name="P">
</g>
<g id="Layer-1" data-name="P">
</g>
<g id="Layer-1" data-name="P">
</g>
<g id="Layer-1" data-name="P">
</g>
<g id="Layer-1" data-name="P">
</g>
<g id="Layer-1" data-name="P">
</g>
<text xml:space="preserve" transform="matrix(1 0 -0 1 -55.1025 546.612)" font-size="9" font-family="TimesNewRomanPSMT"><tspan y="-509.4" x="174.9 179.4 221.943 226.443 268.986 273.486 316.029 320.529 363.072 367.572 411.429 415.929 458.472 462.972 504.309 508.809 551.352 555.852 596.172 600.672 605.172 643.269 647.769 652.269 690.312 694.812 699.312">1 2 3 4 5 6 7 8 9 10 11 12 </tspan></text>
<g id="Layer-1" data-name="Artifact">
<path transform="matrix(1,0,0,-1,-55.1025,546.612)" d="M 73.62 523.38 L 153.6 523.38 L 153.6 524.34 L 73.62 524.34 Z "/>
<path transform="matrix(1,0,0,-1,-55.1025,546.612)" d="M 153.6 523.38 L 154.559 523.38 L 154.559 524.34 L 153.6 524.34 Z "/>
<path transform="matrix(1,0,0,-1,-55.1025,546.612)" d="M 154.56 523.38 L 200.7 523.38 L 200.7 524.34 L 154.56 524.34 Z "/>
<path transform="matrix(1,0,0,-1,-55.1025,546.612)" d="M 200.7 523.38 L 201.66 523.38 L 201.66 524.34 L 200.7 524.34 Z "/>
<path transform="matrix(1,0,0,-1,-55.1025,546.612)" d="M 201.66 523.38 L 247.74 523.38 L 247.74 524.34 L 201.66 524.34 Z "/>
<path transform="matrix(1,0,0,-1,-55.1025,546.612)" d="M 247.74 523.38 L 248.699 523.38 L 248.699 524.34 L 247.74 524.34 Z "/>
<path transform="matrix(1,0,0,-1,-55.1025,546.612)" d="M 248.7 523.38 L 294.78 523.38 L 294.78 524.34 L 248.7 524.34 Z "/>
<path transform="matrix(1,0,0,-1,-55.1025,546.612)" d="M 294.78 523.38 L 295.74 523.38 L 295.74 524.34 L 294.78 524.34 Z "/>
<path transform="matrix(1,0,0,-1,-55.1025,546.612)" d="M 295.74 523.38 L 341.82 523.38 L 341.82 524.34 L 295.74 524.34 Z "/>
<path transform="matrix(1,0,0,-1,-55.1025,546.612)" d="M 341.82 523.38 L 342.78 523.38 L 342.78 524.34 L 341.82 524.34 Z "/>
<path transform="matrix(1,0,0,-1,-55.1025,546.612)" d="M 342.78 523.38 L 388.86 523.38 L 388.86 524.34 L 342.78 524.34 Z "/>
<path transform="matrix(1,0,0,-1,-55.1025,546.612)" d="M 388.86 523.38 L 389.819 523.38 L 389.819 524.34 L 388.86 524.34 Z "/>
<path transform="matrix(1,0,0,-1,-55.1025,546.612)" d="M 389.82 523.38 L 438.42 523.38 L 438.42 524.34 L 389.82 524.34 Z "/>
<path transform="matrix(1,0,0,-1,-55.1025,546.612)" d="M 438.42 523.38 L 439.38 523.38 L 439.38 524.34 L 438.42 524.34 Z "/>
<path transform="matrix(1,0,0,-1,-55.1025,546.612)" d="M 439.38 523.38 L 483 523.38 L 483 524.34 L 439.38 524.34 Z "/>
<path transform="matrix(1,0,0,-1,-55.1025,546.612)" d="M 483 523.38 L 483.959 523.38 L 483.959 524.34 L 483 524.34 Z "/>
<path transform="matrix(1,0,0,-1,-55.1025,546.612)" d="M 483.96 523.38 L 530.1 523.38 L 530.1 524.34 L 483.96 524.34 Z "/>
<path transform="matrix(1,0,0,-1,-55.1025,546.612)" d="M 530.1 523.38 L 531.06 523.38 L 531.06 524.34 L 530.1 524.34 Z "/>
<path transform="matrix(1,0,0,-1,-55.1025,546.612)" d="M 531.06 523.38 L 577.14 523.38 L 577.14 524.34 L 531.06 524.34 Z "/>
<path transform="matrix(1,0,0,-1,-55.1025,546.612)" d="M 577.14 523.38 L 578.099 523.38 L 578.099 524.34 L 577.14 524.34 Z "/>
<path transform="matrix(1,0,0,-1,-55.1025,546.612)" d="M 578.1 523.38 L 624.24 523.38 L 624.24 524.34 L 578.1 524.34 Z "/>
<path transform="matrix(1,0,0,-1,-55.1025,546.612)" d="M 624.24 523.38 L 625.2 523.38 L 625.2 524.34 L 624.24 524.34 Z "/>
<path transform="matrix(1,0,0,-1,-55.1025,546.612)" d="M 625.2 523.38 L 671.28 523.38 L 671.28 524.34 L 625.2 524.34 Z "/>
<path transform="matrix(1,0,0,-1,-55.1025,546.612)" d="M 671.28 523.38 L 672.239 523.38 L 672.239 524.34 L 671.28 524.34 Z "/>
<path transform="matrix(1,0,0,-1,-55.1025,546.612)" d="M 672.24 523.38 L 718.32 523.38 L 718.32 524.34 L 672.24 524.34 Z "/>
</g>
<g id="Layer-1" data-name="P">
</g>
<g id="Layer-1" data-name="P">
</g>
<g id="Layer-1" data-name="P">
</g>
<g id="Layer-1" data-name="P">
</g>
<g id="Layer-1" data-name="P">
</g>
<g id="Layer-1" data-name="P">
</g>
<g id="Layer-1" data-name="P">
</g>
<g id="Layer-1" data-name="P">
</g>
<g id="Layer-1" data-name="P">
</g>
<g id="Layer-1" data-name="P">
</g>
<g id="Layer-1" data-name="P">
</g>
<g id="Layer-1" data-name="P">
</g>
<g id="Layer-1" data-name="P">
</g>
<g id="Layer-1" data-name="P">
</g>
<g id="Layer-1" data-name="P">
</g>
<g id="Layer-1" data-name="P">
</g>
<g id="Layer-1" data-name="P">
</g>
<g id="Layer-1" data-name="P">
</g>
<g id="Layer-1" data-name="P">
</g>
<g id="Layer-1" data-name="P">
</g>
<g id="Layer-1" data-name="P">
</g>
<g id="Layer-1" data-name="P">
</g>
<g id="Layer-1" data-name="P">
</g>
<g id="Layer-1" data-name="P">
</g>
<g id="Layer-1" data-name="P">
</g>
<g id="Layer-1" data-name="P">
</g>
<g id="Layer-1" data-name="P">
</g>
<g id="Layer-1" data-name="P">
</g>
<g id="Layer-1" data-name="P">
</g>
<g id="Layer-1" data-name="P">
</g>
<g id="Layer-1" data-name="P">
</g>
<g id="Layer-1" data-name="P">
</g>
<g id="Layer-1" data-name="P">
</g>
<g id="Layer-1" data-name="P">
</g>
<g id="Layer-1" data-name="P">
</g>
<g id="Layer-1" data-name="P">
</g>
<g id="Layer-1" data-name="P">
</g>
<g id="Layer-1" data-name="P">
</g>
<g id="Layer-1" data-name="P">
</g>
<g id="Layer-1" data-name="P">
</g>
<g id="Layer-1" data-name="P">
</g>
<g id="Layer-1" data-name="P">
</g>
<g id="Layer-1" data-name="P">
</g>
<g id="Layer-1" data-name="P">
</g>
<g id="Layer-1" data-name="P">
</g>
<g id="Layer-1" data-name="P">
</g>
<text xml:space="preserve" transform="matrix(1 0 -0 1 -55.1025 546.612)" font-size="9" font-family="TimesNewRomanPSMT"><tspan y="-490.5" x="79.62 85.6203 92.1003 98.58031 104.100009 165.417 171.42002 175.43943 179.93943 182.45943 186.47974 188.934 218.931 224.034 229.488">CONE Radial +Z </tspan></text>
<text xml:space="preserve" transform="matrix(1 0 -0 1 -55.1025 546.612)" font-size="9" font-family="SymbolMT"><tspan y="-490.203" x="266.028">&#x2212;</tspan></text>
<text xml:space="preserve" transform="matrix(1 0 -0 1 -55.1025 546.612)" font-size="9" font-family="TimesNewRomanPSMT"><tspan y="-490.203" x="270.95103 276.46803">Z </tspan><tspan y="-490.5" x="318.29103 365.334 413.691 460.67103 506.571 553.614 600.65707 647.754 694.79708">         </tspan><tspan y="-475.2" x="79.620059 85.623058 92.10306 98.10606 104.58606 107.58306 114.11705 171.35706 176.46006 182.94005">CUBOID +X </tspan></text>
<text xml:space="preserve" transform="matrix(1 0 -0 1 -55.1025 546.612)" font-size="9" font-family="SymbolMT"><tspan y="-474.903" x="218.46305">&#x2212;</tspan></text>
<text xml:space="preserve" transform="matrix(1 0 -0 1 -55.1025 546.612)" font-size="9" font-family="TimesNewRomanPSMT"><tspan y="-474.903" x="223.38605 229.92905">X </tspan><tspan y="-475.2" x="265.45207 270.55506 277.03507">+Y </tspan></text>
<text xml:space="preserve" transform="matrix(1 0 -0 1 -55.1025 546.612)" font-size="9" font-family="SymbolMT"><tspan y="-474.903" x="312.55809">&#x2212;</tspan></text>
<text xml:space="preserve" transform="matrix(1 0 -0 1 -55.1025 546.612)" font-size="9" font-family="TimesNewRomanPSMT"><tspan y="-474.903" x="317.48109 324.02409">Y </tspan><tspan y="-475.2" x="360.08708 365.19007 370.64408">+Z </tspan></text>
<text xml:space="preserve" transform="matrix(1 0 -0 1 -55.1025 546.612)" font-size="9" font-family="SymbolMT"><tspan y="-474.903" x="408.50709">&#x2212;</tspan></text>
<text xml:space="preserve" transform="matrix(1 0 -0 1 -55.1025 546.612)" font-size="9" font-family="TimesNewRomanPSMT"><tspan y="-474.903" x="413.43009 418.94709">Z </tspan><tspan y="-475.2" x="460.7071 506.6071 553.6501 600.6931 647.7901 694.8331">      </tspan><tspan y="-460.80003" x="79.65613 85.656429 92.13643 97.65613 100.65583 107.13583 113.61584 119.13644 125.13313 165.45313 171.45613 175.47554 179.97554 182.49555 186.51586 188.97013 218.96712 224.07012 229.52413">CYLINDER Radial +Z </tspan></text>
<text xml:space="preserve" transform="matrix(1 0 -0 1 -55.1025 546.612)" font-size="9" font-family="SymbolMT"><tspan y="-460.50303" x="266.06413">&#x2212;</tspan></text>
<text xml:space="preserve" transform="matrix(1 0 -0 1 -55.1025 546.612)" font-size="9" font-family="TimesNewRomanPSMT"><tspan y="-460.50303" x="270.98713 276.50413">Z </tspan><tspan y="-460.80003" x="318.32713 365.37013 413.7271 460.70713 506.60713 553.65017 600.6932 647.79019 694.8332">         </tspan></text>
<text xml:space="preserve" transform="matrix(1 0 -0 1 -55.1025 546.612)" font-size="7.98" font-family="TimesNewRomanPSMT"><tspan y="-443.34" x="79.62 85.38156 91.14312 96.90468 101.764499 107.164569 112.926128 118.68768 123.60815 129.3697 134.70993 140.52976 146.29132">DODECAHEDRON </tspan></text>
<text xml:space="preserve" transform="matrix(1 0 -0 1 -55.1025 546.612)" font-size="9" font-family="TimesNewRomanPSMT"><tspan y="-442.92" x="171.36 176.463 182.943">+X </tspan></text>
<text xml:space="preserve" transform="matrix(1 0 -0 1 -55.1025 546.612)" font-size="9" font-family="SymbolMT"><tspan y="-442.62303" x="218.46599">&#x2212;</tspan></text>
<text xml:space="preserve" transform="matrix(1 0 -0 1 -55.1025 546.612)" font-size="9" font-family="TimesNewRomanPSMT"><tspan y="-442.62303" x="223.38899 229.93199">X </tspan><tspan y="-442.92" x="265.455 270.55799 277.038">+Y </tspan></text>
<text xml:space="preserve" transform="matrix(1 0 -0 1 -55.1025 546.612)" font-size="9" font-family="SymbolMT"><tspan y="-442.62303" x="312.561">&#x2212;</tspan></text>
<text xml:space="preserve" transform="matrix(1 0 -0 1 -55.1025 546.612)" font-size="9" font-family="TimesNewRomanPSMT"><tspan y="-442.62303" x="317.484 324.027">Y </tspan><tspan y="-442.92" x="348.50703 353.61003 360.09 365.193 371.67298 376.77598 382.23">+X+Y+Z </tspan></text>
<text xml:space="preserve" transform="matrix(1 0 -0 1 -55.1025 546.612)" font-size="9" font-family="SymbolMT"><tspan y="-442.62303" x="397.053">&#x2212;</tspan></text>
<text xml:space="preserve" transform="matrix(1 0 -0 1 -55.1025 546.612)" font-size="9" font-family="TimesNewRomanPSMT"><tspan y="-442.62303" x="401.976">X</tspan></text>
<text xml:space="preserve" transform="matrix(1 0 -0 1 -55.1025 546.612)" font-size="9" font-family="SymbolMT"><tspan y="-442.62303" x="408.45603">&#x2212;</tspan></text>
<text xml:space="preserve" transform="matrix(1 0 -0 1 -55.1025 546.612)" font-size="9" font-family="TimesNewRomanPSMT"><tspan y="-442.62303" x="413.37904">Y</tspan></text>
<text xml:space="preserve" transform="matrix(1 0 -0 1 -55.1025 546.612)" font-size="9" font-family="SymbolMT"><tspan y="-442.62303" x="419.92204">&#x2212;</tspan></text>
<text xml:space="preserve" transform="matrix(1 0 -0 1 -55.1025 546.612)" font-size="9" font-family="TimesNewRomanPSMT"><tspan y="-442.62303" x="424.84504 430.36204">Z </tspan></text>
<g id="Layer-1" data-name="P">
<clipPath id="cp7">
<path transform="matrix(1,0,0,-1,-55.1025,546.612)" d="M 438.42 435.48 L 483.06 435.48 L 483.06 456.84004 L 438.42 456.84004 Z "/>
</clipPath>
<g clip-path="url(#cp7)">
<text xml:space="preserve" transform="matrix(1 0 -0 1 -55.1025 546.612)" font-size="9" font-family="SymbolMT"><tspan y="-447.78" x="446.64">&#x2212;</tspan></text>
</g>
<clipPath id="cp8">
<path transform="matrix(1,0,0,-1,-55.1025,546.612)" d="M 438.42 435.48 L 483.06 435.48 L 483.06 456.84004 L 438.42 456.84004 Z "/>
</clipPath>
<g clip-path="url(#cp8)">
<text xml:space="preserve" transform="matrix(1 0 -0 1 -55.1025 546.612)" font-size="9" font-family="TimesNewRomanPSMT"><tspan y="-447.78" x="451.56 458.04 463.14033 469.62034">X+Y+</tspan></text>
</g>
<clipPath id="cp9">
<path transform="matrix(1,0,0,-1,-55.1025,546.612)" d="M 438.42 435.48 L 483.06 435.48 L 483.06 456.84004 L 438.42 456.84004 Z "/>
</clipPath>
<g clip-path="url(#cp9)">
<text xml:space="preserve" transform="matrix(1 0 -0 1 -55.1025 546.612)" font-size="9" font-family="TimesNewRomanPSMT"><tspan y="-437.4" x="457.92">Z</tspan></text>
</g>
<clipPath id="cp10">
<path transform="matrix(1,0,0,-1,-55.1025,546.612)" d="M 438.42 435.48 L 483.06 435.48 L 483.06 456.84004 L 438.42 456.84004 Z "/>
</clipPath>
<g clip-path="url(#cp10)">
<text xml:space="preserve" transform="matrix(1 0 -0 1 -55.1025 546.612)" font-size="9" font-family="TimesNewRomanPSMT"><tspan y="-437.4" x="463.44"> </tspan></text>
</g>
</g>
<g id="Layer-1" data-name="P">
</g>
<g id="Layer-1" data-name="P">
</g>
<g id="Layer-1" data-name="P">
</g>
<g id="Layer-1" data-name="P">
</g>
<g id="Layer-1" data-name="P">
</g>
<g id="Layer-1" data-name="P">
</g>
<g id="Layer-1" data-name="P">
</g>
<g id="Layer-1" data-name="P">
</g>
<text xml:space="preserve" transform="matrix(1 0 -0 1 -55.1025 546.612)" font-size="9" font-family="TimesNewRomanPSMT"><tspan y="-442.62" x="489.84 494.943">+X</tspan></text>
<text xml:space="preserve" transform="matrix(1 0 -0 1 -55.1025 546.612)" font-size="9" font-family="SymbolMT"><tspan y="-442.62" x="501.423">&#x2212;</tspan></text>
<text xml:space="preserve" transform="matrix(1 0 -0 1 -55.1025 546.612)" font-size="9" font-family="TimesNewRomanPSMT"><tspan y="-442.62" x="506.346">Y</tspan></text>
<text xml:space="preserve" transform="matrix(1 0 -0 1 -55.1025 546.612)" font-size="9" font-family="SymbolMT"><tspan y="-442.62" x="512.826">&#x2212;</tspan></text>
<text xml:space="preserve" transform="matrix(1 0 -0 1 -55.1025 546.612)" font-size="9" font-family="TimesNewRomanPSMT"><tspan y="-442.62" x="517.74899 523.266">Z </tspan></text>
<text xml:space="preserve" transform="matrix(1 0 -0 1 -55.1025 546.612)" font-size="9" font-family="SymbolMT"><tspan y="-442.62" x="536.883">&#x2212;</tspan></text>
<text xml:space="preserve" transform="matrix(1 0 -0 1 -55.1025 546.612)" font-size="9" font-family="TimesNewRomanPSMT"><tspan y="-442.62" x="541.80599">X</tspan></text>
<text xml:space="preserve" transform="matrix(1 0 -0 1 -55.1025 546.612)" font-size="9" font-family="SymbolMT"><tspan y="-442.62" x="548.28598">&#x2212;</tspan></text>
<text xml:space="preserve" transform="matrix(1 0 -0 1 -55.1025 546.612)" font-size="9" font-family="TimesNewRomanPSMT"><tspan y="-442.62" x="553.2089 559.6889 564.7892 570.3089 583.8719 588.9749 595.45498 600.558">Y+Z +X+Y</tspan></text>
<text xml:space="preserve" transform="matrix(1 0 -0 1 -55.1025 546.612)" font-size="9" font-family="SymbolMT"><tspan y="-442.62" x="607.0289">&#x2212;</tspan></text>
<text xml:space="preserve" transform="matrix(1 0 -0 1 -55.1025 546.612)" font-size="9" font-family="TimesNewRomanPSMT"><tspan y="-442.62" x="611.95187 617.4689 630.9689 636.0719">Z +X</tspan></text>
<text xml:space="preserve" transform="matrix(1 0 -0 1 -55.1025 546.612)" font-size="9" font-family="SymbolMT"><tspan y="-442.62" x="642.5519">&#x2212;</tspan></text>
<text xml:space="preserve" transform="matrix(1 0 -0 1 -55.1025 546.612)" font-size="9" font-family="TimesNewRomanPSMT"><tspan y="-442.62" x="647.47488 653.95486 659.0551 664.5748">Y+Z </tspan></text>
<text xml:space="preserve" transform="matrix(1 0 -0 1 -55.1025 546.612)" font-size="9" font-family="SymbolMT"><tspan y="-442.62" x="678.0748">&#x2212;</tspan></text>
<text xml:space="preserve" transform="matrix(1 0 -0 1 -55.1025 546.612)" font-size="9" font-family="TimesNewRomanPSMT"><tspan y="-442.62" x="682.9978 689.4778 694.57809">X+Y</tspan></text>
<text xml:space="preserve" transform="matrix(1 0 -0 1 -55.1025 546.612)" font-size="9" font-family="SymbolMT"><tspan y="-442.62" x="701.05807">&#x2212;</tspan></text>
<text xml:space="preserve" transform="matrix(1 0 -0 1 -55.1025 546.612)" font-size="9" font-family="TimesNewRomanPSMT"><tspan y="-442.62" x="705.9748 711.4918">Z </tspan><tspan y="-425.043" x="79.628787 85.14848 91.14878 97.628787 103.14848 106.149089 112.62909 119.10909 124.62879 130.63178 165.43479 171.43779 175.4572 179.9572 182.4772 186.49752 188.95178 218.94878 224.05178 229.50579">ECYLINDER Radial +Z </tspan></text>
<g id="Layer-1" data-name="P">
<text xml:space="preserve" transform="matrix(1 0 -0 1 -55.1025 546.612)" font-size="9" font-family="SymbolMT"><tspan y="-424.74" x="266.04">&#x2212;</tspan></text>
<clipPath id="cp11">
<path transform="matrix(1,0,0,-1,-55.1025,546.612)" d="M 247.74 421.08 L 294.779 421.08 L 294.779 435.47999 L 247.74 435.47999 Z "/>
</clipPath>
<g clip-path="url(#cp11)">
<text xml:space="preserve" transform="matrix(1 0 -0 1 -55.1025 546.612)" font-size="9" font-family="TimesNewRomanPSMT"><tspan y="-424.74" x="270.96">Z</tspan></text>
</g>
<clipPath id="cp12">
<path transform="matrix(1,0,0,-1,-55.1025,546.612)" d="M 247.74 421.08 L 294.779 421.08 L 294.779 435.47999 L 247.74 435.47999 Z "/>
</clipPath>
<g clip-path="url(#cp12)">
<text xml:space="preserve" transform="matrix(1 0 -0 1 -55.1025 546.612)" font-size="9" font-family="TimesNewRomanPSMT"><tspan y="-424.74" x="276.48"> </tspan></text>
</g>
</g>
<g id="Layer-1" data-name="P">
</g>
<g id="Layer-1" data-name="P">
</g>
<g id="Layer-1" data-name="P">
</g>
<g id="Layer-1" data-name="P">
</g>
<g id="Layer-1" data-name="P">
</g>
<g id="Layer-1" data-name="P">
</g>
<g id="Layer-1" data-name="P">
</g>
<g id="Layer-1" data-name="P">
</g>
<g id="Layer-1" data-name="P">
</g>
<g id="Layer-1" data-name="P">
</g>
<g id="Layer-1" data-name="P">
</g>
<g id="Layer-1" data-name="P">
</g>
<g id="Layer-1" data-name="P">
</g>
<g id="Layer-1" data-name="P">
</g>
<g id="Layer-1" data-name="P">
</g>
<g id="Layer-1" data-name="P">
</g>
<g id="Layer-1" data-name="P">
</g>
<g id="Layer-1" data-name="P">
</g>
<g id="Layer-1" data-name="P">
</g>
<g id="Layer-1" data-name="P">
</g>
<g id="Layer-1" data-name="P">
</g>
<g id="Layer-1" data-name="P">
</g>
<g id="Layer-1" data-name="P">
</g>
<g id="Layer-1" data-name="P">
</g>
<g id="Layer-1" data-name="P">
</g>
<g id="Layer-1" data-name="P">
</g>
<g id="Layer-1" data-name="P">
</g>
<g id="Layer-1" data-name="P">
</g>
<g id="Layer-1" data-name="P">
</g>
<g id="Layer-1" data-name="P">
</g>
<g id="Layer-1" data-name="P">
</g>
<g id="Layer-1" data-name="P">
</g>
<g id="Layer-1" data-name="P">
</g>
<g id="Layer-1" data-name="P">
</g>
<g id="Layer-1" data-name="P">
</g>
<g id="Layer-1" data-name="P">
</g>
<g id="Layer-1" data-name="P">
</g>
<g id="Layer-1" data-name="P">
</g>
<g id="Layer-1" data-name="P">
</g>
<g id="Layer-1" data-name="P">
</g>
<g id="Layer-1" data-name="P">
</g>
<g id="Layer-1" data-name="P">
</g>
<g id="Layer-1" data-name="P">
</g>
<g id="Layer-1" data-name="P">
</g>
<g id="Layer-1" data-name="P">
</g>
<g id="Layer-1" data-name="P">
</g>
<g id="Layer-1" data-name="P">
</g>
<g id="Layer-1" data-name="P">
</g>
<g id="Layer-1" data-name="P">
</g>
<g id="Layer-1" data-name="P">
</g>
<g id="Layer-1" data-name="P">
</g>
<g id="Layer-1" data-name="P">
</g>
<g id="Layer-1" data-name="P">
</g>
<g id="Layer-1" data-name="P">
</g>
<g id="Layer-1" data-name="P">
</g>
<g id="Layer-1" data-name="P">
</g>
<g id="Layer-1" data-name="P">
</g>
<g id="Layer-1" data-name="P">
</g>
<g id="Layer-1" data-name="P">
</g>
<g id="Layer-1" data-name="P">
</g>
<g id="Layer-1" data-name="P">
</g>
<g id="Layer-1" data-name="P">
</g>
<g id="Layer-1" data-name="P">
</g>
<g id="Layer-1" data-name="P">
</g>
<g id="Layer-1" data-name="P">
</g>
<g id="Layer-1" data-name="P">
</g>
<g id="Layer-1" data-name="P">
</g>
<g id="Layer-1" data-name="P">
</g>
<g id="Layer-1" data-name="P">
</g>
<g id="Layer-1" data-name="P">
</g>
<g id="Layer-1" data-name="P">
</g>
<g id="Layer-1" data-name="P">
</g>
<g id="Layer-1" data-name="P">
</g>
<g id="Layer-1" data-name="P">
</g>
<g id="Layer-1" data-name="P">
</g>
<g id="Layer-1" data-name="P">
</g>
<g id="Layer-1" data-name="P">
</g>
<g id="Layer-1" data-name="P">
</g>
<g id="Layer-1" data-name="P">
</g>
<g id="Layer-1" data-name="P">
</g>
<g id="Layer-1" data-name="P">
</g>
<g id="Layer-1" data-name="P">
</g>
<g id="Layer-1" data-name="P">
</g>
<g id="Layer-1" data-name="P">
</g>
<g id="Layer-1" data-name="P">
</g>
<g id="Layer-1" data-name="P">
</g>
<g id="Layer-1" data-name="P">
</g>
<g id="Layer-1" data-name="P">
</g>
<g id="Layer-1" data-name="P">
</g>
<g id="Layer-1" data-name="P">
</g>
<g id="Layer-1" data-name="P">
</g>
<g id="Layer-1" data-name="P">
</g>
<g id="Layer-1" data-name="P">
</g>
<g id="Layer-1" data-name="P">
</g>
<g id="Layer-1" data-name="P">
</g>
<g id="Layer-1" data-name="P">
</g>
<g id="Layer-1" data-name="P">
</g>
<g id="Layer-1" data-name="P">
</g>
<g id="Layer-1" data-name="P">
</g>
<g id="Layer-1" data-name="P">
</g>
<g id="Layer-1" data-name="P">
</g>
<text xml:space="preserve" transform="matrix(1 0 -0 1 -55.1025 546.612)" font-size="9" font-family="TimesNewRomanPSMT"><tspan y="-425.04" x="318.3 365.343 413.69999 460.68 506.58 553.623 600.666 647.763 694.806">         </tspan><tspan y="-410.64" x="79.62903 85.14873 90.66933 96.189029 99.18873 104.16843 109.149028 112.14873 118.62873 125.10603 165.42603 171.42903 175.44844 179.94844 182.46845 186.48876 188.94303 224.22303 271.26603 318.30903 365.35203 413.709 460.68904 506.58903 553.632 600.67507 647.77206 694.81509">ELLIPSIOD Radial            </tspan><tspan y="-396.24003" x="79.63806 86.118068 91.637767 98.11777 103.094768 109.09506 112.094768 117.07176 125.11507 171.37506 176.47806 182.95806">HEXPRISM +X </tspan></text>
<text xml:space="preserve" transform="matrix(1 0 -0 1 -55.1025 546.612)" font-size="9" font-family="SymbolMT"><tspan y="-395.94303" x="218.48105">&#x2212;</tspan></text>
<text xml:space="preserve" transform="matrix(1 0 -0 1 -55.1025 546.612)" font-size="9" font-family="TimesNewRomanPSMT"><tspan y="-395.94303" x="223.40406 229.94705">X </tspan><tspan y="-396.24003" x="258.56706 263.67005 270.15003 272.42704 277.53004 283.94706">+X +Y </tspan></text>
<text xml:space="preserve" transform="matrix(1 0 -0 1 -55.1025 546.612)" font-size="9" font-family="SymbolMT"><tspan y="-395.94303" x="305.72706">&#x2212;</tspan></text>
<text xml:space="preserve" transform="matrix(1 0 -0 1 -55.1025 546.612)" font-size="9" font-family="TimesNewRomanPSMT"><tspan y="-395.94303" x="310.65007 317.13008">X </tspan></text>
<text xml:space="preserve" transform="matrix(1 0 -0 1 -55.1025 546.612)" font-size="9" font-family="SymbolMT"><tspan y="-395.94303" x="319.40705">&#x2212;</tspan></text>
<text xml:space="preserve" transform="matrix(1 0 -0 1 -55.1025 546.612)" font-size="9" font-family="TimesNewRomanPSMT"><tspan y="-395.94303" x="324.33006 330.87306">Y </tspan></text>
<text xml:space="preserve" transform="matrix(1 0 -0 1 -55.1025 546.612)" font-size="9" font-family="SymbolMT"><tspan y="-395.94303" x="352.71604">&#x2212;</tspan></text>
<text xml:space="preserve" transform="matrix(1 0 -0 1 -55.1025 546.612)" font-size="9" font-family="TimesNewRomanPSMT"><tspan y="-395.94303" x="357.63905 364.11906 366.39607 371.49638 377.97639 401.08204 406.18235 412.66236">X +Y +X </tspan></text>
<text xml:space="preserve" transform="matrix(1 0 -0 1 -55.1025 546.612)" font-size="9" font-family="SymbolMT"><tspan y="-395.94303" x="414.94203">&#x2212;</tspan></text>
<text xml:space="preserve" transform="matrix(1 0 -0 1 -55.1025 546.612)" font-size="9" font-family="TimesNewRomanPSMT"><tspan y="-395.94303" x="419.86503 426.34504">Y </tspan><tspan y="-396.24003" x="455.44203 460.545 465.99903">+Z </tspan></text>
<text xml:space="preserve" transform="matrix(1 0 -0 1 -55.1025 546.612)" font-size="9" font-family="SymbolMT"><tspan y="-395.94303" x="501.39604">&#x2212;</tspan></text>
<text xml:space="preserve" transform="matrix(1 0 -0 1 -55.1025 546.612)" font-size="9" font-family="TimesNewRomanPSMT"><tspan y="-395.94303" x="506.31904 511.83604">Z </tspan><tspan y="-396.24003" x="553.65908 600.7021 647.7991 694.8421">    </tspan><tspan y="-381.84004" x="79.6651 86.1451 92.62511 97.602108 102.5791 108.0988 114.162097 171.4021 176.5051 182.98509">HOPPER +X </tspan></text>
<text xml:space="preserve" transform="matrix(1 0 -0 1 -55.1025 546.612)" font-size="9" font-family="SymbolMT"><tspan y="-381.54304" x="218.50809">&#x2212;</tspan></text>
<text xml:space="preserve" transform="matrix(1 0 -0 1 -55.1025 546.612)" font-size="9" font-family="TimesNewRomanPSMT"><tspan y="-381.54304" x="223.43109 229.97409">X </tspan><tspan y="-381.84004" x="265.4971 270.6001 277.0801">+Y </tspan></text>
<text xml:space="preserve" transform="matrix(1 0 -0 1 -55.1025 546.612)" font-size="9" font-family="SymbolMT"><tspan y="-381.54304" x="312.60313">&#x2212;</tspan></text>
<text xml:space="preserve" transform="matrix(1 0 -0 1 -55.1025 546.612)" font-size="9" font-family="TimesNewRomanPSMT"><tspan y="-381.54304" x="317.52613 324.06913">Y </tspan><tspan y="-381.84004" x="360.1321 365.2351 370.68913">+Z </tspan></text>
<text xml:space="preserve" transform="matrix(1 0 -0 1 -55.1025 546.612)" font-size="9" font-family="SymbolMT"><tspan y="-381.54304" x="408.55213">&#x2212;</tspan></text>
<text xml:space="preserve" transform="matrix(1 0 -0 1 -55.1025 546.612)" font-size="9" font-family="TimesNewRomanPSMT"><tspan y="-381.54304" x="413.47514 418.99214">Z </tspan><tspan y="-381.84004" x="460.75215 506.65214 553.6951 600.73818 647.83517 694.8782">      </tspan><tspan y="-367.44004" x="79.70117 84.68087 90.20147 96.68147 102.20117 108.681179 115.16118 121.64118 128.18418">PENTAGON </tspan></text>
<text xml:space="preserve" transform="matrix(1 0 -0 1 -55.1025 546.612)" font-size="9" font-family="SymbolMT"><tspan y="-367.14305" x="171.50118">&#x2212;</tspan></text>
<text xml:space="preserve" transform="matrix(1 0 -0 1 -55.1025 546.612)" font-size="9" font-family="TimesNewRomanPSMT"><tspan y="-367.14305" x="176.42418 182.96718 211.65018 216.75048 223.23047">Y +X </tspan></text>
<text xml:space="preserve" transform="matrix(1 0 -0 1 -55.1025 546.612)" font-size="9" font-family="SymbolMT"><tspan y="-367.14305" x="225.51018">&#x2212;</tspan></text>
<text xml:space="preserve" transform="matrix(1 0 -0 1 -55.1025 546.612)" font-size="9" font-family="TimesNewRomanPSMT"><tspan y="-367.14305" x="230.43318 236.91318">Y </tspan><tspan y="-367.44004" x="258.6302 263.7332 270.21318 272.49018 277.59318 284.0102">+X +Y </tspan></text>
<text xml:space="preserve" transform="matrix(1 0 -0 1 -55.1025 546.612)" font-size="9" font-family="SymbolMT"><tspan y="-367.14305" x="305.7272">&#x2212;</tspan></text>
<text xml:space="preserve" transform="matrix(1 0 -0 1 -55.1025 546.612)" font-size="9" font-family="TimesNewRomanPSMT"><tspan y="-367.14305" x="310.6502 317.13023 319.40724 324.50755 330.98756">X +Y </tspan></text>
<text xml:space="preserve" transform="matrix(1 0 -0 1 -55.1025 546.612)" font-size="9" font-family="SymbolMT"><tspan y="-367.14305" x="352.8332">&#x2212;</tspan></text>
<text xml:space="preserve" transform="matrix(1 0 -0 1 -55.1025 546.612)" font-size="9" font-family="TimesNewRomanPSMT"><tspan y="-367.14305" x="357.7562 364.2362">X </tspan></text>
<text xml:space="preserve" transform="matrix(1 0 -0 1 -55.1025 546.612)" font-size="9" font-family="SymbolMT"><tspan y="-367.14305" x="366.51319">&#x2212;</tspan></text>
<text xml:space="preserve" transform="matrix(1 0 -0 1 -55.1025 546.612)" font-size="9" font-family="TimesNewRomanPSMT"><tspan y="-367.14305" x="371.4362 377.9792">Y </tspan><tspan y="-367.44004" x="408.51618 413.61918 419.07319">+Z </tspan></text>
<text xml:space="preserve" transform="matrix(1 0 -0 1 -55.1025 546.612)" font-size="9" font-family="SymbolMT"><tspan y="-367.14305" x="455.55018">&#x2212;</tspan></text>
<text xml:space="preserve" transform="matrix(1 0 -0 1 -55.1025 546.612)" font-size="9" font-family="TimesNewRomanPSMT"><tspan y="-367.14305" x="460.47319 465.99018">Z </tspan><tspan y="-367.44004" x="506.67018 553.7132 600.7562 647.8532 694.89627">     </tspan><tspan y="-353.04005" x="79.71924 84.69894 90.219539 96.69954 103.17954 108.699237 163.53623 168.51592 173.01592 176.01291 179.0099 183.03022 187.04962 191.01323 224.31324 271.35624 318.39924 365.44224 413.79924 460.77925 506.67924 553.7222 600.76528 647.86227 694.9053">PLANE Surface            </tspan><tspan y="-338.64006" x="79.72827 86.208278 92.68828 99.16828 105.648288 111.707988 118.18799 123.70859 126.70829 132.71128 163.55428 168.53397 173.03397 176.03096 179.02796 183.04827 187.06768 191.03128 224.33129 271.3743 318.4173 365.4603 413.8173 460.7973 506.6973 553.7403 600.7833 647.8803 694.92337">QUADRATIC Surface            </tspan><tspan y="-324.24006" x="79.74634 85.74934 92.22934 97.74904 104.22904 109.20874 115.21174 118.20874 123.24874 131.28934 171.49234 176.59534 183.07534">RHEXPRISM +Y </tspan></text>
<text xml:space="preserve" transform="matrix(1 0 -0 1 -55.1025 546.612)" font-size="9" font-family="SymbolMT"><tspan y="-323.94306" x="218.59833">&#x2212;</tspan></text>
<text xml:space="preserve" transform="matrix(1 0 -0 1 -55.1025 546.612)" font-size="9" font-family="TimesNewRomanPSMT"><tspan y="-323.94306" x="223.52133 230.06433">Y </tspan></text>
<text xml:space="preserve" transform="matrix(1 0 -0 1 -55.1025 546.612)" font-size="9" font-family="SymbolMT"><tspan y="-323.94306" x="258.74736">&#x2212;</tspan></text>
<text xml:space="preserve" transform="matrix(1 0 -0 1 -55.1025 546.612)" font-size="9" font-family="TimesNewRomanPSMT"><tspan y="-323.94306" x="263.67036 270.15037 272.42738 277.52769 284.0077 305.79035 310.89067 317.37068">X +Y +X </tspan></text>
<text xml:space="preserve" transform="matrix(1 0 -0 1 -55.1025 546.612)" font-size="9" font-family="SymbolMT"><tspan y="-323.94306" x="319.65034">&#x2212;</tspan></text>
<text xml:space="preserve" transform="matrix(1 0 -0 1 -55.1025 546.612)" font-size="9" font-family="TimesNewRomanPSMT"><tspan y="-323.94306" x="324.57334 331.05335">Y </tspan><tspan y="-324.24006" x="352.77037 357.87336 364.35334 366.63035 371.73335 378.15037">+X +Y </tspan></text>
<text xml:space="preserve" transform="matrix(1 0 -0 1 -55.1025 546.612)" font-size="9" font-family="SymbolMT"><tspan y="-323.94306" x="401.25337">&#x2212;</tspan></text>
<text xml:space="preserve" transform="matrix(1 0 -0 1 -55.1025 546.612)" font-size="9" font-family="TimesNewRomanPSMT"><tspan y="-323.94306" x="406.17637 412.65638">X </tspan></text>
<text xml:space="preserve" transform="matrix(1 0 -0 1 -55.1025 546.612)" font-size="9" font-family="SymbolMT"><tspan y="-323.94306" x="414.93336">&#x2212;</tspan></text>
<text xml:space="preserve" transform="matrix(1 0 -0 1 -55.1025 546.612)" font-size="9" font-family="TimesNewRomanPSMT"><tspan y="-323.94306" x="419.85636 426.39936">Y </tspan><tspan y="-324.24006" x="455.55937 460.66236 466.11637">+Z </tspan></text>
<text xml:space="preserve" transform="matrix(1 0 -0 1 -55.1025 546.612)" font-size="9" font-family="SymbolMT"><tspan y="-323.94306" x="501.51338">&#x2212;</tspan></text>
<text xml:space="preserve" transform="matrix(1 0 -0 1 -55.1025 546.612)" font-size="9" font-family="TimesNewRomanPSMT"><tspan y="-323.94306" x="506.43638 511.95338">Z </tspan><tspan y="-324.24006" x="553.77639 600.8194 647.9164 694.9594">    </tspan><tspan y="-306.71705" x="79.78241 85.78541 88.78241 95.26241 101.80541">RING </tspan></text>
<g id="Layer-1" data-name="P">
<clipPath id="cp13">
<path transform="matrix(1,0,0,-1,-55.1025,546.612)" d="M 153.66 299.58 L 200.70001 299.58 L 200.70001 320.28 L 153.66 320.28 Z "/>
</clipPath>
<g clip-path="url(#cp13)">
<text xml:space="preserve" transform="matrix(1 0 -0 1 -55.1025 546.612)" font-size="9" font-family="TimesNewRomanPSMT"><tspan y="-311.88" x="167.64 170.637 175.137 179.637 183.6573 186.6543">Inner </tspan></text>
</g>
<clipPath id="cp14">
<path transform="matrix(1,0,0,-1,-55.1025,546.612)" d="M 153.66 299.58 L 200.70001 299.58 L 200.70001 320.28 L 153.66 320.28 Z "/>
</clipPath>
<g clip-path="url(#cp14)">
<text xml:space="preserve" transform="matrix(1 0 -0 1 -55.1025 546.612)" font-size="9" font-family="TimesNewRomanPSMT"><tspan y="-301.5" x="164.64 170.643 174.66242 179.16242 181.68242 186.18242">Radius</tspan></text>
</g>
<clipPath id="cp15">
<path transform="matrix(1,0,0,-1,-55.1025,546.612)" d="M 153.66 299.58 L 200.70001 299.58 L 200.70001 320.28 L 153.66 320.28 Z "/>
</clipPath>
<g clip-path="url(#cp15)">
<text xml:space="preserve" transform="matrix(1 0 -0 1 -55.1025 546.612)" font-size="9" font-family="TimesNewRomanPSMT"><tspan y="-301.5" x="189.66"> </tspan></text>
</g>
<g id="Layer-1" data-name="P">
</g>
<clipPath id="cp16">
<path transform="matrix(1,0,0,-1,-55.1025,546.612)" d="M 200.7 299.58 L 247.73999 299.58 L 247.73999 320.28 L 200.7 320.28 Z "/>
</clipPath>
<g clip-path="url(#cp16)">
<text xml:space="preserve" transform="matrix(1 0 -0 1 -55.1025 546.612)" font-size="9" font-family="TimesNewRomanPSMT"><tspan y="-311.88" x="213.96 220.44 224.94 227.46 231.48032 234.47731">Outer </tspan></text>
</g>
<clipPath id="cp17">
<path transform="matrix(1,0,0,-1,-55.1025,546.612)" d="M 200.7 299.58 L 247.73999 299.58 L 247.73999 320.28 L 200.7 320.28 Z "/>
</clipPath>
<g clip-path="url(#cp17)">
<text xml:space="preserve" transform="matrix(1 0 -0 1 -55.1025 546.612)" font-size="9" font-family="TimesNewRomanPSMT"><tspan y="-301.5" x="211.68 217.683 221.70241 226.20241 228.72241 233.22241">Radius</tspan></text>
</g>
<clipPath id="cp18">
<path transform="matrix(1,0,0,-1,-55.1025,546.612)" d="M 200.7 299.58 L 247.73999 299.58 L 247.73999 320.28 L 200.7 320.28 Z "/>
</clipPath>
<g clip-path="url(#cp18)">
<text xml:space="preserve" transform="matrix(1 0 -0 1 -55.1025 546.612)" font-size="9" font-family="TimesNewRomanPSMT"><tspan y="-301.5" x="236.7"> </tspan></text>
</g>
</g>
<g id="Layer-1" data-name="P">
</g>
<g id="Layer-1" data-name="P">
</g>
<g id="Layer-1" data-name="P">
</g>
<g id="Layer-1" data-name="P">
</g>
<g id="Layer-1" data-name="P">
</g>
<g id="Layer-1" data-name="P">
</g>
<g id="Layer-1" data-name="P">
</g>
<g id="Layer-1" data-name="P">
</g>
<g id="Layer-1" data-name="P">
</g>
<g id="Layer-1" data-name="P">
</g>
<g id="Layer-1" data-name="P">
</g>
<g id="Layer-1" data-name="P">
</g>
<g id="Layer-1" data-name="P">
</g>
<g id="Layer-1" data-name="P">
</g>
<g id="Layer-1" data-name="P">
</g>
<g id="Layer-1" data-name="P">
</g>
<g id="Layer-1" data-name="P">
</g>
<g id="Layer-1" data-name="P">
</g>
<g id="Layer-1" data-name="P">
</g>
<g id="Layer-1" data-name="P">
</g>
<g id="Layer-1" data-name="P">
</g>
<g id="Layer-1" data-name="P">
</g>
<g id="Layer-1" data-name="P">
</g>
<g id="Layer-1" data-name="P">
</g>
<g id="Layer-1" data-name="P">
</g>
<g id="Layer-1" data-name="P">
</g>
<g id="Layer-1" data-name="P">
</g>
<g id="Layer-1" data-name="P">
</g>
<g id="Layer-1" data-name="P">
</g>
<g id="Layer-1" data-name="P">
</g>
<g id="Layer-1" data-name="P">
</g>
<g id="Layer-1" data-name="P">
</g>
<g id="Layer-1" data-name="P">
</g>
<g id="Layer-1" data-name="P">
</g>
<g id="Layer-1" data-name="P">
</g>
<g id="Layer-1" data-name="P">
</g>
<g id="Layer-1" data-name="P">
</g>
<g id="Layer-1" data-name="P">
</g>
<g id="Layer-1" data-name="P">
</g>
<g id="Layer-1" data-name="P">
</g>
<g id="Layer-1" data-name="P">
</g>
<g id="Layer-1" data-name="P">
</g>
<g id="Layer-1" data-name="P">
</g>
<g id="Layer-1" data-name="P">
</g>
<g id="Layer-1" data-name="P">
</g>
<g id="Layer-1" data-name="P">
</g>
<g id="Layer-1" data-name="P">
</g>
<g id="Layer-1" data-name="P">
</g>
<g id="Layer-1" data-name="P">
</g>
<g id="Layer-1" data-name="P">
</g>
<g id="Layer-1" data-name="P">
</g>
<g id="Layer-1" data-name="P">
</g>
<g id="Layer-1" data-name="P">
</g>
<g id="Layer-1" data-name="P">
</g>
<g id="Layer-1" data-name="P">
</g>
<g id="Layer-1" data-name="P">
</g>
<g id="Layer-1" data-name="P">
</g>
<g id="Layer-1" data-name="P">
</g>
<g id="Layer-1" data-name="P">
</g>
<g id="Layer-1" data-name="P">
</g>
<g id="Layer-1" data-name="P">
</g>
<g id="Layer-1" data-name="P">
</g>
<g id="Layer-1" data-name="P">
</g>
<g id="Layer-1" data-name="P">
</g>
<g id="Layer-1" data-name="P">
</g>
<g id="Layer-1" data-name="P">
</g>
<g id="Layer-1" data-name="P">
</g>
<g id="Layer-1" data-name="P">
</g>
<g id="Layer-1" data-name="P">
</g>
<g id="Layer-1" data-name="P">
</g>
<g id="Layer-1" data-name="P">
</g>
<g id="Layer-1" data-name="P">
</g>
<g id="Layer-1" data-name="P">
</g>
<g id="Layer-1" data-name="P">
</g>
<g id="Layer-1" data-name="P">
</g>
<g id="Layer-1" data-name="P">
</g>
<g id="Layer-1" data-name="P">
</g>
<g id="Layer-1" data-name="P">
</g>
<g id="Layer-1" data-name="P">
</g>
<g id="Layer-1" data-name="P">
</g>
<g id="Layer-1" data-name="P">
</g>
<g id="Layer-1" data-name="P">
</g>
<g id="Layer-1" data-name="P">
</g>
<g id="Layer-1" data-name="P">
</g>
<g id="Layer-1" data-name="P">
</g>
<g id="Layer-1" data-name="P">
</g>
<g id="Layer-1" data-name="P">
</g>
<g id="Layer-1" data-name="P">
</g>
<g id="Layer-1" data-name="P">
</g>
<g id="Layer-1" data-name="P">
</g>
<g id="Layer-1" data-name="P">
</g>
<g id="Layer-1" data-name="P">
</g>
<g id="Layer-1" data-name="P">
</g>
<g id="Layer-1" data-name="P">
</g>
<g id="Layer-1" data-name="P">
</g>
<g id="Layer-1" data-name="P">
</g>
<g id="Layer-1" data-name="P">
</g>
<g id="Layer-1" data-name="P">
</g>
<g id="Layer-1" data-name="P">
</g>
<g id="Layer-1" data-name="P">
</g>
<g id="Layer-1" data-name="P">
</g>
<g id="Layer-1" data-name="P">
</g>
<g id="Layer-1" data-name="P">
</g>
<g id="Layer-1" data-name="P">
</g>
<g id="Layer-1" data-name="P">
</g>
<g id="Layer-1" data-name="P">
</g>
<g id="Layer-1" data-name="P">
</g>
<g id="Layer-1" data-name="P">
</g>
<g id="Layer-1" data-name="P">
</g>
<g id="Layer-1" data-name="P">
</g>
<g id="Layer-1" data-name="P">
</g>
<g id="Layer-1" data-name="P">
</g>
<g id="Layer-1" data-name="P">
</g>
<g id="Layer-1" data-name="P">
</g>
<text xml:space="preserve" transform="matrix(1 0 -0 1 -55.1025 546.612)" font-size="9" font-family="TimesNewRomanPSMT"><tspan y="-306.72" x="265.98 271.083 276.53703 314.04 317.03703 322.56303 365.34004 413.69703 460.67704 506.57704 553.62008 600.6631 647.7601 694.8031">+Z -Z         </tspan><tspan y="-289.143" x="79.6261 84.603099 89.58009 96.0601 101.579799 107.58009 113.106098 165.4231 171.4261 175.44551 179.94551 182.46552 186.48583 188.9401 224.2201 271.2631 318.3061 365.3491 413.7061 460.6861 506.5861 553.6291 600.6721 647.7691 694.81216">SPHERE Radial            </tspan><tspan y="-274.743" x="79.63513 88.09513 93.61483 100.09483 106.57484 112.09813">WEDGE </tspan></text>
<text xml:space="preserve" transform="matrix(1 0 -0 1 -55.1025 546.612)" font-size="9" font-family="SymbolMT"><tspan y="-274.446" x="171.43512">&#x2212;</tspan></text>
<text xml:space="preserve" transform="matrix(1 0 -0 1 -55.1025 546.612)" font-size="9" font-family="TimesNewRomanPSMT"><tspan y="-274.446" x="176.35813 182.90113">Y </tspan></text>
<text xml:space="preserve" transform="matrix(1 0 -0 1 -55.1025 546.612)" font-size="9" font-family="SymbolMT"><tspan y="-274.446" x="211.58412">&#x2212;</tspan></text>
<text xml:space="preserve" transform="matrix(1 0 -0 1 -55.1025 546.612)" font-size="9" font-family="TimesNewRomanPSMT"><tspan y="-274.446" x="216.50713 222.98712 225.26412 230.36441 236.8444">X +Y </tspan><tspan y="-274.743" x="258.56413 263.6671 270.1471 272.4241 277.5271 283.94413 313.04115 318.14414 323.59815">+X +Y +Z </tspan></text>
<text xml:space="preserve" transform="matrix(1 0 -0 1 -55.1025 546.612)" font-size="9" font-family="SymbolMT"><tspan y="-274.446" x="360.13816">&#x2212;</tspan></text>
<text xml:space="preserve" transform="matrix(1 0 -0 1 -55.1025 546.612)" font-size="9" font-family="TimesNewRomanPSMT"><tspan y="-274.446" x="365.06117 370.57817">Z </tspan><tspan y="-274.743" x="413.71516 460.69517 506.59516 553.6382 600.6812 647.7782 694.8212">       </tspan><tspan y="-260.34303" x="79.644229 86.12423 92.12453 98.60453 104.12423 107.123928 113.60393 120.08393 125.60363 131.66423 165.44123 171.44423 175.46364 179.96364 182.48365 186.50395 188.95822 218.41522 223.51822 229.99822">XCYLINDER Radial +X </tspan></text>
<text xml:space="preserve" transform="matrix(1 0 -0 1 -55.1025 546.612)" font-size="9" font-family="SymbolMT"><tspan y="-260.04603" x="265.5212">&#x2212;</tspan></text>
<text xml:space="preserve" transform="matrix(1 0 -0 1 -55.1025 546.612)" font-size="9" font-family="TimesNewRomanPSMT"><tspan y="-260.04603" x="270.4442 276.9872">X </tspan><tspan y="-260.34303" x="318.32423 365.36723 413.7242 460.70423 506.60423 553.6472 600.69027 647.78726 694.83029">         </tspan><tspan y="-245.94303" x="79.65326 86.13326 91.11296 96.09356 101.61326 108.09326 114.573268 120.15326 171.39026 176.49326 182.97325">XPPLANE +X </tspan></text>
<text xml:space="preserve" transform="matrix(1 0 -0 1 -55.1025 546.612)" font-size="9" font-family="SymbolMT"><tspan y="-245.64603" x="218.49625">&#x2212;</tspan></text>
<text xml:space="preserve" transform="matrix(1 0 -0 1 -55.1025 546.612)" font-size="9" font-family="TimesNewRomanPSMT"><tspan y="-245.64603" x="223.41925 229.96225">X </tspan><tspan y="-245.94303" x="271.29927 318.34226 365.38526 413.74226 460.72227 506.62226 553.6653 600.7083 647.8053 694.8483">          </tspan><tspan y="-231.54303" x="79.671329 86.15133 92.15163 98.63163 104.15133 107.151027 113.63103 120.11103 125.63073 131.69133 165.46833 171.47133 175.49074 179.99074 182.51074 186.53105 188.98532 218.44232 223.54532 230.02532">YCYLINDER Radial +Y </tspan></text>
<text xml:space="preserve" transform="matrix(1 0 -0 1 -55.1025 546.612)" font-size="9" font-family="SymbolMT"><tspan y="-231.24604" x="265.5483">&#x2212;</tspan></text>
<text xml:space="preserve" transform="matrix(1 0 -0 1 -55.1025 546.612)" font-size="9" font-family="TimesNewRomanPSMT"><tspan y="-231.24604" x="270.4713 277.0143">Y </tspan><tspan y="-231.54303" x="318.35133 365.39433 413.7513 460.73133 506.63133 553.6743 600.71737 647.81436 694.85739">         </tspan><tspan y="-217.14304" x="79.68036 86.16036 91.14006 96.12066 101.64036 108.12036 114.600368 120.18036 171.41736 176.52036 183.00035">YPPLANE +Y </tspan></text>
<text xml:space="preserve" transform="matrix(1 0 -0 1 -55.1025 546.612)" font-size="9" font-family="SymbolMT"><tspan y="-216.84604" x="218.52335">&#x2212;</tspan></text>
<text xml:space="preserve" transform="matrix(1 0 -0 1 -55.1025 546.612)" font-size="9" font-family="TimesNewRomanPSMT"><tspan y="-216.84604" x="223.44635 229.98935">Y </tspan><tspan y="-217.14304" x="271.32637 318.36936 365.41236 413.76936 460.74937 506.64936 553.6924 600.7354 647.8324 694.8754">          </tspan><tspan y="-202.74304" x="79.698429 85.218128 91.21842 97.698429 103.218128 106.21783 112.69783 119.17783 124.69843 130.70142 165.50443 171.50743 175.52684 180.02684 182.54685 186.56716 189.02143 219.01842 224.12142 229.57543">ZCYLINDER Radial +Z </tspan></text>
<text xml:space="preserve" transform="matrix(1 0 -0 1 -55.1025 546.612)" font-size="9" font-family="SymbolMT"><tspan y="-202.44605" x="266.11543">&#x2212;</tspan></text>
<text xml:space="preserve" transform="matrix(1 0 -0 1 -55.1025 546.612)" font-size="9" font-family="TimesNewRomanPSMT"><tspan y="-202.44605" x="271.03843 276.55543">Z </tspan><tspan y="-202.74304" x="318.37843 365.42143 413.7784 460.75843 506.65843 553.7014 600.74447 647.84146 694.88449">         </tspan><tspan y="-188.34305" x="79.70746 85.22716 90.204158 95.18115 100.70085 107.181758 113.66176 119.19046 171.99347 177.09647 182.55048">ZPPLANE +Z </tspan></text>
<text xml:space="preserve" transform="matrix(1 0 -0 1 -55.1025 546.612)" font-size="9" font-family="SymbolMT"><tspan y="-188.04605" x="219.09049">&#x2212;</tspan></text>
<text xml:space="preserve" transform="matrix(1 0 -0 1 -55.1025 546.612)" font-size="9" font-family="TimesNewRomanPSMT"><tspan y="-188.04605" x="224.01349 229.53049">Z </tspan><tspan y="-188.34305" x="271.3535 318.39649 365.43949 413.79649 460.7765 506.67649 553.7195 600.7625 647.8595 694.9025">          </tspan></text>
<g id="Layer-1" data-name="P">
<clipPath id="cp19">
<path transform="matrix(1,0,0,-1,-55.1025,546.612)" d="M 73.62 161.4 L 718.32 161.4 L 718.32 179.76 L 73.62 179.76 Z "/>
</clipPath>
<g clip-path="url(#cp19)">
<text xml:space="preserve" transform="matrix(1 0 -0 1 -55.1025 546.612)" font-size="7.98" font-family="TimesNewRomanPSMT"><tspan y="-172.32" x="79.62 84.056888 88.07641 90.71699 93.416629 96.95975 100.50287 104.04599 107.16617 109.14521 111.784999 115.32812 118.027759 121.57088 124.21146 126.1905 128.40894 132.42847 134.4075 136.62595 140.70532 144.24845 146.22748 150.24701 152.88678">Surfaces refer to the pre</tspan></text>
</g>
<clipPath id="cp20">
<path transform="matrix(1,0,0,-1,-55.1025,546.612)" d="M 73.62 161.4 L 718.32 161.4 L 718.32 179.76 L 73.62 179.76 Z "/>
</clipPath>
<g clip-path="url(#cp20)">
<text xml:space="preserve" transform="matrix(1 0 -0 1 -55.1025 546.612)" font-size="7.98" font-family="TimesNewRomanPSMT"><tspan y="-172.32" x="156.42">-</tspan></text>
</g>
<clipPath id="cp21">
<path transform="matrix(1,0,0,-1,-55.1025,546.612)" d="M 73.62 161.4 L 718.32 161.4 L 718.32 179.76 L 73.62 179.76 Z "/>
</clipPath>
<g clip-path="url(#cp21)">
<text xml:space="preserve" transform="matrix(1 0 -0 1 -55.1025 546.612)" font-size="7.98" font-family="TimesNewRomanPSMT"><tspan y="-172.32" x="159.12 161.75977 165.78009 167.99854 171.54166 173.7601 175.97855 179.99808 184.0184 185.99744 189.11762 193.13794 195.77771 198.47734 202.02046 205.56359 209.1067 211.08574 215.10527 217.8057 219.78473 222.00318 226.0235 229.56662 231.54566 235.56598 239.58551 243.60584 247.56552 249.54456 251.763 255.78333 259.32646 261.5449 263.52394 267.54426 271.08738 274.6305 278.65003 281.29063 284.41 286.38905 288.60749 292.627 294.60606 296.8245 300.84483 304.38795 306.36698 308.58543 312.60575 316.62528 318.84373 322.38685 325.92997 328.1484 331.69154 335.71186 337.6909 341.7112 345.73155 349.27467 353.2942 355.934 359.4771 363.49665 365.7151">rotation surface of the body that occurs in the indicated quadrant.</tspan></text>
</g>
<clipPath id="cp22">
<path transform="matrix(1,0,0,-1,-55.1025,546.612)" d="M 73.62 161.4 L 718.32 161.4 L 718.32 179.76 L 73.62 179.76 Z "/>
</clipPath>
<g clip-path="url(#cp22)">
<text xml:space="preserve" transform="matrix(1 0 -0 1 -55.1025 546.612)" font-size="7.98" font-family="TimesNewRomanPSMT"><tspan y="-172.32" x="367.68"> </tspan></text>
</g>
<g id="Layer-1" data-name="P">
</g>
<clipPath id="cp23">
<path transform="matrix(1,0,0,-1,-55.1025,546.612)" d="M 73.62 161.4 L 718.32 161.4 L 718.32 179.76 L 73.62 179.76 Z "/>
</clipPath>
<g clip-path="url(#cp23)">
<text xml:space="preserve" transform="matrix(1 0 -0 1 -55.1025 546.612)" font-size="7.98" font-family="TimesNewRomanPSMT"><tspan y="-163.14" x="79.62 84.96022 88.50334 91.20298 94.7461 97.38668 99.36572 101.58416 105.60368 107.582729 112.01961 114.238048 118.25757 121.37775 123.35679 127.37711 129.35616 131.5746 135.59413 138.29456 142.31409 146.33441 150.35474 154.37427 156.3533 160.31378 164.33332 166.31235 168.53079 172.55033 174.52936 180.29093 184.31125 188.33158 191.8747 195.83438 199.8547 202.07315 206.09348 208.07251 213.41274 215.39177 218.0922 222.11173 224.7523 226.73134 228.94979 231.16823 233.38668 237.4062 240.52639 242.74483 245.3846 248.92772 251.14617 253.36461 257.38496 261.40449 264.52467 266.5037 270.52403 273.22367 275.2027 278.74583 282.28895 285.83207">Refer to Figs 1 through 22 in Appendix B for illustrations of each</tspan></text>
</g>
<clipPath id="cp24">
<path transform="matrix(1,0,0,-1,-55.1025,546.612)" d="M 73.62 161.4 L 718.32 161.4 L 718.32 179.76 L 73.62 179.76 Z "/>
</clipPath>
<g clip-path="url(#cp24)">
<text xml:space="preserve" transform="matrix(1 0 -0 1 -55.1025 546.612)" font-size="7.98" font-family="TimesNewRomanPSMT"><tspan y="-163.14" x="289.86"> </tspan></text>
</g>
<clipPath id="cp25">
<path transform="matrix(1,0,0,-1,-55.1025,546.612)" d="M 73.62 161.4 L 718.32 161.4 L 718.32 179.76 L 73.62 179.76 Z "/>
</clipPath>
<g clip-path="url(#cp25)">
<text xml:space="preserve" transform="matrix(1 0 -0 1 -55.1025 546.612)" font-size="7.98" font-family="TimesNewRomanPSMT"><tspan y="-163.14" x="291.84 295.8619 299.40184 303.482 309.542 313.14179 315.36183 318.00163 321.9621 323.94114 327.96305 331.98497 336.00688 339.96653">geometry body.</tspan></text>
</g>
<clipPath id="cp26">
<path transform="matrix(1,0,0,-1,-55.1025,546.612)" d="M 73.62 161.4 L 718.32 161.4 L 718.32 179.76 L 73.62 179.76 Z "/>
</clipPath>
<g clip-path="url(#cp26)">
<text xml:space="preserve" transform="matrix(1 0 -0 1 -55.1025 546.612)" font-size="7.98" font-family="TimesNewRomanPSMT"><tspan y="-163.14" x="342"> </tspan></text>
</g>
<g id="Layer-1" data-name="Artifact">
</g>
<path transform="matrix(1,0,0,-1,-55.1025,546.612)" d="M 73.62 183.42 L 153.6 183.42 L 153.6 184.38 L 73.62 184.38 Z "/>
<path transform="matrix(1,0,0,-1,-55.1025,546.612)" d="M 153.6 183.42 L 154.559 183.42 L 154.559 184.38 L 153.6 184.38 Z "/>
<path transform="matrix(1,0,0,-1,-55.1025,546.612)" d="M 154.56 183.42 L 200.7 183.42 L 200.7 184.38 L 154.56 184.38 Z "/>
<path transform="matrix(1,0,0,-1,-55.1025,546.612)" d="M 200.7 183.42 L 201.66 183.42 L 201.66 184.38 L 200.7 184.38 Z "/>
<path transform="matrix(1,0,0,-1,-55.1025,546.612)" d="M 201.66 183.42 L 247.74 183.42 L 247.74 184.38 L 201.66 184.38 Z "/>
<path transform="matrix(1,0,0,-1,-55.1025,546.612)" d="M 247.74 183.42 L 248.699 183.42 L 248.699 184.38 L 247.74 184.38 Z "/>
<path transform="matrix(1,0,0,-1,-55.1025,546.612)" d="M 248.7 183.42 L 294.78 183.42 L 294.78 184.38 L 248.7 184.38 Z "/>
<path transform="matrix(1,0,0,-1,-55.1025,546.612)" d="M 294.78 183.42 L 295.74 183.42 L 295.74 184.38 L 294.78 184.38 Z "/>
<path transform="matrix(1,0,0,-1,-55.1025,546.612)" d="M 295.74 183.42 L 341.82 183.42 L 341.82 184.38 L 295.74 184.38 Z "/>
<path transform="matrix(1,0,0,-1,-55.1025,546.612)" d="M 341.82 183.42 L 342.78 183.42 L 342.78 184.38 L 341.82 184.38 Z "/>
<path transform="matrix(1,0,0,-1,-55.1025,546.612)" d="M 342.78 183.42 L 388.86 183.42 L 388.86 184.38 L 342.78 184.38 Z "/>
<path transform="matrix(1,0,0,-1,-55.1025,546.612)" d="M 388.86 183.42 L 389.819 183.42 L 389.819 184.38 L 388.86 184.38 Z "/>
<path transform="matrix(1,0,0,-1,-55.1025,546.612)" d="M 389.82 183.42 L 438.42 183.42 L 438.42 184.38 L 389.82 184.38 Z "/>
<path transform="matrix(1,0,0,-1,-55.1025,546.612)" d="M 438.42 183.42 L 439.38 183.42 L 439.38 184.38 L 438.42 184.38 Z "/>
<path transform="matrix(1,0,0,-1,-55.1025,546.612)" d="M 439.38 183.42 L 483 183.42 L 483 184.38 L 439.38 184.38 Z "/>
<path transform="matrix(1,0,0,-1,-55.1025,546.612)" d="M 483 183.42 L 483.959 183.42 L 483.959 184.38 L 483 184.38 Z "/>
<path transform="matrix(1,0,0,-1,-55.1025,546.612)" d="M 483.96 183.42 L 530.1 183.42 L 530.1 184.38 L 483.96 184.38 Z "/>
<path transform="matrix(1,0,0,-1,-55.1025,546.612)" d="M 530.1 183.42 L 531.06 183.42 L 531.06 184.38 L 530.1 184.38 Z "/>
<path transform="matrix(1,0,0,-1,-55.1025,546.612)" d="M 531.06 183.42 L 577.14 183.42 L 577.14 184.38 L 531.06 184.38 Z "/>
<path transform="matrix(1,0,0,-1,-55.1025,546.612)" d="M 577.14 183.42 L 578.099 183.42 L 578.099 184.38 L 577.14 184.38 Z "/>
<path transform="matrix(1,0,0,-1,-55.1025,546.612)" d="M 578.1 183.42 L 624.24 183.42 L 624.24 184.38 L 578.1 184.38 Z "/>
<path transform="matrix(1,0,0,-1,-55.1025,546.612)" d="M 624.24 183.42 L 625.2 183.42 L 625.2 184.38 L 624.24 184.38 Z "/>
<path transform="matrix(1,0,0,-1,-55.1025,546.612)" d="M 625.2 183.42 L 671.28 183.42 L 671.28 184.38 L 625.2 184.38 Z "/>
<path transform="matrix(1,0,0,-1,-55.1025,546.612)" d="M 671.28 183.42 L 672.239 183.42 L 672.239 184.38 L 671.28 184.38 Z "/>
<path transform="matrix(1,0,0,-1,-55.1025,546.612)" d="M 672.24 183.42 L 718.32 183.42 L 718.32 184.38 L 672.24 184.38 Z "/>
</g>
<g id="Layer-1" data-name="P">
</g>
<text xml:space="preserve" transform="matrix(1 0 -0 1 -55.1025 546.612)" font-size="10.98" font-family="TimesNewRomanPSMT"><tspan y="-151.14" x="72"> </tspan></text>
</g>
</svg>
