<svg version="1.1" viewBox="0.0 0.0 537.0 507.0" fill="none" stroke="none" stroke-linecap="square" stroke-miterlimit="10" xmlns:xlink="http://www.w3.org/1999/xlink" xmlns="http://www.w3.org/2000/svg"><clipPath id="p.0"><path d="m0 0l537.0 0l0 507.0l-537.0 0l0 -507.0z" clip-rule="nonzero"/></clipPath><g clip-path="url(#p.0)"><path fill="#000000" fill-opacity="0.0" d="m0 0l537.0 0l0 507.0l-537.0 0z" fill-rule="evenodd"/><path stroke="#000000" stroke-width="1.3280839895013123" stroke-linecap="butt" d="m79.0 81.72966l0 427.09973" fill-rule="nonzero"/><path stroke="#000000" stroke-width="1.3280839895013123" stroke-linecap="butt" d="m122.0 40.53281l0 468.2966" fill-rule="nonzero"/><path stroke="#000000" stroke-width="1.3280839895013123" stroke-linecap="butt" d="m163.0 81.72966l0 427.09973" fill-rule="nonzero"/><path stroke="#000000" stroke-width="1.3280839895013123" stroke-linecap="butt" d="m205.0 81.72966l0 427.09973" fill-rule="nonzero"/><path stroke="#000000" stroke-width="1.3280839895013123" stroke-linecap="butt" d="m251.0 81.72966l0 427.09973" fill-rule="nonzero"/><path stroke="#000000" stroke-width="1.3280839895013123" stroke-linecap="butt" d="m297.0 81.72966l0 427.09973" fill-rule="nonzero"/><path stroke="#000000" stroke-width="1.3280839895013123" stroke-linecap="butt" d="m343.0 81.72966l0 427.09973" fill-rule="nonzero"/><path stroke="#000000" stroke-width="1.3280839895013123" stroke-linecap="butt" d="m394.0 81.72966l0 427.09973" fill-rule="nonzero"/><path stroke="#000000" stroke-width="1.3280839895013123" stroke-linecap="butt" d="m445.0 81.72966l0 427.09973" fill-rule="nonzero"/><path stroke="#000000" stroke-width="1.3280839895013123" stroke-linecap="butt" d="m491.0 81.72966l0 427.09973" fill-rule="nonzero"/><path stroke="#000000" stroke-width="1.3280839895013123" stroke-linecap="butt" d="m-0.49868765 0l537.9973 0" fill-rule="nonzero"/><path stroke="#000000" stroke-width="1.3280839895013123" stroke-linecap="butt" d="m-0.49868765 41.19685l537.9973 0" fill-rule="nonzero"/><path stroke="#000000" stroke-width="1.3280839895013123" stroke-linecap="butt" d="m-0.49868765 82.3937l537.9973 0" fill-rule="nonzero"/><path stroke="#000000" stroke-width="1.3280839895013123" stroke-linecap="butt" d="m-0.49868765 146.59055l537.9973 0" fill-rule="nonzero"/><path stroke="#000000" stroke-width="1.3280839895013123" stroke-linecap="butt" d="m-0.49868765 191.7874l537.9973 0" fill-rule="nonzero"/><path stroke="#000000" stroke-width="1.3280839895013123" stroke-linecap="butt" d="m-0.49868765 236.98425l537.9973 0" fill-rule="nonzero"/><path stroke="#000000" stroke-width="1.3280839895013123" stroke-linecap="butt" d="m-0.49868765 282.1811l537.9973 0" fill-rule="nonzero"/><path stroke="#000000" stroke-width="1.3280839895013123" stroke-linecap="butt" d="m-0.49868765 327.37796l537.9973 0" fill-rule="nonzero"/><path stroke="#000000" stroke-width="1.3280839895013123" stroke-linecap="butt" d="m-0.49868765 372.5748l537.9973 0" fill-rule="nonzero"/><path stroke="#000000" stroke-width="1.3280839895013123" stroke-linecap="butt" d="m-0.49868765 417.77167l537.9973 0" fill-rule="nonzero"/><path stroke="#000000" stroke-width="1.3280839895013123" stroke-linecap="butt" d="m-0.49868765 462.9685l537.9973 0" fill-rule="nonzero"/><path stroke="#000000" stroke-width="1.3280839895013123" stroke-linecap="butt" d="m-0.49868765 508.16534l537.9973 0" fill-rule="nonzero"/><path fill="#000000" d="m21.021606 106.43328l-0.34375 3.09375l-7.828125 0l0 -0.234375l0.296875 0q0.375 0 0.609375 -0.140625q0.171875 -0.09375 0.265625 -0.3125q0.0625 -0.15625 0.0625 -0.828125l0 -5.796875q0 -0.671875 -0.078125 -0.84375q-0.0625 -0.171875 -0.28125 -0.296875q-0.21875 -0.125 -0.578125 -0.125l-0.296875 0l0 -0.25l4.703125 0l0 0.25l-0.390625 0q-0.375 0 -0.609375 0.125q-0.171875 0.09375 -0.265625 0.3125q-0.078125 0.15625 -0.078125 0.828125l0 5.625q0 0.671875 0.078125 0.859375q0.078125 0.1875 0.3125 0.28125q0.15625 0.046875 0.78125 0.046875l0.734375 0q0.703125 0 1.171875 -0.234375q0.46875 -0.25 0.8125 -0.78125q0.34375 -0.546875 0.640625 -1.578125l0.28125 0zm6.0772552 -0.171875l-3.34375 0q0.0625 1.21875 0.640625 1.921875q0.453125 0.53125 1.078125 0.53125q0.390625 0 0.703125 -0.21875q0.328125 -0.21875 0.6875 -0.78125l0.234375 0.140625q-0.5 1.015625 -1.109375 1.4375q-0.59375 0.421875 -1.375 0.421875q-1.359375 0 -2.046875 -1.046875q-0.5625 -0.84375 -0.5625 -2.078125q0 -1.53125 0.8125 -2.421875q0.828125 -0.90625 1.9375 -0.90625q0.921875 0 1.59375 0.765625q0.6875 0.75 0.75 2.234375zm-1.609375 -0.4375q0 -1.046875 -0.109375 -1.4375q-0.109375 -0.390625 -0.359375 -0.59375q-0.140625 -0.109375 -0.359375 -0.109375q-0.34375 0 -0.5625 0.328125q-0.375 0.578125 -0.375 1.59375l0 0.21875l1.765625 0zm6.2750397 -2.3125l2.046875 0l0 0.71875l-1.171875 0q0.328125 0.3125 0.453125 0.578125q0.15625 0.359375 0.15625 0.734375q0 0.65625 -0.375 1.140625q-0.359375 0.46875 -0.984375 0.75q-0.609375 0.265625 -1.09375 0.265625q-0.046875 0 -0.78125 -0.046875q-0.296875 0 -0.5 0.203125q-0.1875 0.1875 -0.1875 0.453125q0 0.234375 0.171875 0.390625q0.1875 0.140625 0.59375 0.140625l1.125 -0.015625q1.359375 0 1.875 0.3125q0.734375 0.40625 0.734375 1.28125q0 0.546875 -0.34375 1.0q-0.328125 0.453125 -0.890625 0.671875q-0.828125 0.3125 -1.921875 0.3125q-0.828125 0 -1.5 -0.15625q-0.671875 -0.15625 -0.96875 -0.453125q-0.296875 -0.28125 -0.296875 -0.59375q0 -0.296875 0.21875 -0.53125q0.234375 -0.234375 0.84375 -0.40625q-0.84375 -0.40625 -0.84375 -1.15625q0 -0.4375 0.34375 -0.859375q0.34375 -0.4375 1.09375 -0.75q-0.875 -0.3125 -1.265625 -0.828125q-0.390625 -0.53125 -0.390625 -1.203125q0 -0.890625 0.71875 -1.546875q0.734375 -0.65625 1.890625 -0.65625q0.59375 0 1.25 0.25zm-1.125 0.15625q-0.390625 0 -0.65625 0.375q-0.25 0.375 -0.25 1.578125q0 0.96875 0.25 1.328125q0.265625 0.359375 0.625 0.359375q0.375 0 0.640625 -0.34375q0.265625 -0.359375 0.265625 -1.40625q0 -1.15625 -0.296875 -1.578125q-0.203125 -0.3125 -0.578125 -0.3125zm-0.390625 6.75q-0.65625 0 -0.875 0.125q-0.375 0.1875 -0.375 0.546875q0 0.328125 0.375 0.59375q0.390625 0.265625 1.453125 0.265625q0.90625 0 1.421875 -0.234375q0.515625 -0.234375 0.515625 -0.671875q0 -0.171875 -0.09375 -0.28125q-0.171875 -0.1875 -0.53125 -0.265625q-0.359375 -0.078125 -1.890625 -0.078125zm9.4296875 -4.15625l-3.34375 0q0.0625 1.21875 0.640625 1.921875q0.453125 0.53125 1.078125 0.53125q0.390625 0 0.703125 -0.21875q0.328125 -0.21875 0.6875 -0.78125l0.234375 0.140625q-0.5 1.015625 -1.109375 1.4375q-0.59375 0.421875 -1.375 0.421875q-1.359375 0 -2.046875 -1.046875q-0.5625 -0.84375 -0.5625 -2.078125q0 -1.53125 0.8125 -2.421875q0.828125 -0.90625 1.9375 -0.90625q0.921875 0 1.59375 0.765625q0.6875 0.75 0.75 2.234375zm-1.609375 -0.4375q0 -1.046875 -0.109375 -1.4375q-0.109375 -0.390625 -0.359375 -0.59375q-0.140625 -0.109375 -0.359375 -0.109375q-0.34375 0 -0.5625 0.328125q-0.375 0.578125 -0.375 1.59375l0 0.21875l1.765625 0zm4.8531647 -2.375l0 0.78125q0.46875 -0.515625 0.890625 -0.734375q0.4375 -0.234375 0.921875 -0.234375q0.59375 0 0.984375 0.328125q0.390625 0.328125 0.53125 0.8125q0.09375 0.375 0.09375 1.421875l0 2.375q0 0.703125 0.125 0.875q0.140625 0.171875 0.53125 0.21875l0 0.234375l-3.078125 0l0 -0.234375q0.34375 -0.046875 0.5 -0.28125q0.109375 -0.171875 0.109375 -0.8125l0 -2.703125q0 -0.75 -0.0625 -0.9375q-0.0625 -0.203125 -0.203125 -0.3125q-0.140625 -0.109375 -0.3125 -0.109375q-0.546875 0 -1.03125 0.796875l0 3.265625q0 0.6875 0.125 0.875q0.125 0.171875 0.46875 0.21875l0 0.234375l-3.078125 0l0 -0.234375q0.390625 -0.03125 0.546875 -0.25q0.109375 -0.140625 0.109375 -0.84375l0 -3.4375q0 -0.6875 -0.125 -0.859375q-0.125 -0.171875 -0.53125 -0.21875l0 -0.234375l2.484375 0zm10.834351 -2.75l0 7.0q0 0.71875 0.046875 0.84375q0.046875 0.21875 0.1875 0.328125q0.15625 0.09375 0.515625 0.125l0 0.21875l-2.5625 0.5l0 -0.96875q-0.46875 0.5625 -0.828125 0.765625q-0.359375 0.203125 -0.8125 0.203125q-1.171875 0 -1.84375 -1.046875q-0.546875 -0.84375 -0.546875 -2.078125q0 -0.984375 0.328125 -1.75q0.34375 -0.78125 0.9375 -1.171875q0.59375 -0.40625 1.265625 -0.40625q0.4375 0 0.765625 0.171875q0.34375 0.171875 0.734375 0.59375l0 -1.84375q0 -0.6875 -0.0625 -0.84375q-0.078125 -0.1875 -0.234375 -0.265625q-0.15625 -0.09375 -0.59375 -0.09375l0 -0.28125l2.703125 0zm-1.8125 4.125q-0.484375 -0.921875 -1.1875 -0.921875q-0.234375 0 -0.390625 0.125q-0.234375 0.203125 -0.390625 0.71875q-0.15625 0.5 -0.15625 1.546875q0 1.15625 0.171875 1.71875q0.171875 0.546875 0.453125 0.796875q0.15625 0.125 0.421875 0.125q0.5625 0 1.078125 -0.90625l0 -3.203125zm5.8343506 -1.375l0 1.375q0.609375 -0.953125 1.0625 -1.25q0.453125 -0.3125 0.875 -0.3125q0.375 0 0.59375 0.234375q0.21875 0.21875 0.21875 0.625q0 0.4375 -0.21875 0.6875q-0.203125 0.234375 -0.515625 0.234375q-0.34375 0 -0.59375 -0.21875q-0.25 -0.234375 -0.296875 -0.25q-0.0625 -0.046875 -0.15625 -0.046875q-0.1875 0 -0.359375 0.140625q-0.265625 0.21875 -0.390625 0.640625q-0.21875 0.625 -0.21875 1.390625l0 1.390625l0.015625 0.375q0 0.359375 0.046875 0.46875q0.078125 0.171875 0.21875 0.265625q0.15625 0.078125 0.53125 0.09375l0 0.234375l-3.296875 0l0 -0.234375q0.40625 -0.03125 0.546875 -0.21875q0.140625 -0.1875 0.140625 -0.984375l0 -3.359375q0 -0.515625 -0.0625 -0.65625q-0.0625 -0.1875 -0.1875 -0.265625q-0.125 -0.09375 -0.4375 -0.125l0 -0.234375l2.484375 0zm8.315399 2.8125l-3.34375 0q0.0625 1.21875 0.640625 1.921875q0.453125 0.53125 1.078125 0.53125q0.390625 0 0.703125 -0.21875q0.328125 -0.21875 0.6875 -0.78125l0.234375 0.140625q-0.5 1.015625 -1.109375 1.4375q-0.59375 0.421875 -1.375 0.421875q-1.359375 0 -2.046875 -1.046875q-0.5625 -0.84375 -0.5625 -2.078125q0 -1.53125 0.8125 -2.421875q0.828125 -0.90625 1.9375 -0.90625q0.921875 0 1.59375 0.765625q0.6875 0.75 0.75 2.234375zm-1.609375 -0.4375q0 -1.046875 -0.109375 -1.4375q-0.109375 -0.390625 -0.359375 -0.59375q-0.140625 -0.109375 -0.359375 -0.109375q-0.34375 0 -0.5625 0.328125q-0.375 0.578125 -0.375 1.59375l0 0.21875l1.765625 0z" fill-rule="nonzero"/><path fill="#000000" d="m18.41777 121.92808q0.796875 0 1.484375 0.40625q0.6875 0.40625 1.03125 1.171875q0.359375 0.75 0.359375 1.640625q0 1.296875 -0.65625 2.171875q-0.796875 1.0624924 -2.1875 1.0624924q-1.375 0 -2.125 -0.9687424q-0.734375 -0.96875 -0.734375 -2.234375q0 -1.3125 0.75 -2.28125q0.765625 -0.96875 2.078125 -0.96875zm0.03125 0.453125q-0.328125 0 -0.578125 0.265625q-0.234375 0.25 -0.3125 0.984375q-0.0625 0.734375 -0.0625 2.046875q0 0.703125 0.09375 1.3125q0.0625 0.453125 0.296875 0.703125q0.234375 0.234375 0.53125 0.234375q0.296875 0 0.5 -0.15625q0.25 -0.234375 0.328125 -0.625q0.140625 -0.625 0.140625 -2.5q0 -1.109375 -0.125 -1.515625q-0.125 -0.421875 -0.375 -0.609375q-0.15625 -0.140625 -0.4375 -0.140625zm6.2890625 -0.265625l0 1.375q0.609375 -0.953125 1.0625 -1.25q0.453125 -0.3125 0.875 -0.3125q0.375 0 0.59375 0.234375q0.21875 0.21875 0.21875 0.625q0 0.4375 -0.21875 0.6875q-0.203125 0.234375 -0.515625 0.234375q-0.34375 0 -0.59375 -0.21875q-0.25 -0.234375 -0.296875 -0.25q-0.0625 -0.046875 -0.15625 -0.046875q-0.1875 0 -0.359375 0.140625q-0.265625 0.21875 -0.390625 0.640625q-0.21875 0.625 -0.21875 1.390625l0 1.390625l0.015625 0.375q0 0.359375 0.046875 0.46875q0.078125 0.171875 0.21875 0.265625q0.15625 0.078125 0.53125 0.09375l0 0.23436737l-3.296875 0l0 -0.23436737q0.40625 -0.03125 0.546875 -0.21875q0.140625 -0.1875 0.140625 -0.984375l0 -3.359375q0 -0.515625 -0.0625 -0.65625q-0.0625 -0.1875 -0.1875 -0.265625q-0.125 -0.09375 -0.4375 -0.125l0 -0.234375l2.484375 0zm9.30629 -2.75l0 7.0q0 0.71875 0.046875 0.84375q0.046875 0.21875 0.1875 0.328125q0.15625 0.09375 0.515625 0.125l0 0.21875l-2.5625 0.49999237l0 -0.9687424q-0.46875 0.5625 -0.828125 0.7656174q-0.359375 0.203125 -0.8125 0.203125q-1.171875 0 -1.84375 -1.0468674q-0.546875 -0.84375 -0.546875 -2.078125q0 -0.984375 0.328125 -1.75q0.34375 -0.78125 0.9375 -1.171875q0.59375 -0.40625 1.265625 -0.40625q0.4375 0 0.765625 0.171875q0.34375 0.171875 0.734375 0.59375l0 -1.84375q0 -0.6875 -0.0625 -0.84375q-0.078125 -0.1875 -0.234375 -0.265625q-0.15625 -0.09375 -0.59375 -0.09375l0 -0.28125l2.703125 0zm-1.8125 4.125q-0.484375 -0.921875 -1.1875 -0.921875q-0.234375 0 -0.390625 0.125q-0.234375 0.203125 -0.390625 0.71875q-0.15625 0.5 -0.15625 1.546875q0 1.15625 0.171875 1.71875q0.171875 0.546875 0.453125 0.796875q0.15625 0.125 0.421875 0.125q0.5625 0 1.078125 -0.90625l0 -3.203125zm8.474976 1.4375l-3.34375 0q0.0625 1.21875 0.640625 1.921875q0.453125 0.53125 1.078125 0.53125q0.390625 0 0.703125 -0.21875q0.328125 -0.21875 0.6875 -0.78125l0.234375 0.140625q-0.5 1.015625 -1.109375 1.4375q-0.59375 0.42186737 -1.375 0.42186737q-1.359375 0 -2.046875 -1.0468674q-0.5625 -0.84375 -0.5625 -2.078125q0 -1.53125 0.8125 -2.421875q0.828125 -0.90625 1.9375 -0.90625q0.921875 0 1.59375 0.765625q0.6875 0.75 0.75 2.234375zm-1.609375 -0.4375q0 -1.046875 -0.109375 -1.4375q-0.109375 -0.390625 -0.359375 -0.59375q-0.140625 -0.109375 -0.359375 -0.109375q-0.34375 0 -0.5625 0.328125q-0.375 0.578125 -0.375 1.59375l0 0.21875l1.765625 0zm4.8844147 -2.375l0 1.375q0.609375 -0.953125 1.0625 -1.25q0.453125 -0.3125 0.875 -0.3125q0.375 0 0.59375 0.234375q0.21875 0.21875 0.21875 0.625q0 0.4375 -0.21875 0.6875q-0.203125 0.234375 -0.515625 0.234375q-0.34375 0 -0.59375 -0.21875q-0.25 -0.234375 -0.296875 -0.25q-0.0625 -0.046875 -0.15625 -0.046875q-0.1875 0 -0.359375 0.140625q-0.265625 0.21875 -0.390625 0.640625q-0.21875 0.625 -0.21875 1.390625l0 1.390625l0.015625 0.375q0 0.359375 0.046875 0.46875q0.078125 0.171875 0.21875 0.265625q0.15625 0.078125 0.53125 0.09375l0 0.23436737l-3.296875 0l0 -0.23436737q0.40625 -0.03125 0.546875 -0.21875q0.140625 -0.1875 0.140625 -0.984375l0 -3.359375q0 -0.515625 -0.0625 -0.65625q-0.0625 -0.1875 -0.1875 -0.265625q-0.125 -0.09375 -0.4375 -0.125l0 -0.234375l2.484375 0zm10.319305 -2.953125l0 0.296875q-0.671875 0.453125 -1.0 0.875q-0.4375 0.578125 -0.6875 1.5q-0.3125 1.140625 -0.3125 3.1875q0 1.921875 0.28125 2.9999924q0.28125 1.0625 0.78125 1.71875q0.328125 0.453125 0.9375 0.796875l0 0.328125q-1.5625 -0.53125 -2.65625 -2.15625q-1.09375 -1.6249924 -1.09375 -3.7343674q0 -2.078125 1.078125 -3.671875q1.09375 -1.609375 2.671875 -2.140625zm0.32899475 6.875l0.875 -0.953125l0 -3.15625q0 -1.578125 0.59375 -2.171875q0.609375 -0.59375 1.3125 -0.59375q0.65625 0 1.0625 0.40625q0.40625 0.390625 0.40625 1.015625q0 0.640625 -0.328125 1.328125q-0.234375 0.53125 -1.28125 1.796875l0 2.4375q0 0.84375 0.1875 1.109375q0.203125 0.265625 0.5 0.265625q0.28125 0 0.546875 -0.265625q0.265625 -0.265625 0.40625 -0.921875l0.328125 0q-0.21875 1.078125 -0.75 1.5625q-0.53125 0.48436737 -1.265625 0.48436737q-0.734375 0 -1.234375 -0.5312424q-0.484375 -0.53125 -0.484375 -1.53125l0 -0.734375l-0.640625 0.671875l-0.234375 -0.21875zm2.640625 -2.796875q1.234375 -1.4375 1.234375 -2.546875q0 -0.484375 -0.15625 -0.671875q-0.15625 -0.203125 -0.375 -0.203125q-0.28125 0 -0.46875 0.296875q-0.234375 0.375 -0.234375 1.59375l0 1.53125zm2.3417969 7.6249924l0 -0.296875q0.6875 -0.453125 1.0 -0.875q0.4375 -0.59375 0.6875 -1.5q0.3125 -1.1406174 0.3125 -3.1874924q0 -1.921875 -0.28125 -2.984375q-0.28125 -1.078125 -0.765625 -1.734375q-0.34375 -0.453125 -0.953125 -0.796875l0 -0.328125q1.578125 0.53125 2.65625 2.15625q1.09375 1.625 1.09375 3.734375q0 2.078125 -1.09375 3.6718674q-1.078125 1.609375 -2.65625 2.140625z" fill-rule="nonzero"/><path fill="#000000" d="m93.39001 95.36558l2.390625 0l5.390625 6.625l0 -5.09375q0 -0.8125 -0.171875 -1.015625q-0.25 -0.265625 -0.765625 -0.265625l-0.3125 0l0 -0.25l3.078125 0l0 0.25l-0.3125 0q-0.5625 0 -0.796875 0.328125q-0.140625 0.21875 -0.140625 0.953125l0 7.4375l-0.234375 0l-5.8125 -7.109375l0 5.4375q0 0.8125 0.171875 1.015625q0.25 0.28125 0.765625 0.28125l0.3125 0l0 0.234375l-3.078125 0l0 -0.234375l0.3125 0q0.5625 0 0.796875 -0.34375q0.140625 -0.203125 0.140625 -0.953125l0 -6.140625q-0.390625 -0.4375 -0.59375 -0.578125q-0.1875 -0.15625 -0.578125 -0.28125q-0.1875 -0.046875 -0.5625 -0.046875l0 -0.25z" fill-rule="nonzero"/><path fill="#000000" d="m103.624535 107.8187l0.828125 -0.84375l0 -2.078125q0 -0.859375 0.34375 -1.28125q0.359375 -0.4375 0.890625 -0.4375q0.390625 0 0.625 0.234375q0.234375 0.234375 0.234375 0.609375q0 0.4375 -0.28125 0.96875q-0.265625 0.515625 -1.140625 1.5l0 1.421875q0 0.65625 0.203125 0.90625q0.203125 0.234375 0.53125 0.234375q0.296875 0 0.5625 -0.234375q0.28125 -0.25 0.484375 -0.875l0.15625 0q-0.171875 0.6875 -0.609375 1.078125q-0.3125 0.296875 -0.78125 0.296875q-0.375 0 -0.6875 -0.203125q-0.296875 -0.21875 -0.4375 -0.5625q-0.09375 -0.265625 -0.09375 -0.921875l0 -0.421875l-0.734375 0.703125l-0.09375 -0.09375zm1.5 -1.578125q1.1875 -1.296875 1.1875 -2.0625q0 -0.359375 -0.171875 -0.546875q-0.171875 -0.203125 -0.421875 -0.203125q-0.25 0 -0.421875 0.25q-0.171875 0.234375 -0.171875 0.921875l0 1.640625z" fill-rule="nonzero"/><path fill="#000000" d="m137.65248 99.3187q0.65625 -0.640625 0.765625 -0.734375q0.296875 -0.25 0.625 -0.390625q0.34375 -0.140625 0.671875 -0.140625q0.5625 0 0.96875 0.328125q0.40625 0.328125 0.546875 0.9375q0.671875 -0.78125 1.125 -1.015625q0.46875 -0.25 0.953125 -0.25q0.46875 0 0.828125 0.25q0.375 0.234375 0.59375 0.796875q0.140625 0.375 0.140625 1.1875l0 2.5625q0 0.5625 0.09375 0.765625q0.0625 0.140625 0.234375 0.25q0.171875 0.09375 0.578125 0.09375l0 0.234375l-2.953125 0l0 -0.234375l0.125 0q0.390625 0 0.609375 -0.15625q0.140625 -0.09375 0.203125 -0.328125q0.03125 -0.109375 0.03125 -0.625l0 -2.5625q0 -0.734375 -0.171875 -1.03125q-0.25 -0.421875 -0.8125 -0.421875q-0.34375 0 -0.703125 0.171875q-0.34375 0.171875 -0.828125 0.640625l-0.015625 0.078125l0.015625 0.28125l0 2.84375q0 0.609375 0.0625 0.765625q0.0625 0.140625 0.25 0.25q0.1875 0.09375 0.65625 0.09375l0 0.234375l-3.015625 0l0 -0.234375q0.484375 0 0.671875 -0.109375q0.1875 -0.125 0.265625 -0.359375q0.03125 -0.109375 0.03125 -0.640625l0 -2.5625q0 -0.734375 -0.21875 -1.046875q-0.28125 -0.421875 -0.796875 -0.421875q-0.359375 0 -0.703125 0.1875q-0.53125 0.28125 -0.828125 0.640625l0 3.203125q0 0.578125 0.078125 0.765625q0.078125 0.171875 0.234375 0.265625q0.171875 0.078125 0.65625 0.078125l0 0.234375l-2.953125 0l0 -0.234375q0.421875 0 0.578125 -0.078125q0.15625 -0.09375 0.234375 -0.28125q0.09375 -0.203125 0.09375 -0.75l0 -2.28125q0 -0.984375 -0.0625 -1.265625q-0.03125 -0.21875 -0.140625 -0.296875q-0.09375 -0.078125 -0.265625 -0.078125q-0.171875 0 -0.4375 0.09375l-0.09375 -0.234375l1.796875 -0.734375l0.28125 0l0 1.265625zm10.05455 -1.265625q0.3125 0 0.515625 0.21875q0.21875 0.203125 0.21875 0.5q0 0.296875 -0.21875 0.515625q-0.203125 0.203125 -0.515625 0.203125q-0.296875 0 -0.515625 -0.203125q-0.203125 -0.21875 -0.203125 -0.515625q0 -0.296875 0.203125 -0.5q0.21875 -0.21875 0.515625 -0.21875zm0 4.875q0.296875 0 0.5 0.21875q0.21875 0.203125 0.21875 0.5q0 0.3125 -0.21875 0.53125q-0.203125 0.203125 -0.5 0.203125q-0.3125 0 -0.53125 -0.203125q-0.203125 -0.21875 -0.203125 -0.53125q0 -0.296875 0.203125 -0.5q0.21875 -0.21875 0.53125 -0.21875z" fill-rule="nonzero"/><path fill="#000000" d="m181.15234 99.83433q0 -1.515625 0.453125 -2.59375q0.453125 -1.09375 1.203125 -1.625q0.59375 -0.421875 1.21875 -0.421875q1.015625 0 1.828125 1.03125q1.0 1.28125 1.0 3.46875q0 1.53125 -0.453125 2.609375q-0.4375 1.078125 -1.125 1.5625q-0.671875 0.484375 -1.3125 0.484375q-1.265625 0 -2.109375 -1.484375q-0.703125 -1.265625 -0.703125 -3.03125zm1.265625 0.15625q0 1.828125 0.453125 2.984375q0.375 0.96875 1.109375 0.96875q0.34375 0 0.71875 -0.3125q0.390625 -0.328125 0.578125 -1.0625q0.296875 -1.125 0.296875 -3.15625q0 -1.515625 -0.3125 -2.515625q-0.234375 -0.75 -0.59375 -1.0625q-0.265625 -0.21875 -0.65625 -0.21875q-0.4375 0 -0.78125 0.390625q-0.46875 0.546875 -0.640625 1.703125q-0.171875 1.15625 -0.171875 2.28125z" fill-rule="nonzero"/><path fill="#000000" d="m226.23047 96.24058l2.140625 -1.046875l0.21875 0l0 7.4375q0 0.75 0.0625 0.9375q0.0625 0.171875 0.25 0.28125q0.203125 0.09375 0.796875 0.109375l0 0.234375l-3.3125 0l0 -0.234375q0.625 -0.015625 0.796875 -0.109375q0.1875 -0.09375 0.25 -0.25q0.078125 -0.171875 0.078125 -0.96875l0 -4.75q0 -0.96875 -0.0625 -1.25q-0.046875 -0.203125 -0.171875 -0.296875q-0.109375 -0.09375 -0.28125 -0.09375q-0.234375 0 -0.671875 0.203125l-0.09375 -0.203125z" fill-rule="nonzero"/><path fill="#000000" d="m276.77734 102.49058l-0.609375 1.703125l-5.21875 0l0 -0.234375q2.296875 -2.109375 3.234375 -3.421875q0.9375 -1.328125 0.9375 -2.4375q0 -0.84375 -0.515625 -1.375q-0.515625 -0.546875 -1.21875 -0.546875q-0.65625 0 -1.171875 0.390625q-0.515625 0.375 -0.765625 1.109375l-0.234375 0q0.15625 -1.203125 0.828125 -1.84375q0.671875 -0.640625 1.6875 -0.640625q1.0625 0 1.78125 0.6875q0.734375 0.6875 0.734375 1.625q0 0.671875 -0.3125 1.34375q-0.484375 1.046875 -1.5625 2.21875q-1.625 1.78125 -2.03125 2.140625l2.296875 0q0.703125 0 0.984375 -0.046875q0.296875 -0.0625 0.515625 -0.21875q0.234375 -0.15625 0.40625 -0.453125l0.234375 0z" fill-rule="nonzero"/><path fill="#000000" d="m317.33984 97.05308q0.375 -0.890625 0.953125 -1.375q0.578125 -0.484375 1.4375 -0.484375q1.0625 0 1.625 0.6875q0.4375 0.515625 0.4375 1.09375q0 0.96875 -1.21875 2.0q0.8125 0.3125 1.234375 0.90625q0.421875 0.59375 0.421875 1.390625q0 1.140625 -0.734375 1.984375q-0.953125 1.09375 -2.75 1.09375q-0.890625 0 -1.21875 -0.21875q-0.3125 -0.21875 -0.3125 -0.484375q0 -0.1875 0.140625 -0.328125q0.15625 -0.140625 0.375 -0.140625q0.15625 0 0.328125 0.046875q0.109375 0.03125 0.5 0.25q0.390625 0.203125 0.546875 0.234375q0.234375 0.078125 0.515625 0.078125q0.65625 0 1.140625 -0.515625q0.5 -0.515625 0.5 -1.21875q0 -0.515625 -0.234375 -1.0q-0.15625 -0.359375 -0.359375 -0.5625q-0.28125 -0.25 -0.78125 -0.453125q-0.484375 -0.21875 -0.984375 -0.21875l-0.203125 0l0 -0.203125q0.5 -0.0625 1.015625 -0.359375q0.53125 -0.3125 0.765625 -0.734375q0.234375 -0.4375 0.234375 -0.953125q0 -0.671875 -0.421875 -1.078125q-0.421875 -0.421875 -1.046875 -0.421875q-1.015625 0 -1.6875 1.078125l-0.21875 -0.09375z" fill-rule="nonzero"/><path fill="#000000" d="m371.3711 100.9437l0 0.921875l-1.1875 0l0 2.328125l-1.078125 0l0 -2.328125l-3.734375 0l0 -0.828125l4.09375 -5.84375l0.71875 0l0 5.75l1.1875 0zm-2.265625 0l0 -4.390625l-3.09375 4.390625l3.09375 0z" fill-rule="nonzero"/><path fill="#000000" d="m421.94922 95.36558l-0.5 1.109375l-2.65625 0l-0.578125 1.1875q1.71875 0.25 2.734375 1.28125q0.859375 0.890625 0.859375 2.078125q0 0.703125 -0.28125 1.296875q-0.28125 0.59375 -0.71875 1.015625q-0.421875 0.40625 -0.953125 0.65625q-0.75 0.359375 -1.53125 0.359375q-0.796875 0 -1.15625 -0.265625q-0.359375 -0.28125 -0.359375 -0.59375q0 -0.1875 0.140625 -0.328125q0.15625 -0.140625 0.390625 -0.140625q0.15625 0 0.28125 0.0625q0.140625 0.046875 0.4375 0.25q0.484375 0.34375 1.0 0.34375q0.75 0 1.328125 -0.578125q0.578125 -0.578125 0.578125 -1.40625q0 -0.796875 -0.515625 -1.484375q-0.515625 -0.6875 -1.421875 -1.078125q-0.703125 -0.28125 -1.921875 -0.328125l1.6875 -3.4375l3.15625 0z" fill-rule="nonzero"/><path fill="#000000" d="m470.63672 95.1937l0 0.234375q-0.859375 0.078125 -1.40625 0.34375q-0.53125 0.25 -1.0625 0.78125q-0.53125 0.53125 -0.890625 1.1875q-0.34375 0.640625 -0.578125 1.53125q0.9375 -0.65625 1.890625 -0.65625q0.90625 0 1.5625 0.734375q0.671875 0.734375 0.671875 1.875q0 1.109375 -0.671875 2.015625q-0.8125 1.109375 -2.140625 1.109375q-0.90625 0 -1.53125 -0.59375q-1.234375 -1.171875 -1.234375 -3.03125q0 -1.171875 0.46875 -2.234375q0.46875 -1.078125 1.34375 -1.90625q0.890625 -0.828125 1.703125 -1.109375q0.8125 -0.28125 1.5 -0.28125l0.375 0zm-4.046875 4.546875q-0.109375 0.875 -0.109375 1.421875q0 0.625 0.21875 1.359375q0.234375 0.734375 0.703125 1.15625q0.328125 0.3125 0.796875 0.3125q0.5625 0 1.0 -0.53125q0.453125 -0.546875 0.453125 -1.53125q0 -1.109375 -0.4375 -1.921875q-0.4375 -0.8125 -1.25 -0.8125q-0.25 0 -0.53125 0.109375q-0.28125 0.09375 -0.84375 0.4375z" fill-rule="nonzero"/><path fill="#000000" d="m512.0117 95.36558l4.734375 0l0 0.25l-2.953125 8.765625l-0.71875 0l2.625 -7.953125l-2.421875 0q-0.734375 0 -1.046875 0.171875q-0.546875 0.3125 -0.875 0.921875l-0.1875 -0.0625l0.84375 -2.09375z" fill-rule="nonzero"/><path fill="#000000" d="m36.652344 169.3645q0 -1.515625 0.453125 -2.59375q0.453125 -1.09375 1.203125 -1.625q0.59375 -0.421875 1.21875 -0.421875q1.015625 0 1.828125 1.03125q1.0 1.28125 1.0 3.46875q0 1.53125 -0.453125 2.609375q-0.4375 1.078125 -1.125 1.5625q-0.671875 0.484375 -1.3125 0.484375q-1.265625 0 -2.109375 -1.484375q-0.703125 -1.265625 -0.703125 -3.03125zm1.265625 0.15625q0 1.828125 0.453125 2.984375q0.375 0.96875 1.109375 0.96875q0.34375 0 0.71875 -0.3125q0.390625 -0.328125 0.578125 -1.0625q0.296875 -1.125 0.296875 -3.15625q0 -1.515625 -0.3125 -2.515625q-0.234375 -0.75 -0.59375 -1.0625q-0.265625 -0.21875 -0.65625 -0.21875q-0.4375 0 -0.78125 0.390625q-0.46875 0.546875 -0.640625 1.703125q-0.171875 1.15625 -0.171875 2.28125z" fill-rule="nonzero"/><path fill="#000000" d="m87.5625 165.77075l2.140625 -1.046875l0.21875 0l0 7.4375q0 0.75 0.0625 0.9375q0.0625 0.171875 0.25 0.28125q0.203125 0.09375 0.796875 0.109375l0 0.234375l-3.3125 0l0 -0.234375q0.625 -0.015625 0.796875 -0.109375q0.1875 -0.09375 0.25 -0.25q0.078125 -0.171875 0.078125 -0.96875l0 -4.75q0 -0.96875 -0.0625 -1.25q-0.046875 -0.203125 -0.171875 -0.296875q-0.109375 -0.09375 -0.28125 -0.09375q-0.234375 0 -0.671875 0.203125l-0.09375 -0.203125z" fill-rule="nonzero"/><path fill="#000000" d="m171.5625 165.77075l2.140625 -1.046875l0.21875 0l0 7.4375q0 0.75 0.0625 0.9375q0.0625 0.171875 0.25 0.28125q0.203125 0.09375 0.796875 0.109375l0 0.234375l-3.3125 0l0 -0.234375q0.625 -0.015625 0.796875 -0.109375q0.1875 -0.09375 0.25 -0.25q0.078125 -0.171875 0.078125 -0.96875l0 -4.75q0 -0.96875 -0.0625 -1.25q-0.046875 -0.203125 -0.171875 -0.296875q-0.109375 -0.09375 -0.28125 -0.09375q-0.234375 0 -0.671875 0.203125l-0.09375 -0.203125z" fill-rule="nonzero"/><path fill="#000000" d="m37.73047 210.9676l2.140625 -1.046875l0.21875 0l0 7.4375q0 0.75 0.0625 0.9375q0.0625 0.171875 0.25 0.28125q0.203125 0.09375 0.796875 0.109375l0 0.234375l-3.3125 0l0 -0.234375q0.625 -0.015625 0.796875 -0.109375q0.1875 -0.09375 0.25 -0.25q0.078125 -0.171875 0.078125 -0.96875l0 -4.75q0 -0.96875 -0.0625 -1.25q-0.046875 -0.203125 -0.171875 -0.296875q-0.109375 -0.09375 -0.28125 -0.09375q-0.234375 0 -0.671875 0.203125l-0.09375 -0.203125z" fill-rule="nonzero"/><path fill="#000000" d="m87.5625 210.9676l2.140625 -1.046875l0.21875 0l0 7.4375q0 0.75 0.0625 0.9375q0.0625 0.171875 0.25 0.28125q0.203125 0.09375 0.796875 0.109375l0 0.234375l-3.3125 0l0 -0.234375q0.625 -0.015625 0.796875 -0.109375q0.1875 -0.09375 0.25 -0.25q0.078125 -0.171875 0.078125 -0.96875l0 -4.75q0 -0.96875 -0.0625 -1.25q-0.046875 -0.203125 -0.171875 -0.296875q-0.109375 -0.09375 -0.28125 -0.09375q-0.234375 0 -0.671875 0.203125l-0.09375 -0.203125z" fill-rule="nonzero"/><path fill="#000000" d="m170.48438 214.56136q0 -1.515625 0.453125 -2.59375q0.453125 -1.09375 1.203125 -1.625q0.59375 -0.421875 1.21875 -0.421875q1.015625 0 1.828125 1.03125q1.0 1.28125 1.0 3.46875q0 1.53125 -0.453125 2.609375q-0.4375 1.078125 -1.125 1.5625q-0.671875 0.484375 -1.3125 0.484375q-1.265625 0 -2.109375 -1.484375q-0.703125 -1.265625 -0.703125 -3.03125zm1.265625 0.15625q0 1.828125 0.453125 2.984375q0.375 0.96875 1.109375 0.96875q0.34375 0 0.71875 -0.3125q0.390625 -0.328125 0.578125 -1.0625q0.296875 -1.125 0.296875 -3.15625q0 -1.515625 -0.3125 -2.515625q-0.234375 -0.75 -0.59375 -1.0625q-0.265625 -0.21875 -0.65625 -0.21875q-0.4375 0 -0.78125 0.390625q-0.46875 0.546875 -0.640625 1.703125q-0.171875 1.15625 -0.171875 2.28125z" fill-rule="nonzero"/><path fill="#000000" d="m213.5625 210.9676l2.140625 -1.046875l0.21875 0l0 7.4375q0 0.75 0.0625 0.9375q0.0625 0.171875 0.25 0.28125q0.203125 0.09375 0.796875 0.109375l0 0.234375l-3.3125 0l0 -0.234375q0.625 -0.015625 0.796875 -0.109375q0.1875 -0.09375 0.25 -0.25q0.078125 -0.171875 0.078125 -0.96875l0 -4.75q0 -0.96875 -0.0625 -1.25q-0.046875 -0.203125 -0.171875 -0.296875q-0.109375 -0.09375 -0.28125 -0.09375q-0.234375 0 -0.671875 0.203125l-0.09375 -0.203125z" fill-rule="nonzero"/><path fill="#000000" d="m42.277344 262.41446l-0.609375 1.703125l-5.21875 0l0 -0.234375q2.296875 -2.109375 3.234375 -3.421875q0.9375 -1.328125 0.9375 -2.4375q0 -0.84375 -0.515625 -1.375q-0.515625 -0.546875 -1.21875 -0.546875q-0.65625 0 -1.171875 0.390625q-0.515625 0.375 -0.765625 1.109375l-0.234375 0q0.15625 -1.203125 0.828125 -1.84375q0.671875 -0.640625 1.6875 -0.640625q1.0625 0 1.78125 0.6875q0.734375 0.6875 0.734375 1.625q0 0.671875 -0.3125 1.34375q-0.484375 1.046875 -1.5625 2.21875q-1.625 1.78125 -2.03125 2.140625l2.296875 0q0.703125 0 0.984375 -0.046875q0.296875 -0.0625 0.515625 -0.21875q0.234375 -0.15625 0.40625 -0.453125l0.234375 0z" fill-rule="nonzero"/><path fill="#000000" d="m92.109375 262.41446l-0.609375 1.703125l-5.21875 0l0 -0.234375q2.296875 -2.109375 3.234375 -3.421875q0.9375 -1.328125 0.9375 -2.4375q0 -0.84375 -0.515625 -1.375q-0.515625 -0.546875 -1.21875 -0.546875q-0.65625 0 -1.171875 0.390625q-0.515625 0.375 -0.765625 1.109375l-0.234375 0q0.15625 -1.203125 0.828125 -1.84375q0.671875 -0.640625 1.6875 -0.640625q1.0625 0 1.78125 0.6875q0.734375 0.6875 0.734375 1.625q0 0.671875 -0.3125 1.34375q-0.484375 1.046875 -1.5625 2.21875q-1.625 1.78125 -2.03125 2.140625l2.296875 0q0.703125 0 0.984375 -0.046875q0.296875 -0.0625 0.515625 -0.21875q0.234375 -0.15625 0.40625 -0.453125l0.234375 0z" fill-rule="nonzero"/><path fill="#000000" d="m177.25 259.9457l-7.015625 0l0 -0.53125l7.015625 0l0 0.53125zm1.8291016 -3.78125l2.140625 -1.046875l0.21875 0l0 7.4375q0 0.75 0.0625 0.9375q0.0625 0.171875 0.25 0.28125q0.203125 0.09375 0.796875 0.109375l0 0.234375l-3.3125 0l0 -0.234375q0.625 -0.015625 0.796875 -0.109375q0.1875 -0.09375 0.25 -0.25q0.078125 -0.171875 0.078125 -0.96875l0 -4.75q0 -0.96875 -0.0625 -1.25q-0.046875 -0.203125 -0.171875 -0.296875q-0.109375 -0.09375 -0.28125 -0.09375q-0.234375 0 -0.671875 0.203125l-0.09375 -0.203125z" fill-rule="nonzero"/><path fill="#000000" d="m212.48438 259.7582q0 -1.515625 0.453125 -2.59375q0.453125 -1.09375 1.203125 -1.625q0.59375 -0.421875 1.21875 -0.421875q1.015625 0 1.828125 1.03125q1.0 1.28125 1.0 3.46875q0 1.53125 -0.453125 2.609375q-0.4375 1.078125 -1.125 1.5625q-0.671875 0.484375 -1.3125 0.484375q-1.265625 0 -2.109375 -1.484375q-0.703125 -1.265625 -0.703125 -3.03125zm1.265625 0.15625q0 1.828125 0.453125 2.984375q0.375 0.96875 1.109375 0.96875q0.34375 0 0.71875 -0.3125q0.390625 -0.328125 0.578125 -1.0625q0.296875 -1.125 0.296875 -3.15625q0 -1.515625 -0.3125 -2.515625q-0.234375 -0.75 -0.59375 -1.0625q-0.265625 -0.21875 -0.65625 -0.21875q-0.4375 0 -0.78125 0.390625q-0.46875 0.546875 -0.640625 1.703125q-0.171875 1.15625 -0.171875 2.28125z" fill-rule="nonzero"/><path fill="#000000" d="m258.67188 256.97696q0.375 -0.890625 0.953125 -1.375q0.578125 -0.484375 1.4375 -0.484375q1.0625 0 1.625 0.6875q0.4375 0.515625 0.4375 1.09375q0 0.96875 -1.21875 2.0q0.8125 0.3125 1.234375 0.90625q0.421875 0.59375 0.421875 1.390625q0 1.140625 -0.734375 1.984375q-0.953125 1.09375 -2.75 1.09375q-0.890625 0 -1.21875 -0.21875q-0.3125 -0.21875 -0.3125 -0.484375q0 -0.1875 0.140625 -0.328125q0.15625 -0.140625 0.375 -0.140625q0.15625 0 0.328125 0.046875q0.109375 0.03125 0.5 0.25q0.390625 0.203125 0.546875 0.234375q0.234375 0.078125 0.515625 0.078125q0.65625 0 1.140625 -0.515625q0.5 -0.515625 0.5 -1.21875q0 -0.515625 -0.234375 -1.0q-0.15625 -0.359375 -0.359375 -0.5625q-0.28125 -0.25 -0.78125 -0.453125q-0.484375 -0.21875 -0.984375 -0.21875l-0.203125 0l0 -0.203125q0.5 -0.0625 1.015625 -0.359375q0.53125 -0.3125 0.765625 -0.734375q0.234375 -0.4375 0.234375 -0.953125q0 -0.671875 -0.421875 -1.078125q-0.421875 -0.421875 -1.046875 -0.421875q-1.015625 0 -1.6875 1.078125l-0.21875 -0.09375z" fill-rule="nonzero"/><path fill="#000000" d="m36.839844 302.1738q0.375 -0.890625 0.953125 -1.375q0.578125 -0.484375 1.4375 -0.484375q1.0625 0 1.625 0.6875q0.4375 0.515625 0.4375 1.09375q0 0.96875 -1.21875 2.0q0.8125 0.3125 1.234375 0.90625q0.421875 0.59375 0.421875 1.390625q0 1.140625 -0.734375 1.984375q-0.953125 1.09375 -2.75 1.09375q-0.890625 0 -1.21875 -0.21875q-0.3125 -0.21875 -0.3125 -0.484375q0 -0.1875 0.140625 -0.328125q0.15625 -0.140625 0.375 -0.140625q0.15625 0 0.328125 0.046875q0.109375 0.03125 0.5 0.25q0.390625 0.203125 0.546875 0.234375q0.234375 0.078125 0.515625 0.078125q0.65625 0 1.140625 -0.515625q0.5 -0.515625 0.5 -1.21875q0 -0.515625 -0.234375 -1.0q-0.15625 -0.359375 -0.359375 -0.5625q-0.28125 -0.25 -0.78125 -0.453125q-0.484375 -0.21875 -0.984375 -0.21875l-0.203125 0l0 -0.203125q0.5 -0.0625 1.015625 -0.359375q0.53125 -0.3125 0.765625 -0.734375q0.234375 -0.4375 0.234375 -0.953125q0 -0.671875 -0.421875 -1.078125q-0.421875 -0.421875 -1.046875 -0.421875q-1.015625 0 -1.6875 1.078125l-0.21875 -0.09375z" fill-rule="nonzero"/><path fill="#000000" d="m92.109375 307.6113l-0.609375 1.703125l-5.21875 0l0 -0.234375q2.296875 -2.109375 3.234375 -3.421875q0.9375 -1.328125 0.9375 -2.4375q0 -0.84375 -0.515625 -1.375q-0.515625 -0.546875 -1.21875 -0.546875q-0.65625 0 -1.171875 0.390625q-0.515625 0.375 -0.765625 1.109375l-0.234375 0q0.15625 -1.203125 0.828125 -1.84375q0.671875 -0.640625 1.6875 -0.640625q1.0625 0 1.78125 0.6875q0.734375 0.6875 0.734375 1.625q0 0.671875 -0.3125 1.34375q-0.484375 1.046875 -1.5625 2.21875q-1.625 1.78125 -2.03125 2.140625l2.296875 0q0.703125 0 0.984375 -0.046875q0.296875 -0.0625 0.515625 -0.21875q0.234375 -0.15625 0.40625 -0.453125l0.234375 0z" fill-rule="nonzero"/><path fill="#000000" d="m170.48438 304.95505q0 -1.515625 0.453125 -2.59375q0.453125 -1.09375 1.203125 -1.625q0.59375 -0.421875 1.21875 -0.421875q1.015625 0 1.828125 1.03125q1.0 1.28125 1.0 3.46875q0 1.53125 -0.453125 2.609375q-0.4375 1.078125 -1.125 1.5625q-0.671875 0.484375 -1.3125 0.484375q-1.265625 0 -2.109375 -1.484375q-0.703125 -1.265625 -0.703125 -3.03125zm1.265625 0.15625q0 1.828125 0.453125 2.984375q0.375 0.96875 1.109375 0.96875q0.34375 0 0.71875 -0.3125q0.390625 -0.328125 0.578125 -1.0625q0.296875 -1.125 0.296875 -3.15625q0 -1.515625 -0.3125 -2.515625q-0.234375 -0.75 -0.59375 -1.0625q-0.265625 -0.21875 -0.65625 -0.21875q-0.4375 0 -0.78125 0.390625q-0.46875 0.546875 -0.640625 1.703125q-0.171875 1.15625 -0.171875 2.28125z" fill-rule="nonzero"/><path fill="#000000" d="m219.25 305.14255l-7.015625 0l0 -0.53125l7.015625 0l0 0.53125zm0.93847656 -2.96875q0.375 -0.890625 0.953125 -1.375q0.578125 -0.484375 1.4375 -0.484375q1.0625 0 1.625 0.6875q0.4375 0.515625 0.4375 1.09375q0 0.96875 -1.21875 2.0q0.8125 0.3125 1.234375 0.90625q0.421875 0.59375 0.421875 1.390625q0 1.140625 -0.734375 1.984375q-0.953125 1.09375 -2.75 1.09375q-0.890625 0 -1.21875 -0.21875q-0.3125 -0.21875 -0.3125 -0.484375q0 -0.1875 0.140625 -0.328125q0.15625 -0.140625 0.375 -0.140625q0.15625 0 0.328125 0.046875q0.109375 0.03125 0.5 0.25q0.390625 0.203125 0.546875 0.234375q0.234375 0.078125 0.515625 0.078125q0.65625 0 1.140625 -0.515625q0.5 -0.515625 0.5 -1.21875q0 -0.515625 -0.234375 -1.0q-0.15625 -0.359375 -0.359375 -0.5625q-0.28125 -0.25 -0.78125 -0.453125q-0.484375 -0.21875 -0.984375 -0.21875l-0.203125 0l0 -0.203125q0.5 -0.0625 1.015625 -0.359375q0.53125 -0.3125 0.765625 -0.734375q0.234375 -0.4375 0.234375 -0.953125q0 -0.671875 -0.421875 -1.078125q-0.421875 -0.421875 -1.046875 -0.421875q-1.015625 0 -1.6875 1.078125l-0.21875 -0.09375z" fill-rule="nonzero"/><path fill="#000000" d="m258.48438 304.95505q0 -1.515625 0.453125 -2.59375q0.453125 -1.09375 1.203125 -1.625q0.59375 -0.421875 1.21875 -0.421875q1.015625 0 1.828125 1.03125q1.0 1.28125 1.0 3.46875q0 1.53125 -0.453125 2.609375q-0.4375 1.078125 -1.125 1.5625q-0.671875 0.484375 -1.3125 0.484375q-1.265625 0 -2.109375 -1.484375q-0.703125 -1.265625 -0.703125 -3.03125zm1.265625 0.15625q0 1.828125 0.453125 2.984375q0.375 0.96875 1.109375 0.96875q0.34375 0 0.71875 -0.3125q0.390625 -0.328125 0.578125 -1.0625q0.296875 -1.125 0.296875 -3.15625q0 -1.515625 -0.3125 -2.515625q-0.234375 -0.75 -0.59375 -1.0625q-0.265625 -0.21875 -0.65625 -0.21875q-0.4375 0 -0.78125 0.390625q-0.46875 0.546875 -0.640625 1.703125q-0.171875 1.15625 -0.171875 2.28125z" fill-rule="nonzero"/><path fill="#000000" d="m309.78125 300.4863l-0.5 1.109375l-2.65625 0l-0.578125 1.1875q1.71875 0.25 2.734375 1.28125q0.859375 0.890625 0.859375 2.078125q0 0.703125 -0.28125 1.296875q-0.28125 0.59375 -0.71875 1.015625q-0.421875 0.40625 -0.953125 0.65625q-0.75 0.359375 -1.53125 0.359375q-0.796875 0 -1.15625 -0.265625q-0.359375 -0.28125 -0.359375 -0.59375q0 -0.1875 0.140625 -0.328125q0.15625 -0.140625 0.390625 -0.140625q0.15625 0 0.28125 0.0625q0.140625 0.046875 0.4375 0.25q0.484375 0.34375 1.0 0.34375q0.75 0 1.328125 -0.578125q0.578125 -0.578125 0.578125 -1.40625q0 -0.796875 -0.515625 -1.484375q-0.515625 -0.6875 -1.421875 -1.078125q-0.703125 -0.28125 -1.921875 -0.328125l1.6875 -3.4375l3.15625 0z" fill-rule="nonzero"/><path fill="#000000" d="m42.371094 351.2613l0 0.921875l-1.1875 0l0 2.328125l-1.078125 0l0 -2.328125l-3.734375 0l0 -0.828125l4.09375 -5.84375l0.71875 0l0 5.75l1.1875 0zm-2.265625 0l0 -4.390625l-3.09375 4.390625l3.09375 0z" fill-rule="nonzero"/><path fill="#000000" d="m88.5625 350.0738q-1.046875 -0.859375 -1.359375 -1.375q-0.296875 -0.53125 -0.296875 -1.09375q0 -0.859375 0.65625 -1.46875q0.671875 -0.625 1.765625 -0.625q1.078125 0 1.71875 0.578125q0.65625 0.578125 0.65625 1.3125q0 0.5 -0.359375 1.015625q-0.34375 0.515625 -1.453125 1.203125q1.140625 0.890625 1.515625 1.390625q0.484375 0.671875 0.484375 1.40625q0 0.921875 -0.703125 1.59375q-0.703125 0.65625 -1.859375 0.65625q-1.265625 0 -1.96875 -0.78125q-0.546875 -0.640625 -0.546875 -1.390625q0 -0.578125 0.390625 -1.15625q0.390625 -0.578125 1.359375 -1.265625zm1.015625 -0.703125q0.78125 -0.703125 0.984375 -1.109375q0.21875 -0.40625 0.21875 -0.921875q0 -0.6875 -0.390625 -1.0625q-0.375 -0.390625 -1.046875 -0.390625q-0.65625 0 -1.078125 0.390625q-0.421875 0.375 -0.421875 0.890625q0 0.328125 0.171875 0.671875q0.171875 0.34375 0.5 0.640625l1.0625 0.890625zm-0.71875 0.9375q-0.53125 0.46875 -0.796875 1.0q-0.265625 0.53125 -0.265625 1.15625q0 0.84375 0.453125 1.359375q0.46875 0.5 1.171875 0.5q0.703125 0 1.125 -0.390625q0.4375 -0.40625 0.4375 -0.984375q0 -0.46875 -0.25 -0.828125q-0.46875 -0.6875 -1.875 -1.8125z" fill-rule="nonzero"/><path fill="#000000" d="m170.67188 347.37067q0.375 -0.890625 0.953125 -1.375q0.578125 -0.484375 1.4375 -0.484375q1.0625 0 1.625 0.6875q0.4375 0.515625 0.4375 1.09375q0 0.96875 -1.21875 2.0q0.8125 0.3125 1.234375 0.90625q0.421875 0.59375 0.421875 1.390625q0 1.140625 -0.734375 1.984375q-0.953125 1.09375 -2.75 1.09375q-0.890625 0 -1.21875 -0.21875q-0.3125 -0.21875 -0.3125 -0.484375q0 -0.1875 0.140625 -0.328125q0.15625 -0.140625 0.375 -0.140625q0.15625 0 0.328125 0.046875q0.109375 0.03125 0.5 0.25q0.390625 0.203125 0.546875 0.234375q0.234375 0.078125 0.515625 0.078125q0.65625 0 1.140625 -0.515625q0.5 -0.515625 0.5 -1.21875q0 -0.515625 -0.234375 -1.0q-0.15625 -0.359375 -0.359375 -0.5625q-0.28125 -0.25 -0.78125 -0.453125q-0.484375 -0.21875 -0.984375 -0.21875l-0.203125 0l0 -0.203125q0.5 -0.0625 1.015625 -0.359375q0.53125 -0.3125 0.765625 -0.734375q0.234375 -0.4375 0.234375 -0.953125q0 -0.671875 -0.421875 -1.078125q-0.421875 -0.421875 -1.046875 -0.421875q-1.015625 0 -1.6875 1.078125l-0.21875 -0.09375z" fill-rule="nonzero"/><path fill="#000000" d="m212.48438 350.15192q0 -1.515625 0.453125 -2.59375q0.453125 -1.09375 1.203125 -1.625q0.59375 -0.421875 1.21875 -0.421875q1.015625 0 1.828125 1.03125q1.0 1.28125 1.0 3.46875q0 1.53125 -0.453125 2.609375q-0.4375 1.078125 -1.125 1.5625q-0.671875 0.484375 -1.3125 0.484375q-1.265625 0 -2.109375 -1.484375q-0.703125 -1.265625 -0.703125 -3.03125zm1.265625 0.15625q0 1.828125 0.453125 2.984375q0.375 0.96875 1.109375 0.96875q0.34375 0 0.71875 -0.3125q0.390625 -0.328125 0.578125 -1.0625q0.296875 -1.125 0.296875 -3.15625q0 -1.515625 -0.3125 -2.515625q-0.234375 -0.75 -0.59375 -1.0625q-0.265625 -0.21875 -0.65625 -0.21875q-0.4375 0 -0.78125 0.390625q-0.46875 0.546875 -0.640625 1.703125q-0.171875 1.15625 -0.171875 2.28125z" fill-rule="nonzero"/><path fill="#000000" d="m265.25 350.33942l-7.015625 0l0 -0.53125l7.015625 0l0 0.53125zm0.93847656 -2.96875q0.375 -0.890625 0.953125 -1.375q0.578125 -0.484375 1.4375 -0.484375q1.0625 0 1.625 0.6875q0.4375 0.515625 0.4375 1.09375q0 0.96875 -1.21875 2.0q0.8125 0.3125 1.234375 0.90625q0.421875 0.59375 0.421875 1.390625q0 1.140625 -0.734375 1.984375q-0.953125 1.09375 -2.75 1.09375q-0.890625 0 -1.21875 -0.21875q-0.3125 -0.21875 -0.3125 -0.484375q0 -0.1875 0.140625 -0.328125q0.15625 -0.140625 0.375 -0.140625q0.15625 0 0.328125 0.046875q0.109375 0.03125 0.5 0.25q0.390625 0.203125 0.546875 0.234375q0.234375 0.078125 0.515625 0.078125q0.65625 0 1.140625 -0.515625q0.5 -0.515625 0.5 -1.21875q0 -0.515625 -0.234375 -1.0q-0.15625 -0.359375 -0.359375 -0.5625q-0.28125 -0.25 -0.78125 -0.453125q-0.484375 -0.21875 -0.984375 -0.21875l-0.203125 0l0 -0.203125q0.5 -0.0625 1.015625 -0.359375q0.53125 -0.3125 0.765625 -0.734375q0.234375 -0.4375 0.234375 -0.953125q0 -0.671875 -0.421875 -1.078125q-0.421875 -0.421875 -1.046875 -0.421875q-1.015625 0 -1.6875 1.078125l-0.21875 -0.09375zm6.4765625 2.78125q0 -1.515625 0.453125 -2.59375q0.453125 -1.09375 1.203125 -1.625q0.59375 -0.421875 1.21875 -0.421875q1.015625 0 1.828125 1.03125q1.0 1.28125 1.0 3.46875q0 1.53125 -0.453125 2.609375q-0.4375 1.078125 -1.125 1.5625q-0.671875 0.484375 -1.3125 0.484375q-1.265625 0 -2.109375 -1.484375q-0.703125 -1.265625 -0.703125 -3.03125zm1.265625 0.15625q0 1.828125 0.453125 2.984375q0.375 0.96875 1.109375 0.96875q0.34375 0 0.71875 -0.3125q0.390625 -0.328125 0.578125 -1.0625q0.296875 -1.125 0.296875 -3.15625q0 -1.515625 -0.3125 -2.515625q-0.234375 -0.75 -0.59375 -1.0625q-0.265625 -0.21875 -0.65625 -0.21875q-0.4375 0 -0.78125 0.390625q-0.46875 0.546875 -0.640625 1.703125q-0.171875 1.15625 -0.171875 2.28125z" fill-rule="nonzero"/><path fill="#000000" d="m304.48438 350.15192q0 -1.515625 0.453125 -2.59375q0.453125 -1.09375 1.203125 -1.625q0.59375 -0.421875 1.21875 -0.421875q1.015625 0 1.828125 1.03125q1.0 1.28125 1.0 3.46875q0 1.53125 -0.453125 2.609375q-0.4375 1.078125 -1.125 1.5625q-0.671875 0.484375 -1.3125 0.484375q-1.265625 0 -2.109375 -1.484375q-0.703125 -1.265625 -0.703125 -3.03125zm1.265625 0.15625q0 1.828125 0.453125 2.984375q0.375 0.96875 1.109375 0.96875q0.34375 0 0.71875 -0.3125q0.390625 -0.328125 0.578125 -1.0625q0.296875 -1.125 0.296875 -3.15625q0 -1.515625 -0.3125 -2.515625q-0.234375 -0.75 -0.59375 -1.0625q-0.265625 -0.21875 -0.65625 -0.21875q-0.4375 0 -0.78125 0.390625q-0.46875 0.546875 -0.640625 1.703125q-0.171875 1.15625 -0.171875 2.28125z" fill-rule="nonzero"/><path fill="#000000" d="m350.67188 347.37067q0.375 -0.890625 0.953125 -1.375q0.578125 -0.484375 1.4375 -0.484375q1.0625 0 1.625 0.6875q0.4375 0.515625 0.4375 1.09375q0 0.96875 -1.21875 2.0q0.8125 0.3125 1.234375 0.90625q0.421875 0.59375 0.421875 1.390625q0 1.140625 -0.734375 1.984375q-0.953125 1.09375 -2.75 1.09375q-0.890625 0 -1.21875 -0.21875q-0.3125 -0.21875 -0.3125 -0.484375q0 -0.1875 0.140625 -0.328125q0.15625 -0.140625 0.375 -0.140625q0.15625 0 0.328125 0.046875q0.109375 0.03125 0.5 0.25q0.390625 0.203125 0.546875 0.234375q0.234375 0.078125 0.515625 0.078125q0.65625 0 1.140625 -0.515625q0.5 -0.515625 0.5 -1.21875q0 -0.515625 -0.234375 -1.0q-0.15625 -0.359375 -0.359375 -0.5625q-0.28125 -0.25 -0.78125 -0.453125q-0.484375 -0.21875 -0.984375 -0.21875l-0.203125 0l0 -0.203125q0.5 -0.0625 1.015625 -0.359375q0.53125 -0.3125 0.765625 -0.734375q0.234375 -0.4375 0.234375 -0.953125q0 -0.671875 -0.421875 -1.078125q-0.421875 -0.421875 -1.046875 -0.421875q-1.015625 0 -1.6875 1.078125l-0.21875 -0.09375zm11.7734375 -1.6875l-0.5 1.109375l-2.65625 0l-0.578125 1.1875q1.71875 0.25 2.734375 1.28125q0.859375 0.890625 0.859375 2.078125q0 0.703125 -0.28125 1.296875q-0.28125 0.59375 -0.71875 1.015625q-0.421875 0.40625 -0.953125 0.65625q-0.75 0.359375 -1.53125 0.359375q-0.796875 0 -1.15625 -0.265625q-0.359375 -0.28125 -0.359375 -0.59375q0 -0.1875 0.140625 -0.328125q0.15625 -0.140625 0.390625 -0.140625q0.15625 0 0.28125 0.0625q0.140625 0.046875 0.4375 0.25q0.484375 0.34375 1.0 0.34375q0.75 0 1.328125 -0.578125q0.578125 -0.578125 0.578125 -1.40625q0 -0.796875 -0.515625 -1.484375q-0.515625 -0.6875 -1.421875 -1.078125q-0.703125 -0.28125 -1.921875 -0.328125l1.6875 -3.4375l3.15625 0z" fill-rule="nonzero"/><path fill="#000000" d="m41.94922 390.88l-0.5 1.109375l-2.65625 0l-0.578125 1.1875q1.71875 0.25 2.734375 1.28125q0.859375 0.890625 0.859375 2.078125q0 0.703125 -0.28125 1.296875q-0.28125 0.59375 -0.71875 1.015625q-0.421875 0.40625 -0.953125 0.65625q-0.75 0.359375 -1.53125 0.359375q-0.796875 0 -1.15625 -0.265625q-0.359375 -0.28125 -0.359375 -0.59375q0 -0.1875 0.140625 -0.328125q0.15625 -0.140625 0.390625 -0.140625q0.15625 0 0.28125 0.0625q0.140625 0.046875 0.4375 0.25q0.484375 0.34375 1.0 0.34375q0.75 0 1.328125 -0.578125q0.578125 -0.578125 0.578125 -1.40625q0 -0.796875 -0.515625 -1.484375q-0.515625 -0.6875 -1.421875 -1.078125q-0.703125 -0.28125 -1.921875 -0.328125l1.6875 -3.4375l3.15625 0z" fill-rule="nonzero"/><path fill="#000000" d="m88.5625 395.27063q-1.046875 -0.859375 -1.359375 -1.375q-0.296875 -0.53125 -0.296875 -1.09375q0 -0.859375 0.65625 -1.46875q0.671875 -0.625 1.765625 -0.625q1.078125 0 1.71875 0.578125q0.65625 0.578125 0.65625 1.3125q0 0.5 -0.359375 1.015625q-0.34375 0.515625 -1.453125 1.203125q1.140625 0.890625 1.515625 1.390625q0.484375 0.671875 0.484375 1.40625q0 0.921875 -0.703125 1.59375q-0.703125 0.65625 -1.859375 0.65625q-1.265625 0 -1.96875 -0.78125q-0.546875 -0.640625 -0.546875 -1.390625q0 -0.578125 0.390625 -1.15625q0.390625 -0.578125 1.359375 -1.265625zm1.015625 -0.703125q0.78125 -0.703125 0.984375 -1.109375q0.21875 -0.40625 0.21875 -0.921875q0 -0.6875 -0.390625 -1.0625q-0.375 -0.390625 -1.046875 -0.390625q-0.65625 0 -1.078125 0.390625q-0.421875 0.375 -0.421875 0.890625q0 0.328125 0.171875 0.671875q0.171875 0.34375 0.5 0.640625l1.0625 0.890625zm-0.71875 0.9375q-0.53125 0.46875 -0.796875 1.0q-0.265625 0.53125 -0.265625 1.15625q0 0.84375 0.453125 1.359375q0.46875 0.5 1.171875 0.5q0.703125 0 1.125 -0.390625q0.4375 -0.40625 0.4375 -0.984375q0 -0.46875 -0.25 -0.828125q-0.46875 -0.6875 -1.875 -1.8125z" fill-rule="nonzero"/><path fill="#000000" d="m170.48438 395.34875q0 -1.515625 0.453125 -2.59375q0.453125 -1.09375 1.203125 -1.625q0.59375 -0.421875 1.21875 -0.421875q1.015625 0 1.828125 1.03125q1.0 1.28125 1.0 3.46875q0 1.53125 -0.453125 2.609375q-0.4375 1.078125 -1.125 1.5625q-0.671875 0.484375 -1.3125 0.484375q-1.265625 0 -2.109375 -1.484375q-0.703125 -1.265625 -0.703125 -3.03125zm1.265625 0.15625q0 1.828125 0.453125 2.984375q0.375 0.96875 1.109375 0.96875q0.34375 0 0.71875 -0.3125q0.390625 -0.328125 0.578125 -1.0625q0.296875 -1.125 0.296875 -3.15625q0 -1.515625 -0.3125 -2.515625q-0.234375 -0.75 -0.59375 -1.0625q-0.265625 -0.21875 -0.65625 -0.21875q-0.4375 0 -0.78125 0.390625q-0.46875 0.546875 -0.640625 1.703125q-0.171875 1.15625 -0.171875 2.28125z" fill-rule="nonzero"/><path fill="#000000" d="m213.5625 391.755l2.140625 -1.046875l0.21875 0l0 7.4375q0 0.75 0.0625 0.9375q0.0625 0.171875 0.25 0.28125q0.203125 0.09375 0.796875 0.109375l0 0.234375l-3.3125 0l0 -0.234375q0.625 -0.015625 0.796875 -0.109375q0.1875 -0.09375 0.25 -0.25q0.078125 -0.171875 0.078125 -0.96875l0 -4.75q0 -0.96875 -0.0625 -1.25q-0.046875 -0.203125 -0.171875 -0.296875q-0.109375 -0.09375 -0.28125 -0.09375q-0.234375 0 -0.671875 0.203125l-0.09375 -0.203125zm10.8828125 -0.875l-0.5 1.109375l-2.65625 0l-0.578125 1.1875q1.71875 0.25 2.734375 1.28125q0.859375 0.890625 0.859375 2.078125q0 0.703125 -0.28125 1.296875q-0.28125 0.59375 -0.71875 1.015625q-0.421875 0.40625 -0.953125 0.65625q-0.75 0.359375 -1.53125 0.359375q-0.796875 0 -1.15625 -0.265625q-0.359375 -0.28125 -0.359375 -0.59375q0 -0.1875 0.140625 -0.328125q0.15625 -0.140625 0.390625 -0.140625q0.15625 0 0.28125 0.0625q0.140625 0.046875 0.4375 0.25q0.484375 0.34375 1.0 0.34375q0.75 0 1.328125 -0.578125q0.578125 -0.578125 0.578125 -1.40625q0 -0.796875 -0.515625 -1.484375q-0.515625 -0.6875 -1.421875 -1.078125q-0.703125 -0.28125 -1.921875 -0.328125l1.6875 -3.4375l3.15625 0z" fill-rule="nonzero"/><path fill="#000000" d="m258.48438 395.34875q0 -1.515625 0.453125 -2.59375q0.453125 -1.09375 1.203125 -1.625q0.59375 -0.421875 1.21875 -0.421875q1.015625 0 1.828125 1.03125q1.0 1.28125 1.0 3.46875q0 1.53125 -0.453125 2.609375q-0.4375 1.078125 -1.125 1.5625q-0.671875 0.484375 -1.3125 0.484375q-1.265625 0 -2.109375 -1.484375q-0.703125 -1.265625 -0.703125 -3.03125zm1.265625 0.15625q0 1.828125 0.453125 2.984375q0.375 0.96875 1.109375 0.96875q0.34375 0 0.71875 -0.3125q0.390625 -0.328125 0.578125 -1.0625q0.296875 -1.125 0.296875 -3.15625q0 -1.515625 -0.3125 -2.515625q-0.234375 -0.75 -0.59375 -1.0625q-0.265625 -0.21875 -0.65625 -0.21875q-0.4375 0 -0.78125 0.390625q-0.46875 0.546875 -0.640625 1.703125q-0.171875 1.15625 -0.171875 2.28125z" fill-rule="nonzero"/><path fill="#000000" d="m311.25 395.53625l-7.015625 0l0 -0.53125l7.015625 0l0 0.53125zm1.6103516 -4.65625l4.734375 0l0 0.25l-2.953125 8.765625l-0.71875 0l2.625 -7.953125l-2.421875 0q-0.734375 0 -1.046875 0.171875q-0.546875 0.3125 -0.875 0.921875l-0.1875 -0.0625l0.84375 -2.09375zm5.8046875 4.46875q0 -1.515625 0.453125 -2.59375q0.453125 -1.09375 1.203125 -1.625q0.59375 -0.421875 1.21875 -0.421875q1.015625 0 1.828125 1.03125q1.0 1.28125 1.0 3.46875q0 1.53125 -0.453125 2.609375q-0.4375 1.078125 -1.125 1.5625q-0.671875 0.484375 -1.3125 0.484375q-1.265625 0 -2.109375 -1.484375q-0.703125 -1.265625 -0.703125 -3.03125zm1.265625 0.15625q0 1.828125 0.453125 2.984375q0.375 0.96875 1.109375 0.96875q0.34375 0 0.71875 -0.3125q0.390625 -0.328125 0.578125 -1.0625q0.296875 -1.125 0.296875 -3.15625q0 -1.515625 -0.3125 -2.515625q-0.234375 -0.75 -0.59375 -1.0625q-0.265625 -0.21875 -0.65625 -0.21875q-0.4375 0 -0.78125 0.390625q-0.46875 0.546875 -0.640625 1.703125q-0.171875 1.15625 -0.171875 2.28125z" fill-rule="nonzero"/><path fill="#000000" d="m350.48438 395.34875q0 -1.515625 0.453125 -2.59375q0.453125 -1.09375 1.203125 -1.625q0.59375 -0.421875 1.21875 -0.421875q1.015625 0 1.828125 1.03125q1.0 1.28125 1.0 3.46875q0 1.53125 -0.453125 2.609375q-0.4375 1.078125 -1.125 1.5625q-0.671875 0.484375 -1.3125 0.484375q-1.265625 0 -2.109375 -1.484375q-0.703125 -1.265625 -0.703125 -3.03125zm1.265625 0.15625q0 1.828125 0.453125 2.984375q0.375 0.96875 1.109375 0.96875q0.34375 0 0.71875 -0.3125q0.390625 -0.328125 0.578125 -1.0625q0.296875 -1.125 0.296875 -3.15625q0 -1.515625 -0.3125 -2.515625q-0.234375 -0.75 -0.59375 -1.0625q-0.265625 -0.21875 -0.65625 -0.21875q-0.4375 0 -0.78125 0.390625q-0.46875 0.546875 -0.640625 1.703125q-0.171875 1.15625 -0.171875 2.28125z" fill-rule="nonzero"/><path fill="#000000" d="m406.96875 390.70813l0 0.234375q-0.859375 0.078125 -1.40625 0.34375q-0.53125 0.25 -1.0625 0.78125q-0.53125 0.53125 -0.890625 1.1875q-0.34375 0.640625 -0.578125 1.53125q0.9375 -0.65625 1.890625 -0.65625q0.90625 0 1.5625 0.734375q0.671875 0.734375 0.671875 1.875q0 1.109375 -0.671875 2.015625q-0.8125 1.109375 -2.140625 1.109375q-0.90625 0 -1.53125 -0.59375q-1.234375 -1.171875 -1.234375 -3.03125q0 -1.171875 0.46875 -2.234375q0.46875 -1.078125 1.34375 -1.90625q0.890625 -0.828125 1.703125 -1.109375q0.8125 -0.28125 1.5 -0.28125l0.375 0zm-4.046875 4.546875q-0.109375 0.875 -0.109375 1.421875q0 0.625 0.21875 1.359375q0.234375 0.734375 0.703125 1.15625q0.328125 0.3125 0.796875 0.3125q0.5625 0 1.0 -0.53125q0.453125 -0.546875 0.453125 -1.53125q0 -1.109375 -0.4375 -1.921875q-0.4375 -0.8125 -1.25 -0.8125q-0.25 0 -0.53125 0.109375q-0.28125 0.09375 -0.84375 0.4375zm5.4140625 -2.6875q0.375 -0.890625 0.953125 -1.375q0.578125 -0.484375 1.4375 -0.484375q1.0625 0 1.625 0.6875q0.4375 0.515625 0.4375 1.09375q0 0.96875 -1.21875 2.0q0.8125 0.3125 1.234375 0.90625q0.421875 0.59375 0.421875 1.390625q0 1.140625 -0.734375 1.984375q-0.953125 1.09375 -2.75 1.09375q-0.890625 0 -1.21875 -0.21875q-0.3125 -0.21875 -0.3125 -0.484375q0 -0.1875 0.140625 -0.328125q0.15625 -0.140625 0.375 -0.140625q0.15625 0 0.328125 0.046875q0.109375 0.03125 0.5 0.25q0.390625 0.203125 0.546875 0.234375q0.234375 0.078125 0.515625 0.078125q0.65625 0 1.140625 -0.515625q0.5 -0.515625 0.5 -1.21875q0 -0.515625 -0.234375 -1.0q-0.15625 -0.359375 -0.359375 -0.5625q-0.28125 -0.25 -0.78125 -0.453125q-0.484375 -0.21875 -0.984375 -0.21875l-0.203125 0l0 -0.203125q0.5 -0.0625 1.015625 -0.359375q0.53125 -0.3125 0.765625 -0.734375q0.234375 -0.4375 0.234375 -0.953125q0 -0.671875 -0.421875 -1.078125q-0.421875 -0.421875 -1.046875 -0.421875q-1.015625 0 -1.6875 1.078125l-0.21875 -0.09375z" fill-rule="nonzero"/><path fill="#000000" d="m42.13672 435.905l0 0.234375q-0.859375 0.078125 -1.40625 0.34375q-0.53125 0.25 -1.0625 0.78125q-0.53125 0.53125 -0.890625 1.1875q-0.34375 0.640625 -0.578125 1.53125q0.9375 -0.65625 1.890625 -0.65625q0.90625 0 1.5625 0.734375q0.671875 0.734375 0.671875 1.875q0 1.109375 -0.671875 2.015625q-0.8125 1.109375 -2.140625 1.109375q-0.90625 0 -1.53125 -0.59375q-1.234375 -1.171875 -1.234375 -3.03125q0 -1.171875 0.46875 -2.234375q0.46875 -1.078125 1.34375 -1.90625q0.890625 -0.828125 1.703125 -1.109375q0.8125 -0.28125 1.5 -0.28125l0.375 0zm-4.046875 4.546875q-0.109375 0.875 -0.109375 1.421875q0 0.625 0.21875 1.359375q0.234375 0.734375 0.703125 1.15625q0.328125 0.3125 0.796875 0.3125q0.5625 0 1.0 -0.53125q0.453125 -0.546875 0.453125 -1.53125q0 -1.109375 -0.4375 -1.921875q-0.4375 -0.8125 -1.25 -0.8125q-0.25 0 -0.53125 0.109375q-0.28125 0.09375 -0.84375 0.4375z" fill-rule="nonzero"/><path fill="#000000" d="m87.5625 436.95187l2.140625 -1.046875l0.21875 0l0 7.4375q0 0.75 0.0625 0.9375q0.0625 0.171875 0.25 0.28125q0.203125 0.09375 0.796875 0.109375l0 0.234375l-3.3125 0l0 -0.234375q0.625 -0.015625 0.796875 -0.109375q0.1875 -0.09375 0.25 -0.25q0.078125 -0.171875 0.078125 -0.96875l0 -4.75q0 -0.96875 -0.0625 -1.25q-0.046875 -0.203125 -0.171875 -0.296875q-0.109375 -0.09375 -0.28125 -0.09375q-0.234375 0 -0.671875 0.203125l-0.09375 -0.203125zm11.0703125 -1.046875l0 0.234375q-0.859375 0.078125 -1.40625 0.34375q-0.53125 0.25 -1.0625 0.78125q-0.53125 0.53125 -0.890625 1.1875q-0.34375 0.640625 -0.578125 1.53125q0.9375 -0.65625 1.890625 -0.65625q0.90625 0 1.5625 0.734375q0.671875 0.734375 0.671875 1.875q0 1.109375 -0.671875 2.015625q-0.8125 1.109375 -2.140625 1.109375q-0.90625 0 -1.53125 -0.59375q-1.234375 -1.171875 -1.234375 -3.03125q0 -1.171875 0.46875 -2.234375q0.46875 -1.078125 1.34375 -1.90625q0.890625 -0.828125 1.703125 -1.109375q0.8125 -0.28125 1.5 -0.28125l0.375 0zm-4.046875 4.546875q-0.109375 0.875 -0.109375 1.421875q0 0.625 0.21875 1.359375q0.234375 0.734375 0.703125 1.15625q0.328125 0.3125 0.796875 0.3125q0.5625 0 1.0 -0.53125q0.453125 -0.546875 0.453125 -1.53125q0 -1.109375 -0.4375 -1.921875q-0.4375 -0.8125 -1.25 -0.8125q-0.25 0 -0.53125 0.109375q-0.28125 0.09375 -0.84375 0.4375z" fill-rule="nonzero"/><path fill="#000000" d="m177.25 440.73312l-7.015625 0l0 -0.53125l7.015625 0l0 0.53125zm6.0478516 -4.65625l-0.5 1.109375l-2.65625 0l-0.578125 1.1875q1.71875 0.25 2.734375 1.28125q0.859375 0.890625 0.859375 2.078125q0 0.703125 -0.28125 1.296875q-0.28125 0.59375 -0.71875 1.015625q-0.421875 0.40625 -0.953125 0.65625q-0.75 0.359375 -1.53125 0.359375q-0.796875 0 -1.15625 -0.265625q-0.359375 -0.28125 -0.359375 -0.59375q0 -0.1875 0.140625 -0.328125q0.15625 -0.140625 0.390625 -0.140625q0.15625 0 0.28125 0.0625q0.140625 0.046875 0.4375 0.25q0.484375 0.34375 1.0 0.34375q0.75 0 1.328125 -0.578125q0.578125 -0.578125 0.578125 -1.40625q0 -0.796875 -0.515625 -1.484375q-0.515625 -0.6875 -1.421875 -1.078125q-0.703125 -0.28125 -1.921875 -0.328125l1.6875 -3.4375l3.15625 0z" fill-rule="nonzero"/><path fill="#000000" d="m212.48438 440.54562q0 -1.515625 0.453125 -2.59375q0.453125 -1.09375 1.203125 -1.625q0.59375 -0.421875 1.21875 -0.421875q1.015625 0 1.828125 1.03125q1.0 1.28125 1.0 3.46875q0 1.53125 -0.453125 2.609375q-0.4375 1.078125 -1.125 1.5625q-0.671875 0.484375 -1.3125 0.484375q-1.265625 0 -2.109375 -1.484375q-0.703125 -1.265625 -0.703125 -3.03125zm1.265625 0.15625q0 1.828125 0.453125 2.984375q0.375 0.96875 1.109375 0.96875q0.34375 0 0.71875 -0.3125q0.390625 -0.328125 0.578125 -1.0625q0.296875 -1.125 0.296875 -3.15625q0 -1.515625 -0.3125 -2.515625q-0.234375 -0.75 -0.59375 -1.0625q-0.265625 -0.21875 -0.65625 -0.21875q-0.4375 0 -0.78125 0.390625q-0.46875 0.546875 -0.640625 1.703125q-0.171875 1.15625 -0.171875 2.28125z" fill-rule="nonzero"/><path fill="#000000" d="m259.5625 436.95187l2.140625 -1.046875l0.21875 0l0 7.4375q0 0.75 0.0625 0.9375q0.0625 0.171875 0.25 0.28125q0.203125 0.09375 0.796875 0.109375l0 0.234375l-3.3125 0l0 -0.234375q0.625 -0.015625 0.796875 -0.109375q0.1875 -0.09375 0.25 -0.25q0.078125 -0.171875 0.078125 -0.96875l0 -4.75q0 -0.96875 -0.0625 -1.25q-0.046875 -0.203125 -0.171875 -0.296875q-0.109375 -0.09375 -0.28125 -0.09375q-0.234375 0 -0.671875 0.203125l-0.09375 -0.203125zm5.5859375 3.59375q0 -1.515625 0.453125 -2.59375q0.453125 -1.09375 1.203125 -1.625q0.59375 -0.421875 1.21875 -0.421875q1.015625 0 1.828125 1.03125q1.0 1.28125 1.0 3.46875q0 1.53125 -0.453125 2.609375q-0.4375 1.078125 -1.125 1.5625q-0.671875 0.484375 -1.3125 0.484375q-1.265625 0 -2.109375 -1.484375q-0.703125 -1.265625 -0.703125 -3.03125zm1.265625 0.15625q0 1.828125 0.453125 2.984375q0.375 0.96875 1.109375 0.96875q0.34375 0 0.71875 -0.3125q0.390625 -0.328125 0.578125 -1.0625q0.296875 -1.125 0.296875 -3.15625q0 -1.515625 -0.3125 -2.515625q-0.234375 -0.75 -0.59375 -1.0625q-0.265625 -0.21875 -0.65625 -0.21875q-0.4375 0 -0.78125 0.390625q-0.46875 0.546875 -0.640625 1.703125q-0.171875 1.15625 -0.171875 2.28125zm10.6953125 -4.625l-0.5 1.109375l-2.65625 0l-0.578125 1.1875q1.71875 0.25 2.734375 1.28125q0.859375 0.890625 0.859375 2.078125q0 0.703125 -0.28125 1.296875q-0.28125 0.59375 -0.71875 1.015625q-0.421875 0.40625 -0.953125 0.65625q-0.75 0.359375 -1.53125 0.359375q-0.796875 0 -1.15625 -0.265625q-0.359375 -0.28125 -0.359375 -0.59375q0 -0.1875 0.140625 -0.328125q0.15625 -0.140625 0.390625 -0.140625q0.15625 0 0.28125 0.0625q0.140625 0.046875 0.4375 0.25q0.484375 0.34375 1.0 0.34375q0.75 0 1.328125 -0.578125q0.578125 -0.578125 0.578125 -1.40625q0 -0.796875 -0.515625 -1.484375q-0.515625 -0.6875 -1.421875 -1.078125q-0.703125 -0.28125 -1.921875 -0.328125l1.6875 -3.4375l3.15625 0z" fill-rule="nonzero"/><path fill="#000000" d="m304.48438 440.54562q0 -1.515625 0.453125 -2.59375q0.453125 -1.09375 1.203125 -1.625q0.59375 -0.421875 1.21875 -0.421875q1.015625 0 1.828125 1.03125q1.0 1.28125 1.0 3.46875q0 1.53125 -0.453125 2.609375q-0.4375 1.078125 -1.125 1.5625q-0.671875 0.484375 -1.3125 0.484375q-1.265625 0 -2.109375 -1.484375q-0.703125 -1.265625 -0.703125 -3.03125zm1.265625 0.15625q0 1.828125 0.453125 2.984375q0.375 0.96875 1.109375 0.96875q0.34375 0 0.71875 -0.3125q0.390625 -0.328125 0.578125 -1.0625q0.296875 -1.125 0.296875 -3.15625q0 -1.515625 -0.3125 -2.515625q-0.234375 -0.75 -0.59375 -1.0625q-0.265625 -0.21875 -0.65625 -0.21875q-0.4375 0 -0.78125 0.390625q-0.46875 0.546875 -0.640625 1.703125q-0.171875 1.15625 -0.171875 2.28125z" fill-rule="nonzero"/><path fill="#000000" d="m357.25 440.73312l-7.015625 0l0 -0.53125l7.015625 0l0 0.53125zm0.93847656 -2.96875q0.375 -0.890625 0.953125 -1.375q0.578125 -0.484375 1.4375 -0.484375q1.0625 0 1.625 0.6875q0.4375 0.515625 0.4375 1.09375q0 0.96875 -1.21875 2.0q0.8125 0.3125 1.234375 0.90625q0.421875 0.59375 0.421875 1.390625q0 1.140625 -0.734375 1.984375q-0.953125 1.09375 -2.75 1.09375q-0.890625 0 -1.21875 -0.21875q-0.3125 -0.21875 -0.3125 -0.484375q0 -0.1875 0.140625 -0.328125q0.15625 -0.140625 0.375 -0.140625q0.15625 0 0.328125 0.046875q0.109375 0.03125 0.5 0.25q0.390625 0.203125 0.546875 0.234375q0.234375 0.078125 0.515625 0.078125q0.65625 0 1.140625 -0.515625q0.5 -0.515625 0.5 -1.21875q0 -0.515625 -0.234375 -1.0q-0.15625 -0.359375 -0.359375 -0.5625q-0.28125 -0.25 -0.78125 -0.453125q-0.484375 -0.21875 -0.984375 -0.21875l-0.203125 0l0 -0.203125q0.5 -0.0625 1.015625 -0.359375q0.53125 -0.3125 0.765625 -0.734375q0.234375 -0.4375 0.234375 -0.953125q0 -0.671875 -0.421875 -1.078125q-0.421875 -0.421875 -1.046875 -0.421875q-1.015625 0 -1.6875 1.078125l-0.21875 -0.09375zm7.5546875 -0.8125l2.140625 -1.046875l0.21875 0l0 7.4375q0 0.75 0.0625 0.9375q0.0625 0.171875 0.25 0.28125q0.203125 0.09375 0.796875 0.109375l0 0.234375l-3.3125 0l0 -0.234375q0.625 -0.015625 0.796875 -0.109375q0.1875 -0.09375 0.25 -0.25q0.078125 -0.171875 0.078125 -0.96875l0 -4.75q0 -0.96875 -0.0625 -1.25q-0.046875 -0.203125 -0.171875 -0.296875q-0.109375 -0.09375 -0.28125 -0.09375q-0.234375 0 -0.671875 0.203125l-0.09375 -0.203125zm10.8828125 -0.875l-0.5 1.109375l-2.65625 0l-0.578125 1.1875q1.71875 0.25 2.734375 1.28125q0.859375 0.890625 0.859375 2.078125q0 0.703125 -0.28125 1.296875q-0.28125 0.59375 -0.71875 1.015625q-0.421875 0.40625 -0.953125 0.65625q-0.75 0.359375 -1.53125 0.359375q-0.796875 0 -1.15625 -0.265625q-0.359375 -0.28125 -0.359375 -0.59375q0 -0.1875 0.140625 -0.328125q0.15625 -0.140625 0.390625 -0.140625q0.15625 0 0.28125 0.0625q0.140625 0.046875 0.4375 0.25q0.484375 0.34375 1.0 0.34375q0.75 0 1.328125 -0.578125q0.578125 -0.578125 0.578125 -1.40625q0 -0.796875 -0.515625 -1.484375q-0.515625 -0.6875 -1.421875 -1.078125q-0.703125 -0.28125 -1.921875 -0.328125l1.6875 -3.4375l3.15625 0z" fill-rule="nonzero"/><path fill="#000000" d="m401.48438 440.54562q0 -1.515625 0.453125 -2.59375q0.453125 -1.09375 1.203125 -1.625q0.59375 -0.421875 1.21875 -0.421875q1.015625 0 1.828125 1.03125q1.0 1.28125 1.0 3.46875q0 1.53125 -0.453125 2.609375q-0.4375 1.078125 -1.125 1.5625q-0.671875 0.484375 -1.3125 0.484375q-1.265625 0 -2.109375 -1.484375q-0.703125 -1.265625 -0.703125 -3.03125zm1.265625 0.15625q0 1.828125 0.453125 2.984375q0.375 0.96875 1.109375 0.96875q0.34375 0 0.71875 -0.3125q0.390625 -0.328125 0.578125 -1.0625q0.296875 -1.125 0.296875 -3.15625q0 -1.515625 -0.3125 -2.515625q-0.234375 -0.75 -0.59375 -1.0625q-0.265625 -0.21875 -0.65625 -0.21875q-0.4375 0 -0.78125 0.390625q-0.46875 0.546875 -0.640625 1.703125q-0.171875 1.15625 -0.171875 2.28125z" fill-rule="nonzero"/><path fill="#000000" d="m458.10938 443.20187l-0.609375 1.703125l-5.21875 0l0 -0.234375q2.296875 -2.109375 3.234375 -3.421875q0.9375 -1.328125 0.9375 -2.4375q0 -0.84375 -0.515625 -1.375q-0.515625 -0.546875 -1.21875 -0.546875q-0.65625 0 -1.171875 0.390625q-0.515625 0.375 -0.765625 1.109375l-0.234375 0q0.15625 -1.203125 0.828125 -1.84375q0.671875 -0.640625 1.6875 -0.640625q1.0625 0 1.78125 0.6875q0.734375 0.6875 0.734375 1.625q0 0.671875 -0.3125 1.34375q-0.484375 1.046875 -1.5625 2.21875q-1.625 1.78125 -2.03125 2.140625l2.296875 0q0.703125 0 0.984375 -0.046875q0.296875 -0.0625 0.515625 -0.21875q0.234375 -0.15625 0.40625 -0.453125l0.234375 0zm1.2265625 -5.4375q0.375 -0.890625 0.953125 -1.375q0.578125 -0.484375 1.4375 -0.484375q1.0625 0 1.625 0.6875q0.4375 0.515625 0.4375 1.09375q0 0.96875 -1.21875 2.0q0.8125 0.3125 1.234375 0.90625q0.421875 0.59375 0.421875 1.390625q0 1.140625 -0.734375 1.984375q-0.953125 1.09375 -2.75 1.09375q-0.890625 0 -1.21875 -0.21875q-0.3125 -0.21875 -0.3125 -0.484375q0 -0.1875 0.140625 -0.328125q0.15625 -0.140625 0.375 -0.140625q0.15625 0 0.328125 0.046875q0.109375 0.03125 0.5 0.25q0.390625 0.203125 0.546875 0.234375q0.234375 0.078125 0.515625 0.078125q0.65625 0 1.140625 -0.515625q0.5 -0.515625 0.5 -1.21875q0 -0.515625 -0.234375 -1.0q-0.15625 -0.359375 -0.359375 -0.5625q-0.28125 -0.25 -0.78125 -0.453125q-0.484375 -0.21875 -0.984375 -0.21875l-0.203125 0l0 -0.203125q0.5 -0.0625 1.015625 -0.359375q0.53125 -0.3125 0.765625 -0.734375q0.234375 -0.4375 0.234375 -0.953125q0 -0.671875 -0.421875 -1.078125q-0.421875 -0.421875 -1.046875 -0.421875q-1.015625 0 -1.6875 1.078125l-0.21875 -0.09375zm7.5546875 -0.8125l2.140625 -1.046875l0.21875 0l0 7.4375q0 0.75 0.0625 0.9375q0.0625 0.171875 0.25 0.28125q0.203125 0.09375 0.796875 0.109375l0 0.234375l-3.3125 0l0 -0.234375q0.625 -0.015625 0.796875 -0.109375q0.1875 -0.09375 0.25 -0.25q0.078125 -0.171875 0.078125 -0.96875l0 -4.75q0 -0.96875 -0.0625 -1.25q-0.046875 -0.203125 -0.171875 -0.296875q-0.109375 -0.09375 -0.28125 -0.09375q-0.234375 0 -0.671875 0.203125l-0.09375 -0.203125z" fill-rule="nonzero"/><path fill="#000000" d="m37.51172 481.2737l4.734375 0l0 0.25l-2.953125 8.765625l-0.71875 0l2.625 -7.953125l-2.421875 0q-0.734375 0 -1.046875 0.171875q-0.546875 0.3125 -0.875 0.921875l-0.1875 -0.0625l0.84375 -2.09375z" fill-rule="nonzero"/><path fill="#000000" d="m87.5625 482.1487l2.140625 -1.046875l0.21875 0l0 7.4375q0 0.75 0.0625 0.9375q0.0625 0.171875 0.25 0.28125q0.203125 0.09375 0.796875 0.109375l0 0.234375l-3.3125 0l0 -0.234375q0.625 -0.015625 0.796875 -0.109375q0.1875 -0.09375 0.25 -0.25q0.078125 -0.171875 0.078125 -0.96875l0 -4.75q0 -0.96875 -0.0625 -1.25q-0.046875 -0.203125 -0.171875 -0.296875q-0.109375 -0.09375 -0.28125 -0.09375q-0.234375 0 -0.671875 0.203125l-0.09375 -0.203125zm11.0703125 -1.046875l0 0.234375q-0.859375 0.078125 -1.40625 0.34375q-0.53125 0.25 -1.0625 0.78125q-0.53125 0.53125 -0.890625 1.1875q-0.34375 0.640625 -0.578125 1.53125q0.9375 -0.65625 1.890625 -0.65625q0.90625 0 1.5625 0.734375q0.671875 0.734375 0.671875 1.875q0 1.109375 -0.671875 2.015625q-0.8125 1.109375 -2.140625 1.109375q-0.90625 0 -1.53125 -0.59375q-1.234375 -1.171875 -1.234375 -3.03125q0 -1.171875 0.46875 -2.234375q0.46875 -1.078125 1.34375 -1.90625q0.890625 -0.828125 1.703125 -1.109375q0.8125 -0.28125 1.5 -0.28125l0.375 0zm-4.046875 4.546875q-0.109375 0.875 -0.109375 1.421875q0 0.625 0.21875 1.359375q0.234375 0.734375 0.703125 1.15625q0.328125 0.3125 0.796875 0.3125q0.5625 0 1.0 -0.53125q0.453125 -0.546875 0.453125 -1.53125q0 -1.109375 -0.4375 -1.921875q-0.4375 -0.8125 -1.25 -0.8125q-0.25 0 -0.53125 0.109375q-0.28125 0.09375 -0.84375 0.4375z" fill-rule="nonzero"/><path fill="#000000" d="m170.48438 485.74246q0 -1.515625 0.453125 -2.59375q0.453125 -1.09375 1.203125 -1.625q0.59375 -0.421875 1.21875 -0.421875q1.015625 0 1.828125 1.03125q1.0 1.28125 1.0 3.46875q0 1.53125 -0.453125 2.609375q-0.4375 1.078125 -1.125 1.5625q-0.671875 0.484375 -1.3125 0.484375q-1.265625 0 -2.109375 -1.484375q-0.703125 -1.265625 -0.703125 -3.03125zm1.265625 0.15625q0 1.828125 0.453125 2.984375q0.375 0.96875 1.109375 0.96875q0.34375 0 0.71875 -0.3125q0.390625 -0.328125 0.578125 -1.0625q0.296875 -1.125 0.296875 -3.15625q0 -1.515625 -0.3125 -2.515625q-0.234375 -0.75 -0.59375 -1.0625q-0.265625 -0.21875 -0.65625 -0.21875q-0.4375 0 -0.78125 0.390625q-0.46875 0.546875 -0.640625 1.703125q-0.171875 1.15625 -0.171875 2.28125z" fill-rule="nonzero"/><path fill="#000000" d="m219.25 485.92996l-7.015625 0l0 -0.53125l7.015625 0l0 0.53125zm0.93847656 -2.96875q0.375 -0.890625 0.953125 -1.375q0.578125 -0.484375 1.4375 -0.484375q1.0625 0 1.625 0.6875q0.4375 0.515625 0.4375 1.09375q0 0.96875 -1.21875 2.0q0.8125 0.3125 1.234375 0.90625q0.421875 0.59375 0.421875 1.390625q0 1.140625 -0.734375 1.984375q-0.953125 1.09375 -2.75 1.09375q-0.890625 0 -1.21875 -0.21875q-0.3125 -0.21875 -0.3125 -0.484375q0 -0.1875 0.140625 -0.328125q0.15625 -0.140625 0.375 -0.140625q0.15625 0 0.328125 0.046875q0.109375 0.03125 0.5 0.25q0.390625 0.203125 0.546875 0.234375q0.234375 0.078125 0.515625 0.078125q0.65625 0 1.140625 -0.515625q0.5 -0.515625 0.5 -1.21875q0 -0.515625 -0.234375 -1.0q-0.15625 -0.359375 -0.359375 -0.5625q-0.28125 -0.25 -0.78125 -0.453125q-0.484375 -0.21875 -0.984375 -0.21875l-0.203125 0l0 -0.203125q0.5 -0.0625 1.015625 -0.359375q0.53125 -0.3125 0.765625 -0.734375q0.234375 -0.4375 0.234375 -0.953125q0 -0.671875 -0.421875 -1.078125q-0.421875 -0.421875 -1.046875 -0.421875q-1.015625 0 -1.6875 1.078125l-0.21875 -0.09375zm11.7734375 -1.6875l-0.5 1.109375l-2.65625 0l-0.578125 1.1875q1.71875 0.25 2.734375 1.28125q0.859375 0.890625 0.859375 2.078125q0 0.703125 -0.28125 1.296875q-0.28125 0.59375 -0.71875 1.015625q-0.421875 0.40625 -0.953125 0.65625q-0.75 0.359375 -1.53125 0.359375q-0.796875 0 -1.15625 -0.265625q-0.359375 -0.28125 -0.359375 -0.59375q0 -0.1875 0.140625 -0.328125q0.15625 -0.140625 0.390625 -0.140625q0.15625 0 0.28125 0.0625q0.140625 0.046875 0.4375 0.25q0.484375 0.34375 1.0 0.34375q0.75 0 1.328125 -0.578125q0.578125 -0.578125 0.578125 -1.40625q0 -0.796875 -0.515625 -1.484375q-0.515625 -0.6875 -1.421875 -1.078125q-0.703125 -0.28125 -1.921875 -0.328125l1.6875 -3.4375l3.15625 0z" fill-rule="nonzero"/><path fill="#000000" d="m258.48438 485.74246q0 -1.515625 0.453125 -2.59375q0.453125 -1.09375 1.203125 -1.625q0.59375 -0.421875 1.21875 -0.421875q1.015625 0 1.828125 1.03125q1.0 1.28125 1.0 3.46875q0 1.53125 -0.453125 2.609375q-0.4375 1.078125 -1.125 1.5625q-0.671875 0.484375 -1.3125 0.484375q-1.265625 0 -2.109375 -1.484375q-0.703125 -1.265625 -0.703125 -3.03125zm1.265625 0.15625q0 1.828125 0.453125 2.984375q0.375 0.96875 1.109375 0.96875q0.34375 0 0.71875 -0.3125q0.390625 -0.328125 0.578125 -1.0625q0.296875 -1.125 0.296875 -3.15625q0 -1.515625 -0.3125 -2.515625q-0.234375 -0.75 -0.59375 -1.0625q-0.265625 -0.21875 -0.65625 -0.21875q-0.4375 0 -0.78125 0.390625q-0.46875 0.546875 -0.640625 1.703125q-0.171875 1.15625 -0.171875 2.28125z" fill-rule="nonzero"/><path fill="#000000" d="m304.67188 482.9612q0.375 -0.890625 0.953125 -1.375q0.578125 -0.484375 1.4375 -0.484375q1.0625 0 1.625 0.6875q0.4375 0.515625 0.4375 1.09375q0 0.96875 -1.21875 2.0q0.8125 0.3125 1.234375 0.90625q0.421875 0.59375 0.421875 1.390625q0 1.140625 -0.734375 1.984375q-0.953125 1.09375 -2.75 1.09375q-0.890625 0 -1.21875 -0.21875q-0.3125 -0.21875 -0.3125 -0.484375q0 -0.1875 0.140625 -0.328125q0.15625 -0.140625 0.375 -0.140625q0.15625 0 0.328125 0.046875q0.109375 0.03125 0.5 0.25q0.390625 0.203125 0.546875 0.234375q0.234375 0.078125 0.515625 0.078125q0.65625 0 1.140625 -0.515625q0.5 -0.515625 0.5 -1.21875q0 -0.515625 -0.234375 -1.0q-0.15625 -0.359375 -0.359375 -0.5625q-0.28125 -0.25 -0.78125 -0.453125q-0.484375 -0.21875 -0.984375 -0.21875l-0.203125 0l0 -0.203125q0.5 -0.0625 1.015625 -0.359375q0.53125 -0.3125 0.765625 -0.734375q0.234375 -0.4375 0.234375 -0.953125q0 -0.671875 -0.421875 -1.078125q-0.421875 -0.421875 -1.046875 -0.421875q-1.015625 0 -1.6875 1.078125l-0.21875 -0.09375zm7.5546875 -0.8125l2.140625 -1.046875l0.21875 0l0 7.4375q0 0.75 0.0625 0.9375q0.0625 0.171875 0.25 0.28125q0.203125 0.09375 0.796875 0.109375l0 0.234375l-3.3125 0l0 -0.234375q0.625 -0.015625 0.796875 -0.109375q0.1875 -0.09375 0.25 -0.25q0.078125 -0.171875 0.078125 -0.96875l0 -4.75q0 -0.96875 -0.0625 -1.25q-0.046875 -0.203125 -0.171875 -0.296875q-0.109375 -0.09375 -0.28125 -0.09375q-0.234375 0 -0.671875 0.203125l-0.09375 -0.203125zm10.8828125 -0.875l-0.5 1.109375l-2.65625 0l-0.578125 1.1875q1.71875 0.25 2.734375 1.28125q0.859375 0.890625 0.859375 2.078125q0 0.703125 -0.28125 1.296875q-0.28125 0.59375 -0.71875 1.015625q-0.421875 0.40625 -0.953125 0.65625q-0.75 0.359375 -1.53125 0.359375q-0.796875 0 -1.15625 -0.265625q-0.359375 -0.28125 -0.359375 -0.59375q0 -0.1875 0.140625 -0.328125q0.15625 -0.140625 0.390625 -0.140625q0.15625 0 0.28125 0.0625q0.140625 0.046875 0.4375 0.25q0.484375 0.34375 1.0 0.34375q0.75 0 1.328125 -0.578125q0.578125 -0.578125 0.578125 -1.40625q0 -0.796875 -0.515625 -1.484375q-0.515625 -0.6875 -1.421875 -1.078125q-0.703125 -0.28125 -1.921875 -0.328125l1.6875 -3.4375l3.15625 0z" fill-rule="nonzero"/><path fill="#000000" d="m350.48438 485.74246q0 -1.515625 0.453125 -2.59375q0.453125 -1.09375 1.203125 -1.625q0.59375 -0.421875 1.21875 -0.421875q1.015625 0 1.828125 1.03125q1.0 1.28125 1.0 3.46875q0 1.53125 -0.453125 2.609375q-0.4375 1.078125 -1.125 1.5625q-0.671875 0.484375 -1.3125 0.484375q-1.265625 0 -2.109375 -1.484375q-0.703125 -1.265625 -0.703125 -3.03125zm1.265625 0.15625q0 1.828125 0.453125 2.984375q0.375 0.96875 1.109375 0.96875q0.34375 0 0.71875 -0.3125q0.390625 -0.328125 0.578125 -1.0625q0.296875 -1.125 0.296875 -3.15625q0 -1.515625 -0.3125 -2.515625q-0.234375 -0.75 -0.59375 -1.0625q-0.265625 -0.21875 -0.65625 -0.21875q-0.4375 0 -0.78125 0.390625q-0.46875 0.546875 -0.640625 1.703125q-0.171875 1.15625 -0.171875 2.28125z" fill-rule="nonzero"/><path fill="#000000" d="m408.25 485.92996l-7.015625 0l0 -0.53125l7.015625 0l0 0.53125zm6.2353516 -4.828125l0 0.234375q-0.859375 0.078125 -1.40625 0.34375q-0.53125 0.25 -1.0625 0.78125q-0.53125 0.53125 -0.890625 1.1875q-0.34375 0.640625 -0.578125 1.53125q0.9375 -0.65625 1.890625 -0.65625q0.90625 0 1.5625 0.734375q0.671875 0.734375 0.671875 1.875q0 1.109375 -0.671875 2.015625q-0.8125 1.109375 -2.140625 1.109375q-0.90625 0 -1.53125 -0.59375q-1.234375 -1.171875 -1.234375 -3.03125q0 -1.171875 0.46875 -2.234375q0.46875 -1.078125 1.34375 -1.90625q0.890625 -0.828125 1.703125 -1.109375q0.8125 -0.28125 1.5 -0.28125l0.375 0zm-4.046875 4.546875q-0.109375 0.875 -0.109375 1.421875q0 0.625 0.21875 1.359375q0.234375 0.734375 0.703125 1.15625q0.328125 0.3125 0.796875 0.3125q0.5625 0 1.0 -0.53125q0.453125 -0.546875 0.453125 -1.53125q0 -1.109375 -0.4375 -1.921875q-0.4375 -0.8125 -1.25 -0.8125q-0.25 0 -0.53125 0.109375q-0.28125 0.09375 -0.84375 0.4375zm5.4453125 4.640625l0 -0.25q0.84375 -0.015625 1.5625 -0.390625q0.734375 -0.375 1.40625 -1.328125q0.6875 -0.953125 0.96875 -2.09375q-1.03125 0.65625 -1.859375 0.65625q-0.921875 0 -1.59375 -0.71875q-0.65625 -0.71875 -0.65625 -1.90625q0 -1.15625 0.65625 -2.0625q0.796875 -1.09375 2.09375 -1.09375q1.078125 0 1.859375 0.890625q0.953125 1.109375 0.953125 2.75q0 1.46875 -0.734375 2.75q-0.71875 1.265625 -2.0 2.109375q-1.046875 0.6875 -2.28125 0.6875l-0.375 0zm4.03125 -4.546875q0.125 -0.84375 0.125 -1.34375q0 -0.640625 -0.21875 -1.359375q-0.21875 -0.734375 -0.609375 -1.125q-0.390625 -0.390625 -0.890625 -0.390625q-0.578125 0 -1.015625 0.515625q-0.4375 0.515625 -0.4375 1.546875q0 1.375 0.578125 2.15625q0.421875 0.546875 1.046875 0.546875q0.296875 0 0.703125 -0.140625q0.40625 -0.140625 0.71875 -0.40625zm2.6015625 -2.78125q0.375 -0.890625 0.953125 -1.375q0.578125 -0.484375 1.4375 -0.484375q1.0625 0 1.625 0.6875q0.4375 0.515625 0.4375 1.09375q0 0.96875 -1.21875 2.0q0.8125 0.3125 1.234375 0.90625q0.421875 0.59375 0.421875 1.390625q0 1.140625 -0.734375 1.984375q-0.953125 1.09375 -2.75 1.09375q-0.890625 0 -1.21875 -0.21875q-0.3125 -0.21875 -0.3125 -0.484375q0 -0.1875 0.140625 -0.328125q0.15625 -0.140625 0.375 -0.140625q0.15625 0 0.328125 0.046875q0.109375 0.03125 0.5 0.25q0.390625 0.203125 0.546875 0.234375q0.234375 0.078125 0.515625 0.078125q0.65625 0 1.140625 -0.515625q0.5 -0.515625 0.5 -1.21875q0 -0.515625 -0.234375 -1.0q-0.15625 -0.359375 -0.359375 -0.5625q-0.28125 -0.25 -0.78125 -0.453125q-0.484375 -0.21875 -0.984375 -0.21875l-0.203125 0l0 -0.203125q0.5 -0.0625 1.015625 -0.359375q0.53125 -0.3125 0.765625 -0.734375q0.234375 -0.4375 0.234375 -0.953125q0 -0.671875 -0.421875 -1.078125q-0.421875 -0.421875 -1.046875 -0.421875q-1.015625 0 -1.6875 1.078125l-0.21875 -0.09375z" fill-rule="nonzero"/><path fill="#000000" d="m452.48438 485.74246q0 -1.515625 0.453125 -2.59375q0.453125 -1.09375 1.203125 -1.625q0.59375 -0.421875 1.21875 -0.421875q1.015625 0 1.828125 1.03125q1.0 1.28125 1.0 3.46875q0 1.53125 -0.453125 2.609375q-0.4375 1.078125 -1.125 1.5625q-0.671875 0.484375 -1.3125 0.484375q-1.265625 0 -2.109375 -1.484375q-0.703125 -1.265625 -0.703125 -3.03125zm1.265625 0.15625q0 1.828125 0.453125 2.984375q0.375 0.96875 1.109375 0.96875q0.34375 0 0.71875 -0.3125q0.390625 -0.328125 0.578125 -1.0625q0.296875 -1.125 0.296875 -3.15625q0 -1.515625 -0.3125 -2.515625q-0.234375 -0.75 -0.59375 -1.0625q-0.265625 -0.21875 -0.65625 -0.21875q-0.4375 0 -0.78125 0.390625q-0.46875 0.546875 -0.640625 1.703125q-0.171875 1.15625 -0.171875 2.28125z" fill-rule="nonzero"/><path fill="#000000" d="m504.20312 486.85184l0 0.921875l-1.1875 0l0 2.328125l-1.078125 0l0 -2.328125l-3.734375 0l0 -0.828125l4.09375 -5.84375l0.71875 0l0 5.75l1.1875 0zm-2.265625 0l0 -4.390625l-3.09375 4.390625l3.09375 0zm8.8359375 1.546875l-0.609375 1.703125l-5.21875 0l0 -0.234375q2.296875 -2.109375 3.234375 -3.421875q0.9375 -1.328125 0.9375 -2.4375q0 -0.84375 -0.515625 -1.375q-0.515625 -0.546875 -1.21875 -0.546875q-0.65625 0 -1.171875 0.390625q-0.515625 0.375 -0.765625 1.109375l-0.234375 0q0.15625 -1.203125 0.828125 -1.84375q0.671875 -0.640625 1.6875 -0.640625q1.0625 0 1.78125 0.6875q0.734375 0.6875 0.734375 1.625q0 0.671875 -0.3125 1.34375q-0.484375 1.046875 -1.5625 2.21875q-1.625 1.78125 -2.03125 2.140625l2.296875 0q0.703125 0 0.984375 -0.046875q0.296875 -0.0625 0.515625 -0.21875q0.234375 -0.15625 0.40625 -0.453125l0.234375 0zm1.2578125 1.890625l0 -0.25q0.84375 -0.015625 1.5625 -0.390625q0.734375 -0.375 1.40625 -1.328125q0.6875 -0.953125 0.96875 -2.09375q-1.03125 0.65625 -1.859375 0.65625q-0.921875 0 -1.59375 -0.71875q-0.65625 -0.71875 -0.65625 -1.90625q0 -1.15625 0.65625 -2.0625q0.796875 -1.09375 2.09375 -1.09375q1.078125 0 1.859375 0.890625q0.953125 1.109375 0.953125 2.75q0 1.46875 -0.734375 2.75q-0.71875 1.265625 -2.0 2.109375q-1.046875 0.6875 -2.28125 0.6875l-0.375 0zm4.03125 -4.546875q0.125 -0.84375 0.125 -1.34375q0 -0.640625 -0.21875 -1.359375q-0.21875 -0.734375 -0.609375 -1.125q-0.390625 -0.390625 -0.890625 -0.390625q-0.578125 0 -1.015625 0.515625q-0.4375 0.515625 -0.4375 1.546875q0 1.375 0.578125 2.15625q0.421875 0.546875 1.046875 0.546875q0.296875 0 0.703125 -0.140625q0.40625 -0.140625 0.71875 -0.40625z" fill-rule="nonzero"/></g></svg>